<svg xmlns="http://www.w3.org/2000/svg" viewBox="0 0 5321 3548" id="business-schedule"><rect width="5320" height="3547" x=".5" y=".5" fill="#fff" stroke="#231f20" stroke-miterlimit="10"></rect><g><path fill="#f3f6ff" d="M4606.32,3384.29s-3299-39.16-3345.91-39.78S755.17,3217.37,769,2965.81c4-72.46-29.15-196.81-68.38-357.19C603.65,2211.87,469.56,1594.47,769,997.3c311.62-621.49,998-456.21,1466.4-545.9S2916.2,68.27,3832.63,193.23,4472.5,1073,4538.43,1594.74c59.65,472.41,38,280.71,126,603.64,9.19,33.71,19.55,73,31.33,119.25C4820.57,2807.13,4606.32,3384.29,4606.32,3384.29Z" transform="translate(.5 .5)"></path><path fill="#dde2ff" d="M4606.32,3384.29s-3299-39.16-3345.91-39.78S755.17,3217.37,769,2965.81c4-72.46-29.15-196.81-68.38-357.19,1825-613,1647,308.36,2923.83,369.58,792.69,38.07,999.17-419.29,1040-779.82,9.19,33.71,19.55,73,31.33,119.25C4820.57,2807.13,4606.32,3384.29,4606.32,3384.29Z" transform="translate(.5 .5)"></path><path fill="#bdcced" d="M4532,2950.17h-42.7c33.33-43,76.12-110,60.73-154.77-24.28-70.62-114.72,86-147.78,0s130.12-286.8,92.63-339.75-95.41-11.56-95.41-11.56,121.78-270.78-1.69-279.63-225,48.53-141.13,258.13,123.51,328.67,57.35,308.81-99.26-145.59-147.79-88.21-68.39,114.69,28.67,161,178.4-24.83,134.55,125.74c-2.87,9.87-7.15,16.19-12,20.22h-36.13c-19.56,0-35.43,20.09-35.43,44.85v3.61l27.61,314.47a27.78,27.78,0,0,0,7.82,1.11H4532a26.67,26.67,0,0,0,6.33-.74l28.6-325.85C4564.11,2966.37,4549.52,2950.17,4532,2950.17Zm-355.88-195.58a8.84,8.84,0,1,1,8.81-8.85A8.83,8.83,0,0,1,4176.08,2754.59Zm22.05-46.34a22.06,22.06,0,1,1,22.06-22.05A22,22,0,0,1,4198.13,2708.25Zm39.72,64.51a18.2,18.2,0,1,1,18.21-18.17A18.18,18.18,0,0,1,4237.85,2772.76Zm48.53,26.48a9.38,9.38,0,1,1,9.36-9.36A9.35,9.35,0,0,1,4286.38,2799.24Zm43-26.62a10.34,10.34,0,1,1,10.35-10.32A10.3,10.3,0,0,1,4329.39,2772.62Zm191.93,33.53a17.1,17.1,0,1,1-17.12,17.08A17.08,17.08,0,0,1,4521.32,2806.15Zm0,81.89a22.07,22.07,0,1,1-22-22.06A22,22,0,0,1,4521.32,2888Zm-44.69-64.81a8.56,8.56,0,1,1-8.52,8.56A8.57,8.57,0,0,1,4476.63,2823.23Zm-43.56,38.33a12.58,12.58,0,0,1,5,1,13.21,13.21,0,0,1,0,24.5,12.58,12.58,0,0,1-5,1,13.24,13.24,0,1,1,0-26.48Zm-26.48-29.77a21,21,0,1,1-20.95-21A21,21,0,0,1,4406.59,2831.79Zm-30.31,72.78a11.58,11.58,0,1,1-11.6-11.56A11.6,11.6,0,0,1,4376.28,2904.57Zm9.36-225a22.07,22.07,0,1,1,22-22.06A22.06,22.06,0,0,1,4385.64,2679.58Zm-14.89-196.36a10.48,10.48,0,1,1,10.5,10.5A10.46,10.46,0,0,1,4370.75,2483.22Zm86.61-8.81a19.31,19.31,0,1,1-19.31,19.31A19.28,19.28,0,0,1,4457.36,2474.41Zm-49.67,86.78a12.49,12.49,0,1,1-12.47,12.51A12.51,12.51,0,0,1,4407.69,2561.19ZM4389,2227.33a25.38,25.38,0,1,1-25.38,25.38A25.36,25.36,0,0,1,4389,2227.33Zm-19.86,90.33a21.09,21.09,0,1,1-21.07,21.1A21.08,21.08,0,0,1,4369.11,2317.66ZM4268.86,2257a21.09,21.09,0,1,1,21.11,21.06A21.1,21.1,0,0,1,4268.86,2257Zm9.81,149a28.67,28.67,0,1,1,28.67,28.67A28.66,28.66,0,0,1,4278.67,2406Zm61.07,154.44a17.65,17.65,0,1,1,17.63-17.66A17.65,17.65,0,0,1,4339.74,2560.46Zm87.81,370.59a26.39,26.39,0,0,1,25.32,19.12h-50.63A26.41,26.41,0,0,1,4427.55,2931.05Z" transform="translate(.5 .5)"></path><path fill="#d5dcf9" d="M4149.57,758H1768.51a192.9,192.9,0,0,0-41.14,119.45V2539.16H4190.71V877.44A192.9,192.9,0,0,0,4149.57,758Z" transform="translate(.5 .5)"></path><path fill="#b6c4ef" d="M4190.71,877.44H1727.37a194.15,194.15,0,0,1,194-194.09h2075.3a193.42,193.42,0,0,1,137.22,56.87A183.73,183.73,0,0,1,4149.57,758,192.9,192.9,0,0,1,4190.71,877.44Z" transform="translate(.5 .5)"></path><rect width="1859.82" height="1033.65" x="2061.24" y="1351.02" fill="#f0f3fc"></rect><rect width="16.33" height="1038.9" x="2053.25" y="1351.32" fill="#8d8dcb"></rect><rect width="16.33" height="1038.9" x="2307.43" y="1351.32" fill="#8d8dcb"></rect><rect width="16.33" height="1038.9" x="2587.04" y="1351.32" fill="#8d8dcb"></rect><rect width="16.33" height="1038.9" x="2841.22" y="1351.32" fill="#8d8dcb"></rect><rect width="16.33" height="1038.9" x="3120.82" y="1351.32" fill="#8d8dcb"></rect><rect width="16.33" height="1038.9" x="3375.01" y="1351.32" fill="#8d8dcb"></rect><rect width="16.33" height="1038.9" x="3654.61" y="1351.32" fill="#8d8dcb"></rect><rect width="16.33" height="1038.9" x="3908.8" y="1351.32" fill="#8d8dcb"></rect><rect width="10.49" height="1867.99" x="2985.39" y="1450.48" fill="#8d8dcb" transform="rotate(-90 2991.135 2384.475)"></rect><rect width="10.49" height="1867.99" x="2985.39" y="1270.92" fill="#8d8dcb" transform="rotate(-90 2991.135 2204.905)"></rect><rect width="10.49" height="1867.99" x="2985.39" y="1107.68" fill="#8d8dcb" transform="rotate(-90 2991.135 2041.665)"></rect><rect width="10.49" height="1867.99" x="2985.39" y="928.11" fill="#8d8dcb" transform="rotate(-90 2991.135 1862.105)"></rect><rect width="10.49" height="1867.99" x="2985.39" y="764.87" fill="#8d8dcb" transform="rotate(-90 2991.135 1698.865)"></rect><rect width="10.49" height="1867.99" x="2985.39" y="585.31" fill="#8d8dcb" transform="rotate(-90 2991.135 1519.305)"></rect><rect width="10.49" height="1867.99" x="2985.39" y="422.07" fill="#8d8dcb" transform="rotate(-90 2991.135 1356.065)"></rect><path fill="#e7b500" d="M2060.26,2212.44l-7.24-4.58L2312.07,2039l.75-.24c204-65.63,512-166.06,524.31-173.71,16.23-10.42,276.86-162.14,287.95-168.59l3.52-2.06,257.61,160.13L3674,2039.36l254.24,168.52-7.3,4.54-254.19-168.48-287.71-184.77-250.7-155.83c-31.93,18.59-269,156.65-284.06,166.32-16.37,10.51-470.5,156.77-526.19,174.69Z" transform="translate(.5 .5)"></path><ellipse cx="3128.99" cy="1704.61" fill="#e7b500" rx="32.67" ry="20.98"></ellipse><ellipse cx="3383.18" cy="1857.36" fill="#e7b500" rx="32.67" ry="20.98"></ellipse><ellipse cx="3662.78" cy="1519.8" fill="#e7b500" rx="32.67" ry="20.98"></ellipse><ellipse cx="3662.97" cy="2038.78" fill="#e7b500" rx="32.67" ry="20.98"></ellipse><ellipse cx="2849.39" cy="2038.78" fill="#e7b500" rx="32.67" ry="20.98"></ellipse><ellipse cx="2603.37" cy="2191.96" fill="#e7b500" rx="32.67" ry="20.98"></ellipse><ellipse cx="2315.6" cy="2042.17" fill="#e7b500" rx="32.67" ry="20.98"></ellipse><path fill="#e7b500" d="M2603,2203.08l-1.76-1c-66.87-36.48-285.3-155.71-288.35-158.41-3.85-3.13-170.58-122.13-258.2-184.6l4-4.49c25.87,18.45,250.68,178.76,258.53,184.86,5.54,3.8,188.16,103.62,285.6,156.78l252.75-151.89.31-.12,528.32-192.09,275.53-334.56,5.18,3.4-276.61,335.87-529.69,192.59Zm-285.77-163.6.18.15Z" transform="translate(.5 .5)"></path><path fill="#8d8dcb" d="M2182.33 1151.63h-125.2a.46.46 0 00-.49.43v111.82a.46.46 0 00.49.44h125.2a.46.46 0 00.49-.44V1152.06A.46.46 0 002182.33 1151.63zm-67.07 95.43l-50.39-42 22.1-11.51 27 35.09 37.45-59.77 23.16 10.4zM2182.33 957.83h-125.2a.47.47 0 00-.49.44v111.82a.47.47 0 00.49.44h125.2a.47.47 0 00.49-.44V958.27A.47.47 0 002182.33 957.83zm-67.07 95.44l-50.39-42 22.1-11.52 27 35.09 37.45-59.76 23.16 10.39z" transform="translate(.5 .5)"></path><rect width="697.81" height="17.26" x="2235.9" y="1247.56" fill="#8d8dcb"></rect><rect width="544.22" height="17.26" x="2235.9" y="1182.97" fill="#8d8dcb"></rect><rect width="697.81" height="17.26" x="2235.9" y="1053.77" fill="#8d8dcb"></rect><rect width="381.23" height="17.26" x="2235.9" y="989.17" fill="#8d8dcb"></rect><path fill="#8d8dcb" d="M1993.92 606a32.11 32.11 0 00-32.11 32.1V814.71a32.11 32.11 0 0064.21 0V638.13A32.1 32.1 0 001993.92 606zM2198.22 606a32.1 32.1 0 00-32.1 32.1V814.71a32.11 32.11 0 0064.21 0V638.13A32.11 32.11 0 002198.22 606zM2402.52 606a32.1 32.1 0 00-32.1 32.1V814.71a32.11 32.11 0 0064.21 0V638.13A32.11 32.11 0 002402.52 606zM2606.82 606a32.1 32.1 0 00-32.1 32.1V814.71a32.11 32.11 0 0064.21 0V638.13A32.11 32.11 0 002606.82 606zM2811.13 606a32.1 32.1 0 00-32.11 32.1V814.71a32.11 32.11 0 0064.21 0V638.13A32.1 32.1 0 002811.13 606zM3015.43 606a32.11 32.11 0 00-32.11 32.1V814.71a32.11 32.11 0 0064.21 0V638.13A32.1 32.1 0 003015.43 606zM3219.73 606a32.11 32.11 0 00-32.11 32.1V814.71a32.11 32.11 0 0064.21 0V638.13A32.1 32.1 0 003219.73 606zM3424 606a32.1 32.1 0 00-32.1 32.1V814.71a32.1 32.1 0 1064.2 0V638.13A32.1 32.1 0 003424 606zM3628.33 606a32.1 32.1 0 00-32.1 32.1V814.71a32.11 32.11 0 0064.21 0V638.13A32.11 32.11 0 003628.33 606zM3832.63 606a32.1 32.1 0 00-32.1 32.1V814.71a32.11 32.11 0 0064.21 0V638.13A32.11 32.11 0 003832.63 606z" transform="translate(.5 .5)"></path><path fill="#f3eed3" d="M730.67,2836.5v141a69.17,69.17,0,0,0,69.26,69.26H2353.11V2767.24H799.93A69.18,69.18,0,0,0,730.67,2836.5Z" transform="translate(.5 .5)"></path><path fill="#5ac0ad" d="M730.67,2836.5v141a69.17,69.17,0,0,0,69.26,69.26H2353.11V2767.24H799.93A69.18,69.18,0,0,0,730.67,2836.5Z" transform="translate(.5 .5)"></path><path fill="#f3eed3" d="M769,2849.91v115.86c0,31.5,30.21,56.93,67.62,56.93H2353.11V2793H836.62C799.21,2793,769,2818.42,769,2849.91Z" transform="translate(.5 .5)"></path><path fill="#5ac0ad" d="M730.67,2836.5v141a69.17,69.17,0,0,0,69.26,69.26H2362.45v-19.15H857.4a175.22,175.22,0,0,1-23.09-1.48H823.5c-25,0-46.17-11.29-58-28-.49-.49-1-1-1-1.47a20.41,20.41,0,0,1-4.42-6.88,27.75,27.75,0,0,1-2-5.89,41.47,41.47,0,0,1-3.44-17.19V2845.83c0-32.91,30.46-59.44,68.77-59.44H2362.45v-19.15H799.93A69.18,69.18,0,0,0,730.67,2836.5Z" transform="translate(.5 .5)"></path><path fill="#5ac0ad" d="M2353.11,2776.57c0,5.41,3.93,9.82,9.34,9.82s9.33-4.41,9.33-9.82a9.34,9.34,0,0,0-18.67,0Z" transform="translate(.5 .5)"></path><ellipse cx="2362.95" cy="3037.69" fill="#5ac0ad" rx="9.4" ry="9.54"></ellipse><path fill="#db4949" d="M2514,2527.89v-31.21H963.74C896.41,2496.68,842,2557.24,842,2632c0,37.36,13.75,71,35.72,95.66,21.75,24.63,52.34,39.62,86,39.62H2514v-21.55h-23.61v-217.8Z" transform="translate(.5 .5)"></path><path fill="#ffede3" d="M1954.61,2527.89H1749.34c-65.28,0-118.24,48.65-118.24,108.79s53,109,118.24,109h741.05v-217.8Z" transform="translate(.5 .5)"></path><path fill="#2752c1" d="M842,3074.85v-31.2H2392.27c67.33,0,121.73,60.56,121.73,135.28,0,37.36-13.76,71-35.72,95.66-21.76,24.63-52.35,39.62-86,39.62H842v-21.56h23.6v-217.8Z" transform="translate(.5 .5)"></path><path fill="#ffede3" d="M1401.39,3074.85h205.28c65.28,0,118.24,48.65,118.24,108.8s-53,109-118.24,109H865.61v-217.8Z" transform="translate(.5 .5)"></path><path fill="#f4f4ed" d="M2344.9 3066.36s8.82 25.54 8.76 27.84-20.08 30.81-30.08 34.75-270.55-3.47-284.2-10.75 2.55-45.24 2.55-45.24zM2350.84 2813.72s.31 2.86 1 6.89c1.38 7.7 4.24 19.67 9.2 24.08 7.54 6.71 197.09 49.48 213 49.48 47.81 0 58.82-51.27 58.82-51.27z" transform="translate(.5 .5)"></path><path fill="#212120" d="M2336.94,2770.32s13.62,51.16,21.81,57.87,218.42,61,233.52,54.26,60.95-28.5,33-80c-13.77-25.36-208-93.37-208-93.37Z" transform="translate(.5 .5)"></path><path fill="#f8bd9f" d="M2431.78 2709.1s23.22 21.52 21.54 34.94-25.16 46.17-33.54 52-28.52 16.17-52.84 5-33.55-43.51-33.55-43.51zM2134.72 2885s16 133.78 28.41 158.53-116.75 3-116.75 3-7.21-96.91-39.47-149.31S2134.72 2885 2134.72 2885z" transform="translate(.5 .5)"></path><path fill="#212120" d="M2040.51,3003.39s-8.55,85.24.36,94.43,261.91,22.58,278.28,11.21,28.66-29.57,25.75-42.67-47.94-41.76-96.34-43-97.3-28.07-97.3-28.07S2104.65,3040.69,2040.51,3003.39Z" transform="translate(.5 .5)"></path><path fill="#2d287c" d="M1827.37,2104.6s275.09,333.25,275.09,361.42,48,429.06,33.92,443.61c-22.73,23.49-104.37,29.64-144.63-43.05-44.23-79.86-119.65-294.11-92.81-400.56,17.92-71.1-228.13-240.22-228.13-240.22Z" transform="translate(.5 .5)"></path><path fill="#4230d4" d="M1452.83,2095.65s-19.21,197.09,40.17,310.2c70.45,134.19,570.36,99.68,570.36,99.68s93.42,139.75,295.19,257.61c56.47,33,87.23-55.36,87.23-55.36s-266.71-362.32-283.49-382.45-411-147.61-411-147.61Z" transform="translate(.5 .5)"></path><path fill="#f2af8c" d="M1599.75,1406.35l-11.27,191.11-1.54,26s90.91,140.81,97.47,130.51c1.94-3,7.64-14.59,14.64-29.19,16.64-34.71,40.84-87.17,40.84-87.17l4.16-208.07Z" transform="translate(.5 .5)"></path><path fill="#f8bd9f" d="M1698.4,1544.83c20.49,2.73,105.16-90.13,98.33-127s10.92-99.7,10.92-99.7c-42.33-127-178.9-95.59-243.08-41s10.92,153,22.3,170.71S1677.92,1542.1,1698.4,1544.83Z" transform="translate(.5 .5)"></path><path fill="#212120" d="M1807.66,1327.23c-4-.68-79.71-49.06-172.11-6.67,0,0,6.67,16.2-3.81,41.92s-12.38,53.34-12.38,53.34-17.11-72.4-32.85-77.16-28.12,21-14.78,43.82,26.88,67.5,25.71,78.3-2.89,33.72-2.89,33.72-104.75-151.08-84.74-206.33,55.58-44.77,55.58-44.77,79.69-86.68,161.61-57.15,85.73,73.35,111.45,80,36.2,0,36.2,0S1852.11,1334.85,1807.66,1327.23Z" transform="translate(.5 .5)"></path><path fill="#f8bd9f" d="M2307.69,1644.28c8.48.71,65.59-43.48,72.06-45.9,6.65-2.48,49.53-40.64,55-45.17s11.75-26.62,10.37-28.76-13.87,12.89-18.46,16.64c-3.78,3.06-31.86,24.46-41.93,33.17,9.52-9.66,32-32.1,39-41.32,4.61-6.11,16.91-29.87,16.91-29.87,1.35-7.21-3.45-11.5-7.2-15.1-4.07,7.27-13.9,23.22-16.59,26.93-4.35,6-43.64,43.73-45.47,45.78s32.22-43.86,36.07-50c2.78-4.43,15.15-25,19-34.14-1.42-10.79-8.41-10.1-9.31-10.62-15.64,27.51-57,75.69-58.34,77.23,1.1-1.63,34.86-53.88,36.73-57.45,11.85-22.64,14.27-34.77,12-37.22a10.92,10.92,0,0,0-1-.54c-10-5.09-40,51-42.06,54.44s-47.31,57.6-45.49,38.82c2.14-22.2-.23-54.15-8.28-57.92s-25,67-24.17,71.3c-.5,16.84-3.6,44.34-12.45,56C2274.1,1610.48,2284.77,1635.12,2307.69,1644.28Z" transform="translate(.5 .5)"></path><path fill="#c1960e" d="M2274.74,1592.16c-16.79-13.66-249.43,193.09-249.43,193.09s-104.42-158-130.31-181.33a46.6,46.6,0,0,0-7.21-5.12c-37.18-21.82-145.2-36-145.2-36l-49,114.28c-44-39.64-101.77-110.87-101.77-110.87s-127.37,10.25-157.9,28.55l-1.52,1c-35.09,24-227.52,232.17-229.42,302.73-2.37,92.18,120.92,155.53,230.84,194.32l1.14.29a14.23,14.23,0,0,0,2.37.85c82.7,28.93,156.87,43.72,162.75,46.38,8.44,3.79-105.47,47.32-134.3,50.17a15.85,15.85,0,0,1-4.27,0c4.37,13.66,9.87,23.61,16.6,28.45,22.67,16.31,97.69,17.74,175.93,12.52,3.89-.28,7.68-.47,11.57-.85,32.44-2.28,65-5.79,94.18-9.77l4.55-.67c42.2-5.78,77.1-12.61,93.89-18.58,5.69-2.09,26.4-17.11,27.64-18.82,13.27-19.16-10.95-316.63-11.42-336.93v-1s94.17,113.52,125,115c44.95,2.27,323.21-264.51,326.15-306.62C2327.18,1629.53,2291.52,1605.91,2274.74,1592.16Zm-749.9,400.32c-35.38-15.46-66.2-31.39-90.76-45-36.9-20.68-59.56-36.51-62.41-38.51a.94.94,0,0,1-.28-.19l.75-.66c6-5.12,43.73-37.84,64.21-52.82l.38-.29c6.45-4.65,11.1-7.59,12.43-7.21,0,0,155.34,67.62,164.07,177.73A905.14,905.14,0,0,1,1524.84,1992.48Zm-64.59,194.14c-1.8,2.27-1.23,3.51,1.23,3.79C1461,2189.18,1460.63,2187.94,1460.25,2186.62Z" transform="translate(.5 .5)"></path><path fill="#c1960e" d="M1440.51,1780.55s-24.44,370.19,19.79,406.11,183.44,7.46,185.47,7.46,118.52-188,118.52-188l-215-172.75Z" transform="translate(.5 .5)"></path><path fill="#e7b500" d="M2325.57 1653.14c-2.94 42.11-281.2 308.89-326.15 306.62-30.83-1.52-125-115-125-115v1c-29.88-126.14 13.37-247 13.37-247a46.6 46.6 0 017.21 5.12c25.89 23.33 130.31 181.33 130.31 181.33S2258 1578.5 2274.74 1592.16 2327.18 1629.53 2325.57 1653.14zM1764.31 2220.09l-4.55.67L1665.49 2234c.09-1.14.09-2.28.09-3.51 8-182.19-73.79-664.36-73.79-664.36s57.76 71.23 101.77 110.87l49-114.28C1773.22 1585.71 1764.31 2220.09 1764.31 2220.09z" transform="translate(.5 .5)"></path><path fill="#f8bd9f" d="M1575.56,2106.9c6.18,6.66,83.06,12.79,89.92,15.53,7,2.82,68.34,3.49,75.9,3.83s28.42-12.59,28.87-15.27-20.23.21-26.55-.12c-5.18-.31-42.75-3.57-57-3.93,14.46-.79,48.37-2.34,60.5-4.62,8-1.51,34.83-11.44,34.83-11.44,6.25-4.74,5.54-11.58,5.16-17.11-8.44,2.82-27.67,8.35-32.46,9.35-7.76,1.63-65.91,3.18-68.83,3.49s57-11.5,64.47-13.62c5.38-1.5,30-8.88,39.55-13.33,6.62-9.54.61-14,.27-15.07-32.14,10.49-99.42,18.84-101.6,19.08,2-.5,66.26-17.51,70.31-19,25.64-9.38,36.26-17.22,36.26-20.77-.11-.35-.24-.75-.38-1.12-4.26-11.22-68.25,11.54-72.36,12.78s-78.78,11.5-63.84-2c17.64-16,38.74-42.94,35.09-51.72s-67.86,35-70.35,39c-12.5,13-34.71,32.44-50,35.25C1573.31,2056.05,1564,2083.19,1575.56,2106.9Z" transform="translate(.5 .5)"></path><path fill="#e7b500" d="M1579.75,2115.49c-25.51,4-122.72-17.45-142.45-21.91a18.47,18.47,0,0,0-2.37-.57l-1.14-.29c-109.92-38.79-233.21-102.14-230.84-194.32,1.9-70.56,194.33-278.74,229.42-302.73l1.52-1s36.41,106.32,24.75,194.61c-3.13,24-9.86,46.76-21.91,65.63l-.38.29-64.21,52.82-.75.66a.94.94,0,0,0,.28.19c3,1.52,29,15.08,62.5,33,28.07,15.17,61.36,33.48,90.67,50.55,40.78,23.52,73.78,44.67,74.16,51.21C1600.05,2061.05,1608.2,2111,1579.75,2115.49Z" transform="translate(.5 .5)"></path><path fill="#bdcced" d="M3769.31,3188.14c-148.77,23.55-239.67,182.24-239.67,182.24l-21-5.92q1.4-2.91,2.84-5.8c2.85-5.7,5.75-11.39,8.77-17a685.31,685.31,0,0,1,39.85-65.59c29-42.24,62.85-81.35,101.53-115.26,4.79-4.28,9.75-8.36,14.7-12.47l7.52-6c2.51-2,5.1-3.93,7.64-5.9,10.26-7.76,20.74-15.26,31.58-22.22s21.85-13.71,33.21-19.84l4.24-2.33,4.3-2.22c2.87-1.47,5.72-3,8.61-4.42,5.82-2.8,11.61-5.69,17.54-8.26a499,499,0,0,1,73.07-26.22,537.23,537.23,0,0,1,76.54-14.74,541.33,541.33,0,0,0-77.44,11.07,505.7,505.7,0,0,0-75.1,22.93c-6.14,2.33-12.15,5-18.2,7.52-3,1.32-6,2.72-9,4.07l-4.48,2.05-4.43,2.17c-11.86,5.68-23.42,12-34.82,18.57s-22.49,13.73-33.37,21.17c-2.7,1.88-5.45,3.71-8.11,5.65l-8,5.82c-5.27,4-10.55,7.91-15.69,12.06-41.35,32.87-78.15,71.43-110.19,113.56a711.56,711.56,0,0,0-44.5,65.87c-3.43,5.69-6.72,11.46-10,17.25q-3,5.4-5.92,10.86l-16-4.54s104.55-271,285-357.75c195.84-94.14,289.67-11.38,282.44,34.47C4020.31,3108,3968,3156.67,3769.31,3188.14Z" transform="translate(.5 .5)"></path><path fill="#cce1ff" d="M3768.61 3033.29c-200.24 70.27-286.09 313.21-286.09 313.21l-30.55-2.9c.8-2.92 1.62-5.83 2.46-8.75 2.51-8.63 5.09-17.25 7.86-25.81a964.56 964.56 0 0138.64-101c29.53-65.88 66.54-128.64 111.56-185.42 5.57-7.15 11.41-14.06 17.22-21l8.91-10.27c3-3.44 6.06-6.73 9.09-10.1 12.26-13.35 24.89-26.4 38.15-38.8s26.82-24.52 41-35.88l5.29-4.31 5.39-4.17c3.61-2.76 7.18-5.59 10.83-8.31 7.36-5.35 14.65-10.81 22.21-15.88a701.88 701.88 0 0194.65-54.82 758.18 758.18 0 01102.36-39.8 763.63 763.63 0 00-104.53 34.94 711.72 711.72 0 00-98.29 50.78c-7.93 4.78-15.59 9.95-23.34 15-3.83 2.59-7.6 5.28-11.4 7.91l-5.7 4-5.58 4.13c-15 10.88-29.44 22.52-43.57 34.55s-27.7 24.71-40.9 37.77c-3.26 3.3-6.61 6.53-9.82 9.9l-9.62 10.08c-6.3 6.83-12.63 13.64-18.69 20.69-49 56-90.26 118.77-124 185.27a1001.58 1001.58 0 00-45 102.55c-3.31 8.75-6.41 17.58-9.47 26.43q-2.79 8.26-5.46 16.55l-23.37-2.22s76.35-402.1 304.47-568c247.62-180 398.61-89 400.19-23.66C4096.21 2858.66 4036.08 2939.41 3768.61 3033.29zM3108.26 3027.83c143.3 96 161.49 304.63 161.49 304.63l24.62 3.92c0-2.45-.09-4.91-.15-7.38-.23-7.3-.5-14.61-.94-21.91a785.32 785.32 0 00-9.88-87.34c-9.85-57.84-26.22-114.76-50.11-168.6-2.93-6.75-6.12-13.38-9.28-20l-4.92-9.9c-1.63-3.3-3.41-6.53-5.11-9.8-6.93-13-14.22-25.83-22.13-38.28s-16.13-24.75-25-36.58l-3.29-4.46-3.4-4.37c-2.28-2.91-4.51-5.87-6.83-8.75-4.7-5.7-9.33-11.48-14.25-17a570.72 570.72 0 00-63.35-62.38 616.53 616.53 0 00-72.47-52.13 619.38 619.38 0 0175.17 48.75 579.35 579.35 0 0167 59.93c5.27 5.38 10.24 11 15.31 16.58 2.49 2.81 4.91 5.7 7.37 8.54l3.67 4.29 3.56 4.38c9.6 11.61 18.59 23.7 27.26 36s16.78 25.08 24.51 38c1.9 3.26 3.88 6.49 5.72 9.78l5.52 9.89c3.57 6.66 7.17 13.31 10.51 20.09 27.18 54 46.89 111.81 59.94 171a816.23 816.23 0 0114.58 89.85c.82 7.56 1.47 15.14 2.08 22.73q.52 7 .93 14.13l18.85 3s21.64-332-124.18-508.84c-158.28-192-295.6-151.09-310.13-100C2885.93 2823.81 2916.84 2899.58 3108.26 3027.83z" transform="translate(.5 .5)"></path><path fill="#bdcced" d="M3033.75 3182.92c127.66 25.1 201 165 201 165l18.28-4.44c-.73-1.69-1.49-3.39-2.25-5.09-2.28-5-4.6-10-7-15a591.84 591.84 0 00-32.3-57.9c-23.69-37.39-51.64-72.24-83.94-102.75-4-3.85-8.15-7.53-12.29-11.24l-6.3-5.46c-2.1-1.82-4.27-3.55-6.4-5.33-8.61-7-17.42-13.84-26.55-20.2s-18.42-12.53-28-18.18l-3.58-2.15-3.64-2.06c-2.43-1.36-4.85-2.76-7.3-4.09-4.93-2.61-9.84-5.28-14.87-7.69a431 431 0 00-62.24-25 465.08 465.08 0 00-65.6-15.18 466.55 466.55 0 0166.5 12 438 438 0 0164.09 22.2c5.23 2.21 10.32 4.68 15.47 7.08 2.56 1.24 5.08 2.54 7.62 3.8l3.8 1.92 3.75 2c10.06 5.29 19.84 11.08 29.46 17.15s19 12.57 28.13 19.34c2.27 1.71 4.59 3.38 6.83 5.14l6.72 5.28c4.42 3.59 8.86 7.17 13.15 10.92 34.65 29.69 65.17 64.16 91.48 101.56a615.12 615.12 0 0136.3 58.28c2.78 5 5.43 10.11 8.06 15.21q2.43 4.77 4.76 9.56l14-3.39s-81.56-237.31-234.51-318c-166-87.54-249.68-19.11-244.91 20.7C2819.65 3105.65 2863.22 3149.39 3033.75 3182.92zM3410.1 3340.58l-21.27 1.89.38-5.28.77-9.44q.8-9.47 1.71-19 1.8-19 3.92-37.92 4.24-37.93 9.7-75.76c7.3-50.4 16.13-100.62 27.19-150.37s24.31-99 41.49-147c4.27-12 8.89-23.88 13.76-35.66s10.06-23.44 15.71-34.88c11.26-22.87 24-45.13 39.54-65.57-16.89 19.32-31.29 40.81-44.23 63.07-6.48 11.13-12.51 22.53-18.27 34.06s-11.24 23.23-16.38 35.05c-20.72 47.26-37.51 96.18-52.21 145.63s-27.09 99.6-38 150.07q-8.14 37.84-15.12 76-3.47 19.07-6.65 38.21-1.57 9.57-3.07 19.19l-1.45 9.64-1.4 9.79 21.17 2.12-39.6 3.53c-4.41 0-23.52-252.82 32.34-396.88s160.22-271.94 207.25-242.54S3533.57 3183.3 3410.1 3340.58z" transform="translate(.5 .5)"></path><polygon fill="#606060" points="3389.33 3342.97 3389.03 3347 3367.89 3344.89 3389.33 3342.97"></polygon></g></svg>