<svg xmlns="http://www.w3.org/2000/svg" viewBox="0 0 1364 960" id="business-calendar"><path fill="#F4B8D6" d="M264.552 649.559a49.638 49.638 0 0 0-3.276-.368c-12.419-5.877-14.369-26.969-26.905-32.42-8.944-3.889-19.35 2.065-28.506-1.13-5.89-3.585-9.852-6.981-12.829-9.949l-.026-.011a4.643 4.643 0 0 1-.7-.715l-.027-.012c-9.585-9.662-9.199-14.516-34.744-6.606-18.137-10.994-13.958-20.272-37.669-7.708-.102.025-.227.038-.329.064-.137.04-.265.055-.355.049-29.258 5.644-29.566-18.728-59.909-.822-.121.084-.269.156-.391.24-4.466 2.669-9.577 6.214-15.502 10.946-.206.147-.401.269-.58.428.016.043.022.113.038.153.067.336.117.631.183.969 8.588 47.534 19.001 44.007 32.702 51.295.177.111.335.179.511.293 4.89 2.674 10.195 6.787 15.986 15.11 3.762 6.587 4.953 15.777 11.208 19.281 7.467 1.539 12.158 1.462 15.684 1.906l.702.099c5.471.845 8.07 3.579 14.679 17.785 8.59 10.223 24.808 1.436 36.181 7.405 5.566 2.934 9.208 8.988 13.458 14.01.085.107.197.223.31.341 2.285 2.664 4.775 5.011 7.864 6.354 12.536 5.451 26.821-8.581 39.542-3.564 24.178 21.576 48.691 2.532 66.838-18.389.163-.202.353-.393.516-.596.01-.029-.016-.04-.005-.069.003-.273-.021-.556-.016-.827-.641-27.968-6.45-58.863-34.291-63.458-.118-.02-.236-.038-.342-.084zm-89.639-48.434c.08-.752.999-1.273 2.124-1.161 1.1.102 1.927.805 1.885 1.537-.052.761-.999 1.273-2.098 1.171-1.125-.115-1.954-.815-1.911-1.547zm7.362 117.946c.66 1.004.742 2.166.224 2.591-.554.443-1.539.015-2.171-.98-.66-1.004-.77-2.176-.216-2.618.555-.443 1.529.014 2.163 1.007zM59.313 633.512c-1.155.931-3.076.196-4.268-1.653-1.192-1.848-1.234-4.088-.105-5.03 1.145-.902 3.066-.17 4.258 1.681 1.202 1.82 1.235 4.089.115 5.002zm62.229 18.591c1.202 1.819 1.233 4.087.114 5.001-1.155.931-3.076.2-4.267-1.652-1.192-1.849-1.26-4.099-.116-4.998 1.157-.934 3.05-.211 4.269 1.649zm-68.627-31.208c.326 1.168.074 2.322-.561 2.557-.652.197-1.433-.553-1.785-1.733-.326-1.165-.074-2.319.559-2.554.662-.226 1.433.552 1.787 1.73zm180.329 42.329c1.202 1.819 1.244 4.058.116 5.001-1.155.931-3.065.167-4.267-1.652-1.192-1.849-1.234-4.088-.105-5.03 1.144-.903 3.065-.171 4.256 1.681zM106.97 594.522c.112.732-.71 1.501-1.786 1.68-1.104.17-2.076-.29-2.189-1.018-.085-.721.712-1.501 1.814-1.672 1.102-.167 2.061.25 2.161 1.01zm53.562 9.634c.09-1.565 1.8-2.767 3.84-2.631 2.05.105 3.651 1.485 3.589 3.061-.09 1.565-1.801 2.767-3.84 2.631-2.049-.103-3.652-1.484-3.589-3.061z"></path><path fill="#FFF" d="m220.804 678.785-80.068-35.05.232-.119-21.426-52.913c-.137.04-.265.055-.355.049l20.007 52.305-58.483-25.601-21.433-27.527c-.121.084-.269.156-.391.24l19.11 26.097-34.613-15.151c-.206.147-.401.269-.58.428.016.043.022.113.038.153.067.336.117.631.183.969l66.326 29.035-25.289 16.872-8.335 5.387c.177.111.335.179.511.293l8.174-5.017 26.621-16.797 66.388 29.062-58.305 29.049.702.099 59.444-28.34 74.915 32.796-70.041 34.744c.085.107.197.223.31.341l71.576-34.28 42.668 18.68c.163-.202.353-.393.516-.596.01-.029-.016-.04-.005-.069.003-.273-.021-.556-.016-.827l-10.481-4.587-23.81-58.871a1.29 1.29 0 0 1-.34-.081l22.277 58.13-64.147-28.08-29.646-73.918-.026-.011a4.643 4.643 0 0 1-.7-.715l28.492 73.821z"></path><path fill="#C9D7FF" d="M278.509 604.658a54.451 54.451 0 0 0-2.769-1.982c-8.669-11.508-1.804-31.288-10.751-42.476-6.384-7.983-18.085-7.932-24.94-15.403-3.786-6.169-5.932-11.196-7.374-15.345l-.019-.023a5.334 5.334 0 0 1-.332-.99l-.019-.024c-4.6-13.451-2.277-17.58-28.265-23.432-11.677-18.957-4.169-25.113-30.422-25.892-.101-.029-.218-.081-.319-.109a1.119 1.119 0 0 1-.336-.135c-28.374-9.747-18.707-31.62-53.048-30.988-.142.014-.304.003-.447.016-5.068.123-11.069.701-18.278 1.925-.244.027-.467.037-.692.088-.003.047-.026.112-.029.155-.078.333-.153.622-.233.956-11.735 46.693-1.018 48.809 8.219 62.223.113.188.226.329.336.519 3.267 4.852 6.316 11.196 8.082 21.537.665 7.77-2.022 16.559 2.123 22.841 6.026 5.143 10.237 7.443 13.199 9.619.196.147.39.296.585.443 4.531 3.516 5.731 7.264 5.826 23.261 3.484 13.447 21.52 13.808 29.22 24.87 3.763 5.425 4.539 12.659 6.278 19.281.032.138.085.298.137.461.95 3.528 2.211 6.877 4.416 9.633 8.947 11.188 27.4 5.899 36.688 16.794 12.745 31.437 42.355 26.846 67.059 17.369.228-.098.475-.172.703-.271.021-.021.003-.044.023-.064.114-.241.208-.505.323-.746 10.836-25.245 18.261-55.709-4.673-73.864-.098-.078-.195-.153-.271-.247zm-60.121-88.428c.378-.63 1.409-.63 2.366.039.938.646 1.389 1.691 1.053 2.321-.357.652-1.409.63-2.348-.016-.954-.671-1.407-1.714-1.071-2.344zm-41.546 108.817c.179 1.228-.222 2.305-.857 2.422-.674.115-1.377-.764-1.534-1.97-.179-1.228.201-2.328.875-2.442.675-.114 1.356.785 1.516 1.99zM102.17 486.709c-1.409.246-2.821-1.379-3.129-3.628-.308-2.249.567-4.266 1.958-4.535 1.389-.226 2.802 1.397 3.108 3.648.329 2.228-.566 4.267-1.937 4.515zm47.869 47.993c.329 2.228-.568 4.264-1.938 4.514-1.409.247-2.823-1.376-3.129-3.627-.308-2.249.549-4.289 1.935-4.512 1.412-.249 2.804 1.351 3.132 3.625zm-48.424-62.468c-.186 1.205-.881 2.107-1.542 1.995-.661-.154-1.051-1.216-.884-2.446.184-1.203.88-2.104 1.54-1.993.682.134 1.051 1.217.886 2.444zm143.422 128.789c.329 2.228-.546 4.244-1.937 4.515-1.409.246-2.8-1.399-3.129-3.627-.308-2.25.567-4.266 1.958-4.535 1.389-.227 2.803 1.395 3.108 3.647zm-84.498-124.989c-.199.708-1.245.979-2.276.596-1.053-.405-1.732-1.307-1.536-2.013.218-.685 1.246-.978 2.299-.573 1.05.406 1.734 1.262 1.513 1.99zm43.798 35.634c.718-1.349 2.733-1.557 4.495-.406 1.784 1.129 2.648 3.167 1.949 4.54-.718 1.349-2.733 1.556-4.495.406-1.783-1.127-2.648-3.166-1.949-4.54z"></path><path fill="#FFF" d="m227.605 608.607-57.051-71.668.255.011 2.489-57.97a1.119 1.119 0 0 1-.336-.135l-3.506 56.712-41.671-52.347-7.871-35.352c-.142.014-.304.003-.447.016l6.385 32.906-24.663-30.981c-.244.027-.467.037-.692.088-.003.047-.026.112-.029.155-.078.333-.153.622-.233.956l47.259 59.368-29.416 2.263-9.625.591c.113.188.226.329.336.519l9.33-.343 30.572-1.524 47.304 59.424-63.802-3.56c.196.147.39.296.585.443l64.528 4.767 53.379 67.057-76.583-4.413c.032.138.085.298.137.461L252 641.652l30.401 38.194c.228-.098.475-.172.703-.271.021-.021.003-.044.023-.064.114-.241.208-.505.323-.746l-7.468-9.38 2.795-64.483a1.494 1.494 0 0 1-.27-.244l-3.859 63.049-45.707-57.417 3.732-80.838-.019-.023a5.334 5.334 0 0 1-.332-.99l-4.717 80.168z"></path><path fill="#F4B8D6" d="M210.458 348.783c-3.236-3.535-9.593-5.034-14.686-2.206-5.459 3.032-6.235 9.557-6.312 10.306l.195.783-.209-.78c-.414-.628-4.122-6.053-10.365-6.213-5.824-.149-10.765 4.123-11.997 8.754-2.257 8.485 8.615 15.636 9.845 16.444 7.358 4.838 15.305 3.987 18.139 3.518l.173-.029.221-.077c2.713-.96 9.754-3.935 13.883-11.367.729-1.314 7.035-12.666 1.113-19.133zM130.851 317.129c-2.255-2.463-6.684-3.508-10.233-1.537-3.803 2.113-4.344 6.659-4.398 7.18l.136.546-.146-.543c-.289-.438-2.872-4.217-7.222-4.329-4.058-.104-7.501 2.873-8.359 6.099-1.573 5.912 6.003 10.894 6.86 11.458 5.127 3.371 10.664 2.778 12.638 2.451l.121-.02.154-.054c1.89-.669 6.797-2.741 9.673-7.92.509-.915 4.902-8.825.776-13.331zM181.579 263.583c-2.255-2.463-6.684-3.508-10.233-1.537-3.803 2.113-4.344 6.659-4.398 7.18l.136.546-.146-.543c-.289-.438-2.872-4.217-7.222-4.329-4.058-.104-7.501 2.873-8.359 6.099-1.573 5.912 6.003 10.894 6.86 11.458 5.127 3.371 10.664 2.778 12.638 2.451l.121-.02.154-.054c1.89-.669 6.796-2.741 9.673-7.92.508-.915 4.902-8.825.776-13.331zM1099.108 587.313c-27.841 4.595-33.65 35.49-34.291 63.458.004.272-.019.555-.016.827.01.029-.016.04-.005.069.162.203.353.394.516.596 18.147 20.921 42.66 39.965 66.838 18.389 12.72-5.017 27.006 9.015 39.542 3.564 3.088-1.343 5.578-3.689 7.864-6.354.113-.119.225-.234.31-.341 4.25-5.022 7.892-11.076 13.458-14.01 11.373-5.969 27.592 2.819 36.181-7.405 6.609-14.206 9.208-16.94 14.679-17.785l.702-.099c3.526-.443 8.218-.366 15.684-1.906 6.256-3.504 7.446-12.693 11.208-19.281 5.791-8.323 11.096-12.436 15.986-15.11.176-.113.334-.182.511-.293 13.702-7.288 24.114-3.761 32.702-51.295.065-.338.116-.633.182-.969.016-.04.022-.109.038-.153-.179-.159-.375-.281-.58-.428-5.925-4.731-11.037-8.277-15.502-10.946-.122-.084-.27-.156-.391-.24-30.342-17.906-30.65 6.466-59.909.822a1.12 1.12 0 0 1-.355-.049c-.102-.026-.227-.038-.329-.063-23.712-12.564-19.532-3.286-37.669 7.708-25.545-7.91-25.159-3.057-34.744 6.606l-.027.012c-.214.266-.437.5-.7.715l-.026.011c-2.977 2.969-6.939 6.365-12.829 9.949-9.156 3.194-19.561-2.759-28.506 1.13-12.536 5.451-14.486 26.543-26.905 32.42a49.715 49.715 0 0 0-3.276.368c-.107.049-.225.066-.341.083zm88.068-46.967c-1.1.102-2.047-.41-2.099-1.171-.043-.732.785-1.435 1.885-1.537 1.126-.112 2.044.409 2.124 1.161.044.731-.785 1.432-1.91 1.547zm-3.289 115.392c.554.442.444 1.613-.216 2.618-.632.995-1.617 1.423-2.171.98-.518-.425-.436-1.587.224-2.591.635-.993 1.609-1.45 2.163-1.007zm120.914-89.553c1.191-1.852 3.112-2.584 4.257-1.681 1.13.942 1.087 3.182-.105 5.03s-3.112 2.584-4.268 1.653c-1.118-.914-1.085-3.183.116-5.002zm-58.075 21.942c1.144.899 1.076 3.15-.116 4.998-1.191 1.852-3.112 2.583-4.267 1.652-1.119-.914-1.088-3.181.115-5.001 1.219-1.86 3.112-2.583 4.268-1.649zm66.146-31.289c.634.235.886 1.388.56 2.554-.352 1.181-1.133 1.93-1.785 1.733-.635-.234-.886-1.389-.561-2.557.353-1.177 1.124-1.956 1.786-1.73zm-177.86 42.379c1.13.942 1.087 3.181-.105 5.03-1.202 1.819-3.112 2.583-4.267 1.652-1.128-.943-1.086-3.182.116-5.001 1.191-1.852 3.112-2.584 4.256-1.681zm124.179-68.03c1.103.171 1.9.951 1.814 1.672-.113.728-1.086 1.189-2.189 1.018-1.076-.179-1.897-.948-1.786-1.68.1-.761 1.059-1.178 2.161-1.01zm-59.312 13.705c-2.039.136-3.75-1.067-3.839-2.632-.062-1.576 1.539-2.956 3.589-3.061 2.039-.136 3.75 1.067 3.839 2.631.063 1.577-1.54 2.957-3.589 3.062z"></path><path fill="#FFF" d="m1143.196 616.459 80.068-35.05-.232-.119 21.426-52.913c.137.04.265.055.355.049l-20.007 52.305 58.483-25.601 21.432-27.527c.121.084.269.156.391.24l-19.11 26.097 34.613-15.151c.206.147.401.269.58.428-.016.043-.022.113-.038.153-.067.336-.117.631-.182.969l-66.326 29.035 25.289 16.872 8.335 5.387c-.177.111-.335.179-.511.293l-8.174-5.017-26.621-16.797-66.389 29.062 58.305 29.049-.702.099-59.444-28.34-74.915 32.796 70.041 34.744c-.085.107-.197.223-.31.341l-71.576-34.28-42.668 18.68c-.163-.202-.354-.393-.516-.596-.01-.029.016-.04.005-.069-.003-.273.021-.555.016-.827l10.481-4.587 23.81-58.871a1.29 1.29 0 0 0 .34-.081l-22.277 58.13 64.147-28.08 29.646-73.918.026-.011c.263-.214.486-.448.7-.715l-28.491 73.821z"></path><path fill="#C9D7FF" d="M1085.221 542.575c-22.934 18.155-15.51 48.618-4.673 73.864.115.24.209.504.323.746.021.021.002.044.023.064.227.099.475.173.703.271 24.704 9.478 54.314 14.068 67.058-17.369 9.289-10.895 27.741-5.606 36.688-16.794 2.204-2.756 3.466-6.104 4.416-9.633.052-.163.105-.322.137-.46 1.739-6.621 2.515-13.855 6.278-19.281 7.7-11.063 25.736-11.423 29.22-24.87.095-15.997 1.296-19.744 5.826-23.261.195-.147.389-.296.585-.443 2.962-2.176 7.173-4.477 13.199-9.619 4.145-6.281 1.458-15.071 2.123-22.841 1.766-10.341 4.815-16.685 8.082-21.537.111-.19.224-.331.336-.519 9.237-13.413 19.954-15.529 8.219-62.223-.08-.334-.155-.623-.233-.956-.002-.043-.025-.108-.029-.155-.225-.052-.448-.061-.692-.088-7.209-1.224-13.21-1.802-18.278-1.924-.143-.013-.304-.002-.447-.016-34.341-.632-24.674 21.241-53.048 30.988-.078.05-.198.102-.336.135-.101.028-.218.081-.319.109-26.253.779-18.745 6.936-30.422 25.892-25.988 5.852-23.665 9.982-28.265 23.432l-.019.024a5.31 5.31 0 0 1-.332.99l-.019.023c-1.442 4.149-3.588 9.176-7.374 15.345-6.855 7.47-18.556 7.42-24.94 15.403-8.947 11.188-2.082 30.968-10.751 42.476a54.451 54.451 0 0 0-2.769 1.982 1.463 1.463 0 0 1-.27.245zm59.319-86.328c-.938.646-1.991.668-2.348.016-.336-.63.114-1.675 1.053-2.321.957-.669 1.989-.668 2.366-.039.337.631-.116 1.673-1.071 2.344zm44.134 104.484c.674.114 1.054 1.213.875 2.442-.157 1.206-.86 2.085-1.534 1.97-.635-.117-1.036-1.194-.857-2.422.16-1.205.841-2.104 1.516-1.99zm71.218-140.862c.306-2.251 1.719-3.874 3.108-3.648 1.391.269 2.266 2.286 1.958 4.535-.308 2.249-1.719 3.874-3.129 3.628-1.37-.25-2.265-2.288-1.937-4.515zm-42.8 48.881c1.386.224 2.244 2.263 1.935 4.512-.306 2.251-1.72 3.874-3.129 3.627-1.37-.249-2.267-2.286-1.938-4.514.329-2.273 1.721-3.873 3.132-3.625zm46.179-61.286c.66-.111 1.356.79 1.54 1.993.168 1.23-.223 2.292-.884 2.446-.661.112-1.356-.79-1.542-1.995-.166-1.228.204-2.311.886-2.444zM1122.07 535.05c1.391.269 2.266 2.285 1.958 4.535-.329 2.228-1.719 3.873-3.129 3.627-1.39-.271-2.266-2.287-1.937-4.515.306-2.252 1.72-3.874 3.108-3.647zm82.905-123.333c1.052-.405 2.08-.112 2.299.573.197.706-.483 1.607-1.535 2.013-1.032.384-2.077.113-2.277-.596-.222-.727.462-1.583 1.513-1.99zm-47.261 42.165c-1.761 1.151-3.777.943-4.495-.406-.698-1.373.165-3.412 1.949-4.54 1.762-1.151 3.777-.943 4.495.406.699 1.373-.166 3.413-1.949 4.54z"></path><path fill="#FFF" d="m1136.395 546.281 57.051-71.668-.255.011-2.489-57.97c.139-.033.259-.085.336-.135l3.506 56.712 41.671-52.347 7.871-35.352c.142.014.304.003.447.016l-6.385 32.906 24.663-30.981c.244.027.467.037.692.088.003.047.026.112.029.155.078.333.153.622.233.956l-47.259 59.368 29.416 2.263 9.625.591c-.113.188-.226.329-.336.519l-9.33-.342-30.572-1.524-47.304 59.424 63.802-3.56c-.196.147-.39.296-.585.443l-64.528 4.767-53.379 67.057 76.583-4.413c-.032.138-.085.298-.137.46L1112 579.326l-30.401 38.194c-.228-.098-.475-.172-.703-.271-.021-.021-.003-.044-.023-.064-.114-.241-.208-.505-.323-.746l7.468-9.38-2.795-64.483c.097-.074.194-.149.27-.244l3.859 63.049 45.707-57.417-3.732-80.838.019-.023c.147-.324.25-.645.332-.99l4.717 80.168z"></path><path fill="#EBEEF5" d="M1261.39 793.684c-3.006-3.361-8.355-4.58-13.308-5.517a586.261 586.261 0 0 0-79.56-9.448l-911.904-16.351c-39.709 1.32-79.207 6.868-117.187 16.463-9.768 2.468-20.965 6.58-22.758 14.83-1.489 6.848 4.831 13.539 12.562 16.404 7.731 2.865 16.535 2.804 25.018 2.691l77.047-1.027c10.423-.139 21.171-.231 30.844 2.956 9.673 3.187 18.094 10.529 18.028 19.075-.026 3.4-1.364 6.774-.885 10.152 1.252 8.848 13.551 13.286 24.156 15.221 31.703 5.783 74.45-2.073 106.575-5.989 121.875-14.855 215.042-22.034 331.256-14.013 51.966 3.586 117.227 16.113 169.29 18.684 83.155 4.107 151.391-1.917 228.477-12.802 37.726-5.327 75.094-13.561 108.435-28.983 10.092-4.667 20.766-14.683 13.914-22.346z"></path><path fill="#FFF" d="M227.187 265.038v472.499c0 31.314 31.148 56.697 69.57 56.697h756.684c38.422 0 69.57-25.383 69.57-56.697V265.038H227.187z"></path><path fill="#DDE5F0" d="M227.191 265.044h895.815v16.377H227.191z"></path><path fill="#FF7AA3" d="M1028.215 149.155H321.983c-52.354 0-94.797 34.589-94.797 77.255v42.491h895.824V226.41c.001-42.666-42.441-77.255-94.795-77.255z"></path><path fill="#DDE5F0" d="M1123.006 226.409v511.129c0 31.315-31.143 56.702-69.562 56.702H296.753c-25.92 0-48.53-11.557-60.499-28.696 9.385 3.844 19.982 6.011 31.201 6.011h756.68c38.43 0 69.573-25.387 69.573-56.702v-511.13c0-16.104-6.042-31.041-16.373-43.407 27.384 13.545 45.671 38.075 45.671 66.093z"></path><path fill="#FFB5D6" d="M344.205 472.094h73.362v69.444h-73.362z"></path><path fill="#FFDEED" d="M461.862 472.094h73.363v69.444h-73.363z"></path><path fill="#FFB5D6" d="M579.52 472.094h73.363v69.444H579.52zM697.178 472.094h73.363v69.444h-73.363zM814.837 472.094H888.2v69.444h-73.363zM344.205 563.811h73.362v69.444h-73.362zM461.862 563.811h73.363v69.444h-73.363zM579.52 563.811h73.363v69.444H579.52zM697.178 563.811h73.363v69.444h-73.363zM814.837 563.811H888.2v69.444h-73.363zM344.205 655.529h73.362v69.443h-73.362zM461.862 655.529h73.363v69.443h-73.363zM579.52 655.529h73.363v69.443H579.52zM697.178 655.529h73.363v69.443h-73.363zM932.629 472.094h73.363v69.444h-73.363zM579.52 382.15h73.363v69.444H579.52zM697.178 382.15h73.363v69.444h-73.363zM814.837 382.15H888.2v69.444h-73.363zM932.629 382.15h73.363v69.444h-73.363zM932.629 563.811h73.363v69.444h-73.363zM814.837 655.529H888.2v69.443h-73.363z"></path><path fill="#2F3B6B" d="M400.482 98.811c-26.908 0-48.722 22.517-48.722 50.295 0 27.776 21.813 50.294 48.722 50.294v-9.145c-21.981 0-39.863-18.458-39.863-41.148s17.883-41.151 39.863-41.151c21.981 0 39.863 18.461 39.863 41.151h8.858c.001-27.779-21.813-50.296-48.721-50.296zM511.213 98.811c-26.908 0-48.72 22.517-48.72 50.295 0 27.776 21.812 50.294 48.72 50.294v-9.145c-21.979 0-39.863-18.458-39.863-41.148s17.884-41.151 39.863-41.151c21.982 0 39.864 18.461 39.864 41.151h8.858c.001-27.779-21.812-50.296-48.722-50.296zM621.946 98.811c-26.908 0-48.722 22.517-48.722 50.295 0 27.776 21.813 50.294 48.722 50.294v-9.145c-21.981 0-39.862-18.458-39.862-41.148s17.881-41.151 39.862-41.151c21.982 0 39.865 18.461 39.865 41.151h8.86c-.001-27.779-21.815-50.296-48.725-50.296zM728.25 98.811c-26.908 0-48.722 22.517-48.722 50.295 0 27.776 21.813 50.294 48.722 50.294v-9.145c-21.982 0-39.863-18.458-39.863-41.148s17.881-41.151 39.863-41.151 39.863 18.461 39.863 41.151h8.858c.001-27.779-21.813-50.296-48.721-50.296zM838.983 98.811c-26.909 0-48.723 22.517-48.723 50.295 0 27.776 21.813 50.294 48.723 50.294v-9.145c-21.982 0-39.864-18.458-39.864-41.148s17.883-41.151 39.864-41.151c21.981 0 39.863 18.461 39.863 41.151h8.857c0-27.779-21.813-50.296-48.72-50.296zM949.714 98.811c-26.908 0-48.723 22.517-48.723 50.295 0 27.776 21.815 50.294 48.723 50.294v-9.145c-21.981 0-39.863-18.458-39.863-41.148s17.883-41.151 39.863-41.151 39.865 18.461 39.865 41.151h8.858c0-27.779-21.813-50.296-48.723-50.296z"></path><path fill="#2F3B6B" d="M386.933 193.828c0-7.724 6.066-13.986 13.549-13.986 7.484 0 13.55 6.262 13.55 13.986 0 7.725-6.066 13.986-13.55 13.986-7.483 0-13.549-6.261-13.549-13.986zM497.666 193.828c0-7.724 6.065-13.986 13.549-13.986 7.484 0 13.55 6.262 13.55 13.986 0 7.725-6.066 13.986-13.55 13.986-7.484 0-13.549-6.261-13.549-13.986zM608.398 193.828c0-7.724 6.065-13.986 13.548-13.986 7.484 0 13.552 6.262 13.552 13.986 0 7.725-6.068 13.986-13.552 13.986-7.483 0-13.548-6.261-13.548-13.986z"></path><ellipse cx="732.68" cy="193.828" fill="#2F3B6B" rx="13.55" ry="13.986"></ellipse><path fill="#2F3B6B" d="M829.862 193.828c0-7.724 6.068-13.986 13.55-13.986 7.484 0 13.549 6.262 13.549 13.986 0 7.725-6.065 13.986-13.549 13.986-7.482 0-13.55-6.261-13.55-13.986zM940.595 193.828c0-7.724 6.066-13.986 13.55-13.986 7.484 0 13.549 6.262 13.549 13.986 0 7.725-6.065 13.986-13.549 13.986-7.484 0-13.55-6.261-13.55-13.986z"></path><path fill="#FF7AA3" d="M640.254 337.341H352.146a7.94 7.94 0 0 1-7.941-7.941v-3.021a7.94 7.94 0 0 1 7.941-7.941h288.108a7.94 7.94 0 0 1 7.941 7.941v3.021a7.94 7.94 0 0 1-7.941 7.941z"></path><path fill="#DB537D" d="M508.058 502.999c-2.128-2.435-4.72-3.659-7.788-3.659-1.577 0-2.971.313-4.181.925-1.198.626-2.372 1.578-3.521 2.857.306-4.109.758-6.789 1.393-8.04.856-1.741 2.054-2.612 3.607-2.612.868 0 1.589.299 2.177.911.586.612 1.002 1.66 1.259 3.143l9.5-1.306c-.55-2.054-1.345-3.768-2.396-5.129-1.039-1.36-2.36-2.381-3.949-3.088-1.59-.707-3.754-1.062-6.492-1.062-4.634 0-8.253 1.606-10.869 4.816-2.617 3.211-3.924 8.285-3.924 15.196 0 4.721.624 8.503 1.87 11.373 1.248 2.871 2.91 4.952 4.988 6.258 2.079 1.306 4.841 1.959 8.29 1.959 2.861 0 5.245-.53 7.14-1.605 1.907-1.075 3.399-2.653 4.462-4.748 1.076-2.081 1.614-4.394 1.614-6.925-.001-3.74-1.065-6.828-3.18-9.264zm-7.152 14.312c-.844 1.061-1.895 1.592-3.142 1.592-1.369 0-2.519-.585-3.46-1.755-.929-1.184-1.406-2.803-1.406-4.884 0-2.027.452-3.605 1.357-4.693.892-1.102 2.005-1.646 3.338-1.646 1.296 0 2.384.558 3.264 1.701.881 1.129 1.321 2.775 1.321 4.938-.001 2.094-.429 3.686-1.272 4.747z"></path><path fill="#DB537D" d="M531.554 482.079c-4.411-6.823-10.701-12.5-18.15-15.783-8.888-3.917-18.718-4.691-28.312-4.048-2.341.157-4.676.399-7.004.691-.933.117-1.743.72-1.743 1.748 0 .854.803 1.866 1.743 1.748 8.888-1.115 18.083-1.523 26.849.645 7.696 1.904 14.532 5.906 19.838 11.825a40.444 40.444 0 0 1 9.663 19.845c1.321 7.476.197 15.372-2.796 22.32-3.051 7.08-8.034 13.395-14.428 17.72-6.59 4.458-14.435 6.908-22.37 7.155-7.994.248-16.126-1.672-22.915-5.987-6.937-4.409-11.378-11.366-12.506-19.528-1.163-8.415 1.217-16.851 5.369-24.131a59.093 59.093 0 0 1 7.387-10.209c2.859-3.178 6.237-6.062 10.536-6.907 1.966-.386 3.938-.186 5.796.548.876.346 1.913-.379 2.144-1.221.272-.992-.338-1.803-1.217-2.15-9.502-3.751-17.831 4.484-23.096 11.353-5.577 7.277-9.716 15.848-10.546 25.078-.801 8.914 1.719 18.182 7.854 24.817 5.883 6.364 14.446 10.106 22.914 11.334a47.21 47.21 0 0 0 25.551-3.378c7.839-3.394 14.462-9.156 19.104-16.326 4.564-7.049 7.174-15.438 7.236-23.855.061-8.228-2.445-16.412-6.901-23.304z"></path><path fill="#FF578B" d="m441.131 485.932 3.23 1.104c.176.06.397-.158.493-.486.096-.328.032-.644-.144-.704.176.06.396-.156.492-.484.096-.328.032-.644-.144-.704.176.06.396-.156.492-.484.096-.328.032-.644-.144-.704.176.06.396-.156.492-.484.096-.328.032-.644-.144-.704l-3.23-1.105a.17.17 0 0 0-.045-.007l-30.912-10.57-1.388 4.736 30.912 10.571c.014.009.026.019.04.025z"></path><path fill="#FFDBCF" d="m444.398 486.997 1.861-.585.802-.253 1.304-.409-.848-1.146-.472-.639-1.26-1.703z"></path><path fill="#2F3B6B" d="m446.259 486.412.802-.253 1.303-.409-.848-1.147-.472-.639a8.147 8.147 0 0 0-.785 2.448z"></path><path fill="#FFF" d="m409.96 475.262 2.478.847 1.388-4.736-2.478-.847c-.377-.129-.882.445-1.128 1.282l-.5 1.705c-.245.837-.138 1.62.24 1.749z"></path><path fill="#2F3B6B" d="M412.496 476.546c-.136-.047-.202-.249-.166-.474l-.237-.081c-.089.207-.252.331-.388.284-.136-.047-.202-.249-.166-.474l-.006-.002.028-.095 1.332-4.547.028-.095.006.002c.089-.206.252-.331.388-.284.136.046.202.249.165.473l.237.081c.089-.206.252-.331.387-.284.136.047.202.249.165.474l.237.081c.089-.206.252-.331.388-.284.136.047.202.249.165.473l.006.002 1.129.386-1.388 4.737-1.129-.386-.006-.002c-.089.207-.252.331-.387.284-.136-.046-.202-.249-.165-.474l-.237-.081c-.089.208-.251.333-.386.286z"></path><path fill="#FFDBCF" d="M411.978 624.95s5.432 88.646-8.022 109.745c-6.491 10.18-27.936 63.134-27.936 63.134l-6.397-3.457c2.694-29.333 7.629-54.003 17.063-69.308 2.39-41.242-15.085-57.595-.247-97.822l25.539-2.292z"></path><path fill="#FFDBCF" d="M418.394 624.373c9.551 41.919 9.117 66.333 7.533 111.097-.016.454-.055.916-.116 1.363l-9.434 69.195-7.279 1.754c-3.566-22.269-4.642-50.575-2.421-69.876-6.942-55.075-33.879-68.182-13.027-111.311l24.744-2.222z"></path><path fill="#2F3B6B" d="M380.654 755.467c8.268-.677 11.776-.947 18.165 1.489 5.492 2.094 9.495 4.801 15.131 6.26 2.388.625 4.928.909 7.677.744 5.029-.308 9.181-4.837 10.034-11.076 1.617-11.938 3.82-33.777 2.119-55.901-3.04-39.529-16.189-75.305-16.189-75.305s-.164-.027-.461-.081c-3.435-.511-25.178-3.309-32.227 7.908-7.657 12.194-12.74 27.864-8.329 57.114 3.149 20.887-3.158 41.129-7.229 55.582-2.026 7.244 5.158 13.769 11.309 13.266z"></path><path fill="#FFDBCF" d="m406.971 556.32 10.516 19.699s.266-.55.711-1.521c2.962-6.287 14.173-30.358 16.762-39.788 2.081-7.594 1.127-26.537-.327-39.325-.543-4.744-1.153-8.656-1.709-10.818 0 0 4.816-8.916-.567-11.505-5.179-2.484-8.58.822-8.58.822-1.281 4.525-.318 8.287 3.047 11.23-.483 2.167-.93 4.384-1.341 6.633-2.127 11.635-3.226 24.18-3.253 37.558-5.059 6.686-10.153 16.289-15.259 27.015z"></path><path fill="#3E3279" d="m387.413 626.305 31.965-2.869c-2.265-7.695-6.67-11.53-2.037-29.869 1.932-7.633 1.884-13.948.857-19.069-2.57-12.724-11.227-18.178-11.227-18.178l-8.022-3.966-9.375.841-8.868 8.063s2.667 28.566 4.888 38.214c1.954 8.513 4.228 18.227 1.819 26.833z"></path><path fill="#7090ED" d="M382.548 632.131c15.326 6.822 19.687-2.382 30.846-3.471a25.385 25.385 0 0 1 2.755-.089c3.419.097 5.91-3.427 5.067-7.002-2.615-10.982-2.965-23.343-1.644-40.19a55.195 55.195 0 0 1 2.011-11.029 56.063 56.063 0 0 1 2.258-6.346c4.109-9.742 9.354-22.887 11.119-29.294 2.081-7.594 1.256-30.327-.198-43.116l-9.279.153c-2.127 11.635-3.49 23.08-4.24 37.19-4.098 5.441-7.593 13.021-11.48 21.427-1.547 3.334-5.257 4.737-8.382 3.193l-2.432-1.203-9.375.841-8.868 8.063s2.667 28.566 4.888 38.214c1.954 8.513-.637 24.052-3.046 32.659z"></path><path fill="#FFDBCF" d="M351.576 605.86c.027.138.039.295.084.449.52 2.744 2.377 5.773 4.85 8.781 4.696 5.704 11.658 11.311 16.105 14.633a134.74 134.74 0 0 0 4.265 3.057c-3.356 10.447 5.715 18.971 7.79 13.414.428-1.196-1.763-4.967-1.883-6.536-.075-.976 1.43-2.199 2.389-4.023 1.09-2.073-.147-4.428-.994-5.51-1.636-2.047-3.26-4.359-4.921-6.738-4.434-6.324-9.187-13.2-15.421-17.573 9.454-6.571 15.922-9.714 22.231-17.056l-5.364-27.498c-.001-.002-30.934 31.93-29.131 44.6z"></path><path fill="#7090ED" d="M351.576 605.86c.027.138.039.295.084.449 1.624 2.961 3.267 5.938 4.85 8.781 4.696 5.704 11.658 11.311 16.105 14.633l6.645-6.337c-4.434-6.324-9.187-13.2-15.421-17.573 9.454-6.571 15.922-9.714 22.231-17.056l-5.364-27.498c0-.001-30.933 31.931-29.13 44.601z"></path><path fill="#FFDBCF" d="M402.91 515.101s5.386 12.707 2.647 21.197c-2.738 8.49-16.645 4.059-16.645 4.059l13.998-25.256z"></path><path fill="#FFDBCF" d="m397.3 541.492 1.643 10.86-9.366.841-.664-12.837z"></path><path fill="#2F3B6B" d="m408.498 804.103-.688 6.691a16.874 16.874 0 0 0 .067 5.538l1.224 7.052 2.414-.236-.558-4.483c.017-1.174 1.338-1.74 2.095-.899l2.479 2.751c.752 1.265 2.01 2.09 3.398 2.18 4.239.276 12.447-.178 12.598-3.179.156-3.086-7.807-2.628-10.344-5.821-2.456-3.091-4.48-10.057-4.48-10.057-2.41 1.306-5.374 1.217-8.205.463zM369.913 795.021l-3.46 5.409a16.275 16.275 0 0 0-2.122 5.041l-1.672 6.944 2.277.897 1.262-4.312c.478-1.054 1.896-.959 2.25.151l1.158 3.63c.182 1.49.995 2.816 2.216 3.536 3.726 2.201 11.332 5.566 12.652 2.92 1.357-2.72-6.028-5.971-7.065-10.026-1.004-3.927-.089-11.161-.089-11.161-2.695.073-5.142-1.043-7.407-3.029zM397.003 538.566c-9.959 15.085 2.231 30.515 3.806 44.796 2.583 23.421-18.36 39.828-36.329 31.166-18.591-8.962-14.833-27.641-5.875-41.921 3.972-6.331-.251-18.408 5.175-27.556 7.165-12.082 3.541-23.557 10.861-33.758 16.619-23.16 40.59-.339 22.362 27.273z"></path><path fill="#7090ED" d="M898.315 744.134h297.061v67.645H898.315z"></path><path fill="#FFF" d="M948.513 744.134h11.063v67.645h-11.063zM970.017 744.134h11.052v67.645h-11.052zM1144.714 744.134h11.051v67.645h-11.051zM1166.206 744.134h11.051v67.645h-11.051z"></path><ellipse cx="923.034" cy="777.961" fill="#FFF" rx="11.667" ry="12.983"></ellipse><path fill="#FFF" d="M1000.102 795.044v-34.166h121.282v34.166z"></path><path fill="#FF578B" d="M876.921 676.488h297.061v67.645H876.921z"></path><path fill="#FFF" d="M927.119 676.488h11.064v67.645h-11.064zM948.623 676.488h11.052v67.645h-11.052zM1123.32 676.488h11.053v67.645h-11.053zM1144.812 676.488h11.052v67.645h-11.052zM901.641 723.298c-6.444 0-11.667-5.813-11.667-12.983 0-7.171 5.223-12.984 11.667-12.984s11.667 5.813 11.667 12.984c0 7.17-5.223 12.983-11.667 12.983zM978.709 727.399v-34.166h121.282v34.166z"></path><path fill="#7090ED" d="M919.421 608.847h297.062v67.645H919.421z"></path><path fill="#FFF" d="M969.619 608.847h11.064v67.645h-11.064zM991.123 608.847h11.052v67.645h-11.052zM1165.82 608.847h11.052v67.645h-11.052zM1187.312 608.847h11.052v67.645h-11.052zM944.141 655.657c-6.444 0-11.668-5.812-11.668-12.983s5.224-12.983 11.668-12.983c6.443 0 11.667 5.812 11.667 12.983s-5.224 12.983-11.667 12.983zM1021.208 659.757V625.59h121.282v34.166z"></path><path fill="#2F3B6B" d="M951.221 465.77c-4.07-3.224-6.256-8.847-4.23-13.699 2.025-4.852 6.963-7.972 12.042-8.774 4.26-.673 9.081.316 11.794 3.756 2.406 3.051 2.699 7.348 4.727 10.676 3.977 6.525 13.516 7.802 17.08 14.574 1.989 3.779 1.848 8.867 5.07 11.605 2.854 2.425 7.194 1.923 10.33 3.945 2.392 1.543 3.79 4.572 3.439 7.452-.356 2.925-2.332 5.795-1.406 8.585.552 1.665 2.023 2.814 2.901 4.324 1.897 3.261.622 7.677-1.952 10.405-2.574 2.728-6.146 4.161-9.601 5.517 0 0-39.033-16.755-45.644-26.944-6.61-10.189 8.089-21.41-4.55-31.422z"></path><path fill="#FFDBCF" d="M909.298 634.738s3.597 7.614 5.697 13.577c1.376 3.904-11.271 7.248-11.271 7.248-3.081-4.307-7.512-15.431-7.512-15.431 5.482-3.004 7.405-3.144 13.086-5.394z"></path><path fill="#252F57" d="M995.085 571.278c1.302 23.642-14.043 28.717-29.058 30.607-12.879 1.621-30.321-1.172-63.414-4.019 3.61 10.504 4.952 18.82 9.598 42.435-.734 2.135-11.697 7.85-13.082 6.469-24.843-49.436-11.26-66.086 2.629-73.076 19.708-9.918 65.719-8.897 93.327-2.416zM914.989 647.936c2.352 1.882 3.213 1.372 5.795 3.924 2.583 2.552 5.148 9.642 8.1 12.631-.489.975-1.76 1.414-2.355 2.287-3.395-3.365-5.31-7.389-9.309-9.356 1.014 2.647 2.097 8.3 3.081 10.543.985 2.244 1.628 2.957.536 4.705-2.879 4.611-14.203 19.793-19.636 16.914-5.432-2.879 5.785-13.843 4.902-18.707-.883-4.864-1.801-10.599-2.65-15.548 3.617-2.899 8.007-4.4 11.536-7.393z"></path><path fill="#FFDBCF" d="M896.254 649.595s-2.33 8.118-4.683 13.98c-1.541 3.838-13.084-2.435-13.084-2.435.544-5.316 4.555-16.606 4.555-16.606 6.023 1.57 7.536 2.796 13.212 5.061z"></path><path fill="#2F3B6B" d="M1006.983 579.99c1.302 23.642-14.326 31.939-29.341 33.828-12.879 1.621-30.321-1.172-63.414-4.02-9.204 11.925-11.004 29.811-19.073 45.387-4.564-.168-14.509-2.01-15.894-3.392 5.135-30.021 17.823-64.97 28.854-69.211 28.157-10.821 72.711-12.682 98.868-2.592zM891.815 663.291c.507 3.018 1.476 3.237 1.714 6.91s-2.511 10.69-2.286 14.943c-1 .382-2.228-.172-3.24.063-.306-4.836.915-9.136-.754-13.357-.984 2.659-3.888 7.588-4.63 9.927-.742 2.34-.734 3.313-2.686 3.851-5.15 1.419-23.472 4.814-25.603-1.072-2.13-5.886 13.348-6.236 15.882-10.443 2.534-4.208 5.613-9.083 8.228-13.331 4.574.355 8.804 2.282 13.375 2.509z"></path><path fill="#FFDBCF" d="M914.578 482.404c1.283-1.939 5.858 8.221 8.435 10.61 2.578 2.389 1.175-5.752 2.951-4.961 3.784 1.685 2.671 11.017 3.024 11.564.891 1.379 5.098 4.053 5.098 4.053s-5.573 6.95-6.282 5.696c-.709-1.254-4.243-5.314-7.313-8.022-6.924-6.109-7.196-17-5.913-18.94z"></path><path fill="#EB628D" d="M983.716 499.18c-1.254 9.438-11.077 35.196-21.989 39.299-11.918 4.481-36.635-30.628-36.635-30.628l6.876-7.274 23.46 19.027c4.931-3.833 2.662-26.544 10.614-35.133 4.388-4.739 19.443 1.396 17.674 14.709z"></path><path fill="#2F3B6B" d="m928.488 501.493 2.894-2.697-17.488-19.808-2.895 2.697z"></path><path fill="#FFDBCF" d="M915.758 485.171c1.676-2.056 5.748 10.044 8.415 13.066 2.666 3.021 1.978-6.407 3.911-5.298 4.118 2.363 1.81 12.85 2.151 13.514.861 1.675 5.348 5.212 5.348 5.212s-7.117 7.252-7.783 5.741c-.667-1.51-4.236-6.546-7.426-9.989-7.198-7.766-6.292-20.191-4.616-22.246z"></path><path fill="#FF7AA3" d="M1007.963 582.499c-5.414-2.393-31.137-5.862-42.412-14.995 1.644-3.509 6.061-26.732-2.445-41.676-9.539-16.758.501-37.941.501-37.941l10.001-6.911s18.592 1.014 25.875 19.981c8.48 22.082 10.146 55.633 8.48 81.542z"></path><path fill="#FFDBCF" d="M973.609 480.977c-3.87 5.337-7.648 10.138-10.001 6.911l-.595-1.346-2.741-6.3-.209-.463.727-1.087 6.555-9.804 4.683 9.03 1.581 3.059z"></path><path fill="#E6E6E6" d="M971.606 477.107c-2.339 3.998-5.954 8.023-9.019 8.519l-2.741-6.3.518-1.549 6.555-9.804 4.687 9.134z"></path><path fill="#FFDBCF" d="M966.035 464.646c-5.532 2.857-15.804-11.4-16.025-5.668-.514 13.384 4.805 21.857 8.28 22.61 6.538 1.417 12.525-6.327 11.79-13.531 0 0 2.571-4.934.362-7.071-3.04-2.94-4.407 3.66-4.407 3.66z"></path><path fill="#EB628D" d="M992.554 512.402c-2.48 10.591-16.53 38.742-29.405 42.125-14.061 3.695-38.267-39.163-38.267-39.163l8.635-7.466 24.572 24.412c6.039-3.781 5.99-29.89 15.996-38.725 5.523-4.878 21.968 3.876 18.469 18.817z"></path><path fill="#F4B8D6" d="M1153.542 286.457c3.236-3.535 9.593-5.034 14.687-2.206 5.459 3.032 6.235 9.557 6.312 10.306l-.195.783.209-.78c.414-.628 4.122-6.053 10.365-6.213 5.824-.149 10.765 4.123 11.997 8.754 2.257 8.485-8.615 15.636-9.845 16.444-7.358 4.838-15.305 3.987-18.139 3.518l-.173-.029-.221-.077c-2.713-.96-9.755-3.935-13.883-11.367-.73-1.314-7.036-12.666-1.114-19.133zM1233.149 254.803c2.255-2.463 6.684-3.508 10.233-1.537 3.804 2.113 4.344 6.659 4.398 7.18l-.136.546.146-.543c.289-.438 2.872-4.217 7.222-4.329 4.058-.104 7.501 2.873 8.359 6.099 1.573 5.912-6.003 10.894-6.859 11.458-5.127 3.371-10.664 2.778-12.639 2.451l-.121-.02-.154-.054c-1.89-.669-6.797-2.741-9.673-7.92-.508-.915-4.902-8.825-.776-13.331zM1182.421 201.257c2.255-2.463 6.684-3.508 10.233-1.537 3.803 2.113 4.344 6.659 4.398 7.18l-.136.546.146-.543c.289-.438 2.872-4.217 7.222-4.329 4.058-.104 7.501 2.873 8.359 6.099 1.573 5.912-6.003 10.894-6.86 11.458-5.127 3.371-10.664 2.778-12.638 2.451l-.121-.02-.154-.054c-1.89-.669-6.797-2.741-9.673-7.92-.509-.915-4.902-8.825-.776-13.331z"></path></svg>