<svg xmlns="http://www.w3.org/2000/svg" xmlns:xlink="http://www.w3.org/1999/xlink" enable-background="new 0 0 1600 1600" viewBox="0 0 1600 1600" id="exit-door"><path fill="#e5e9fe" d="M1256.9,1384.7c0,0,198.1-327.3,10-535.7S913.1,723.5,815.6,447.6s-494.1-235.9-554.3,50s195.8,513.8,66.8,887
		H1256.9z"></path><rect width="499.2" height="1164.4" x="467.2" y="215" fill="#6457fe"></rect><polygon fill="#868aec" points="966.3 215 596.3 317.3 596.3 1284.2 966.3 1379.4"></polygon><path fill="#5248d1" d="M1042.1,415.6c0,0,50.3-2.5,81.9,4.1C1124,419.7,1074.8,447.4,1042.1,415.6z"></path><polygon fill="#e0867a" points="1109.7 461.2 1059.9 462.3 1059.9 401.3 1109.7 401.3"></polygon><path fill="#fcaa8e" d="M918.5,1330c-0.4-1.4-0.6-2.1-0.8-3.1l-0.7-2.7c-0.5-1.8-0.8-3.5-1.2-5.3c-0.8-3.5-1.5-6.9-2.2-10.3
			c-1.3-6.8-2.6-13.6-3.6-20.4c-2.1-13.5-3.9-27-5.2-40.5c-2.7-27-3.9-53.9-4-80.8c-0.1-26.9,0.9-53.7,3-80.4
			c2.1-26.7,5.3-53.3,9.3-79.7c2.2-13.2,4.2-26.4,6.9-39.4l1.9-9.8l0.9-4.9l1.1-4.9l4.3-19.5l1.1-4.9l1.2-4.9l2.4-9.7l2.4-9.7
			l1.2-4.8l1.3-4.8c3.5-12.8,6.8-25.7,10.8-38.4c15.2-51,33.5-100.9,54.7-149.5l40.6,17.1c-19.2,47.6-35.7,96.2-49,145.6
			c-3.5,12.3-6.4,24.8-9.4,37.1l-1.1,4.7l-1,4.7l-2,9.4l-2,9.4l-1,4.7l-0.9,4.7l-3.6,18.8l-0.9,4.7l-0.8,4.7l-1.6,9.4
			c-2.2,12.6-3.8,25.2-5.6,37.8c-3.1,25.3-5.5,50.6-6.9,75.9c-1.4,25.3-1.6,50.7-0.9,76c0.7,25.3,2.5,50.4,5.7,75.3
			c1.5,12.4,3.4,24.8,5.7,37c1.1,6.1,7.1,25.1,8.4,31.1c0.7,2.9,1.4,5.9,2.1,8.8c0.4,1.4,0.7,2.9,1.1,4.2l0.6,2l0.5,1.6L918.5,1330z
			"></path><path fill="#313057" d="M991.1 1272.3L991.1 1272.3 991.1 1272.3C991.1 1272.3 991.1 1272.3 991.1 1272.3zM1057.9 724.5c-17.6 44.9-33 90.5-45.6 136.6l-4.7 17.3-4.3 17.4c-3 11.6-5.4 23.2-8 34.9-4.8 23.3-9.2 46.7-12.3 70.1-3.3 23.4-5.9 46.9-7.4 70.4-1.5 23.4-2.1 46.9-1.7 70.1.5 23.2 2 46.3 4.8 68.9 1 8 2.2 15.9 3.6 23.7-.2 7.3-.3 8.2-8.7 12.1l-78.2 11.7c-5.8.9-11.1-3.2-11.8-9-1.2-9.6-2.2-19.1-2.9-28.6-2.1-26.6-2.6-53-1.9-79.1.7-26.2 2.6-52.2 5.4-77.9 2.8-25.8 6.8-51.3 11.6-76.6 4.7-25.3 10.5-50.3 16.8-75.2 3.4-12.3 6.5-24.8 10.2-37l5.4-18.4 5.8-18.2c15.8-48.5 34.2-95.9 54.8-142.1L1057.9 724.5z"></path><path fill="#fcaa8e" d="M1086.6,1344.9l-2.4-10.2l-2.3-10l-4.3-20c-2.8-13.3-5.4-26.6-8-40c-5.1-26.7-9.7-53.4-13.8-80.3
			c-4.2-26.8-7.8-53.7-11-80.7c-3.1-27-5.9-54-7.9-81.2c-4.1-54.3-5.8-108.9-3.7-163.6c0.2-6.8,0.6-13.7,1-20.5
			c0.4-6.9,0.7-13.7,1.4-20.5l1.8-20.5l2.4-20.5c3.5-27.4,8.3-54.7,15-81.8l42.8,10.3c-5.6,25.1-9.4,50.8-12.1,76.7l-1.8,19.5
			l-1.2,19.6c-0.5,6.5-0.6,13.1-0.8,19.6c-0.2,6.5-0.5,13.1-0.5,19.7c-0.7,52.5,2.3,105.2,7.5,157.8c2.6,26.3,5.9,52.6,9.6,78.8
			c3.7,26.2,7.9,52.4,12.6,78.4c4.7,26.1,9.8,52.1,15.4,77.9c2.8,12.9,5.7,25.8,8.7,38.7l4.6,19.2l2.4,9.5l2.4,9.3L1086.6,1344.9z"></path><path fill="#313057" d="M1133.2 1262.5l-63.8 14.8c-9.7 2.2-19.3-4-21.1-13.8-1.2-6.5-2.4-13-3.6-19.5-4.6-25.9-8.7-51.8-12.3-77.8-7.3-52-12.5-104.2-15.5-156.8-1.4-26.3-2.3-52.7-2.5-79.1 0-26.5.5-53 2.1-79.5 1.7-26.6 4.2-53.2 8-79.8 3.9-26.6 9.1-53.2 15.8-79.6l71.7 17.2c-4.9 23.5-8.5 47.6-11 71.8-2.4 24.3-3.6 48.9-4.1 73.5-.4 24.7.2 49.5 1.3 74.3 1.2 24.8 3.1 49.7 5.6 74.5 5 49.7 12.2 99.3 21.3 148.6 4.5 24.6 9.5 49.2 15 73.7 1.5 6.5 2.9 12.9 4.4 19.3C1146.3 1252.5 1141.3 1260.6 1133.2 1262.5zM991.2 1272.3L991.2 1272.3C991.1 1272.3 991.1 1272.3 991.2 1272.3L991.2 1272.3z"></path><path fill="#383764" d="M982.8,1319.5c-0.3-1.2-1.8-1.6-2.6-0.6c-3.3,3.7-14.4,5.6-51.6-15.7c-2.5-1.5-19.7-13.3-23.9-3.9
				c-25.7,58.2-98.1,53.5-98.1,75.1l176.4-4C983.1,1370.2,991.2,1352.7,982.8,1319.5z"></path><path fill="#171721" d="M806.7,1374.2c0,0,1.5,9,2.8,10.3c1.3,1.3,172.9-0.6,172.9-0.6l0.7-13.7L806.7,1374.2z"></path><path fill="#383764" d="M1147,1319.8c-0.3-1.2-1.8-1.6-2.6-0.7c-3.3,3.6-14.4,5.5-51.5-15.9c-2.5-1.5-19.6-13.4-23.8-4.1
				c-26,58-98.4,53.1-98.4,74.6l176.4-3.2C1147.1,1370.6,1155.3,1353.1,1147,1319.8z"></path><path fill="#171721" d="M970.7,1373.8c0,0,1.5,9,2.8,10.3c1.3,1.3,172.9,0.2,172.9,0.2l0.8-13.7L970.7,1373.8z"></path><path fill="#6457fe" d="M1135.8,448.7c0,0-32.9,20.6-57.9,17.5c-25.2-3.2-38.9-18-46.2-36.7c0,0,6.8,0,9.8,0.9
			c8.3,2.6,19.6,10.1,32.9,11.6l4.7,19.3l8.7-19.6c20.9-2.1,36.2-7.8,36.2-7.8L1135.8,448.7z"></path><path fill="#6457fe" d="M1192.7,500.6c0,0-12.4,82.1-36,112.7c0,0-25.5,30.6-47.2,108c0,0-68.5,12.8-126.6-12
			c0,0,10.5-107.2-10.1-142.5c-20.5-35.2,10.1-134.7,10.1-134.7s21.4-2.4,48.9-2.6c0.4,1.2,19.2,61.5,99,12.9
			C1171.8,471.4,1192.7,500.6,1192.7,500.6z"></path><defs><path id="a" d="M1192.7,500.6c0,0-12.4,82.1-36,112.7
					c0,0-25.5,30.6-47.2,108c0,0-68.5,12.8-126.6-12c0,0,10.5-107.2-10.1-142.5c-20.5-35.2,10.1-134.7,10.1-134.7s21.4-2.4,48.9-2.6
					c0.4,1.2,19.2,61.5,99,12.9C1171.8,471.4,1192.7,500.6,1192.7,500.6z"></path></defs><clipPath id="b"><use overflow="visible" xlink:href="#a"></use></clipPath><g clip-path="url(#b)"><path fill="none" d="M1214.9,538.2l-44.4,33.9l33.9,44.3l44.4-33.9L1214.9,538.2z M1214.9,538.2l-44.4,33.9l33.9,44.3
					l44.4-33.9L1214.9,538.2z M1204.4,616.4l-44.3,33.9l33.9,44.4l44.3-33.9L1204.4,616.4z M1214.9,538.2l-44.4,33.9l33.9,44.3
					l44.4-33.9L1214.9,538.2z M1293.1,548.6l-44.3,33.9l33.9,44.4l44.3-33.9L1293.1,548.6z M1214.9,538.2l-44.4,33.9l33.9,44.3
					l44.4-33.9L1214.9,538.2z M1180.9,493.8l-33.9-44.4l-44.4,33.9l-44.3,33.9l-44.4,33.9l33.9,44.4l67.9,88.7l44.4-33.9l-33.9-44.3
					l44.3-33.9l-33.9-44.3L1180.9,493.8z M1214.9,538.2l-44.4,33.9l33.9,44.3l44.4-33.9L1214.9,538.2z M1225.3,459.9l-44.3,33.9
					l33.9,44.3l44.3-33.9L1225.3,459.9z M1293.1,548.6l-44.3,33.9l33.9,44.4l44.3-33.9L1293.1,548.6z M1449.7,569.4l-67.9-88.7
					l-44.3,33.9l33.9,44.4l-44.4,33.9l33.9,44.3l-44.3,33.9l33.9,44.4l44.3-33.9l44.4-33.9l44.3-33.9L1449.7,569.4z M1314,392
					l-33.9-44.4l-44.3,33.9l-44.4,33.9l33.9,44.4l44.4-33.9l33.9,44.3l44.3-33.9L1314,392z M1303.6,470.3l-44.4,33.9l33.9,44.4
					l44.4-33.9L1303.6,470.3z M1248.8,582.5l33.9,44.4l44.3-33.9l-33.9-44.3L1248.8,582.5z M1293.1,548.6l-44.3,33.9l33.9,44.4
					l44.3-33.9L1293.1,548.6z M1282.7,626.9l-44.4,33.9l33.9,44.3l44.4-33.9L1282.7,626.9z M1214.9,538.2l-44.4,33.9l33.9,44.3
					l44.4-33.9L1214.9,538.2z M1272.3,705.1l-44.3,33.9l-33.9-44.3l-44.4,33.9l33.9,44.3l33.9,44.4l44.4-33.9l44.3-33.9
					L1272.3,705.1z M1214.9,538.2l-44.4,33.9l33.9,44.3l44.4-33.9L1214.9,538.2z M1293.1,548.6l-44.3,33.9l33.9,44.4l44.3-33.9
					L1293.1,548.6z M1293.1,548.6l-44.3,33.9l33.9,44.4l44.3-33.9L1293.1,548.6z M1214.9,538.2l-44.4,33.9l33.9,44.3l44.4-33.9
					L1214.9,538.2z"></path><polygon fill="#6457fe" points="1199.5 480.7 1155.2 514.7 1121.2 470.3 1165.6 436.4"></polygon><rect width="55.8" height="55.8" x="975.9" y="426.8" fill="#6457fe" transform="rotate(-37.422 1003.86 454.685)"></rect><rect width="55.8" height="55.8" x="1101.2" y="682.4" fill="#6457fe" transform="rotate(-37.414 1129.086 710.327)"></rect><rect width="55.8" height="55.8" x="944.6" y="661.6" fill="#6457fe" transform="rotate(-37.414 972.534 689.493)"></rect><rect width="55.8" height="55.8" x="1111.6" y="604.2" fill="#6457fe" transform="rotate(-37.422 1139.582 632.073)"></rect><polyline fill="none" points="1361 637.3 1405.4 603.4 1449.7 569.4"></polyline><line x1="1228" x2="1183.6" y1="739.1" y2="773" fill="none"></line><line x1="1415.8" x2="1371.4" y1="525.1" y2="559" fill="none"></line><line x1="1126.2" x2="1081.8" y1="606" y2="640" fill="none"></line><line x1="1314" x2="1269.6" y1="392" y2="426" fill="none"></line><polyline fill="none" points="1136.6 527.8 1092.2 561.7 1047.9 595.6"></polyline><polygon fill="#6457fe" points="1189.1 559 1144.8 592.9 1110.8 548.6 1155.2 514.7"></polygon><rect width="55.8" height="55.8" x="1054.2" y="437.2" fill="#6457fe" transform="rotate(-37.414 1082.062 465.088)"></rect><line x1="1269.6" x2="1235.7" y1="426" y2="381.6" fill="none"></line><polyline fill="none" points="1371.4 559 1405.4 603.4 1439.3 647.7"></polyline><line x1="1394.9" x2="1361" y1="681.6" y2="637.3" fill="none"></line><polygon fill="#6457fe" points="1110.8 548.6 1066.5 582.5 1032.5 538.2 1076.9 504.2"></polygon><rect width="55.8" height="55.8" x="965.5" y="505.1" fill="#6457fe" transform="rotate(-37.414 993.377 532.949)"></rect><line x1="1136.6" x2="1102.6" y1="527.8" y2="483.4" fill="none"></line><rect width="55.8" height="55.8" x="1033.3" y="593.7" fill="#6457fe" transform="rotate(-37.414 1061.245 621.637)"></rect><rect width="55.8" height="55.8" x="1022.9" y="672" fill="#6457fe" transform="rotate(-37.422 1050.874 699.935)"></rect><rect width="55.8" height="55.8" x="955.1" y="583.3" fill="#6457fe" transform="rotate(-37.422 983.019 611.24)"></rect><polyline fill="none" points="1126.2 606 1092.2 561.7 1058.3 517.3"></polyline><line x1="1261.9" x2="1228" y1="783.4" y2="739.1" fill="none"></line></g><path fill="#fcaa8e" d="M1082.7,415.6L1082.7,415.6c-23.4,0-42.4-19-42.4-42.4v-64.9h77.4v72.2
			C1117.8,399.9,1102.1,415.6,1082.7,415.6z"></path><path fill="#fcaa8e" d="M1117.8,344.8c0,0,15.1-14.7,23.2,2.3c8.1,17-8.6,40.1-23.5,40S1117.8,344.8,1117.8,344.8z"></path><path fill="#29244a" d="M1008.6,255.7c0,0-17.4,73.9,31.7,75.1c49.2,1.2,55-7,59.2,9.7s0,45.1,6.6,44.5s-3.1-32.5,11.6-40.3
			c0,0,9.7-8.9,17.9-4.3c8.3,4.6,14.8,34.3-18.8,46.6c0,0-1.1,8.6-5.9,14.2c0,0,40.1-8.1,44.7-61.2s-43-80.1-78.4-69.4
			C1041.9,281.5,1010.4,276.2,1008.6,255.7z"></path><path fill="#5248d1" d="M968.7 556.9L968.7 556.9c-14.6-4.4-17.4-16.4-13-31l18.8-83.7c2.9-9.5.7-11.7 9.9-12.5 0 0 5.3-1.8 8.7 1.5L968.7 556.9zM1185.1 491.3L1185.1 491.3c14.6 4.4 20.6 8.2 16.2 22.8l-29.9 90.3c-2.9 9.5-3.2 17.4-12.5 18.2-4.7.4-8.2-1-8.2-1L1185.1 491.3z"></path><path fill="#6457fe" d="M1105.6,739l-122.5-15.8c-5.3-0.7-9-5.5-8.3-10.8l0,0c0.7-5.3,5.5-9,10.8-8.3l122.5,15.8
			c5.3,0.7,9,5.5,8.3,10.8v0C1115.7,736,1110.9,739.7,1105.6,739z"></path><path fill="#fcaa8e" d="M1265.9 643.4c0 0-23.3 110.6-144.6 104.5 0 0-9.4 7.8-19.4 12.1-4.1 1.8-8.3 3-12 2.8-12.8-.4-24 9.3-24 9.3s-6.6-1.2-6.8-7.8c0 0-7.7.2-9.8-11 0 0-12.7-6.3-8.8-15.9l20.8-9.8-2.2-4.9-25 5.2c0 0-6.5-7.5-1.7-14 0 0 34.7-9.5 67.4-2.2 8.4 1.9 16.6 4.8 24.1 9.3 0 0 28.2-1.3 32.5-27.5 4.3-26.2.8-47.3 48.7-54.3C1205.2 639.2 1240.1 611.5 1265.9 643.4zM926.9 608.9c0 0-63.4 93.6-173.4 42.1 0 0-11.6 3.7-22.5 3.9-4.5.1-8.8-.4-12.2-1.9-11.7-5.3-25.7-.5-25.7-.5s-5.6-3.6-3.3-9.8c0 0-7.2-2.7-4.9-13.9 0 0-9.4-10.7-2.2-18.1l23-1.2-.2-5.3-25.1-4.6c0 0-3.2-9.4 3.7-13.6 0 0 35.7 4.4 63.2 23.4 7 4.9 13.6 10.7 18.8 17.7 0 0 26.6 9.5 40.5-13.2 13.8-22.7 18.6-43.4 65.6-31.9C872.3 582.1 915.1 569.6 926.9 608.9z"></path><path fill="#fcaa8e" d="M976.7,433c0,0-92.6-29.3-102,148.5c0,0,48,26.8,52.1,27.4l27.3-76.2L976.7,433z"></path><path fill="#5248d1" d="M980.6,431.8c0,0-56-14-82.6,44.6c-25.5,56.3-23.3,68.8-23.3,68.8l75.4,15.1l4-27.5L980.6,431.8z"></path><path fill="#fcaa8e" d="M1202.7,504.5c0,0,82.7,58.9,63.2,138.9l-60.7-4.2c0,0-25.4-32.6-24.3-63.7"></path><path fill="#5248d1" d="M1200.5,503c0,0,47.2,30.5,65.4,87.4L1190,628l-13.2-39.8C1176.7,588.2,1191.1,535.5,1200.5,503z"></path><path fill="#fcaa8e" d="M684.2 586l-29.8 15.6c0 0-.2 6.8 5 10.1l23.3-11.7L684.2 586zM682.8 610.7l-20 14.5c0 0-.6 7.5 3.8 9.9l18.4-6.3C684.9 628.8 679.8 621 682.8 610.7z"></path><path fill="#fcaa8e" d="M689.8,642.7l-20.5,5.2c0,0-5.4-9-2.8-12.8l18.4-6.3C684.9,628.8,682.6,639.3,689.8,642.7z"></path><path fill="#fcaa8e" d="M693.1,652.5l-21.7,3.8c0,0-6-4.1-2.2-8.4l20.5-5.2C689.8,642.7,687.8,648.7,693.1,652.5z"></path><circle cx="741.6" cy="635.1" r="15.3" fill="#ffbba9"></circle><path fill="#ffbba9" d="M736,626.1l-2.8,16.6l-16.5-2.8c-9.2-1.6-15.3-10.3-13.8-19.5l0,0L736,626.1z"></path><path fill="#6457fe" d="M1042.1 415.6l-1.8 14.5 33.1 23.8 1.9-26.1c.1-1.5-.8-2.8-2.3-3.2L1042.1 415.6zM1087.8 453.9l.4-24.6c0-1.9 1.4-3.5 3.3-3.9l32.5-5.8v14.1L1087.8 453.9z"></path><ellipse cx="646.4" cy="765.2" fill="#6457fe" rx="19.7" ry="32"></ellipse></svg>