<svg xmlns="http://www.w3.org/2000/svg" xmlns:xlink="http://www.w3.org/1999/xlink" enable-background="new 0 0 600 400" viewBox="0 0 600 400" id="girl-doing-homework"><g><path fill="#F6F2F1" d="M95.906,372.955c0,0-90.919-56.011-57.267-116.068
		c33.652-60.057,64.976,4.181,148.705-45.155c83.729-49.336,58.482-188.888,184.268-114.987s25.015,116.399,65.609,150.369
		c40.594,33.97,67.842,13.819,105.804,49.855c37.962,36.035,22.831,75.22,22.831,75.22L95.906,372.955z"></path><g><g><path fill="#0A0909" d="M187.455,146.533H72.171c-0.138,0-0.25-0.112-0.25-0.25s0.112-0.25,0.25-0.25h115.283
				c0.138,0,0.25,0.112,0.25,0.25S187.592,146.533,187.455,146.533z"></path></g><g><path fill="#0A0909" d="M204.281,161.01h-81.34c-0.138,0-0.25-0.112-0.25-0.25s0.112-0.25,0.25-0.25h81.34
				c0.138,0,0.25,0.112,0.25,0.25S204.418,161.01,204.281,161.01z"></path></g><g><path fill="#0A0909" d="M166.325,161.01c-0.138,0-0.25-0.112-0.25-0.25v-14.478c0-0.138,0.112-0.25,0.25-0.25
				s0.25,0.112,0.25,0.25v14.478C166.575,160.898,166.462,161.01,166.325,161.01z"></path></g><g><path fill="#0A0909" d="M127.697,161.01c-0.138,0-0.25-0.112-0.25-0.25v-14.478c0-0.138,0.112-0.25,0.25-0.25
				s0.25,0.112,0.25,0.25v14.478C127.947,160.898,127.834,161.01,127.697,161.01z"></path></g><g><path fill="#0A0909" d="M146.368,175.684c-0.138,0-0.25-0.112-0.25-0.25V160.76c0-0.138,0.112-0.25,0.25-0.25
				s0.25,0.112,0.25,0.25v14.674C146.618,175.572,146.505,175.684,146.368,175.684z"></path></g><g><path fill="#0A0909" d="M182.172,175.684c-0.138,0-0.25-0.112-0.25-0.25V160.76c0-0.138,0.112-0.25,0.25-0.25
				s0.25,0.112,0.25,0.25v14.674C182.422,175.572,182.31,175.684,182.172,175.684z"></path></g><g><path fill="#0A0909" d="M216.672,175.684H104.499c-0.138,0-0.25-0.112-0.25-0.25s0.112-0.25,0.25-0.25h112.174
				c0.138,0,0.25,0.112,0.25,0.25S216.81,175.684,216.672,175.684z"></path></g></g><rect width="330.457" height="2.812" x="118.206" y="371.197" fill="#0A0909"></rect><g><g><path fill="#6696F8" fill-rule="evenodd" d="M256.616,225.324h-3.618c-4.903,0-8.877-3.974-8.877-8.877
				v-5.872h21.372v5.872C265.493,221.349,261.519,225.324,256.616,225.324z" clip-rule="evenodd"></path><g><path fill="#6696F8" d="M267.933,221.182c-2.876,0-5.217-2.34-5.217-5.217c0-2.876,2.34-5.217,5.217-5.217
					c2.877,0,5.217,2.34,5.217,5.217C273.15,218.842,270.81,221.182,267.933,221.182z M267.933,212.456
					c-1.935,0-3.51,1.575-3.51,3.51c0,1.935,1.575,3.51,3.51,3.51c1.935,0,3.51-1.575,3.51-3.51
					C271.443,214.031,269.868,212.456,267.933,212.456z"></path></g></g><g><path fill="#090909" d="M249.042,207.029c-0.034,0-0.068-0.009-0.1-0.027c-0.092-0.056-0.121-0.175-0.066-0.266
				c0.012-0.019,1.112-1.862,0.878-2.921c-0.119-0.534-0.425-1.061-0.75-1.618c-0.345-0.594-0.736-1.268-0.97-2.069
				c-0.469-1.605,1.112-3.717,1.18-3.807c0.064-0.085,0.186-0.102,0.271-0.037c0.085,0.064,0.102,0.186,0.037,0.271
				c-0.016,0.02-1.53,2.045-1.117,3.465c0.221,0.756,0.583,1.379,0.934,1.981c0.34,0.585,0.661,1.137,0.792,1.729
				c0.269,1.21-0.874,3.124-0.923,3.204C249.171,206.996,249.108,207.029,249.042,207.029z"></path></g><g><path fill="#090909" d="M255.708,200.903c-0.034,0-0.068-0.009-0.1-0.027c-0.092-0.056-0.121-0.175-0.066-0.266
				c0.012-0.019,1.112-1.862,0.878-2.921c-0.119-0.534-0.425-1.061-0.75-1.618c-0.345-0.594-0.736-1.268-0.97-2.069
				c-0.469-1.605,1.112-3.718,1.18-3.808c0.064-0.085,0.185-0.103,0.271-0.037c0.085,0.064,0.102,0.186,0.037,0.271
				c-0.016,0.02-1.53,2.046-1.117,3.466c0.221,0.756,0.583,1.379,0.934,1.981c0.34,0.585,0.661,1.137,0.792,1.729
				c0.269,1.21-0.874,3.124-0.923,3.204C255.837,200.87,255.774,200.903,255.708,200.903z"></path></g><g><path fill="#090909" d="M260.721,208.621c-0.034,0-0.068-0.009-0.1-0.027c-0.092-0.056-0.121-0.175-0.066-0.266
				c0.012-0.019,1.113-1.861,0.878-2.921c-0.119-0.534-0.425-1.062-0.749-1.619c-0.345-0.594-0.736-1.267-0.97-2.069
				c-0.47-1.604,1.111-3.717,1.179-3.807c0.064-0.086,0.186-0.102,0.271-0.037c0.085,0.064,0.102,0.186,0.037,0.271
				c-0.016,0.02-1.53,2.046-1.116,3.464c0.221,0.758,0.583,1.381,0.933,1.983c0.34,0.584,0.661,1.137,0.792,1.729
				c0.27,1.21-0.874,3.124-0.923,3.204C260.85,208.588,260.787,208.621,260.721,208.621z"></path></g></g><g><path fill="#464D7B" d="M241.542,95.638h-47.019v-0.867c0-12.984,10.526-23.51,23.51-23.51h0c12.984,0,23.51,10.526,23.51,23.51
			V95.638z"></path><g><path fill="#0A0909" d="M218.032,104.795c-4.875,0-8.841-3.967-8.841-8.842v-0.314c0-0.166,0.135-0.301,0.301-0.301h17.081
				c0.166,0,0.301,0.135,0.301,0.301v0.314C226.874,100.828,222.907,104.795,218.032,104.795z M209.792,95.939v0.014
				c0,4.544,3.696,8.24,8.239,8.24c4.544,0,8.24-3.696,8.24-8.24v-0.014H209.792z"></path></g><g><path fill="#0A0909" d="M218.032,71.562c-0.166,0-0.301-0.135-0.301-0.301v-44.97c0-0.166,0.135-0.301,0.301-0.301
				s0.301,0.135,0.301,0.301v44.97C218.333,71.427,218.198,71.562,218.032,71.562z"></path></g></g><g><g><path fill="#0A0909" d="M204.477,356.49c0,0-7.734-9.771-6.313-15.762c1.421-5.991,2.674-10.121-1.09-16.771
				c-3.764-6.649-4.395-10.303-1.257-15.599c3.138-5.296,3.737-13.483-1.035-18.849c-4.772-5.367,1.477-15.678,1.477-15.678
				s0.985,11.46,4.995,14.573c4.009,3.112,9.027,10.132,6.936,15.278c-2.091,5.147-3.351,15.833,1.401,21.841
				c4.752,6.008,7.222,18.761-0.525,29.132L204.477,356.49z"></path><path fill="#0A0909" d="M213.366,352.937c0,0,5.592-6.979,3.585-12c-2.007-5.02-3.711-10.208,1.321-14.224
				c5.032-4.016,5.353-8.75,2.587-15.669c-2.766-6.919,5.297-7.966,5.199-15.132c-0.08-5.865,6.241-10.217,6.241-10.217
				s-4.435,5.972-0.259,14.113c2.843,5.542,2.266,11.667-1.477,15.678c-3.744,4.011,2.258,13.031,1.404,17.811
				c-0.855,4.78-6.435,10.508-4.963,14.19L213.366,352.937z"></path><g><path fill="#FFF" d="M207.398,355.432c-0.003,0-0.006,0-0.01,0c-0.061-0.006-0.105-0.06-0.101-0.12
					c0.013-0.139,1.147-14.056-3.199-25.291c-4.268-11.029-3.538-16.655-2.331-25.976l0.13-1c0.801-6.215-1.326-9.955-3.383-13.573
					c-1.252-2.201-2.434-4.28-3.004-6.87c-0.014-0.06,0.024-0.118,0.084-0.131c0.059-0.02,0.118,0.024,0.131,0.084
					c0.563,2.557,1.737,4.622,2.98,6.808c2.074,3.649,4.22,7.423,3.41,13.71l-0.13,1.001c-1.203,9.286-1.93,14.891,2.317,25.867
					c4.366,11.284,3.227,25.251,3.215,25.391C207.502,355.389,207.455,355.432,207.398,355.432z"></path></g><g><path fill="#FFF" d="M220.046,350.378c-0.014,0-0.028-0.003-0.042-0.009c-0.057-0.022-0.083-0.087-0.06-0.144
					c0.055-0.134,5.508-13.474,5.521-22.764c0.015-9.327,1.199-16.862,2.295-19.915c0.765-2.138,0.606-5.495,0.479-8.193
					c-0.053-1.111-0.103-2.161-0.081-2.981c0.002-0.06,0.051-0.107,0.11-0.107c0.001,0,0.002,0,0.003,0
					c0.061,0.002,0.109,0.053,0.107,0.113c-0.021,0.813,0.028,1.858,0.08,2.965c0.129,2.718,0.288,6.101-0.492,8.278
					c-1.089,3.036-2.267,10.54-2.281,19.841c-0.014,9.334-5.483,22.714-5.539,22.848
					C220.13,350.352,220.089,350.378,220.046,350.378z"></path></g></g><polygon fill="#FEB91E" fill-rule="evenodd" points="226.846 371.791 200.548 371.791 194.624 344.579 232.193 344.579" clip-rule="evenodd"></polygon></g><g><g><path fill="#0A0909" fill-rule="evenodd" d="M203.261,217.557c0,0-0.954,1.367-1.041,3.015
				c-0.087,1.649,1.041,3.124,1.041,3.124h-32.114v-6.139H203.261z" clip-rule="evenodd"></path><path fill="#0A0909" fill-rule="evenodd" d="M204.764,217.557v-1.236h-32.884
				c-2.348,0-4.251,1.903-4.251,4.251v0c0,2.348,1.903,4.251,4.251,4.251h32.884v-1.128h-33.242v-6.139H204.764z" clip-rule="evenodd"></path><path fill="#6696F8" fill-rule="evenodd" d="M225.291,217.557v-1.236h-32.883
				c-2.348,0-4.252,1.903-4.252,4.251v0c0,2.348,1.904,4.251,4.252,4.251h32.883v-1.128H192.05v-6.139H225.291z" clip-rule="evenodd"></path><path fill="#F7EBD2" fill-rule="evenodd" d="M224.163,217.557c0,0-0.954,1.367-1.041,3.015
				c-0.087,1.649,1.041,3.124,1.041,3.124H192.05v-6.139H224.163z" clip-rule="evenodd"></path><path fill="#6696F8" fill-rule="evenodd" d="M177.278,216.321h5.436v8.503h-5.436
				c-2.348,0-4.251-1.904-4.251-4.251l0,0C173.027,218.224,174.93,216.321,177.278,216.321z" clip-rule="evenodd"></path><path fill="#0A0909" fill-rule="evenodd" d="M182.122,216.321h5.436v8.503h-5.436
				c-2.348,0-4.251-1.904-4.251-4.251l0,0C177.871,218.224,179.774,216.321,182.122,216.321z" clip-rule="evenodd"></path></g><g><path fill="#0A0909" fill-rule="evenodd" d="M206.806,200.605c0,0-0.954,1.367-1.041,3.015
				c-0.087,1.648,1.041,3.124,1.041,3.124h-32.113v-6.139H206.806z" clip-rule="evenodd"></path><path fill="#0A0909" fill-rule="evenodd" d="M208.309,200.605v-1.236h-32.884
				c-2.348,0-4.251,1.903-4.251,4.251l0,0c0,2.348,1.903,4.251,4.251,4.251h32.884v-1.128h-33.241v-6.139H208.309z" clip-rule="evenodd"></path><path fill="#FEB91E" fill-rule="evenodd" d="M228.836,200.605v-1.236h-32.883
				c-2.348,0-4.251,1.903-4.251,4.251l0,0c0,2.348,1.903,4.251,4.251,4.251h32.883v-1.128h-33.241v-6.139H228.836z" clip-rule="evenodd"></path><path fill="#F7EBD2" fill-rule="evenodd" d="M227.708,200.605c0,0-0.954,1.367-1.041,3.015
				c-0.087,1.648,1.041,3.124,1.041,3.124h-32.113v-6.139H227.708z" clip-rule="evenodd"></path><path fill="#FEB91E" fill-rule="evenodd" d="M180.823,199.369h5.436v8.503h-5.436
				c-2.348,0-4.251-1.903-4.251-4.251l0,0C176.572,201.272,178.475,199.369,180.823,199.369z" clip-rule="evenodd"></path><path fill="#0A0909" fill-rule="evenodd" d="M185.667,199.369h5.436v8.503h-5.436
				c-2.348,0-4.251-1.903-4.251-4.251l0,0C181.416,201.272,183.319,199.369,185.667,199.369z" clip-rule="evenodd"></path></g><g><path fill="#0A0909" fill-rule="evenodd" d="M203.644,209.054c0,0-0.954,1.367-1.041,3.015
				c-0.087,1.648,1.041,3.124,1.041,3.124h-32.113v-6.139H203.644z" clip-rule="evenodd"></path><path fill="#0A0909" fill-rule="evenodd" d="M205.147,209.054v-1.236h-32.883
				c-2.348,0-4.252,1.903-4.252,4.251l0,0c0,2.348,1.904,4.251,4.252,4.251h32.883v-1.128h-33.241v-6.139H205.147z" clip-rule="evenodd"></path><path fill="#1036BF" fill-rule="evenodd" d="M225.674,209.054v-1.236h-32.884
				c-2.348,0-4.251,1.903-4.251,4.251l0,0c0,2.348,1.903,4.251,4.251,4.251h32.884v-1.128h-33.242v-6.139H225.674z" clip-rule="evenodd"></path><path fill="#F7EBD2" fill-rule="evenodd" d="M224.546,209.054c0,0-0.954,1.367-1.041,3.015
				c-0.087,1.648,1.041,3.124,1.041,3.124h-32.113v-6.139H224.546z" clip-rule="evenodd"></path><path fill="#0A0909" fill-rule="evenodd" d="M177.661,207.818h5.436v8.503h-5.436
				c-2.348,0-4.251-1.903-4.251-4.251l0,0C173.41,209.721,175.314,207.818,177.661,207.818z" clip-rule="evenodd"></path><path fill="#0A0909" fill-rule="evenodd" d="M182.505,207.818h5.436v8.503h-5.436
				c-2.348,0-4.251-1.903-4.251-4.251l0,0C178.254,209.721,180.157,207.818,182.505,207.818z" clip-rule="evenodd"></path></g></g><g><path fill="#6696F8" d="M430.721,242.021l6.285-48.163c0.147-1.13,1.195-1.99,2.523-2.07l4.839-0.295
			c1.825-0.111,3.369,1.261,3.166,2.813l-6.285,48.163c-0.147,1.13-1.195,1.99-2.523,2.07l-4.84,0.294
			C432.063,244.946,430.519,243.574,430.721,242.021z"></path><g><path fill="#0A0909" d="M420.019,293.958c-0.547,0-0.99-0.443-0.99-0.99s0.443-0.99,0.99-0.99
				c8.727,0,17.731-37.014,20.465-51.275l6.854-50.92c0.072-0.542,0.566-0.929,1.113-0.85c0.543,0.072,0.923,0.571,0.85,1.113
				l-6.862,50.975C441.392,246.488,431.951,293.958,420.019,293.958z"></path></g><path fill="#FB7E60" fill-rule="evenodd" d="M333.177,182.292c0,0,3.504,6.856-0.803,23.838
			c0,0-23.951,2.279-31.302-8.527c-7.352-10.806-9.737-42.368-11.957-47.877c-2.221-5.509-8.794-8.482-11.204-8.945
			c-2.409-0.461-3.407-0.471-3.407-0.471s0.427-1.306,1.249-1.357c0,0-4.615-1.308-4.025-1.742c0.589-0.432,2.755-0.381,2.755-0.381
			l-1.449-0.904c0,0,0.321-1.123,4.668-0.045c4.346,1.076,11.07,4.338,13.88,4.333c1.352-0.002,1.502-0.687,0.99-3.925
			c-0.511-3.238-0.136-4.74,0.805-3.837c0.941,0.902,2.681,4.648,3.25,10.115c0.569,5.468,6.747,17.46,14.605,28.007
			C319.089,181.123,333.177,182.292,333.177,182.292z" clip-rule="evenodd"></path><polygon fill="#464D7B" points="377.939 177.683 326.746 181.553 329.906 203.087 353.579 204.138"></polygon><path fill="#090909" d="M333.931,199.652c0,0,12.604-9.422,21.507-14.1c8.902-4.678,22.5-7.869,22.5-7.869l-40.207,31.561
			L333.931,199.652z"></path><g><rect width="2.543" height="67.891" x="406.841" y="88.737" fill="#090909" transform="rotate(-21.581 408.071 122.684)"></rect><g><circle cx="408.059" cy="122.587" r="27.522" fill="#6696F8" transform="rotate(-29.191 408.009 122.594)"></circle><path fill="#0B9E2A" d="M407.584 95.067c-.007.013-2.253 4.317-2.65 4.539-.399.223-.533-.151-.65 1.11-.118 1.261-1.064 2.91-1.123 4.811-.059 1.9 1.761 2.751 2.004 3.587.243.836 1.282 3.766 2.41 4.182 1.128.415 2.303 4.391 4.508 4.728 2.205.337 9.312-2.587 11.264-2.034 1.952.553 1.07 2.316 3.06 3.071 1.991.756 3.625.739 4.986 3.042 1.361 2.303-.515 4.695 1.518 4.456 2.033-.239 2.653-2.962 2.653-2.962l.001-.002c.183-4.874-.926-9.859-3.479-14.429C426.969 100.003 417.391 94.906 407.584 95.067zM419.231 139.58c-3.175-.468-2.548-8.774-5.861-7.484-3.313 1.29-9.633 4.821-11.964 3.657-2.331-1.163.31-5.664.509-6.111.199-.447-1.45-10.62-2.507-11.71-1.057-1.09-3.31-1.513-3.77-2.937-.459-1.424-1.71-3.863-5.015-3.362-3.287.499-9.826 7.72-9.9 7.802-.644 5.542.379 11.33 3.308 16.572 1.189 2.129 2.622 4.035 4.239 5.711.024.006 1.704.424 3.382.042 1.69-.384 3.673-2.051 6.609-2.011 2.936.041 2.881.744 4.594 1.804 1.713 1.06.145 5.074 1.714 5.878 1.57.804 7.309.848 9.871-.583 2.562-1.431 10.576-3.58 9.888-5.213C423.64 140.004 422.406 140.047 419.231 139.58z"></path></g><path fill="#090909" d="M394.214,90.994l1.648,4.192c15.643-6.148,33.308,1.55,39.456,17.193
				c6.148,15.643-1.549,33.308-17.193,39.456l1.648,4.192c17.959-7.058,26.795-27.338,19.737-45.296
				C432.453,92.773,412.173,83.936,394.214,90.994z"></path><rect width="4.109" height="24.848" x="439.144" y="137.531" fill="#090909" transform="rotate(-29.191 441.144 149.96)"></rect><polygon fill="#090909" points="428.776 173.354 467.636 151.648 444.389 155.669"></polygon></g><path fill="#FB7E60" fill-rule="evenodd" d="M460.943,176.234c3.022-1.59-9.112-19.806-11.508-21.697
			c-2.394-1.891-2.513-0.39-3.554,1.726c-1.039,2.114-3.458,1.901-5.063,0.833c-1.605-1.065-8.871-5.759-7.787-6.531
			c1.086-0.771,5.562-4.425,6.906-6.84c1.345-2.414,1.171-3.751,7.267-1.513c6.098,2.239,12.883,5.251,22.104,14.424
			c9.221,9.174,16.076,29.628,11.591,37.696c-4.486,8.067-14.703,7.015-20.233,5.983
			C460.667,200.315,453.586,180.105,460.943,176.234z" clip-rule="evenodd"></path><path fill="#090909" fill-rule="evenodd" d="M378.494,149.475c-6.194,2.484-5.813,10.075-3.368,14.272
			c0,0-1.532-6.204,0.244-8.215c0,0-1.944,12.432,11.291,15.779c13.233,3.348,29.111,28.341,29.111,28.341s9.533-10.375,7.13-20.271
			c-2.401-9.896-13.668-13.467-13.668-13.467s7.776-0.597,14.85,11.19c0,0-1.586-6.1-8.272-10.538
			c-6.686-4.44-13.298-5.559-13.298-5.559s-3.603-10.261-11.27-12.783C383.575,145.701,382.652,147.807,378.494,149.475z" clip-rule="evenodd"></path><path fill="#464D7B" d="M410.132,175.372c0,0,22.1,2.959,30.22,3.546c8.12,0.587,21.017-4.366,21.017-4.366
			s-0.669,10.92,0.407,16.594c1.076,5.674,3.717,10.516,3.717,10.516s-13.794,1.321-20.446,1.418
			c-6.651,0.098-16.337-0.978-16.337-0.978L410.132,175.372z"></path><path fill="#090909" fill-rule="evenodd" d="M442.468,203.067c0,0-0.845-10.421-8.736-17.399
			s-23.6-10.296-23.6-10.296l27.338,27.475L442.468,203.067z" clip-rule="evenodd"></path><polygon fill="#F7EBD2" points="343.644 129.009 346.369 141.047 319.675 135.863"></polygon><polygon fill="#0A0909" points="316.798 135.536 319.675 135.863 327.028 182.584 324.862 182.871"></polygon><polygon fill="#0A0909" points="343.644 129.009 341.566 128.773 316.798 135.536 319.675 135.863"></polygon><path fill="#6696F8" d="M359.253,143.549l5.112,46.023c0,0-36.599-6.07-37.337-6.988c-0.738-0.919-7.353-46.721-7.353-46.721
			L359.253,143.549z"></path><polygon fill="#FFF" points="288.107 361.502 287.979 363.211 326.269 359.819 325.847 358.092"></polygon><polygon fill="#FFF" points="316.479 362.946 316.775 364.678 353.893 363.043 353.772 361.052"></polygon><g><path fill="#6797F3" d="M324.238,334.714l1.572,24.101l-37.704,2.686c0,0-0.751-5.938,8.168-10.842
				c8.919-4.904,11.59-11.876,11.303-15.077L324.238,334.714z"></path><path fill="#1636BD" d="M417.903,240.328c1.915,12.048-5.077,40.59-10.721,40.302c-5.645-0.287-50.982-1.391-55.242,1.883
				c-4.26,3.275-0.623,31.154-0.623,31.154l-25.265,1.965l-1.04-5.592l-21.656,2.028c0,0-3.104-26.527,0.564-39.465
				c3.669-12.938,11.866-22.213,51.167-25.901C394.389,243.014,417.903,240.328,417.903,240.328z"></path><path fill="#FC7F61" d="M327.503 315.519c.804 6.669 5.406 26.259 5.406 26.259l17.645-2.473c0 0-.919-21.016-1.504-25.461L327.503 315.519zM305.07 311.908c1.085 7.257 2.507 23.674 2.507 23.674l16.66-.868.774-24.674L305.07 311.908z"></path><path fill="#6797F3" d="M332.909,341.778c0.574,4.695-1.041,9.218-7.356,12.057c-6.316,2.839-7.971,5.193-9.073,9.11
				l37.293-1.894l-3.218-21.747L332.909,341.778z"></path><path fill="#FFF" d="M324.504 354.324c1.485 1.581 4.629 1.319 7.916-1.764 3.287-3.084 4.627-10.661 3.835-12.748s-3.687-.466-3.466 1.456c.221 1.922.306 4.649-1.484 7.623C329.616 351.697 327.275 353.111 324.504 354.324zM294.991 351.413c3.047 1.263 5.667.644 10.205-3.355 4.538-3.998 6.566-10.036 6.473-12.689-.093-2.654-4.309-2.218-4.309-2.218s.188.623.217 2.431c.028 1.807-1.618 6.943-5.026 10.03C299.143 348.698 297.023 349.978 294.991 351.413z"></path><polygon fill="#0A0909" points="327.503 315.519 349.315 316.63 349.049 313.844"></polygon><polygon fill="#0A0909" points="305.07 311.908 324.922 312.919 325.012 310.04"></polygon><g><path fill="#0A0909" d="M324.632,308.331c-0.146,0-0.269-0.111-0.279-0.259c-0.239-3.149-0.547-6.504-0.844-9.748
					c-1.258-13.734-2.56-27.937,0.269-35.51c3.491-9.351,13.428-12.88,13.527-12.915c0.146-0.049,0.306,0.027,0.356,0.174
					s-0.026,0.307-0.173,0.357c-0.098,0.033-9.788,3.482-13.186,12.58c-2.782,7.453-1.487,21.59-0.235,35.262
					c0.298,3.246,0.605,6.604,0.844,9.757c0.012,0.155-0.104,0.29-0.258,0.302C324.646,308.331,324.639,308.331,324.632,308.331z"></path></g><g><path fill="#0A0909" d="M325.012,310.321c-0.146,0-0.268-0.111-0.279-0.258c-0.013-0.154,0.103-0.29,0.257-0.302l14.962-1.209
					c0.176-0.023,0.289,0.104,0.302,0.257c0.013,0.154-0.103,0.29-0.257,0.302l-14.962,1.209
					C325.027,310.321,325.019,310.321,325.012,310.321z"></path></g><g><path fill="#0A0909" d="M342.561,308.565c-0.139,0-0.259-0.102-0.278-0.242c-0.021-0.153,0.087-0.295,0.24-0.316l8.05-1.105
					c0.145-0.012,0.295,0.086,0.316,0.24c0.021,0.153-0.087,0.295-0.24,0.316l-8.05,1.105
					C342.586,308.564,342.574,308.565,342.561,308.565z"></path></g><g><path fill="#0A0909" d="M302.69,305.019c-0.139,0-0.259-0.102-0.278-0.243c-0.021-0.153,0.087-0.295,0.241-0.315l21.421-2.89
					c0.171-0.011,0.294,0.088,0.315,0.241c0.021,0.153-0.087,0.295-0.241,0.315l-21.421,2.89
					C302.714,305.018,302.702,305.019,302.69,305.019z"></path></g><g><path fill="#0A0909" d="M331.148,354.762c-0.038,0-0.076-0.007-0.112-0.023l-3.758-1.647c-0.143-0.063-0.207-0.228-0.145-0.369
					c0.063-0.143,0.232-0.206,0.369-0.145l3.758,1.647c0.143,0.063,0.207,0.228,0.145,0.369
					C331.359,354.7,331.255,354.762,331.148,354.762z"></path></g><g><path fill="#0A0909" d="M334.157,352.417c-0.022,0-0.045-0.002-0.067-0.008l-4.498-1.11c-0.15-0.037-0.242-0.189-0.205-0.34
					s0.189-0.247,0.34-0.205l4.498,1.11c0.15,0.037,0.242,0.189,0.205,0.34C334.398,352.332,334.283,352.417,334.157,352.417z"></path></g><g><path fill="#0A0909" d="M335.77,349.609c-0.009,0-0.018,0-0.027-0.001l-4.465-0.438c-0.154-0.016-0.267-0.152-0.252-0.307
					c0.016-0.153,0.145-0.271,0.307-0.252l4.465,0.438c0.154,0.016,0.267,0.152,0.252,0.307
					C336.035,349.501,335.913,349.609,335.77,349.609z"></path></g><g><path fill="#0A0909" d="M332.901,343.683c-0.148,0-0.272-0.116-0.28-0.266c-0.008-0.155,0.111-0.287,0.266-0.295l4.693-0.242
					c0.138,0.007,0.287,0.111,0.295,0.266c0.008,0.155-0.111,0.287-0.266,0.295l-4.693,0.242
					C332.911,343.683,332.906,343.683,332.901,343.683z"></path></g><g><path fill="#0A0909" d="M331.372,346.215c-0.048,0-0.096-0.004-0.143-0.012c-0.237-0.04-0.556-0.199-0.726-0.729
					c-0.15-0.473-0.095-0.907,0.162-1.26c0.325-0.446,0.927-0.702,1.52-0.849c-1.517-0.39-3.269-0.993-3.382-1.722
					c-0.032-0.205,0.031-0.506,0.512-0.771c2.124-1.17,5.07,2.129,5.194,2.271c0.068,0.077,0.087,0.181,0.057,0.272
					c0.016,0.076,0,0.158-0.05,0.226C334.183,344.086,332.521,346.214,331.372,346.215z M333.731,343.732
					c-0.652,0.015-2.149,0.18-2.612,0.814c-0.151,0.207-0.178,0.455-0.08,0.757c0.101,0.315,0.239,0.339,0.284,0.347
					C331.829,345.731,332.941,344.686,333.731,343.732z M330.33,341.183c-0.26,0-0.511,0.055-0.743,0.184
					c-0.197,0.107-0.23,0.183-0.229,0.192c0.06,0.387,2.086,1.118,4.374,1.586C333.066,342.486,331.589,341.183,330.33,341.183z"></path></g><g><path fill="#0A0909" d="M302.907,352.18c-0.042,0-0.085-0.009-0.124-0.029l-5.033-2.492c-0.14-0.068-0.196-0.236-0.127-0.375
					c0.069-0.14,0.239-0.198,0.375-0.127l5.033,2.492c0.14,0.068,0.196,0.236,0.127,0.375
					C303.109,352.124,303.01,352.18,302.907,352.18z"></path></g><g><path fill="#0A0909" d="M306.07,350.105c-0.029,0-0.06-0.004-0.089-0.015l-6.069-2.031c-0.147-0.049-0.227-0.208-0.177-0.354
					c0.049-0.147,0.207-0.232,0.354-0.177l6.069,2.031c0.147,0.049,0.227,0.208,0.177,0.354
					C306.296,350.031,306.187,350.105,306.07,350.105z"></path></g><g><path fill="#0A0909" d="M308.519,346.927c-0.012,0-0.023,0-0.036-0.002l-6.226-0.804c-0.153-0.02-0.262-0.16-0.242-0.314
					c0.02-0.153,0.153-0.27,0.314-0.242l6.226,0.804c0.153,0.02,0.262,0.16,0.242,0.314
					C308.779,346.825,308.659,346.927,308.519,346.927z"></path></g><g><path fill="#0A0909" d="M304.711,344.056c-0.342,0-0.691-0.098-1.045-0.294c-0.628-0.348-0.941-0.796-0.932-1.33
					c0.021-1.221,1.841-2.516,3.021-3.228c-2.329-0.026-6.936-0.251-7.43-1.607c-0.159-0.438,0.063-0.907,0.663-1.396
					c3.222-2.623,8.358,1.655,9.133,2.333l5.744-0.483c0.151-0.016,0.29,0.102,0.303,0.256c0.014,0.154-0.102,0.29-0.256,0.303
					l-5.661,0.477c-0.207,0.85-1.086,4.035-2.771,4.8C305.23,344,304.973,344.056,304.711,344.056z M306.91,339.199
					c-1.045,0.54-3.594,2.101-3.614,3.243c-0.005,0.315,0.205,0.587,0.643,0.83c0.466,0.257,0.894,0.292,1.312,0.103
					c1.343-0.609,2.15-3.254,2.41-4.239L306.91,339.199z M301.437,335.927c-0.753,0-1.472,0.202-2.093,0.709
					c-0.223,0.181-0.581,0.521-0.491,0.769c0.339,0.929,4.875,1.279,7.968,1.238c0.002,0,0.004,0,0.007,0l0.493-0.042
					C306.25,337.75,303.696,335.927,301.437,335.927z"></path></g></g><path fill="#FB7E60" fill-rule="evenodd" d="M336.688,201.574c-3.019,1.596-11.197-18.706-11.406-21.751
			c-0.208-3.044,1.098-2.294,3.431-1.958c2.332,0.337,3.522-1.78,3.547-3.707c0.027-1.926,0.258-10.573-0.991-10.114
			c-1.249,0.461-6.793,2.09-9.545,1.836c-2.752-0.253-3.756-1.152-5.353,5.143c-1.596,6.296-2.943,13.597-0.581,26.388
			c2.362,12.791,15.37,30.001,24.561,30.856c9.191,0.854,14.094-8.172,16.365-13.318
			C356.717,214.947,344.038,197.689,336.688,201.574z" clip-rule="evenodd"></path><path fill="#464D7B" fill-rule="evenodd" d="M398.478,171.803c4.733,1.694,19.571,4.18,30.628,14.727
			c11.056,10.547,18.89,36.765,20.722,42.418c0,0-8.001-4.44-14.948-4.631c-6.945-0.19-12.15,2.326-12.15,2.326l2.081,5.334
			l-6.095,17.789c0,0-11.514-6.359-26.58-4.342c-24.819,5.687-36.476,1.225-36.476,1.225s4.971-17.031,8.094-29.232
			c0,0-7.807,3.805-12.273,7.016c0,0-1.794-9.175-14.987-23.011c0,0,8.455-7.699,26.356-16.869
			c17.901-9.172,23.594-9.266,23.594-9.266S393.744,170.109,398.478,171.803z" clip-rule="evenodd"></path><g><rect width="5.622" height="28.068" x="381.171" y="215.286" fill="#0A0909" fill-rule="evenodd" clip-rule="evenodd" transform="rotate(44.911 383.993 229.327)"></rect><polygon fill-rule="evenodd" points="371.258 242.083 372.082 237.275 376.064 241.244" clip-rule="evenodd"></polygon><polygon fill="#FC2222" fill-rule="evenodd" points="371.16 243.253 369.722 242.498 371.491 240.723 372.59 241.819" clip-rule="evenodd"></polygon><polygon fill="#FC2222" fill-rule="evenodd" points="385.487 223.828 391.25 226.011 382.192 235.097 376.277 233.067" clip-rule="evenodd"></polygon></g><path fill="#FB7E60" fill-rule="evenodd" d="M422.573,226.616c0,0,10.739-6.661,26.097,1.709
			c0,0,4.845,14.407-3.442,21.432c-8.287,7.027-20.03,3.398-29.403-0.96c-9.374-4.359-16.234-8.048-22.797-9.517
			c-6.562-1.47-9.614,0.782-10.478-1.833c-0.864-2.615-0.431-4.166-2.384-5.054c-1.953-0.888-7.245-1.032-5.684-2.01
			c1.561-0.979,12.661,0.76,13.321-0.506c0.66-1.266,0.493-1.133,2.665-3.083c0,0-0.345,1.126,3.252,2.678
			c3.594,1.551,23.097,2.353,30.5,1.792L422.573,226.616z" clip-rule="evenodd"></path><path fill="#090909" fill-rule="evenodd" d="M422.581 226.658c-1.035-2.652-4.07-9.739-4.07-9.739l2.163 14.49c0 0 2.435-.033 3.567-.143C424.241 231.266 423.617 229.312 422.581 226.658zM363.755 217.414c2.399-1.257 5.323-2.633 5.323-2.633s-4.068 2.569-6.024 5.504L363.755 217.414zM433.439 224.131c5.484.944 13.425 4.175 15.854 6.474 0 0-.347-1.424-.591-2.216 0 0-2.938-2.056-8.013-3.361C435.613 223.726 433.439 224.131 433.439 224.131z" clip-rule="evenodd"></path><g><path fill="#FFF" d="M431.908,204.265c-2.43,0-4.85-0.53-6.32-2.246c-0.49-0.572-0.866-1.12-1.146-1.64
				c-0.327,0.152-0.673,0.271-1.032,0.347c-1.009,0.209-2.481,0.148-3.784-1.337c-1.345-1.534-2.435-3.727-3.096-5.764
				c-0.005,0.002-0.009,0.005-0.014,0.007c-0.752,0.326-1.985,0.364-3.591-1.3c-4.4-4.563-3.389-7.123-3.343-7.23
				c0.023-0.056,0.091-0.086,0.146-0.059c0.057,0.023,0.084,0.089,0.061,0.146c-0.011,0.025-0.985,2.546,3.297,6.987
				c1.202,1.246,2.359,1.677,3.341,1.251c0.012-0.006,0.024-0.011,0.036-0.017c-0.663-2.13-0.843-4.057-0.334-4.835
				c0.168-0.257,0.496-0.527,1.101-0.333c0.685,0.216,1.105,0.89,1.154,1.847c0.063,1.234-0.532,2.795-1.646,3.431
				c0.657,2.026,1.742,4.223,3.056,5.721c1.232,1.405,2.624,1.466,3.57,1.267c0.34-0.071,0.666-0.183,0.975-0.326
				c-1.03-2.056-0.56-3.624,0.186-4.289c0.676-0.603,1.571-0.531,2.228,0.175c0.38,0.409,0.476,0.992,0.269,1.643
				c-0.286,0.899-1.185,1.948-2.373,2.568c0.271,0.505,0.635,1.039,1.111,1.595c3.676,4.288,13.873,0.824,13.977,0.79
				c0.058-0.025,0.122,0.01,0.142,0.069c0.021,0.058-0.011,0.122-0.069,0.142C439.547,202.963,435.714,204.265,431.908,204.265z
				 M425.536,195.706c-0.301,0-0.6,0.117-0.864,0.354c-0.662,0.591-1.088,2.078-0.127,4.021c1.134-0.59,1.99-1.586,2.262-2.438
				c0.128-0.404,0.194-0.979-0.22-1.423C426.27,195.879,425.901,195.706,425.536,195.706z M416.842,188.401
				c-0.224,0-0.398,0.099-0.528,0.298c-0.47,0.719-0.282,2.558,0.354,4.604c1.012-0.606,1.551-2.053,1.491-3.201
				c-0.044-0.858-0.408-1.459-0.999-1.646C417.044,188.42,416.939,188.401,416.842,188.401z"></path></g><g><path fill="#FFF" d="M351.715,212.274c-0.032,0-0.064-0.015-0.087-0.041c-0.039-0.048-0.032-0.118,0.016-0.158
				c0.898-0.736,1.099-1.621,1.048-2.372c-1.007,0.15-1.859-0.019-2.489-0.368c-1.025-0.572-1.488-1.605-1.18-2.634
				c0.188-0.626,0.585-0.77,0.884-0.779c0.93-0.046,2.212,1.19,2.75,2.616c0.094,0.247,0.187,0.559,0.234,0.907
				c1.505-0.294,3.354-1.32,5.323-3.538c2.019-2.273,1.951-4.16,1.472-5.406c-1.877,1.645-3.41,1.087-4.057,0.708
				c-1.297-0.76-1.988-2.431-1.479-3.577c0.181-0.406,0.606-0.631,1.198-0.633c0.002,0,0.005,0,0.007,0
				c1.438,0,3.538,1.25,4.413,3.122c0.311-0.298,0.63-0.66,0.957-1.099c3.768-5.044,0.491-13.345,0.458-13.428
				c-0.023-0.058,0.005-0.123,0.062-0.146c0.057-0.025,0.122,0.005,0.146,0.062c0.034,0.085,3.356,8.502-0.485,13.646
				c-0.355,0.475-0.703,0.865-1.041,1.183c0.53,1.305,0.654,3.311-1.481,5.716c-2.01,2.264-3.91,3.312-5.468,3.609
				c0.063,0.813-0.146,1.778-1.128,2.584C351.765,212.265,351.741,212.274,351.715,212.274z M349.945,206.144
				c-0.011,0-0.021,0-0.03,0.001c-0.329,0.011-0.557,0.22-0.677,0.62c-0.277,0.923,0.145,1.854,1.074,2.374
				c0.593,0.331,1.398,0.484,2.357,0.344c-0.044-0.333-0.133-0.631-0.222-0.866C351.955,207.31,350.77,206.144,349.945,206.144z
				 M355.355,197.222c-0.002,0-0.004,0-0.007,0c-0.352,0.001-0.811,0.089-0.993,0.501c-0.458,1.029,0.203,2.599,1.388,3.293
				c0.606,0.354,2.056,0.874,3.853-0.735c-0.002-0.004-0.004-0.008-0.005-0.012C358.767,198.445,356.738,197.222,355.355,197.222z"></path></g><g><path fill="#FFF" d="M393.334,221.993c-0.055,0-0.103-0.04-0.11-0.096c-0.009-0.058-0.917-5.8-5.83-7.121
				c-2.059-0.556-3.959,0.147-5.344,1.232c0.26,0.294,0.451,0.646,0.568,1.051c0.435,1.508-0.27,3.327-1.191,3.947
				c-0.461,0.311-0.941,0.302-1.353-0.021c-0.69-0.544-0.735-1.601-0.12-2.827c0.364-0.728,0.978-1.508,1.771-2.171
				c-0.466-0.438-1.196-0.773-2.34-0.808c-0.063-0.002-0.11-0.054-0.109-0.115c0.002-0.062,0.052-0.109,0.112-0.109
				c0.001,0,0.002,0,0.003,0c1.075,0.033,1.928,0.342,2.505,0.894c1.435-1.133,3.406-1.868,5.557-1.289
				c5.056,1.36,5.983,7.246,5.992,7.305c0.01,0.062-0.033,0.118-0.094,0.127C393.345,221.992,393.339,221.993,393.334,221.993z
				 M381.879,216.147c-0.773,0.644-1.37,1.403-1.725,2.11c-0.564,1.125-0.542,2.078,0.059,2.552c0.423,0.331,0.826,0.19,1.089,0.012
				c0.84-0.565,1.504-2.305,1.102-3.7C382.311,216.801,382.151,216.457,381.879,216.147z"></path></g><path fill="#FB7E60" fill-rule="evenodd" d="M379.007,152.491c-0.366,5.093,0.751,11.675,4.576,13.143
			c6.15,2.363,2.738,8.208,2.738,8.208s5.658,19.088,11.437-2.8l-4.901-6.697c0,0,4.203-1.276,2.533-4.581
			c-1.664-3.289-5.061-0.421-5.061-0.421s-3.381-0.251-6.434-2.477C380.844,154.643,379.007,152.491,379.007,152.491z" clip-rule="evenodd"></path><path fill="#090909" fill-rule="evenodd" d="M384,165.815c2.182,0.908,4.444,0.923,4.444,0.923
			s-1.461,1.732-2.517,1.684S381.818,164.908,384,165.815z" clip-rule="evenodd"></path><g><path fill="#090909" d="M391.988,163.447c-0.186,0-0.349-0.133-0.382-0.321c-0.619-3.497,1.889-4.316,1.914-4.324
				c0.211-0.063,0.423,0.052,0.486,0.256c0.063,0.204-0.051,0.421-0.254,0.485c-0.084,0.027-1.877,0.651-1.383,3.448
				c0.038,0.211-0.104,0.412-0.314,0.449C392.033,163.445,392.01,163.447,391.988,163.447z"></path></g><g><path fill="#090909" d="M394.399,162.348c-0.076,0-0.152-0.021-0.219-0.067c-0.35-0.237-1.4-0.843-2.055-0.759
				c-0.208,0.02-0.406-0.126-0.432-0.34c-0.025-0.213,0.127-0.406,0.34-0.432c1.047-0.113,2.432,0.785,2.584,0.89
				c0.177,0.121,0.223,0.362,0.102,0.539C394.644,162.29,394.522,162.348,394.399,162.348z"></path></g><circle cx="381.951" cy="157.807" r=".478" fill="#0A0909" fill-rule="evenodd" clip-rule="evenodd" transform="rotate(-11.725 382.005 157.825)"></circle><g><path fill="#090909" d="M383.032,163.403c-0.203,0-0.374-0.157-0.388-0.362c-0.014-0.214,0.148-0.398,0.362-0.413
				c1.091-0.07,1.822-1.202,1.83-1.214c0.114-0.181,0.356-0.232,0.535-0.119c0.181,0.114,0.234,0.354,0.119,0.535
				c-0.038,0.061-0.954,1.478-2.434,1.573C383.048,163.403,383.04,163.403,383.032,163.403z"></path></g><path fill="#FFF" fill-rule="evenodd" d="M398.444,171.776l-0.685-0.734c0,0-1.096,3.818-2.404,6.474
			c-1.307,2.654-4.107,4.017-6.035,2.035c-1.929-1.984-2.998-5.709-2.998-5.709l0.132,1.441c0,0,0.799,4.523,3.198,5.957
			c2.4,1.434,5.484-0.456,6.863-3.584C397.889,174.528,398.444,171.776,398.444,171.776z" clip-rule="evenodd"></path><path fill="#FB7E60" fill-rule="evenodd" d="M317.842,166.867c0.072-0.116,2.556-8.439,2.556-8.439
			s0.77-0.14,1.591,1.383c0.82,1.523,0.191,6.833,0.191,6.833L317.842,166.867z" clip-rule="evenodd"></path><g><path fill="#0A0909" d="M348.684,372.557c-0.014,0-0.028,0-0.042,0c-0.547-0.023-0.972-0.484-0.949-1.031l3.247-78.6
				c0.022-0.547,0.464-0.953,1.031-0.949c0.547,0.023,0.972,0.484,0.949,1.031l-3.247,78.6
				C349.651,372.14,349.212,372.557,348.684,372.557z"></path></g><path fill="#6696F8" d="M420.019 292.968h-71.381c-1.675 0-3.127-1.159-3.497-2.793l-1.35-5.951c-.509-2.244 1.197-4.379 3.497-4.379h71.381c1.675 0 3.127 1.159 3.497 2.793l1.35 5.951C424.025 290.832 422.319 292.968 420.019 292.968zM409.705 247.729h-61.734c-1.449 0-2.704-.928-3.025-2.234l-1.167-4.76c-.44-1.795 1.035-3.504 3.025-3.504h61.734c1.449 0 2.704.928 3.025 2.234l1.167 4.761C413.169 246.021 411.694 247.729 409.705 247.729z"></path><g><path fill="#0A0909" d="M422.243,372.558c-0.517,0-0.952-0.401-0.987-0.925l-5.311-78.6c-0.037-0.546,0.376-1.018,0.922-1.055
				c0.548-0.037,1.018,0.376,1.055,0.922l5.311,78.6c0.037,0.546-0.376,1.018-0.922,1.055
				C422.288,372.557,422.265,372.558,422.243,372.558z"></path></g><g><path fill="#0A0909" d="M413.295,280.837c-0.458,0-0.87-0.32-0.969-0.786l-6.779-32.116c-0.112-0.536,0.229-1.062,0.765-1.175
				c0.539-0.11,1.063,0.23,1.175,0.765l6.779,32.116c0.112,0.536-0.229,1.062-0.765,1.175
				C413.432,280.83,413.363,280.837,413.295,280.837z"></path></g><g><path fill="#0A0909" d="M354.364,280.837c-0.492,0-0.919-0.366-0.981-0.867l-4.059-32.116c-0.069-0.543,0.315-1.038,0.858-1.106
				c0.55-0.08,1.038,0.315,1.106,0.858l4.059,32.116c0.069,0.543-0.315,1.038-0.858,1.106
				C354.447,280.834,354.405,280.837,354.364,280.837z"></path></g><g><path fill="#0A0909" d="M318.53,206.084c-0.1,0-0.195-0.053-0.247-0.146c-0.091-0.169-2.259-4.23-3.407-12.435
				c-1.146-8.192,0.297-18.438,0.312-18.54c0.021-0.152,0.16-0.263,0.317-0.237c0.153,0.021,0.26,0.164,0.237,0.317
				c-0.015,0.102-1.445,10.27-0.31,18.382c1.132,8.092,3.322,12.204,3.345,12.245c0.073,0.137,0.022,0.307-0.113,0.381
				C318.621,206.073,318.575,206.084,318.53,206.084z"></path></g><g><path fill="#0A0909" fill-rule="evenodd" d="M296.674,140.709h-37.542c-1.033,0-1.871-0.838-1.871-1.871
				V82.8c0-1.033,0.838-1.871,1.871-1.871h37.542V140.709z" clip-rule="evenodd"></path><path fill="#464D7B" fill-rule="evenodd" d="M307.195,140.709h-41.992c-1.094,0-1.982-0.887-1.982-1.981
				V82.911c0-1.094,0.887-1.981,1.982-1.981h41.992c1.2,0,2.172,0.972,2.172,2.172v55.435
				C309.367,139.736,308.395,140.709,307.195,140.709z" clip-rule="evenodd"></path><rect width="38.78" height="8.79" x="266.917" y="84.623" fill="#FFF" fill-rule="evenodd" clip-rule="evenodd"></rect><rect width="7.761" height="2.197" x="266.378" y="95.657" fill="#FC2222" fill-rule="evenodd" clip-rule="evenodd"></rect><rect width="7.761" height="2.197" x="276.009" y="95.657" fill="#FFF" fill-rule="evenodd" clip-rule="evenodd"></rect><g><rect width="7.761" height="7.761" x="266.378" y="102.156" fill="#0A0909" fill-rule="evenodd" clip-rule="evenodd"></rect><rect width="7.761" height="7.761" x="277.084" y="102.156" fill="#0A0909" fill-rule="evenodd" clip-rule="evenodd"></rect><rect width="7.761" height="7.761" x="287.791" y="102.156" fill="#0A0909" fill-rule="evenodd" clip-rule="evenodd"></rect><rect width="7.761" height="7.761" x="266.378" y="111.974" fill="#0A0909" fill-rule="evenodd" clip-rule="evenodd"></rect><rect width="7.761" height="7.761" x="277.084" y="111.974" fill="#0A0909" fill-rule="evenodd" clip-rule="evenodd"></rect><rect width="7.761" height="7.761" x="287.791" y="111.974" fill="#0A0909" fill-rule="evenodd" clip-rule="evenodd"></rect><rect width="7.761" height="7.761" x="266.378" y="121.792" fill="#0A0909" fill-rule="evenodd" clip-rule="evenodd"></rect><rect width="7.761" height="7.761" x="277.084" y="121.792" fill="#0A0909" fill-rule="evenodd" clip-rule="evenodd"></rect><rect width="7.761" height="7.761" x="266.378" y="131.329" fill="#0A0909" fill-rule="evenodd" clip-rule="evenodd"></rect><rect width="7.761" height="7.761" x="287.791" y="121.792" fill="#0A0909" fill-rule="evenodd" clip-rule="evenodd"></rect></g><rect width="18.467" height="7.761" x="277.084" y="131.329" fill="#0A0909" fill-rule="evenodd" clip-rule="evenodd"></rect><rect width="8.656" height="17.579" x="297.656" y="102.156" fill="#0A0909" fill-rule="evenodd" clip-rule="evenodd"></rect><rect width="8.656" height="17.299" x="297.656" y="121.792" fill="#0A0909" fill-rule="evenodd" clip-rule="evenodd"></rect></g></g><g><g><rect width="164.906" height="11.912" x="161.652" y="224.785" fill="#FEB91E" transform="rotate(180 244.1 230.745)"></rect><g><defs><rect id="a" width="164.906" height="11.912" x="161.652" y="224.785" transform="rotate(180 244.1 230.745)"></rect></defs><clipPath id="b"><use overflow="visible" xlink:href="#a"></use></clipPath><g clip-path="url(#b)"><g><path fill="#FE891E" d="M314.008,231.022c-5.229,0-7.236-6.225-7.257-6.29c-0.07-0.227,0.056-0.468,0.282-0.538
							c0.226-0.074,0.468,0.055,0.539,0.281c0.02,0.061,1.937,6.012,6.816,5.674c4.988-0.321,8.08-5.745,8.111-5.8
							c0.115-0.207,0.378-0.283,0.585-0.165c0.208,0.115,0.281,0.378,0.165,0.585c-0.134,0.24-3.355,5.887-8.807,6.239
							C314.296,231.017,314.151,231.022,314.008,231.022z"></path></g><g><path fill="#FE891E" d="M320.493,235.361c-0.072,0-0.145-0.019-0.211-0.056c-0.207-0.116-0.28-0.379-0.164-0.586
							c2.284-4.059,6.215-4.644,6.381-4.666c0.221-0.029,0.451,0.131,0.484,0.366s-0.131,0.452-0.366,0.485
							c-0.036,0.006-3.681,0.563-5.749,4.236C320.789,235.282,320.643,235.361,320.493,235.361z"></path></g><g><path fill="#FE891E" d="M310.522,236.937c-0.177,0-0.342-0.108-0.405-0.284c-0.015-0.042-1.548-4.186-5.507-5.481
							c-4.302-1.41-7.694-6.089-7.837-6.287c-0.139-0.193-0.094-0.462,0.099-0.601c0.193-0.139,0.462-0.095,0.601,0.099
							c0.033,0.047,3.374,4.65,7.405,5.971c4.367,1.431,5.983,5.823,6.05,6.01c0.08,0.224-0.036,0.469-0.26,0.549
							C310.62,236.929,310.57,236.937,310.522,236.937z"></path></g><g><path fill="#FE891E" d="M282.683,237.018c-0.127,0-0.253-0.057-0.338-0.164c-0.147-0.186-0.115-0.457,0.071-0.604
							c0.205-0.162,5.095-3.991,10.49-4.796c5.549-0.829,9.457,4.597,9.621,4.828c0.137,0.194,0.091,0.462-0.103,0.6
							c-0.192,0.137-0.461,0.093-0.6-0.102c-0.037-0.053-3.766-5.22-8.792-4.475c-5.171,0.771-10.035,4.581-10.084,4.62
							C282.871,236.988,282.777,237.018,282.683,237.018z"></path></g><g><path fill="#FE891E" d="M285.364,229.167c-0.325,0-0.65-0.048-0.973-0.153c-3.177-1.04-4.674-4.015-4.736-4.141
							c-0.105-0.213-0.018-0.471,0.195-0.576c0.208-0.105,0.47-0.018,0.576,0.195c0.014,0.027,1.407,2.779,4.232,3.703
							c2.712,0.886,6.084-3.749,6.116-3.796c0.139-0.193,0.407-0.237,0.601-0.099s0.237,0.408,0.099,0.601
							C291.336,225.093,288.37,229.167,285.364,229.167z"></path></g><g><path fill="#FE891E" d="M270.817,237.051c-0.156,0-0.308-0.086-0.384-0.235c-1.364-2.688-1.203-5.125,0.433-6.521
							c1.625-1.389,4.226-1.292,6.324,0.229c3.647,2.646,7.438,0.271,7.477,0.247c0.2-0.128,0.467-0.07,0.595,0.13
							s0.07,0.466-0.13,0.595c-0.043,0.027-4.327,2.712-8.447-0.274c-1.775-1.289-3.939-1.4-5.26-0.272
							c-1.313,1.12-1.396,3.168-0.224,5.476c0.107,0.212,0.023,0.472-0.188,0.579C270.95,237.036,270.882,237.051,270.817,237.051z"></path></g><g><path fill="#FE891E" d="M264.053,230.026c-3.667,0-8.161-4.761-8.367-4.981c-0.162-0.174-0.153-0.446,0.021-0.608
							c0.175-0.161,0.446-0.152,0.608,0.021c0.052,0.055,5.2,5.525,8.499,4.61c3.393-0.936,5.915-4.566,5.94-4.603
							c0.134-0.197,0.402-0.248,0.598-0.111c0.196,0.134,0.246,0.402,0.111,0.598c-0.109,0.16-2.729,3.928-6.421,4.946
							C264.723,229.985,264.391,230.026,264.053,230.026z"></path></g><g><path fill="#FE891E" d="M265.862,237.065c-0.147,0-0.291-0.076-0.371-0.213c-0.098-0.166-2.491-4.045-7.714-3.921
							c-5.779,0.197-11.584-7.566-11.829-7.896c-0.143-0.19-0.103-0.46,0.088-0.602c0.189-0.142,0.46-0.103,0.602,0.088
							c0.057,0.076,5.696,7.551,10.973,7.551c0.048,0,0.096,0,0.144-0.001c5.837-0.171,8.373,4.163,8.48,4.347
							c0.119,0.205,0.05,0.468-0.155,0.588C266.01,237.046,265.936,237.065,265.862,237.065z"></path></g><g><path fill="#FE891E" d="M252.763,237.103c-0.145,0-0.286-0.074-0.367-0.207c-0.047-0.076-4.706-7.587-10.001-4.563
							c-0.205,0.118-0.469,0.048-0.587-0.159c-0.118-0.206-0.047-0.47,0.159-0.587c6.023-3.447,11.113,4.78,11.164,4.862
							c0.123,0.203,0.059,0.468-0.145,0.591C252.916,237.083,252.839,237.103,252.763,237.103z"></path></g><g><path fill="#FE891E" d="M225.374,237.181c-0.033,0-0.068-0.004-0.103-0.013c-0.23-0.057-0.372-0.29-0.315-0.521
							c0.604-2.461,3.5-6.29,9.004-6.755c4.74-0.4,5.087-4.929,5.099-5.121c0.016-0.238,0.223-0.438,0.456-0.402
							c0.237,0.015,0.418,0.218,0.403,0.455c-0.004,0.055-0.395,5.462-5.886,5.926c-5.017,0.424-7.717,3.968-8.24,6.103
							C225.744,237.049,225.568,237.181,225.374,237.181z"></path></g><g><path fill="#FE891E" d="M218.741,232.171c-5.761,0-11.907-6.672-12.197-6.99c-0.16-0.176-0.147-0.448,0.028-0.608
							c0.178-0.16,0.449-0.146,0.608,0.028c0.076,0.084,7.688,8.349,13.424,6.414c5.786-1.955,7.047-6.257,7.06-6.3
							c0.063-0.229,0.305-0.363,0.529-0.299c0.229,0.063,0.363,0.301,0.299,0.529c-0.054,0.195-1.399,4.786-7.612,6.884
							C220.181,232.066,219.463,232.171,218.741,232.171z"></path></g><g><path fill="#FE891E" d="M197.469,237.261c-0.104,0-0.207-0.037-0.29-0.112c-0.176-0.16-0.188-0.433-0.028-0.608
							c0.199-0.218,4.929-5.351,10.043-5.463c0.055-0.002,0.11-0.002,0.164-0.002c5.104,0,7.487,5.306,7.588,5.533
							c0.095,0.218-0.004,0.471-0.222,0.566c-0.217,0.101-0.472-0.003-0.566-0.221c-0.022-0.052-2.33-5.122-6.944-5.018
							c-4.75,0.105-9.38,5.133-9.426,5.184C197.703,237.213,197.586,237.261,197.469,237.261z"></path></g><g><path fill="#FE891E" d="M188.696,234.728c-0.065,0-0.132-0.015-0.194-0.047c-0.21-0.107-0.295-0.362-0.189-0.573
							c0.056-0.111,1.429-2.729,7.288-3.581c5.274-0.767,5.631-5.447,5.644-5.646c0.016-0.236,0.225-0.442,0.456-0.402
							c0.236,0.015,0.417,0.217,0.403,0.454c-0.004,0.056-0.398,5.577-6.38,6.446c-5.36,0.78-6.631,3.095-6.644,3.118
							C189.002,234.643,188.852,234.728,188.696,234.728z"></path></g><g><path fill="#FE891E" d="M185.078,230.241c-3.604,0-7.249-4.787-7.415-5.008c-0.143-0.19-0.104-0.46,0.085-0.603
							c0.188-0.142,0.459-0.105,0.603,0.085c0.042,0.055,4.121,5.433,7.453,4.576c3.457-0.876,6.174-4.574,6.2-4.611
							c0.142-0.193,0.41-0.233,0.602-0.096c0.192,0.14,0.235,0.409,0.096,0.602c-0.118,0.162-2.93,3.988-6.687,4.939
							C185.704,230.205,185.39,230.241,185.078,230.241z"></path></g><g><path fill="#FE891E" d="M183.256,237.301c-0.236,0-0.429-0.192-0.431-0.429c0-0.137-0.067-3.366-4.145-4.055
							c-4.684-0.791-7.641-7.37-7.765-7.65c-0.096-0.217,0.002-0.471,0.22-0.567c0.216-0.097,0.471,0.001,0.567,0.22
							c0.028,0.064,2.895,6.436,7.12,7.15c4.813,0.812,4.863,4.861,4.863,4.902C183.686,237.109,183.495,237.3,183.256,237.301
							L183.256,237.301z"></path></g><g><path fill="#FE891E" d="M171.178,237.337c-0.213,0-0.398-0.158-0.426-0.376c-0.04-0.314-1.074-7.724-9.203-9.501
							c-0.232-0.051-0.379-0.279-0.328-0.512c0.05-0.232,0.274-0.385,0.512-0.328c8.735,1.908,9.863,10.15,9.873,10.233
							c0.029,0.236-0.138,0.45-0.373,0.48C171.214,237.336,171.197,237.337,171.178,237.337z"></path></g><g><path fill="#FE891E" d="M163.702,233.953c-1.607,0-2.308-0.671-2.348-0.711c-0.168-0.168-0.169-0.44-0.001-0.608
							c0.167-0.165,0.437-0.168,0.604-0.006c0.03,0.025,1.138,0.984,3.96,0.07c0.226-0.072,0.469,0.052,0.542,0.276
							c0.073,0.227-0.051,0.469-0.276,0.542C165.188,233.838,164.368,233.953,163.702,233.953z"></path></g></g></g><g><path fill="#0A0909" d="M161.669,237.22c-0.158,0-0.286-0.128-0.287-0.286c0-0.158,0.128-0.287,0.286-0.288l164.905-0.472h0.001
					c0.158,0,0.286,0.128,0.287,0.286c0,0.158-0.128,0.287-0.286,0.288L161.669,237.22L161.669,237.22z"></path></g></g><polygon fill="#0A0909" points="187.151 236.933 201.286 236.933 153.193 373.075 149.687 373.075"></polygon><polygon fill="#0A0909" points="295.436 236.461 281.301 236.461 329.395 372.603 332.901 372.603"></polygon></g></g></svg>