<svg xmlns="http://www.w3.org/2000/svg" xmlns:xlink="http://www.w3.org/1999/xlink" enable-background="new 0 0 600 400" viewBox="0 0 600 400" id="student-studying-in-classroom"><g><path fill="#F6F2F1" fill-rule="evenodd" d="M548.297,376.953
		c0,0-95.635-82.096-71.242-141c24.393-58.904-38.884-115.321-98.179-80.184c-59.295,35.137-43.864,103.337-104.407,121.488
		c-60.544,18.15-80.751-42.399-159.271-32.62c-78.52,9.779-40.415,132.317-40.415,132.317H548.297z" clip-rule="evenodd"></path><rect width="525.827" height="2.081" x="37.087" y="377.143" fill="#0A0909"></rect><g><path fill="#464D7B" d="M481.265,107.786h-58.741v-1.083c0-16.221,13.15-29.371,29.371-29.371h0
			c16.221,0,29.371,13.15,29.371,29.371V107.786z"></path><g><path fill="#0A0909" d="M451.894,119.225c-6.091,0-11.046-4.955-11.046-11.046v-0.394c0-0.207,0.169-0.376,0.376-0.376h21.34
				c0.207,0,0.376,0.169,0.376,0.376v0.394C462.94,114.27,457.985,119.225,451.894,119.225z M441.6,108.162v0.018
				c0,5.676,4.618,10.294,10.294,10.294s10.294-4.618,10.294-10.294v-0.018H441.6z"></path></g><g><path fill="#0A0909" d="M451.894,77.709c-0.207,0-0.376-0.169-0.376-0.376V21.152c0-0.207,0.169-0.376,0.376-0.376
				s0.376,0.169,0.376,0.376v56.181C452.27,77.54,452.101,77.709,451.894,77.709z"></path></g></g><g><rect width="311.109" height="172.844" x="79.554" y="63.33" fill="#6696F8"></rect><rect width="287.094" height="159.501" x="91.562" y="70.001" fill="#464D7B"></rect><g><g><path fill="#FFF" d="M185.725,199.722h-51.932v-51.933h51.932V199.722z M135.428,198.087h48.662v-48.663h-48.662V198.087z"></path></g><g><path fill="#FFF" d="M184.908,149.424h-3.799c-0.451,0-0.817-0.366-0.817-0.817s0.366-0.817,0.817-0.817h3.596l0.796-0.42
					c0.396-0.213,0.893-0.061,1.104,0.34c0.212,0.398,0.06,0.893-0.34,1.104l-0.975,0.516
					C185.172,149.39,185.041,149.424,184.908,149.424z M176.207,149.424h-4.901c-0.451,0-0.817-0.366-0.817-0.817
					s0.366-0.817,0.817-0.817h4.901c0.451,0,0.817,0.366,0.817,0.817S176.658,149.424,176.207,149.424z M166.403,149.424h-4.901
					c-0.451,0-0.817-0.366-0.817-0.817s0.366-0.817,0.817-0.817h4.901c0.451,0,0.817,0.366,0.817,0.817
					S166.854,149.424,166.403,149.424z M156.599,149.424h-4.901c-0.451,0-0.817-0.366-0.817-0.817s0.366-0.817,0.817-0.817h4.901
					c0.451,0,0.817,0.366,0.817,0.817S157.05,149.424,156.599,149.424z M146.797,149.424h-4.902c-0.451,0-0.817-0.366-0.817-0.817
					s0.366-0.817,0.817-0.817h4.902c0.451,0,0.817,0.366,0.817,0.817S147.248,149.424,146.797,149.424z M136.993,149.424h-2.382
					c-0.384,0-0.717-0.268-0.798-0.644c-0.082-0.375,0.108-0.757,0.458-0.917l4.457-2.04c0.412-0.186,0.896-0.006,1.083,0.403
					c0.188,0.41,0.007,0.895-0.403,1.083l-1.762,0.807c0.103,0.136,0.164,0.306,0.164,0.49
					C137.81,149.057,137.444,149.424,136.993,149.424z M190.215,146.614c-0.293,0-0.576-0.158-0.723-0.436
					c-0.212-0.398-0.06-0.893,0.34-1.104l4.333-2.293c0.395-0.212,0.893-0.06,1.104,0.34c0.212,0.398,0.06,0.893-0.34,1.104
					l-4.333,2.293C190.475,146.583,190.344,146.614,190.215,146.614z M143.527,145.345c-0.311,0-0.606-0.178-0.744-0.478
					c-0.188-0.41-0.007-0.895,0.403-1.083l4.457-2.04c0.412-0.186,0.896-0.006,1.083,0.403c0.188,0.41,0.007,0.895-0.403,1.083
					l-4.457,2.04C143.755,145.32,143.64,145.345,143.527,145.345z M198.88,142.027c-0.293,0-0.576-0.158-0.723-0.436
					c-0.212-0.398-0.06-0.893,0.34-1.104l4.332-2.293c0.395-0.212,0.893-0.06,1.104,0.34c0.212,0.398,0.06,0.893-0.34,1.104
					l-4.332,2.293C199.14,141.996,199.009,142.027,198.88,142.027z M152.441,141.265c-0.311,0-0.606-0.178-0.744-0.478
					c-0.188-0.41-0.007-0.895,0.403-1.083l4.458-2.04c0.412-0.187,0.896-0.006,1.083,0.403c0.188,0.41,0.007,0.895-0.403,1.083
					l-4.458,2.04C152.67,141.241,152.554,141.265,152.441,141.265z M205.63,137.916h-4.901c-0.451,0-0.817-0.366-0.817-0.817
					s0.366-0.817,0.817-0.817h4.901c0.451,0,0.817,0.366,0.817,0.817S206.082,137.916,205.63,137.916z M195.827,137.916h-4.901
					c-0.451,0-0.817-0.366-0.817-0.817s0.366-0.817,0.817-0.817h4.901c0.451,0,0.817,0.366,0.817,0.817
					S196.278,137.916,195.827,137.916z M186.023,137.916h-4.901c-0.451,0-0.817-0.366-0.817-0.817s0.366-0.817,0.817-0.817h4.901
					c0.451,0,0.817,0.366,0.817,0.817S186.474,137.916,186.023,137.916z M176.219,137.916h-4.901c-0.451,0-0.817-0.366-0.817-0.817
					s0.366-0.817,0.817-0.817h4.901c0.451,0,0.817,0.366,0.817,0.817S176.671,137.916,176.219,137.916z M166.416,137.916h-4.901
					c-0.451,0-0.817-0.366-0.817-0.817s0.366-0.817,0.817-0.817h4.901c0.451,0,0.817,0.366,0.817,0.817
					S166.867,137.916,166.416,137.916z"></path></g><g><path fill="#FFF" d="M184.908,199.722h-3.471c-0.451,0-0.817-0.366-0.817-0.817s0.366-0.817,0.817-0.817h3.258l1.063-0.596
					c0.394-0.22,0.892-0.08,1.112,0.313s0.08,0.892-0.313,1.112l-1.249,0.7C185.185,199.685,185.047,199.722,184.908,199.722z
					 M176.536,199.722h-4.902c-0.451,0-0.817-0.366-0.817-0.817s0.366-0.817,0.817-0.817h4.902c0.451,0,0.817,0.366,0.817,0.817
					S176.987,199.722,176.536,199.722z M166.732,199.722h-4.902c-0.451,0-0.817-0.366-0.817-0.817s0.366-0.817,0.817-0.817h4.902
					c0.451,0,0.817,0.366,0.817,0.817S167.183,199.722,166.732,199.722z M156.928,199.722h-4.902c-0.451,0-0.817-0.366-0.817-0.817
					s0.366-0.817,0.817-0.817h4.902c0.451,0,0.817,0.366,0.817,0.817S157.38,199.722,156.928,199.722z M147.125,199.722h-4.901
					c-0.451,0-0.817-0.366-0.817-0.817s0.366-0.817,0.817-0.817h4.901c0.451,0,0.817,0.366,0.817,0.817
					S147.576,199.722,147.125,199.722z M137.321,199.722h-2.71c-0.384,0-0.717-0.268-0.798-0.644
					c-0.082-0.375,0.108-0.757,0.458-0.917l4.457-2.04c0.412-0.187,0.896-0.006,1.083,0.403c0.188,0.41,0.007,0.895-0.403,1.083
					l-1.529,0.7c0.159,0.148,0.26,0.361,0.26,0.597C138.138,199.355,137.772,199.722,137.321,199.722z M190.433,196.625
					c-0.286,0-0.563-0.15-0.714-0.418c-0.221-0.394-0.08-0.892,0.313-1.112l4.276-2.396c0.395-0.221,0.891-0.08,1.112,0.313
					c0.221,0.394,0.08,0.892-0.313,1.112l-4.276,2.396C190.706,196.591,190.568,196.625,190.433,196.625z M143.526,195.641
					c-0.311,0-0.606-0.178-0.744-0.478c-0.188-0.41-0.007-0.896,0.403-1.083l4.458-2.039c0.412-0.187,0.896-0.006,1.083,0.403
					c0.188,0.41,0.007,0.896-0.403,1.083l-4.458,2.039C143.755,195.617,143.639,195.641,143.526,195.641z M198.986,191.832
					c-0.286,0-0.563-0.15-0.714-0.418c-0.221-0.394-0.08-0.892,0.313-1.112l4.275-2.396c0.393-0.219,0.891-0.08,1.112,0.313
					c0.221,0.394,0.08,0.892-0.313,1.112l-4.275,2.396C199.258,191.798,199.121,191.832,198.986,191.832z M152.441,191.562
					c-0.311,0-0.606-0.178-0.744-0.478c-0.188-0.41-0.007-0.895,0.403-1.083l4.457-2.04c0.413-0.187,0.896-0.006,1.083,0.403
					c0.188,0.41,0.007,0.895-0.403,1.083l-4.457,2.04C152.67,191.538,152.554,191.562,152.441,191.562z M161.513,188.187
					c-0.446,0-0.811-0.358-0.816-0.806c-0.007-0.451,0.354-0.822,0.805-0.828l4.901-0.07c0.004-0.001,0.008-0.001,0.012-0.001
					c0.446,0,0.811,0.358,0.816,0.806c0.007,0.451-0.354,0.822-0.805,0.828l-4.901,0.07
					C161.521,188.187,161.517,188.187,161.513,188.187z M171.316,188.047c-0.446,0-0.811-0.358-0.816-0.806
					c-0.007-0.451,0.354-0.822,0.805-0.828l4.901-0.071c0.004-0.001,0.008-0.001,0.012-0.001c0.446,0,0.811,0.358,0.816,0.806
					c0.007,0.451-0.354,0.822-0.805,0.828l-4.901,0.071C171.324,188.047,171.32,188.047,171.316,188.047z M181.119,187.905
					c-0.446,0-0.811-0.358-0.816-0.806c-0.007-0.451,0.354-0.822,0.805-0.828l4.901-0.07c0.004-0.001,0.008-0.001,0.012-0.001
					c0.446,0,0.811,0.358,0.816,0.806c0.007,0.451-0.354,0.822-0.805,0.828l-4.901,0.07
					C181.127,187.905,181.123,187.905,181.119,187.905z M190.922,187.764c-0.446,0-0.811-0.358-0.816-0.806
					c-0.007-0.451,0.354-0.822,0.805-0.828l4.901-0.07c0.004-0.001,0.008-0.001,0.012-0.001c0.446,0,0.811,0.358,0.816,0.806
					c0.007,0.451-0.354,0.822-0.805,0.828l-4.901,0.07C190.929,187.764,190.925,187.764,190.922,187.764z M200.724,187.623
					c-0.446,0-0.811-0.358-0.816-0.806c-0.007-0.451,0.354-0.822,0.805-0.828l4.901-0.07c0.004-0.001,0.008-0.001,0.012-0.001
					c0.446,0,0.811,0.358,0.816,0.806c0.007,0.451-0.354,0.822-0.805,0.828l-4.901,0.07
					C200.732,187.623,200.728,187.623,200.724,187.623z"></path></g><g><path fill="#FFF" d="M184.95,199.724c-0.042,0-0.125-0.007-0.166-0.013c-0.398-0.062-0.693-0.404-0.693-0.808v-2.344
					c0-0.451,0.366-0.817,0.817-0.817s0.817,0.366,0.817,0.817v1.232c0.588-0.261,1.579-0.746,3.244-1.649
					c0.397-0.218,0.893-0.067,1.107,0.328c0.216,0.396,0.068,0.893-0.328,1.107C186.101,199.558,185.359,199.724,184.95,199.724z
					 M193.644,195.272c-0.283,0-0.558-0.147-0.709-0.41c-0.226-0.392-0.091-0.891,0.301-1.115c1.396-0.804,2.842-1.647,4.236-2.471
					c0.389-0.227,0.891-0.099,1.119,0.289c0.229,0.389,0.1,0.89-0.289,1.119c-1.4,0.825-2.85,1.673-4.252,2.479
					C193.922,195.237,193.782,195.272,193.644,195.272z M184.908,192.475c-0.451,0-0.817-0.366-0.817-0.817v-4.901
					c0-0.451,0.366-0.817,0.817-0.817s0.817,0.366,0.817,0.817v4.901C185.725,192.109,185.359,192.475,184.908,192.475z
					 M202.112,190.283c-0.277,0-0.548-0.142-0.701-0.396c-0.232-0.388-0.107-0.889,0.279-1.121c2.002-1.202,3.563-2.151,4.208-2.545
					c0.388-0.235,0.888-0.112,1.123,0.271c0.235,0.386,0.113,0.888-0.271,1.123c-0.647,0.396-2.212,1.347-4.218,2.551
					C202.4,190.245,202.255,190.283,202.112,190.283z M206.646,183.01c-0.451,0-0.817-0.366-0.817-0.817v-4.902
					c0-0.451,0.366-0.817,0.817-0.817s0.817,0.366,0.817,0.817v4.902C207.464,182.643,207.097,183.01,206.646,183.01z
					 M184.908,182.672c-0.451,0-0.817-0.366-0.817-0.817v-4.901c0-0.451,0.366-0.817,0.817-0.817s0.817,0.366,0.817,0.817v4.901
					C185.725,182.305,185.359,182.672,184.908,182.672z M206.646,173.206c-0.451,0-0.817-0.366-0.817-0.817v-4.902
					c0-0.451,0.366-0.817,0.817-0.817s0.817,0.366,0.817,0.817v4.902C207.464,172.84,207.097,173.206,206.646,173.206z
					 M184.908,172.868c-0.451,0-0.817-0.366-0.817-0.817v-4.901c0-0.451,0.366-0.817,0.817-0.817s0.817,0.366,0.817,0.817v4.901
					C185.725,172.502,185.359,172.868,184.908,172.868z M206.646,163.402c-0.451,0-0.817-0.366-0.817-0.817v-4.902
					c0-0.451,0.366-0.817,0.817-0.817s0.817,0.366,0.817,0.817v4.902C207.464,163.036,207.097,163.402,206.646,163.402z
					 M184.908,163.065c-0.451,0-0.817-0.366-0.817-0.817v-4.902c0-0.451,0.366-0.817,0.817-0.817s0.817,0.366,0.817,0.817v4.902
					C185.725,162.699,185.359,163.065,184.908,163.065z M206.646,153.598c-0.451,0-0.817-0.366-0.817-0.817v-4.901
					c0-0.451,0.366-0.817,0.817-0.817s0.817,0.366,0.817,0.817v4.901C207.464,153.232,207.097,153.598,206.646,153.598z
					 M184.908,153.262c-0.451,0-0.817-0.366-0.817-0.817v-3.838c0-0.303,0.168-0.58,0.435-0.722l0.94-0.498
					c0.398-0.213,0.893-0.06,1.104,0.339c0.212,0.399,0.06,0.894-0.339,1.104l-0.506,0.269v3.346
					C185.725,152.895,185.359,153.262,184.908,153.262z M190.181,146.633c-0.293,0-0.576-0.158-0.723-0.436
					c-0.212-0.398-0.06-0.893,0.34-1.104l4.333-2.294c0.396-0.212,0.892-0.061,1.104,0.34c0.212,0.398,0.06,0.893-0.34,1.104
					l-4.333,2.294C190.441,146.601,190.31,146.633,190.181,146.633z M206.646,143.795c-0.451,0-0.817-0.366-0.817-0.817v-4.901
					c0-0.451,0.366-0.817,0.817-0.817s0.817,0.366,0.817,0.817v4.901C207.464,143.429,207.097,143.795,206.646,143.795z
					 M198.846,142.046c-0.293,0-0.576-0.158-0.723-0.436c-0.212-0.398-0.06-0.893,0.34-1.104l4.332-2.294
					c0.396-0.212,0.893-0.06,1.104,0.34c0.212,0.398,0.06,0.893-0.34,1.104l-4.332,2.294
					C199.106,142.014,198.975,142.046,198.846,142.046z"></path></g><g><path fill="#FFF" d="M159.759,188.213c-0.451,0-0.817-0.366-0.817-0.817v-1.278c0-0.451,0.366-0.817,0.817-0.817
					s0.817,0.366,0.817,0.817v1.278C160.577,187.847,160.211,188.213,159.759,188.213z M159.759,182.032
					c-0.451,0-0.817-0.366-0.817-0.817v-4.901c0-0.451,0.366-0.817,0.817-0.817s0.817,0.366,0.817,0.817v4.901
					C160.577,181.666,160.211,182.032,159.759,182.032z M159.759,172.228c-0.451,0-0.817-0.366-0.817-0.817v-4.901
					c0-0.451,0.366-0.817,0.817-0.817s0.817,0.366,0.817,0.817v4.901C160.577,171.862,160.211,172.228,159.759,172.228z
					 M159.759,162.425c-0.451,0-0.817-0.366-0.817-0.817v-4.901c0-0.451,0.366-0.817,0.817-0.817s0.817,0.366,0.817,0.817v4.901
					C160.577,162.058,160.211,162.425,159.759,162.425z M159.759,152.621c-0.451,0-0.817-0.366-0.817-0.817v-4.901
					c0-0.451,0.366-0.817,0.817-0.817s0.817,0.366,0.817,0.817v4.901C160.577,152.255,160.211,152.621,159.759,152.621z
					 M159.759,142.817c-0.451,0-0.817-0.366-0.817-0.817v-4.901c0-0.451,0.366-0.817,0.817-0.817s0.817,0.366,0.817,0.817V142
					C160.577,142.451,160.211,142.817,159.759,142.817z"></path></g></g><g><g><path fill="#FFF" d="M259.052,179.473c-1.62,2.083-3.461,4.132-4.586,6.541c-1.071,2.295-1.565,4.862-1.389,7.391
					c0.323,4.653,2.871,8.838,6.722,11.424c0.67,0.45,1.296-0.633,0.631-1.079c-3.59-2.411-5.951-6.413-6.126-10.76
					c-0.093-2.312,0.383-4.648,1.422-6.719c1.083-2.161,2.734-4.018,4.21-5.914C260.424,179.729,259.546,178.838,259.052,179.473
					L259.052,179.473z"></path></g><g><path fill="#FFF" d="M266.556,190.956c-1.238-0.396-2.545,0.042-3.335,1.06c-0.746,0.961-1.273,2.485-0.78,3.662
					c0.442,1.056,1.58,1.515,2.654,1.592c1.236,0.089,2.292-0.391,2.716-1.598c0.2-0.568,0.233-1.194,0.241-1.791
					c0.01-0.786-0.017-1.583-0.284-2.331c-0.381,0.161-0.762,0.321-1.142,0.482c0.669,1.147,1.408,2.248,2.219,3.3
					c0.664,0.861,1.517,1.984,2.75,1.823c0.337-0.044,0.621-0.256,0.625-0.625c0.003-0.304-0.29-0.669-0.625-0.625
					c-0.91,0.119-1.587-1.08-2.049-1.703c-0.666-0.898-1.278-1.835-1.841-2.801c-0.346-0.594-1.387-0.203-1.142,0.482
					c0.207,0.578,0.242,1.161,0.241,1.771c-0.001,0.472-0.001,0.953-0.116,1.413c-0.1,0.4-0.273,0.761-0.69,0.894
					c-0.46,0.147-1.042,0.081-1.497-0.056c-0.383-0.116-0.763-0.338-0.919-0.725c-0.205-0.512-0.01-1.138,0.185-1.624
					c0.415-1.034,1.312-1.761,2.457-1.395C266.992,192.407,267.321,191.2,266.556,190.956L266.556,190.956z"></path></g><g><path fill="#FFF" d="M277.878,191.657c-0.034,0.84,0.386,1.547,0.605,2.331c0.22,0.784-0.087,1.661,0.209,2.47
					c0.116,0.317,0.424,0.531,0.769,0.436c0.305-0.084,0.553-0.45,0.437-0.769c-0.133-0.363-0.105-0.727-0.087-1.121
					c0.02-0.431,0.007-0.856-0.102-1.276c-0.181-0.7-0.608-1.389-0.58-2.071c0.014-0.338-0.297-0.625-0.625-0.625
					C278.153,191.032,277.892,191.319,277.878,191.657L277.878,191.657z"></path></g><g><path fill="#FFF" d="M275.391,194.523c2.285-0.065,4.57-0.106,6.855-0.123c0.804-0.006,0.806-1.256,0-1.25
					c-2.285,0.017-4.571,0.058-6.855,0.123C274.588,193.296,274.585,194.546,275.391,194.523L275.391,194.523z"></path></g><g><path fill="#FFF" d="M288.333,184.389c-0.202,1.897-0.097,3.84-0.1,5.746c-0.003,1.963-0.006,3.927-0.009,5.89
					c-0.001,0.804,1.249,0.806,1.25,0c0.003-1.963,0.006-3.927,0.009-5.89c0.003-1.906-0.102-3.848,0.1-5.746
					C289.668,183.59,288.418,183.596,288.333,184.389L288.333,184.389z"></path></g><g><path fill="#FFF" d="M289.233,192.42c0.71-0.149,1.459-0.316,2.187-0.211c0.353,0.051,0.605,0.143,0.886,0.318
					c0.196,0.122,0.43,0.333,0.561,0.499c0.364,0.46,0.572,1.024,0.483,1.594c-0.047,0.297-0.245,0.487-0.479,0.671
					c-0.26,0.206-0.534,0.404-0.82,0.572c-0.741,0.433-1.518,0.285-2.306,0.059c-0.775-0.222-1.105,0.984-0.332,1.205
					c0.999,0.286,2.003,0.413,2.975-0.031c0.403-0.185,0.762-0.457,1.113-0.724c0.404-0.306,0.763-0.626,0.956-1.108
					c0.325-0.811,0.12-1.8-0.296-2.54c-0.414-0.738-1.091-1.307-1.887-1.588c-1.088-0.385-2.279-0.152-3.373,0.078
					c-0.33,0.069-0.522,0.458-0.437,0.769C288.558,192.326,288.902,192.489,289.233,192.42L289.233,192.42z"></path></g><g><path fill="#FFF" d="M298.95,178.445c1.496,1.836,3.008,3.845,4.025,5.997c1.012,2.141,0.898,5.31,0.506,7.592
					c-0.782,4.545-3.426,8.913-6.482,12.283c-0.539,0.595,0.342,1.481,0.884,0.884c3.315-3.655,6.251-8.48,6.897-13.456
					c0.305-2.35,0.412-5.349-0.558-7.566c-1.049-2.399-2.744-4.6-4.389-6.618C299.326,176.937,298.446,177.826,298.95,178.445
					L298.95,178.445z"></path></g><g><path fill="#FFF" d="M307.233,177.524c0.654-0.434,1.478-1.032,2.312-0.856c0.729,0.154,1.453,0.894,1.741,1.562
					c0.356,0.828-0.59,1.334-1.136,1.782c-0.798,0.654-1.595,1.308-2.393,1.961c-0.432,0.354-0.065,1.071,0.442,1.067
					c2.157-0.015,4.314-0.03,6.47-0.046c0.804-0.006,0.806-1.256,0-1.25c-2.157,0.015-4.313,0.031-6.47,0.046
					c0.147,0.356,0.295,0.711,0.442,1.067c1.004-0.823,2.018-1.633,3.011-2.468c0.418-0.351,0.798-0.765,0.931-1.31
					c0.131-0.539-0.012-1.091-0.263-1.571c-0.474-0.907-1.423-1.814-2.442-2.045c-1.206-0.273-2.304,0.337-3.275,0.982
					C305.935,176.888,306.56,177.971,307.233,177.524L307.233,177.524z"></path></g></g><g><g><polygon fill="#FFF" points="331.661 142.574 255.19 142.574 255.19 95.533 256.19 95.533 256.19 141.574 331.661 141.574"></polygon></g><g><polygon fill="#FFF" points="331.998 145.096 331.324 144.357 333.806 142.094 331.343 140.064 331.978 139.293 335.334 142.055"></polygon></g><g><path fill="#FFF" d="M326.432,138.638c-0.06-0.107-6.014-10.753-12.665-12.724c-2.95-0.874-5.764-0.988-8.743-1.109
					c-3.909-0.159-7.952-0.323-12.608-2.245c-4.65-1.918-6.269-5.92-7.835-9.79c-1.249-3.087-2.54-6.279-5.373-8.501
					c-6.32-4.957-20.432-4.014-20.574-4.001l-0.07-0.998c0.595-0.04,14.643-0.979,21.262,4.212c3.043,2.387,4.385,5.704,5.684,8.913
					c1.557,3.848,3.026,7.482,7.288,9.241c4.492,1.854,8.445,2.015,12.269,2.17c3.043,0.123,5.917,0.24,8.985,1.149
					c7.046,2.087,13.007,12.746,13.257,13.198L326.432,138.638z"></path></g><g><rect width="1" height="31.141" x="267.98" y="110.933" fill="#FFF"></rect></g><g><rect width="1" height="16.383" x="286.203" y="125.691" fill="#FFF"></rect></g></g><g><g><path fill="#FFF" d="M141.851,97.343c2.119-1.145,4.499-1.437,6.874-1.18c2.414,0.262,4.626,1.236,6.977,1.767
					c4.012,0.907,8.225,0.116,11.686-2.082c0.517-0.328,0.039-1.155-0.482-0.824c-2.036,1.293-4.326,2.102-6.738,2.288
					c-2.41,0.185-4.631-0.364-6.911-1.077c-3.925-1.227-8.129-1.748-11.888,0.284C140.829,96.811,141.311,97.635,141.851,97.343
					L141.851,97.343z"></path></g><g><path fill="#FFF" d="M149.378,98.632c0.361,3.692,1.111,7.625,0.497,11.323c-0.535,3.22-2.399,6.027-5.159,7.769
					c-0.518,0.327-0.04,1.153,0.482,0.824c2.737-1.727,4.745-4.459,5.459-7.63c0.898-3.989,0.068-8.28-0.324-12.287
					C150.273,98.026,149.318,98.02,149.378,98.632L149.378,98.632z"></path></g><g><path fill="#FFF" d="M156.486,100.08c-0.194,3.353-0.365,6.774,0.375,10.077c0.609,2.717,1.951,6.097,4.854,7.014
					c0.587,0.186,0.838-0.735,0.254-0.92c-2.8-0.885-3.897-4.6-4.352-7.174c-0.524-2.963-0.349-6.01-0.176-8.997
					C157.475,99.466,156.521,99.468,156.486,100.08L156.486,100.08z"></path></g><g><path fill="#FFF" d="M165.661,107.619c1.668,0.024,3.331-0.107,4.976-0.379c0.254-0.042,0.396-0.357,0.333-0.587
					c-0.074-0.27-0.332-0.375-0.587-0.333c-1.561,0.257-3.141,0.367-4.722,0.344C165.047,106.656,165.047,107.61,165.661,107.619
					L165.661,107.619z"></path></g><g><path fill="#FFF" d="M165.925,112.035c1.568-0.05,3.136-0.1,4.703-0.15c0.613-0.02,0.615-0.974,0-0.954
					c-1.568,0.05-3.135,0.1-4.703,0.15C165.312,111.1,165.31,112.054,165.925,112.035L165.925,112.035z"></path></g><g><path fill="#FFF" d="M176.061,101.258c1.492-0.023,2.984-0.047,4.476-0.071c-0.113-0.271-0.225-0.543-0.337-0.815
					c-1.115,1.177-2.231,2.354-3.346,3.532c-0.306,0.323-0.063,0.77,0.337,0.814c1.982,0.221,4.66,1.533,4.215,3.962
					c-0.419,2.284-2.977,2.948-4.918,2.289c-0.583-0.198-0.833,0.724-0.254,0.92c2.485,0.844,5.676-0.249,6.118-3.111
					c0.198-1.28-0.342-2.543-1.264-3.426c-1.056-1.011-2.478-1.43-3.898-1.589c0.113,0.272,0.225,0.543,0.337,0.815
					c1.115-1.177,2.231-2.354,3.346-3.532c0.278-0.293,0.087-0.821-0.337-0.815c-1.492,0.024-2.984,0.047-4.476,0.071
					C175.448,100.313,175.446,101.267,176.061,101.258L176.061,101.258z"></path></g><g><path fill="#FFF" d="M185.734,110.262c0.024,0.05,0.047,0.1,0.07,0.151c-0.044-0.096,0.011,0.029,0.015,0.04
					c0.035,0.091,0.066,0.183,0.093,0.276c0.027,0.093,0.051,0.188,0.071,0.283c0.01,0.048,0.019,0.095,0.027,0.143
					c0.003,0.021,0.007,0.041,0.01,0.062c-0.007-0.058-0.008-0.059-0.001-0.003c0.019,0.194,0.029,0.387,0.021,0.582
					c-0.004,0.097-0.012,0.194-0.025,0.29c0.011-0.086-0.001,0.002-0.008,0.038c-0.01,0.055-0.021,0.109-0.032,0.163
					c-0.053,0.243,0.072,0.528,0.333,0.587c0.24,0.055,0.53-0.072,0.587-0.333c0.203-0.938,0.083-1.899-0.337-2.761
					c-0.11-0.225-0.447-0.304-0.653-0.171C185.674,109.758,185.616,110.022,185.734,110.262L185.734,110.262z"></path></g><g><path fill="#FFF" d="M189.682,100.334c0.513,1.545,0.607,3.157,0.674,4.772c0.068,1.656,0.178,3.305,0.372,4.951
					c0.071,0.603,1.026,0.61,0.954,0c-0.201-1.707-0.307-3.416-0.38-5.133c-0.069-1.635-0.182-3.281-0.701-4.845
					C190.41,99.501,189.488,99.749,189.682,100.334L189.682,100.334z"></path></g><g><path fill="#FFF" d="M194.835,98.212c-0.097,2.294-1.28,4.407-1.168,6.73c0.012,0.253,0.209,0.484,0.477,0.477
					c1.626-0.04,3.244-0.211,4.844-0.504c0.603-0.11,0.348-1.03-0.254-0.92c-1.517,0.278-3.049,0.432-4.59,0.47
					c0.159,0.159,0.318,0.318,0.477,0.477c-0.111-2.308,1.071-4.437,1.168-6.73C195.816,97.598,194.861,97.599,194.835,98.212
					L194.835,98.212z"></path></g><g><path fill="#FFF" d="M197.387,100.714c0.901,1.596,0.54,3.565,0.541,5.314c0.002,1.967,0.191,3.927,0.537,5.863
					c0.108,0.604,1.028,0.348,0.92-0.254c-0.369-2.067-0.538-4.163-0.497-6.262c0.034-1.749,0.217-3.557-0.677-5.143
					C197.909,99.698,197.085,100.178,197.387,100.714L197.387,100.714z"></path></g></g><g><g><g><path fill="#FFF" d="M337.16,194.56c-0.469,3.109,0.856,6.11,0.534,9.212c-0.066,0.635,0.877,0.826,1.165,0.316
						c0.413-0.733,0.93-1.723,1.885-1.774c1.008-0.054,1.779,0.827,2.234,1.621c0.218,0.379,0.422,0.849,0.037,1.187
						c-0.296,0.26-0.746,0.334-1.124,0.348c-0.944,0.034-1.846-0.326-2.531-0.969c-0.586-0.55-1.472,0.332-0.884,0.884
						c1.048,0.983,2.489,1.5,3.924,1.286c1.438-0.214,2.496-1.388,1.902-2.861c-0.545-1.353-1.779-2.613-3.289-2.735
						c-1.583-0.128-2.541,1.15-3.235,2.382c0.388,0.105,0.776,0.21,1.165,0.315c0.309-2.985-1.027-5.905-0.579-8.88
						C338.484,194.106,337.28,193.766,337.16,194.56L337.16,194.56z"></path></g><g><path fill="#FFF" d="M347.916,194.311c0.035-0.141-0.041,0.058,0.016-0.061c0.064-0.134-0.063,0.057,0.038-0.052
						c0.114-0.124-0.085,0.055,0.052-0.043c0.095-0.068-0.064,0,0.059-0.032c0.034-0.009,0.188-0.024,0.058-0.019
						c0.015-0.001,0.172,0.003,0.095-0.004c-0.063-0.005,0.098,0.026,0.12,0.032c0.06,0.016-0.049-0.037,0.044,0.018
						c0.052,0.03,0.105,0.059,0.154,0.094c-0.087-0.065,0.052,0.054,0.057,0.059c0.001,0.001,0.107,0.131,0.064,0.07
						c0.039,0.055,0.069,0.113,0.103,0.171c0.055,0.095,0.005-0.016,0.044,0.096c0.019,0.053,0.036,0.106,0.051,0.16
						c0.018,0.065,0.033,0.13,0.046,0.197c0.007,0.033,0.012,0.066,0.017,0.1c-0.007-0.048-0.008-0.05-0.003-0.006
						c0.009,0.114,0.016,0.233,0,0.347c0.017-0.117-0.025,0.072-0.027,0.078c-0.039,0.131,0.04-0.036-0.039,0.076
						c-0.071,0.1,0.047-0.028-0.053,0.059c-0.096,0.082,0.057-0.023-0.061,0.053c-0.094,0.061-0.191,0.115-0.292,0.163
						c-0.179,0.086-0.45,0.176-0.693,0.236c-0.295,0.074-0.487,0.101-0.76,0.122c-0.313,0.024-0.57,0.22-0.614,0.542
						c-0.038,0.284,0.141,0.629,0.448,0.686c1.117,0.205,2.234,0.411,3.352,0.616c0.32,0.059,0.689-0.088,0.769-0.437
						c0.07-0.306-0.093-0.706-0.437-0.769c-1.117-0.205-2.234-0.411-3.352-0.616c-0.055,0.409-0.111,0.818-0.166,1.228
						c0.792-0.061,1.642-0.231,2.325-0.659c0.368-0.231,0.648-0.549,0.78-0.968c0.12-0.381,0.086-0.798,0.013-1.184
						c-0.149-0.786-0.672-1.517-1.463-1.747c-0.811-0.236-1.737,0.22-1.948,1.06c-0.079,0.317,0.102,0.693,0.437,0.769
						C347.472,194.821,347.831,194.65,347.916,194.311L347.916,194.311z"></path></g></g><g><path fill="#FFF" d="M334.295,189.61c5.703,0.23,11.473,0.199,17.176,0c0.802-0.028,0.806-1.278,0-1.25
					c-5.703,0.199-11.474,0.23-17.176,0C333.491,188.328,333.492,189.578,334.295,189.61L334.295,189.61z"></path></g><g><path fill="#FFF" d="M342.195,181.32c-0.502-0.551-1.335-0.583-2.027-0.503c-0.428,0.049-0.829,0.188-1.114,0.529
					c-0.266,0.318-0.455,0.716-0.601,1.101c-0.309,0.814-0.04,1.705,0.762,2.101c0.742,0.366,1.607,0.337,2.355,0.008
					c0.774-0.34,1.349-1.078,1.544-1.893c-0.402,0-0.803,0-1.205,0c0.203,1.184,0.798,2.288,1.655,3.127
					c0.575,0.563,1.46-0.32,0.884-0.884c-0.719-0.704-1.164-1.588-1.334-2.576c-0.106-0.618-1.068-0.573-1.205,0
					c-0.119,0.495-0.433,0.936-0.933,1.131c-0.247,0.096-0.512,0.132-0.781,0.098c-0.097-0.012-0.253-0.048-0.365-0.096
					c-0.036-0.016-0.184-0.112-0.201-0.134c-0.043-0.052-0.07-0.119-0.06-0.23c0.01-0.112,0.06-0.251,0.108-0.364
					c0.087-0.202,0.244-0.544,0.385-0.626c0.14-0.082,0.454-0.072,0.697-0.069c0.268,0.004,0.424,0.022,0.553,0.164
					c0.227,0.25,0.653,0.231,0.884,0C342.443,181.956,342.423,181.57,342.195,181.32L342.195,181.32z"></path></g><g><path fill="#FFF" d="M346.769,178.085c0.031-0.037,0.062-0.073,0.096-0.106c0.023-0.022,0.047-0.043,0.072-0.063
					c-0.057,0.044-0.067,0.053-0.03,0.028c0.042-0.019,0.085-0.047,0.125-0.07c0.042-0.02,0.029-0.014-0.039,0.016
					c0.03-0.011,0.06-0.021,0.091-0.029c0.016-0.004,0.031-0.008,0.046-0.012c0.071-0.013,0.062-0.013-0.025,0
					c0.034-0.018,0.107-0.004,0.143-0.004c0.162-0.003-0.135,0.01,0.041,0.009c-0.057-0.029-0.066-0.032-0.027-0.01
					c0.041,0.025,0.031,0.018-0.03-0.022c0.046,0.052,0.043,0.048-0.008-0.013c0.009,0.014,0.017,0.027,0.026,0.041
					c0.021,0.043,0.047,0.086,0.07,0.128c0.067,0.121-0.022-0.092,0.012,0.03c0.015,0.055,0.034,0.108,0.048,0.163
					c0.005,0.019,0.034,0.18,0.02,0.085c-0.014-0.095,0.005,0.092,0.005,0.111c0.001,0.049,0,0.098-0.002,0.146
					c-0.001,0.016-0.002,0.032-0.003,0.049c-0.008,0.072-0.006,0.065,0.004-0.021c0.026,0.019-0.062,0.248-0.073,0.283
					c-0.041,0.133,0.05-0.082-0.012,0.03c-0.024,0.043-0.045,0.087-0.07,0.128c-0.01,0.017-0.119,0.158-0.059,0.09
					c0.061-0.069-0.045,0.046-0.057,0.059c-0.032,0.033-0.066,0.065-0.1,0.096c-0.119,0.105,0.067-0.033-0.038,0.03
					c-0.08,0.048-0.158,0.096-0.241,0.138c-0.135,0.069,0.122-0.038-0.022,0.007c-0.045,0.014-0.088,0.029-0.133,0.041
					c-0.045,0.012-0.09,0.02-0.136,0.03c-0.137,0.031,0.112,0-0.018,0.001c-0.11,0-0.214,0.003-0.324-0.01
					c-0.307-0.037-0.577,0.266-0.614,0.542c-0.038,0.283,0.141,0.631,0.448,0.686c0.856,0.152,1.722,0.251,2.591,0.287
					c0.327,0.014,0.64-0.297,0.625-0.625c-0.016-0.35-0.275-0.611-0.625-0.625c-0.396-0.016-0.792-0.045-1.187-0.087
					c-0.091-0.01-0.182-0.02-0.273-0.032c0.005,0.001-0.168-0.021-0.098-0.012c0.074,0.01-0.084-0.012-0.098-0.014
					c-0.201-0.029-0.402-0.062-0.603-0.098c-0.055,0.409-0.111,0.819-0.166,1.228c0.923,0.111,1.929-0.443,2.309-1.296
					c0.22-0.495,0.282-1.025,0.163-1.556c-0.119-0.532-0.455-1.099-1.021-1.229c-0.603-0.138-1.29,0.089-1.685,0.567
					c-0.208,0.252-0.265,0.641,0,0.884C346.115,178.296,346.546,178.354,346.769,178.085L346.769,178.085z"></path></g></g></g><g><g><path fill="#0A0909" d="M68.414,357.881c0,0-9.647-12.188-7.874-19.661c1.773-7.473,3.335-12.625-1.359-20.919
				c-4.695-8.294-5.482-12.852-1.568-19.457c3.914-6.605,4.662-16.818-1.291-23.512c-5.952-6.694,1.843-19.555,1.843-19.555
				s1.229,14.295,6.23,18.177c5.001,3.882,11.26,12.638,8.652,19.057c-2.608,6.419-4.18,19.749,1.748,27.243
				c5.928,7.494,9.008,23.401-0.654,36.337L68.414,357.881z"></path><path fill="#0A0909" d="M79.501,353.45c0,0,6.975-8.705,4.472-14.968c-2.503-6.262-4.629-12.733,1.647-17.742
				c6.277-5.009,6.676-10.914,3.227-19.544c-3.45-8.631,6.607-9.937,6.484-18.874c-0.1-7.316,7.784-12.745,7.784-12.745
				s-5.531,7.449-0.323,17.604c3.546,6.913,2.827,14.552-1.843,19.555c-4.67,5.003,2.817,16.254,1.751,22.216
				c-1.066,5.962-8.026,13.107-6.191,17.7L79.501,353.45z"></path><g><path fill="#FFF" d="M72.057,356.562c-0.004,0-0.008,0-0.012-0.001c-0.076-0.006-0.132-0.073-0.125-0.148
					c0.015-0.174,1.43-17.532-3.992-31.547c-5.323-13.757-4.414-20.773-2.907-32.398l0.161-1.249c1-7.752-1.653-12.418-4.22-16.931
					c-1.561-2.745-3.035-5.339-3.747-8.569c-0.016-0.074,0.031-0.147,0.105-0.164c0.07-0.018,0.146,0.03,0.164,0.105
					c0.702,3.189,2.167,5.766,3.717,8.492c2.589,4.552,5.265,9.258,4.254,17.102l-0.162,1.249
					c-1.5,11.582-2.406,18.572,2.891,32.264c5.446,14.075,4.025,31.496,4.01,31.67C72.188,356.508,72.129,356.562,72.057,356.562z"></path></g><g><path fill="#FFF" d="M87.834,350.257c-0.018,0-0.035-0.003-0.053-0.011c-0.07-0.028-0.104-0.109-0.074-0.18
					c0.068-0.166,6.87-16.806,6.888-28.394c0.018-11.633,1.496-21.031,2.861-24.841c0.956-2.665,0.758-6.852,0.599-10.216
					c-0.065-1.387-0.127-2.697-0.101-3.722c0.002-0.074,0.063-0.134,0.138-0.134c0.001,0,0.002,0,0.004,0
					c0.075,0.002,0.136,0.065,0.134,0.142c-0.026,1.014,0.035,2.319,0.101,3.701c0.16,3.388,0.359,7.605-0.614,10.322
					c-1.358,3.787-2.828,13.147-2.846,24.747c-0.018,11.643-6.84,28.331-6.909,28.499C87.939,350.224,87.887,350.257,87.834,350.257
					z"></path></g></g><polygon fill="#FEB91E" fill-rule="evenodd" points="96.315 376.967 63.513 376.967 56.123 343.024 102.985 343.024" clip-rule="evenodd"></polygon></g><g><path fill="#FC7F61" d="M400.099,225.837c0,0-14.536,12.925-22.736,16.85c-8.2,3.926-15.611,7.658-17.608,7.763
			c-1.997,0.105-6.413-0.158-9.514,0.473c-3.101,0.631-7.358,3.152-7.358,3.152h29.529c0,0,7.737-0.556,14.15-3.247
			c6.413-2.691,19.064-11.922,19.064-11.922l-2.272-6.8L400.099,225.837z"></path><path fill="#0A0909" d="M403.482,203.57c0,0-2.568,1.723-5.767,0.835c-3.199-0.889-2.544-4.712-1.62-6.115
			c0,0-2.125-0.797-2.632-3.741c-0.506-2.943,1.976-4.852,3.876-4.884c1.9-0.032,2.894,0.826,2.894,0.826s0.439-2.139,2.947-2.661
			c2.508-0.522,3.449,1.77,3.449,1.77s4.215-2.973,7.022-2.561c2.807,0.412,4.416,8.295,4.416,8.295L403.482,203.57z"></path><path fill="#6696F8" d="M429.35,209.122c4.367-0.145,11.792,3.004,18.593,13.262c6.801,10.258,11.867,22.966,14.9,32.853
			c3.033,9.887,3.533,15.062,3.533,15.062s-13.308,1.891-27.757,3.431c-14.449,1.54-25.73,2.737-25.73,2.737
			s0.661-12.468-1.543-20.003l-4.488-18.669c0,0-6.062-11.367-7.535-13.166c0,0,4.89-3.461,8.25-6.055
			c3.36-2.594,6.907-6.926,8.34-8.207c1.433-1.281,11.842-1.458,11.842-1.458L429.35,209.122z"></path><path fill="#464D7B" d="M387.611,351.872l1.622,20.532l-32.118,2.73c0,0-0.71-5.055,6.838-9.34
			c7.548-4.286,9.744-10.262,9.462-12.988L387.611,351.872z"></path><path fill="#FC7F61" d="M420.129,200.832c0.683-0.763,1.193-5.17-1.559-5.464c-2.751-0.295-3.189,1.402-3.189,1.402
			s0,0.002-0.001,0.002c-1.169-1.846-3.196-3.104-5.545-3.192c-3.788-0.141-6.974,2.816-7.115,6.604
			c-0.057,1.527,0.396,2.952,1.198,4.123l-0.006,0.003c0,0,4.451,6.609,7.265,6.483c1.437-0.064,2.809-0.314,3.983-0.97
			c0,0.001,0.001,0.001,0.001,0.001c2.08,3.694,2.765,8.839,2.765,8.839s3.38-0.875,6.256-3.692
			c2.875-2.818,3.573-6.063,3.573-6.063C424.683,206.677,420.129,200.832,420.129,200.832z"></path><path fill="#0A0909" d="M403.068,202.596c2.751,0.52,2.486-3.287,2.486-3.287s2.128,0.592,3.174-1.318
			c1.046-1.911-0.297-3.038-0.297-3.038s1.692,1.412,3.295,1.079c1.603-0.333,3.72,2.927,3.72,2.927l0.921-0.787l-0.986-1.402
			c0,0-1.541-3.771-3.37-4.25c-1.829-0.479-8.532,0.401-9.796,2.663c-1.264,2.262,0.402,7.814,0.402,7.814L403.068,202.596z"></path><polygon fill="#0A0909" points="415.56 199.168 416.539 198.358 416.837 198.625 415.703 199.455"></polygon><path fill="#0A0909" d="M415.161,209.824c2.189-1.534,2.798-4.477,2.798-4.477s1.069,4.843-1.411,7.642
			C416.549,212.989,415.836,210.926,415.161,209.824z"></path><path fill="#1036BF" d="M466.376,270.298c1.773,10.251-3.855,34.669-8.672,34.49c-4.816-0.179-43.487-0.592-47.082,2.25
			c-3.595,2.842-0.168,26.571-0.168,26.571l-21.52,1.97l-0.952-4.756l-18.442,1.982c0,0-2.957-22.583,0.021-33.657
			c2.977-11.074,9.858-19.079,43.327-22.682C446.358,272.863,466.376,270.298,466.376,270.298z"></path><path fill="#FC7F61" d="M390.171 335.467c.763 5.677 4.916 22.327 4.916 22.327l15.017-2.315c0 0-1.029-17.909-1.58-21.693L390.171 335.467zM371.001 332.649c1.01 6.175 2.414 20.157 2.414 20.157l14.196-.934.373-21.048L371.001 332.649z"></path><path fill="#464D7B" d="M395.087,357.794c0.544,3.997-0.78,7.872-6.132,10.367c-5.352,2.495-6.736,4.521-7.63,7.874l31.776-2.05
			l-2.997-18.505L395.087,357.794z"></path><path fill="#FFF" d="M388.066 368.59c1.284 1.33 3.962 1.071 6.729-1.597 2.767-2.668 3.821-9.145 3.121-10.915-.7-1.771-3.149-.354-2.938 1.282.211 1.637.315 3.961-1.177 6.518C392.395 366.29 390.415 367.523 388.066 368.59zM362.867 366.452c2.613 1.041 4.84.483 8.663-2.979 3.823-3.462 5.482-8.634 5.371-10.896-.11-2.262-3.7-1.841-3.7-1.841s.168.529.213 2.07c.045 1.541-1.298 5.939-4.168 8.61C366.377 364.089 364.583 365.205 362.867 366.452zM427.755 208.908l1.595.213c0 0-.704 3.745-3.205 6.846-2.501 3.101-4.89 4.282-8.438 4.958l.218-2.262c0 0 3.221-.727 6.025-3.701C426.755 211.988 427.755 208.908 427.755 208.908z"></path><path fill="#0A0909" d="M422.769 246.742c-.335.456-.637.842-.903 1.17L422.769 246.742c0 0-3.466-6.132-11.128-13.267 5.364 6.33 8.106 10.332 10.198 14.469-.639.785-1.171 1.181-1.171 1.181s2.422 2.438 3.346 2.434C424.937 251.556 424.3 249.031 422.769 246.742zM400.099 225.837c1.848 3.429 5.527 13.069 5.527 13.069l1.232-1.112C406.858 237.794 403.552 229.817 400.099 225.837z"></path><polygon fill="#0A0909" points="390.171 335.467 408.783 336.159 408.524 333.787"></polygon><polygon fill="#0A0909" points="371.001 332.649 387.94 333.279 387.983 330.824"></polygon><g><path fill="#0A0909" d="M387.636,329.371c-0.123,0-0.228-0.094-0.238-0.218c-0.24-2.681-0.541-5.535-0.832-8.296
				c-1.234-11.698-2.51-23.796-0.187-30.288c2.868-8.013,11.3-11.139,11.385-11.169c0.121-0.043,0.261,0.019,0.306,0.144
				c0.045,0.124-0.019,0.261-0.144,0.306c-0.082,0.03-8.306,3.084-11.096,10.882c-2.287,6.389-1.018,18.431,0.211,30.076
				c0.291,2.763,0.593,5.618,0.833,8.303c0.012,0.132-0.085,0.248-0.217,0.26C387.65,329.371,387.643,329.371,387.636,329.371z"></path></g><g><path fill="#0A0909" d="M387.983,331.063c-0.122,0-0.227-0.093-0.238-0.217c-0.013-0.132,0.084-0.248,0.216-0.261l12.744-1.205
				c0.147-0.009,0.249,0.085,0.261,0.216c0.013,0.132-0.084,0.248-0.216,0.261l-12.744,1.205
				C387.998,331.063,387.99,331.063,387.983,331.063z"></path></g><g><path fill="#0A0909" d="M402.926,329.361c-0.116,0-0.219-0.085-0.236-0.203c-0.02-0.131,0.07-0.253,0.2-0.272l6.851-1.036
				c0.135-0.024,0.253,0.07,0.272,0.2c0.02,0.131-0.07,0.253-0.2,0.272l-6.851,1.036C402.95,329.36,402.938,329.361,402.926,329.361
				z"></path></g><g><path fill="#0A0909" d="M368.887,326.804c-0.117,0-0.219-0.085-0.236-0.204c-0.02-0.131,0.07-0.252,0.201-0.271l18.232-2.715
				c0.126-0.021,0.251,0.069,0.271,0.201c0.02,0.131-0.07,0.252-0.201,0.271l-18.232,2.715
				C368.911,326.803,368.899,326.804,368.887,326.804z"></path></g><g><path fill="#0A0909" d="M397.615,364.438c-0.007,0-0.014,0-0.021-0.001l-3.813-0.321c-0.131-0.011-0.229-0.127-0.218-0.259
				c0.011-0.131,0.119-0.245,0.259-0.218l3.813,0.321c0.131,0.011,0.229,0.127,0.218,0.259
				C397.842,364.344,397.738,364.438,397.615,364.438z"></path></g><g><path fill="#0A0909" d="M395.099,359.419c-0.125,0-0.23-0.097-0.238-0.224c-0.009-0.132,0.091-0.246,0.223-0.254l3.999-0.262
				c0.13-0.036,0.245,0.091,0.254,0.223s-0.091,0.246-0.223,0.254l-3.999,0.262C395.11,359.419,395.104,359.419,395.099,359.419z"></path></g><g><path fill="#0A0909" d="M393.817,361.596c-0.037,0-0.074-0.003-0.11-0.009c-0.203-0.031-0.477-0.163-0.627-0.612
				c-0.135-0.401-0.092-0.773,0.123-1.076c0.272-0.385,0.781-0.609,1.285-0.741c-1.298-0.314-2.799-0.809-2.903-1.429
				c-0.029-0.175,0.021-0.432,0.428-0.663c1.797-1.016,4.348,1.757,4.455,1.875c0.06,0.065,0.076,0.153,0.052,0.231
				c0.015,0.064,0.002,0.135-0.04,0.193C396.199,359.748,394.797,361.596,393.817,361.596z M395.81,359.45
				c-0.557,0.021-1.83,0.179-2.218,0.726c-0.126,0.178-0.146,0.39-0.06,0.646c0.09,0.268,0.208,0.286,0.247,0.292
				C394.22,361.206,395.147,360.275,395.81,359.45z M392.901,357.316c-0.229,0-0.449,0.05-0.652,0.165
				c-0.166,0.095-0.193,0.159-0.192,0.168c0.056,0.328,1.792,0.929,3.748,1.301C395.233,358.399,393.971,357.316,392.901,357.316z"></path></g><g><path fill="#0A0909" d="M372.296,365.208c-0.024,0-0.049-0.004-0.073-0.012l-5.199-1.661c-0.125-0.04-0.195-0.175-0.154-0.301
				c0.039-0.126,0.172-0.197,0.301-0.154l5.199,1.661c0.125,0.04,0.195,0.175,0.154,0.301
				C372.491,365.143,372.397,365.208,372.296,365.208z"></path></g><g><path fill="#0A0909" d="M374.347,362.47c-0.009,0-0.019,0-0.027-0.002l-5.318-0.613c-0.131-0.015-0.226-0.134-0.21-0.265
				c0.015-0.131,0.135-0.247,0.265-0.21l5.318,0.613c0.131,0.015,0.226,0.134,0.21,0.265
				C374.571,362.38,374.467,362.47,374.347,362.47z"></path></g><g><path fill="#0A0909" d="M371.049,360.065c-0.285,0-0.577-0.079-0.874-0.238c-0.539-0.289-0.812-0.668-0.81-1.124
				c0.004-1.041,1.54-2.166,2.537-2.787c-0.033,0-0.067,0-0.103,0c-2.015,0-5.82-0.152-6.25-1.283
				c-0.142-0.372,0.044-0.774,0.55-1.199c2.715-2.274,7.145,1.315,7.813,1.883l4.894-0.479c0.132-0.019,0.248,0.084,0.262,0.215
				c0.013,0.132-0.083,0.249-0.215,0.262l-4.823,0.473c-0.166,0.727-0.878,3.453-2.306,4.125
				C371.505,360.013,371.279,360.065,371.049,360.065z M372.887,355.897c-0.884,0.473-3.039,1.833-3.043,2.808
				c-0.001,0.27,0.182,0.498,0.558,0.7c0.398,0.214,0.764,0.239,1.119,0.072c1.139-0.536,1.796-2.8,2.005-3.643L372.887,355.897z
				 M368.232,353.172c-0.659,0-1.288,0.179-1.825,0.629c-0.187,0.157-0.489,0.451-0.409,0.662c0.299,0.788,4.154,1.04,6.808,0.962
				c0.002,0,0.004,0,0.006,0l0.42-0.041C372.316,354.676,370.146,353.172,368.232,353.172z"></path></g><g><path fill="#0A0909" d="M418.674,200.074c-0.055,0-0.109-0.019-0.154-0.057c-0.041-0.034-0.998-0.857-1.015-2.003
				c-0.011-0.683,0.313-1.323,0.959-1.904c0.1-0.088,0.25-0.08,0.338,0.018c0.089,0.099,0.08,0.25-0.018,0.338
				c-0.539,0.483-0.809,1.001-0.801,1.539c0.012,0.927,0.837,1.641,0.846,1.647c0.1,0.086,0.112,0.236,0.027,0.337
				C418.809,200.046,418.742,200.074,418.674,200.074z"></path></g><g><path fill="#0A0909" d="M419.832,198.72c-0.09,0-0.177-0.051-0.217-0.139c-0.177-0.381-0.422-0.63-0.728-0.74
				c-0.493-0.176-1.005,0.054-1.011,0.056c-0.121,0.056-0.264,0.005-0.318-0.113c-0.057-0.119-0.006-0.263,0.113-0.318
				c0.029-0.013,0.693-0.319,1.378-0.074c0.431,0.155,0.767,0.488,0.999,0.989c0.056,0.119,0.004,0.262-0.116,0.317
				C419.9,198.713,419.866,198.72,419.832,198.72z"></path></g><g><path fill="#0A0909" d="M411.664,232.98c-0.028,0-0.057-0.011-0.079-0.03c-0.05-0.044-0.055-0.12-0.011-0.169
				c0.057-0.064,5.683-6.453,5.955-10.248c0.004-0.065,0.072-0.108,0.128-0.11c0.065,0.005,0.115,0.062,0.11,0.128
				c-0.278,3.876-5.78,10.125-6.014,10.389C411.729,232.967,411.697,232.98,411.664,232.98z"></path></g><g><path fill="#0A0909" d="M425.028,250.948c-0.034,0-0.068-0.016-0.092-0.044c-0.042-0.051-0.035-0.126,0.016-0.168
				c6.896-5.718,15.551-18.049,15.638-18.173c0.036-0.055,0.111-0.069,0.166-0.029c0.055,0.037,0.067,0.112,0.029,0.166
				c-0.086,0.124-8.76,12.482-15.681,18.22C425.082,250.938,425.055,250.948,425.028,250.948z"></path></g><g><path fill="#0A0909" d="M438.749,237.175c-0.713,0-1.232-0.143-1.246-0.146c-0.063-0.019-0.1-0.085-0.082-0.148
				c0.02-0.063,0.078-0.097,0.148-0.082c0.141,0.042,3.479,0.945,4.677-2.222c0.024-0.062,0.091-0.092,0.154-0.07
				c0.063,0.023,0.094,0.093,0.07,0.154C441.672,236.775,439.94,237.175,438.749,237.175z"></path></g><circle cx="405.956" cy="205.827" r=".644" fill="#0A0909" transform="rotate(-87.868 405.962 205.828)"></circle><circle cx="409.523" cy="202.515" r=".644" fill="#0A0909" transform="rotate(-87.868 409.53 202.516)"></circle><g><path fill="#0A0909" d="M409.954,208.485c-0.132,0-0.239-0.106-0.239-0.238c-0.001-0.32,0.199-0.969,0.964-1.13
				c0.137-0.022,0.256,0.057,0.283,0.186s-0.056,0.256-0.186,0.283c-0.578,0.121-0.583,0.638-0.583,0.659
				C410.193,208.378,410.087,208.485,409.954,208.485C409.954,208.485,409.954,208.485,409.954,208.485z"></path></g><g><path fill="#0A0909" d="M401.822,208.948c-0.03,0-0.06-0.012-0.083-0.034c-0.048-0.046-0.049-0.121-0.003-0.169l3.063-3.18
				c0.046-0.049,0.121-0.049,0.169-0.003s0.049,0.121,0.003,0.169l-3.063,3.18C401.884,208.935,401.853,208.948,401.822,208.948z"></path></g><g><path fill="#0A0909" d="M410.167,205.736c-0.039,0-0.079-0.001-0.119-0.003c-1.761-0.065-3.141-1.552-3.074-3.313
				c0.063-1.76,1.554-3.153,3.313-3.074c1.76,0.065,3.14,1.552,3.074,3.313l0,0C413.297,204.379,411.876,205.736,410.167,205.736z
				 M410.167,199.582c-1.582,0-2.896,1.255-2.955,2.848c-0.029,0.789,0.251,1.543,0.788,2.121c0.537,0.579,1.268,0.914,2.058,0.944
				c0.036,0.001,0.073,0.002,0.109,0.002c1.581,0,2.896-1.255,2.955-2.848l0,0c0.06-1.629-1.217-3.004-2.846-3.065
				C410.24,199.583,410.203,199.582,410.167,199.582z M413.241,202.654h0.003H413.241z"></path></g><g><path fill="#FFF" d="M411.819,210.911c-1.044,0-2.253-0.244-3.351-1.072c-2.541-1.918-5.082-5.972-5.189-6.143
				c-0.07-0.112-0.035-0.26,0.076-0.33c0.114-0.07,0.259-0.035,0.33,0.076c0.025,0.042,2.602,4.15,5.072,6.014
				c2.396,1.809,5.494,0.526,5.524,0.514c0.119-0.051,0.263,0.005,0.314,0.127c0.051,0.122-0.006,0.263-0.127,0.314
				C414.389,210.444,413.262,210.911,411.819,210.911z"></path></g><g><path fill="#0A0909" d="M404.7,210.323c-0.041,0-0.082-0.001-0.123-0.003c-1.76-0.065-3.14-1.552-3.074-3.313
				c0.063-1.721,1.484-3.077,3.192-3.077c0.04,0,0.08,0.001,0.121,0.003c1.761,0.065,3.14,1.552,3.073,3.313
				c-0.031,0.853-0.393,1.643-1.019,2.224C406.275,210.022,405.508,210.323,404.7,210.323z M404.694,204.17
				c-0.748,0-1.458,0.278-2.009,0.79c-0.579,0.537-0.914,1.268-0.944,2.058c-0.06,1.628,1.217,3.003,2.846,3.064
				c0.78,0.021,1.543-0.251,2.121-0.788c0.579-0.537,0.914-1.268,0.943-2.058l0,0c0.061-1.628-1.215-3.003-2.845-3.064
				C404.769,204.171,404.731,204.17,404.694,204.17z"></path></g><g><path fill="#0A0909" d="M411.215,199.767c-0.035,0-0.07-0.017-0.095-0.047c-0.04-0.052-0.031-0.127,0.021-0.168l4.453-3.47
				c0.052-0.039,0.126-0.03,0.168,0.021c0.04,0.052,0.031,0.127-0.021,0.168l-4.453,3.47
				C411.267,199.759,411.241,199.767,411.215,199.767z"></path></g><g><path fill="#0A0909" d="M406.641,204.866c-0.003,0-0.006,0-0.009,0c-0.065-0.005-0.115-0.062-0.11-0.127
				c0.017-0.245,0.222-0.751,0.882-0.909c0.068-0.013,0.13,0.023,0.145,0.088c0.016,0.064-0.024,0.129-0.088,0.145
				c-0.65,0.156-0.698,0.672-0.7,0.693C406.755,204.818,406.703,204.866,406.641,204.866z"></path></g><g><rect width="137.551" height="9.936" x="252.606" y="254.013" fill="#FEB91E" transform="translate(.743 -.92)"></rect><g><defs><rect id="a" width="137.551" height="9.936" x="252.606" y="254.013" transform="translate(.743 -.92)"></rect></defs><clipPath id="b"><use overflow="visible" xlink:href="#a"></use></clipPath><g clip-path="url(#b)"><g><path fill="#FE891E" d="M263.073,259.217c-0.119,0-0.24-0.004-0.363-0.012c-4.547-0.295-7.233-5.004-7.346-5.204
							c-0.097-0.174-0.035-0.392,0.138-0.488c0.174-0.097,0.392-0.036,0.489,0.137c0.025,0.046,2.612,4.57,6.766,4.839
							c4.056,0.274,5.67-4.684,5.685-4.733c0.061-0.188,0.255-0.292,0.45-0.235c0.188,0.06,0.294,0.261,0.235,0.45
							C269.11,254.023,267.435,259.217,263.073,259.217z"></path></g><g><path fill="#FE891E" d="M257.665,262.835c-0.125,0-0.247-0.066-0.313-0.184c-1.726-3.064-4.766-3.529-4.796-3.533
							c-0.196-0.028-0.333-0.209-0.306-0.405c0.028-0.195,0.199-0.325,0.404-0.306c0.139,0.02,3.417,0.508,5.322,3.893
							c0.098,0.173,0.036,0.392-0.137,0.488C257.785,262.819,257.724,262.835,257.665,262.835z"></path></g><g><path fill="#FE891E" d="M265.982,264.15c-0.04,0-0.081-0.007-0.121-0.021c-0.187-0.066-0.283-0.272-0.217-0.459
							c0.056-0.155,1.402-3.818,5.046-5.012c3.366-1.104,6.149-4.942,6.177-4.98c0.116-0.161,0.34-0.197,0.501-0.083
							c0.161,0.116,0.198,0.34,0.083,0.501c-0.119,0.166-2.95,4.068-6.537,5.244c-3.313,1.085-4.581,4.537-4.594,4.572
							C266.267,264.058,266.13,264.15,265.982,264.15z"></path></g><g><path fill="#FE891E" d="M289.203,264.216c-0.078,0-0.156-0.024-0.223-0.077c-0.04-0.032-4.104-3.21-8.411-3.854
							c-4.181-0.625-7.303,3.69-7.333,3.734c-0.115,0.162-0.34,0.197-0.501,0.085c-0.161-0.115-0.199-0.339-0.085-0.501
							c0.137-0.192,3.403-4.702,8.024-4.028c4.501,0.672,8.579,3.865,8.751,4.001c0.155,0.123,0.182,0.349,0.059,0.504
							C289.414,264.17,289.308,264.216,289.203,264.216z"></path></g><g><path fill="#FE891E" d="M286.965,257.667c-2.506,0-4.98-3.396-5.095-3.556c-0.116-0.161-0.079-0.386,0.081-0.501
							c0.159-0.116,0.384-0.08,0.501,0.081c0.028,0.039,2.835,3.9,5.103,3.166c2.356-0.771,3.519-3.065,3.53-3.089
							c0.088-0.177,0.303-0.249,0.48-0.162c0.178,0.088,0.25,0.303,0.163,0.479c-0.052,0.105-1.301,2.587-3.951,3.453
							C287.509,257.627,287.237,257.667,286.965,257.667z"></path></g><g><path fill="#FE891E" d="M299.1,264.245c-0.055,0-0.11-0.013-0.162-0.039c-0.177-0.09-0.248-0.307-0.158-0.482
							c0.979-1.926,0.909-3.633-0.186-4.567c-1.103-0.941-2.907-0.849-4.388,0.227c-3.437,2.491-7.01,0.251-7.046,0.229
							c-0.166-0.106-0.215-0.328-0.107-0.495c0.106-0.165,0.328-0.218,0.495-0.109c0.129,0.082,3.204,1.994,6.236-0.205
							c1.751-1.272,3.921-1.35,5.275-0.191c1.364,1.164,1.498,3.197,0.36,5.438C299.357,264.173,299.231,264.245,299.1,264.245z"></path></g><g><path fill="#FE891E" d="M304.742,258.385c-0.282,0-0.558-0.033-0.825-0.107c-3.08-0.85-5.264-3.992-5.355-4.125
							c-0.112-0.163-0.07-0.387,0.093-0.499c0.163-0.114,0.387-0.071,0.499,0.093c0.021,0.03,2.131,3.06,4.955,3.84
							c2.753,0.756,7.047-3.799,7.09-3.846c0.136-0.145,0.361-0.153,0.507-0.017c0.145,0.135,0.152,0.362,0.017,0.507
							C311.549,254.415,307.8,258.385,304.742,258.385z"></path></g><g><path fill="#FE891E" d="M303.234,264.256c-0.062,0-0.124-0.016-0.181-0.049c-0.171-0.1-0.229-0.319-0.13-0.49
							c0.088-0.15,2.166-3.629,6.825-3.629c0.082,0,0.164,0.001,0.248,0.004c0.04,0.001,0.08,0.001,0.12,0.001
							c4.405,0,9.104-6.236,9.151-6.3c0.118-0.158,0.345-0.19,0.503-0.073c0.158,0.119,0.191,0.344,0.073,0.503
							c-0.203,0.271-4.967,6.588-9.728,6.588c-0.047,0-0.093,0-0.14-0.002c-4.367-0.119-6.353,3.132-6.434,3.27
							C303.477,264.192,303.357,264.256,303.234,264.256z"></path></g><g><path fill="#FE891E" d="M314.16,264.288c-0.063,0-0.128-0.018-0.187-0.053c-0.169-0.103-0.223-0.323-0.12-0.493
							c0.043-0.069,4.289-6.928,9.311-4.056c0.173,0.099,0.232,0.317,0.134,0.489c-0.099,0.173-0.319,0.232-0.489,0.134
							c-4.419-2.522-8.304,3.742-8.342,3.806C314.399,264.226,314.281,264.288,314.16,264.288z"></path></g><g><path fill="#FE891E" d="M337.005,264.353c-0.162,0-0.309-0.11-0.349-0.273c-0.438-1.781-2.69-4.738-6.873-5.091
							c-4.58-0.387-4.906-4.897-4.909-4.943c-0.012-0.197,0.139-0.367,0.336-0.379c0.241-0.02,0.368,0.139,0.381,0.335
							c0.01,0.161,0.298,3.938,4.253,4.272c4.589,0.387,7.005,3.581,7.51,5.634c0.047,0.192-0.07,0.387-0.263,0.435
							C337.062,264.349,337.034,264.353,337.005,264.353z"></path></g><g><path fill="#FE891E" d="M342.539,260.174c-0.604,0-1.201-0.087-1.784-0.284c-5.183-1.75-6.306-5.579-6.351-5.741
							c-0.053-0.19,0.058-0.388,0.248-0.441c0.196-0.058,0.39,0.058,0.443,0.247c0.01,0.036,1.083,3.633,5.89,5.256
							c4.778,1.611,11.133-5.279,11.196-5.349c0.134-0.146,0.361-0.157,0.507-0.024c0.146,0.134,0.157,0.36,0.024,0.507
							C352.47,254.61,347.343,260.174,342.539,260.174z"></path></g><g><path fill="#FE891E" d="M360.281,264.42c-0.098,0-0.194-0.039-0.266-0.117c-0.038-0.042-3.904-4.235-7.861-4.324
							c-3.889-0.048-5.773,4.144-5.792,4.187c-0.082,0.181-0.295,0.262-0.474,0.184c-0.181-0.079-0.264-0.291-0.185-0.472
							c0.084-0.19,2.072-4.617,6.329-4.617c0.046,0,0.091,0.001,0.137,0.002c4.268,0.095,8.211,4.376,8.377,4.559
							c0.133,0.146,0.122,0.373-0.024,0.507C360.454,264.389,360.367,264.42,360.281,264.42z"></path></g><g><path fill="#FE891E" d="M367.598,262.31c-0.131,0-0.258-0.073-0.321-0.198c-0.009-0.017-1.068-1.948-5.539-2.599
							c-4.989-0.727-5.319-5.332-5.322-5.378c-0.012-0.198,0.139-0.367,0.337-0.379c0.2-0.025,0.367,0.139,0.38,0.336
							c0.011,0.165,0.308,4.069,4.709,4.71c4.886,0.712,6.031,2.896,6.078,2.987c0.089,0.178,0.017,0.394-0.16,0.482
							C367.708,262.298,367.653,262.31,367.598,262.31z"></path></g><g><path fill="#FE891E" d="M370.617,258.563c-0.262,0-0.522-0.03-0.781-0.096c-3.133-0.793-5.479-3.984-5.576-4.12
							c-0.117-0.16-0.081-0.385,0.079-0.501c0.159-0.118,0.384-0.082,0.501,0.079c0.023,0.031,2.294,3.118,5.172,3.847
							c2.779,0.707,6.184-3.771,6.217-3.817c0.12-0.158,0.347-0.189,0.503-0.071c0.158,0.119,0.19,0.345,0.071,0.503
							C376.664,254.571,373.623,258.563,370.617,258.563z"></path></g><g><path fill="#FE891E" d="M372.136,264.454c-0.198,0-0.358-0.161-0.359-0.358c0-0.034,0.042-3.412,4.056-4.089
							c3.53-0.597,5.917-5.911,5.94-5.965c0.08-0.182,0.289-0.267,0.474-0.183c0.181,0.08,0.263,0.292,0.183,0.474
							c-0.103,0.232-2.57,5.721-6.478,6.381c-3.422,0.578-3.457,3.267-3.456,3.38C372.496,264.292,372.336,264.453,372.136,264.454
							C372.136,264.454,372.136,264.454,372.136,264.454z"></path></g><g><path fill="#FE891E" d="M382.211,264.483c-0.015,0-0.029-0.001-0.045-0.003c-0.196-0.024-0.336-0.204-0.312-0.401
							c0.009-0.068,0.949-6.943,8.236-8.536c0.187-0.047,0.384,0.08,0.427,0.274c0.042,0.193-0.08,0.385-0.274,0.427
							c-6.796,1.485-7.668,7.86-7.676,7.925C382.544,264.349,382.389,264.483,382.211,264.483z"></path></g><g><path fill="#FE891E" d="M388.447,261.66c-0.555,0-1.239-0.096-2.068-0.364c-0.188-0.062-0.292-0.264-0.231-0.452
							c0.063-0.188,0.266-0.289,0.452-0.231c2.378,0.772,3.295-0.05,3.304-0.059c0.144-0.132,0.37-0.128,0.505,0.012
							c0.136,0.142,0.136,0.363-0.003,0.501C390.372,261.099,389.789,261.66,388.447,261.66z"></path></g></g></g><g><path fill="#0A0909" d="M390.142,264.386C390.142,264.386,390.142,264.386,390.142,264.386l-137.551-0.394
					c-0.132,0-0.238-0.107-0.238-0.24c0-0.132,0.107-0.238,0.239-0.238c0,0,0,0,0.001,0l137.55,0.394
					c0.132,0,0.238,0.107,0.238,0.24C390.381,264.279,390.274,264.386,390.142,264.386z"></path></g></g><polygon fill="#0A0909" points="368.888 264.147 357.097 264.147 397.213 377.705 400.137 377.705"></polygon><polygon fill="#0A0909" points="278.565 263.753 290.355 263.753 250.24 377.311 247.315 377.311"></polygon><g><path fill="#0A0909" d="M409.9,378.597c-0.012,0-0.022,0-0.034,0c-0.444-0.019-0.79-0.395-0.772-0.839l2.642-63.942
				c0.02-0.445,0.402-0.771,0.839-0.772c0.444,0.019,0.79,0.395,0.772,0.839l-2.642,63.942
				C410.686,378.259,410.33,378.597,409.9,378.597z"></path></g><path fill="#464D7B" d="M467.932 313.85h-58.069c-1.362 0-2.544-.943-2.845-2.272l-1.098-4.841c-.414-1.825.974-3.563 2.845-3.563h58.069c1.363 0 2.544.943 2.845 2.272l1.098 4.841C471.191 312.112 469.804 313.85 467.932 313.85zM459.541 277.048H409.32c-1.178 0-2.2-.755-2.46-1.818l-.949-3.873c-.358-1.46.842-2.85 2.46-2.85h50.221c1.178 0 2.2.755 2.461 1.818l.949 3.873C462.36 275.658 461.16 277.048 459.541 277.048zM476.639 272.404l5.113-39.182c.12-.919.972-1.619 2.053-1.684l3.937-.24c1.484-.09 2.74 1.026 2.576 2.288l-5.113 39.182c-.12.919-.972 1.619-2.053 1.684l-3.937.24C477.73 274.783 476.474 273.667 476.639 272.404z"></path><g><path fill="#0A0909" d="M469.741,378.597c-0.42,0-0.774-0.326-0.803-0.751l-4.319-63.942c-0.03-0.444,0.306-0.829,0.749-0.858
				c0.431-0.051,0.828,0.305,0.858,0.749l4.319,63.942c0.03,0.444-0.306,0.829-0.749,0.858
				C469.778,378.597,469.759,378.597,469.741,378.597z"></path></g><g><path fill="#0A0909" d="M462.463,303.98c-0.373,0-0.707-0.26-0.787-0.64l-5.516-26.127c-0.093-0.436,0.187-0.862,0.622-0.954
				c0.432-0.097,0.862,0.187,0.954,0.622l5.516,26.127c0.093,0.436-0.187,0.862-0.622,0.954
				C462.574,303.975,462.518,303.98,462.463,303.98z"></path></g><g><path fill="#0A0909" d="M414.52,303.98c-0.4,0-0.747-0.297-0.799-0.705l-3.301-26.127c-0.056-0.441,0.257-0.845,0.699-0.9
				c0.446-0.053,0.844,0.258,0.9,0.699l3.301,26.127c0.056,0.441-0.257,0.845-0.699,0.9
				C414.588,303.978,414.553,303.98,414.52,303.98z"></path></g><g><path fill="#0A0909" d="M467.932,314.655c-0.445,0-0.806-0.36-0.806-0.806s0.36-0.806,0.806-0.806
				c7.099,0,14.425-30.111,16.647-41.713l5.576-41.425c0.059-0.441,0.475-0.748,0.906-0.691c0.441,0.06,0.751,0.465,0.691,0.906
				l-5.583,41.469C485.32,276.037,477.639,314.655,467.932,314.655z"></path></g><rect width="40.558" height="1.929" x="313.297" y="252.148" fill="#F7EBD2" transform="rotate(-180 333.576 253.112)"></rect><g><path fill="#1036BF" d="M486.553,377.397l-50.873-0.084c-1.842-0.003-3.333-1.499-3.33-3.341l0.061-37.211l57.544,0.095
				l-0.061,37.211C489.891,375.91,488.395,377.4,486.553,377.397z"></path><rect width="59.543" height="28.488" x="431.388" y="336.81" fill="#6696F8" transform="translate(.578 -.758)"></rect><rect width="10.207" height="3.761" x="439.17" y="363.285" fill="#0A0909" transform="translate(.602 -.73)"></rect><rect width="10.207" height="3.761" x="472.359" y="363.444" fill="#0A0909" transform="translate(.598 -.78)"></rect><rect width="3.343" height="10.506" x="442.595" y="364.121" fill="#0A0909" transform="translate(.608 -.73)"></rect><rect width="3.343" height="10.506" x="475.784" y="364.176" fill="#0A0909" transform="translate(.609 -.785)"></rect></g><g><g><rect width="2.933" height="14.642" x="354.191" y="230.618" fill="#0A0909" fill-rule="evenodd" clip-rule="evenodd" transform="rotate(44.911 355.666 237.943)"></rect><polygon fill-rule="evenodd" points="349.02 244.597 349.45 242.089 351.527 244.16" clip-rule="evenodd"></polygon><polygon fill="#FC2222" fill-rule="evenodd" points="348.97 245.208 348.219 244.814 349.142 243.888 349.715 244.46" clip-rule="evenodd"></polygon><polygon fill="#FC2222" fill-rule="evenodd" points="356.443 235.075 359.449 236.213 354.724 240.953 351.639 239.894" clip-rule="evenodd"></polygon></g><path fill="#FB7E60" fill-rule="evenodd" d="M411.641,233.475c0,0,6.007,6.275,10.198,14.469
				c0,0-3.051,3.615-10.68,7.742c-10.4,2.648-23.137,1.005-30.691-2.508c-7.555-3.514-13.083-6.486-18.373-7.671
				c-5.289-1.185-7.748,0.63-8.445-1.477c-0.697-2.107-0.347-3.357-1.921-4.073c-1.574-0.716-5.839-0.832-4.581-1.62
				c1.258-0.789,10.204,0.612,10.736-0.408c0.532-1.02,0.397-0.913,2.148-2.485c0,0-0.278,0.908,2.621,2.159
				c2.897,1.25,23.477,7.006,31.798,4.914L411.641,233.475z" clip-rule="evenodd"></path></g></g><g><polygon fill="#FC7F61" points="201.268 340.545 198.212 356.528 180.48 355.105 180.932 338.95"></polygon><path fill="#6596FA" d="M180.57,353.972l-1.841,23.161h39.348c0,0-1.313-7.183-10.672-9.892
			c-9.358-2.709-8.889-12.308-8.889-12.308L180.57,353.972z"></path><path fill="#464D7B" d="M218.811,222.166c-1.233,19.351-8.669,75.367-11.515,92.442c-2.846,17.075-4.597,26.05-4.597,26.05
			l-22.329-1.751l-0.876,3.721l-20.03-4.159c0,0,1.314-16.09,2.627-45.971c1.313-29.881-0.042-59.679,4.248-83.362
			C166.34,209.135,199.577,210.477,218.811,222.166z"></path><path fill="#FC7F61" d="M178.75,342.473l-1.991,14.712l-17.294-1.642c0,0,0.409-9.822,0.861-16.896L178.75,342.473z"></path><path fill="#6596FA" d="M159.498,354.76l-2.332,24.179h39.321c0,0-0.216-6.482-7.716-8.291
			c-14.12-3.407-11.822-14.874-11.822-14.874L159.498,354.76z"></path><polygon fill="#0A0909" points="178.75 342.473 160.24 340.03 160.326 338.647"></polygon><polygon fill="#0A0909" points="201.268 340.545 180.881 340.769 180.932 338.95"></polygon><g><path fill="#0A0909" d="M180.88,336.972c-0.017,0-0.033-0.002-0.051-0.006c-0.138-0.027-0.228-0.162-0.199-0.301
				c2.308-11.463,16.448-101.096,16.591-102c0.021-0.14,0.147-0.25,0.292-0.212c0.139,0.021,0.234,0.152,0.212,0.292
				c-0.143,0.904-14.284,90.547-16.595,102.021C181.106,336.888,181,336.972,180.88,336.972z"></path></g><g><path fill="#0A0909" d="M196.097,243.664c-0.14,0-0.254-0.113-0.256-0.253c-0.001-0.142,0.112-0.257,0.253-0.259
				c4.946-0.052,6.34-7.324,6.354-7.397c0.025-0.138,0.15-0.229,0.297-0.205c0.139,0.025,0.23,0.158,0.205,0.297
				c-0.058,0.317-1.482,7.761-6.85,7.817C196.099,243.664,196.098,243.664,196.097,243.664z"></path></g><g><path fill="#0A0909" d="M180.371,339.162c-0.021,0-0.043-0.003-0.065-0.009l-8.318-2.189c-0.136-0.036-0.218-0.176-0.182-0.313
				c0.036-0.136,0.173-0.215,0.313-0.182l8.318,2.189c0.136,0.036,0.218,0.176,0.182,0.313
				C180.588,339.086,180.484,339.162,180.371,339.162z"></path></g><g><path fill="#0A0909" d="M169.495,336.316c-0.021,0-0.043-0.003-0.064-0.009l-9.666-2.508c-0.136-0.035-0.218-0.175-0.183-0.312
				c0.036-0.136,0.182-0.219,0.312-0.183l9.666,2.508c0.136,0.035,0.218,0.175,0.183,0.312
				C169.713,336.239,169.608,336.316,169.495,336.316z"></path></g><g><path fill="#0A0909" d="M203.561,336.316c-0.01,0-0.019-0.001-0.029-0.002l-22.089-2.508c-0.141-0.016-0.241-0.143-0.226-0.283
				c0.017-0.14,0.133-0.233,0.283-0.225l22.089,2.508c0.141,0.016,0.241,0.143,0.226,0.283
				C203.8,336.22,203.69,336.316,203.561,336.316z"></path></g><g><path fill="#0A0909" d="M169.107,333.68c-0.003,0-0.006,0-0.01-0.001c-0.07-0.005-0.123-0.066-0.117-0.137
				c0.067-0.906,6.841-90.972,12.366-119.228c0.014-0.068,0.083-0.118,0.149-0.101c0.069,0.014,0.114,0.08,0.101,0.149
				c-5.522,28.241-12.294,118.292-12.362,119.198C169.229,333.629,169.173,333.68,169.107,333.68z"></path></g><path fill="#FFF" d="M185.259 369.509c-2.316 2.042-6.584-.503-9.458-4.689-2.873-4.187-2.709-8.642-2.134-10.848.575-2.205 3.594-.495 3.594-.495s-.844 4.652.88 8.879C180.072 367.093 185.259 369.509 185.259 369.509zM207.406 367.241c-2.299 1.56-5.117 1.355-9.003-2.627-3.886-3.981-3.968-11.164-3.434-12.847.534-1.683 4.201-.251 4.201-.251s-1.002 5.37.079 8.031C201.268 364.518 204.314 366.133 207.406 367.241z"></path><polygon fill="#FFF" points="196.488 378.939 157.167 378.939 157.305 377.504 196.399 378.221"></polygon><polygon fill="#FFF" points="218.077 377.133 196.135 377.133 195.772 376.156 217.879 376.406"></polygon><g><path fill="#0A0909" d="M178.729,369.809c-0.102,0-0.198-0.063-0.238-0.163c-0.051-0.131,0.014-0.279,0.146-0.331l4.045-1.581
				c0.129-0.052,0.278,0.015,0.331,0.146c0.051,0.131-0.014,0.279-0.146,0.331l-4.045,1.581
				C178.792,369.804,178.76,369.809,178.729,369.809z"></path></g><g><path fill="#0A0909" d="M176.157,367.729c-0.118,0-0.224-0.082-0.25-0.202c-0.029-0.138,0.059-0.273,0.196-0.304l4.813-1.035
				c0.146-0.031,0.273,0.059,0.304,0.196c0.029,0.138-0.059,0.273-0.196,0.304l-4.813,1.035
				C176.192,367.727,176.174,367.729,176.157,367.729z"></path></g><g><path fill="#0A0909" d="M173.858,364.993c-0.136,0-0.248-0.106-0.255-0.243c-0.007-0.141,0.102-0.261,0.242-0.268l5.435-0.274
				c0.149-0.003,0.261,0.102,0.268,0.242s-0.102,0.261-0.242,0.268l-5.435,0.274C173.867,364.992,173.862,364.993,173.858,364.993z"></path></g><g><path fill="#0A0909" d="M177.095,362.627c-0.101,0-0.214-0.016-0.34-0.053c-0.432-0.126-0.731-0.387-0.891-0.776
				c-0.505-1.237,0.688-3.388,0.739-3.479c0.031-0.057,0.082-0.097,0.139-0.116l-6.059,0.005c-0.141,0-0.256-0.115-0.256-0.256
				s0.115-0.256,0.256-0.256h6.438c0.04,0.002,0.068,0.006,0.1,0.019c0.501,0.104,2.7,0.639,3.417,1.932
				c0.277,0.499,0.304,1.047,0.08,1.626c-0.192,0.499-0.474,0.755-0.833,0.762c-0.005,0-0.009,0-0.013,0
				c-0.653,0-1.388-0.969-1.97-1.965c0.148,0.941,0.169,1.906-0.241,2.326C177.549,362.511,177.369,362.627,177.095,362.627z
				 M177.046,358.576c-0.316,0.567-1.049,2.194-0.707,3.029c0.098,0.24,0.281,0.397,0.56,0.479s0.365-0.011,0.398-0.045
				C177.692,361.634,177.418,359.926,177.046,358.576z M177.574,358.324c0.681,1.462,1.719,3.199,2.296,3.199
				c0.002,0,0.004,0,0.006,0c0.165-0.003,0.29-0.238,0.366-0.435c0.169-0.438,0.153-0.828-0.05-1.194
				C179.71,359.024,178.323,358.533,177.574,358.324z M176.911,358.203c0.01,0.004,0.021,0.008,0.03,0.013
				c-0.001-0.004-0.002-0.009-0.004-0.013H176.911z"></path></g><g><path fill="#0A0909" d="M200.51,368.003c-0.104,0-0.201-0.063-0.239-0.167c-0.05-0.132,0.018-0.279,0.15-0.328l4.336-1.618
				c0.132-0.051,0.279,0.017,0.328,0.15c0.05,0.132-0.018,0.279-0.15,0.328l-4.336,1.618
				C200.57,367.997,200.54,368.003,200.51,368.003z"></path></g><g><path fill="#0A0909" d="M197.555,365.808c-0.117,0-0.223-0.081-0.249-0.199c-0.031-0.138,0.055-0.274,0.192-0.306l4.812-1.09
				c0.146-0.028,0.274,0.056,0.306,0.192c0.031,0.138-0.055,0.274-0.192,0.306l-4.812,1.09
				C197.592,365.805,197.574,365.808,197.555,365.808z"></path></g><g><path fill="#0A0909" d="M194.983,363.023c-0.134,0-0.245-0.104-0.255-0.238c-0.01-0.141,0.097-0.263,0.237-0.272l5.739-0.396
				c0.137,0.005,0.262,0.097,0.272,0.237c0.01,0.141-0.097,0.263-0.237,0.272l-5.739,0.396
				C194.995,363.022,194.989,363.023,194.983,363.023z"></path></g><g><path fill="#0A0909" d="M203.477,362.764c-0.106,0-0.216-0.012-0.326-0.033c-2.005-0.396-4.193-4.458-4.622-5.29h-6.337
				c-0.141,0-0.256-0.115-0.256-0.256s0.115-0.256,0.256-0.256h6.429c0.601-0.32,3.918-2.039,5.315-1.563
				c0.278,0.095,0.475,0.267,0.584,0.512c0.137,0.309,0.049,0.545-0.049,0.688c-0.513,0.753-2.868,0.894-4.455,0.899
				c1.754,0.782,4.697,2.295,4.952,3.73c0.053,0.299,0.016,0.742-0.462,1.161C204.198,362.628,203.852,362.764,203.477,362.764z
				 M199.241,357.687c0.72,1.303,2.494,4.244,4.009,4.543c0.346,0.064,0.646-0.017,0.921-0.258c0.246-0.216,0.34-0.434,0.295-0.688
				C204.247,360.049,201.055,358.458,199.241,357.687z M199.714,356.953c0.025,0,0.051,0,0.077,0c1.833,0,3.924-0.184,4.258-0.675
				c0.026-0.038,0.051-0.088,0.004-0.193c-0.05-0.112-0.14-0.188-0.281-0.235C202.948,355.566,201.012,356.339,199.714,356.953z"></path></g><path fill="#FB7E60" fill-rule="evenodd" d="M211.684,165.036c0,0-8.542,8.074-5.212,24.487
			c0,0,26.01,1.258,30.986-7.768c4.977-9.026-0.603-19.264-6.416-27.161c-5.815-7.898-10.533-13.583-13.133-19.411
			c-2.6-5.826-1.079-9.086-3.673-9.399c-2.593-0.313-3.954,0.382-5.147-1.267c-1.193-1.649-2.321-6.543-2.937-4.908
			c-0.617,1.635,3.085,11.631,2.032,12.482c-1.053,0.852-4.899-1.896-5.287,0.249c0,0,3.903,2.277,6.022,5.329
			c2.118,3.051,6.527,21.035,7.396,28.025L211.684,165.036z" clip-rule="evenodd"></path><polygon fill="#F4E1D3" fill-rule="evenodd" points="284.154 129.399 274.704 181.799 237.779 178.769 244.529 124.626" clip-rule="evenodd"></polygon><path fill="#FC7F61" d="M215.241,175.327c-1.867,1.088-3.226,1.781-3.226,1.781l-3.539-3.015l4.738-8.882
			c0,0,1.611,0.712,2.472,0.694c0.1-0.002,0.417-0.106,0.887-0.282C215.955,168.136,215.366,171.305,215.241,175.327z"></path><path fill="#0A0909" d="M171.046,119.643c3.774,0.663,8.07,3.345,9.722,7.815c1.652,4.47-0.429,8.124-0.429,8.124
			s0.995-3.747-0.645-7.607c0,0,0.957,5.168-3.639,8.98c-4.596,3.813-12.123,9.718-12.123,9.718s-4.245,1.311-5.271,7.594
			s2.832,21.022,2.832,21.022s-3.455,5.346-10.497,6.305c-7.042,0.959-12.234-6.194-13.719-11.72
			c-1.485-5.526,1.721-11.751,1.721-11.751s-3.245,4.826-2.818,10.616c0,0-1.413-4.633,1.817-11.668
			c3.23-7.036,16.989-11.894,16.989-11.894s-6.187-12.394,0.036-19.777C159.746,119.796,164.792,118.543,171.046,119.643z"></path><path fill="#FC7F61" d="M159.839,138.193c-1.675-2.059-0.911-5.115,1.667-5.244c0.002,0,0.004,0,0.005,0
			c-0.749-3.408,1.001-6.973,4.33-8.387c3.759-1.596,8.101,0.157,9.697,3.916c0.247,0.581,0.404,1.176,0.496,1.773l0.005-0.002
			c0.007,0.053,0.012,0.11,0.019,0.164c0.014,0.109,0.029,0.217,0.038,0.326c0.485,4.24-0.031,10.1-2.333,10.958
			c-0.492,0.184-1.029,0.275-1.583,0.296l0.002,0.002c-1.007,1.725,1.552,6.302,1.552,6.302s-4.959,0.936-9.802-1.625
			c0,0,0.71-5.288,0.111-6.696C164.044,139.977,161.514,140.252,159.839,138.193z"></path><path fill="#0A0909" d="M172.079 126.859c0 0-.832 2.487-4.278 5.1-3.446 2.613-7.737 2.465-7.737 2.465s3.271-.609 5.414-2.135c0 0-3.747 1.422-5.725 1.403-1.978-.019-.53-5.888.839-7.495 1.369-1.608 6.771-4.641 9.921-4.665 3.15-.024 5.494 6.655 5.887 7.678.393 1.023-.305 1.531-.305 1.531S172.94 129.079 172.079 126.859zM172.182 141.997c-2.296-.006-4.296-1.332-4.296-1.332s1.957 2.873 4.282 3.851C172.168 144.515 171.865 143.482 172.182 141.997z"></path><path fill="#FEB91E" d="M222.13,228.033c0,0-9.394-1.249-25.555-1.25c-16.16-0.001-32.897-4.126-32.897-4.126
			s-1.295-10.687-3.506-23.532c-2.212-12.846-6.781-35.473-4.633-43.099c2.148-7.626,5.542-9.385,8.394-9.352
			c0,0,3.57,2.031,9.802,1.625c4.84,2.438,8.729,4.435,10.688,5.775c1.959,1.34,29.325,10.135,29.325,10.135l-5.272,9.884
			c0,0,2.062,1.992,3.539,3.015l-6.327,4.946l-6.906-4.192c0,0-9.565,9.188-15.627,19.668c0,0,10.712,5.79,18.757,8.368
			c8.045,2.578,9.901,3.267,11.24,1.917c1.338-1.35,3.63-5.364,3.63-5.364L222.13,228.033z"></path><path fill="#FC7F61" d="M198.782,177.863l6.906,4.192c0,0,9.321-7.375,16.719-13.413c7.398-6.038,9.794-8.749,11.368-11.59
			c1.574-2.84,3.933-5.059,4.837-6.92c0.904-1.861,1.324-3.429,1.324-3.429s2.377,0.381,2.17,2.554s-1.968,6.005-1.968,6.005
			s4.436-3.057,6.894-4.839c2.458-1.782,5.184-5.286,5.578-5.583c0.395-0.298,1.178,0.933,0.612,2.26
			c-0.566,1.326-4.059,5.069-4.059,5.069s6.64-2.776,7.34-3.073c0.699-0.297,1.415,0.876-0.628,2.613
			c-2.043,1.736-6.887,4.445-6.887,4.445s3.172-0.305,5.851-0.747c2.679-0.443,4.267-1.204,4.286-0.647
			c0.019,0.557-0.053,1.717-2.219,2.55c-2.166,0.833-9.13,3.052-9.13,3.052s3.658,0.532,6.667,0.253
			c3.009-0.279,3.703-0.486,3.906-0.008c0.203,0.478-0.263,1.632-2.59,2.186c-2.328,0.554-6.063,1.271-6.737,1.731
			c-0.674,0.46-6.58,3.533-10.166,5.316c-3.587,1.784-8.483,5.904-12.839,14.878c-4.356,8.974-7.758,15.47-9.655,18.452
			c-1.898,2.982-2.742,5.969-5.681,5.269c-2.939-0.7-19.438-5.565-27.526-10.905C183.155,197.531,189.28,187.198,198.782,177.863z"></path><path fill="#0A0909" d="M198.782,177.863c0,0,0.377,0.042,0.296,0.18c-3.726,6.326-10.029,15.905-12.93,21.252
			c0,0-0.606-0.31-1.557-0.871c-0.776-0.458-1.436-0.893-1.436-0.893S188.828,187.259,198.782,177.863z"></path><path fill="#0A0909" d="M183.155 197.531c-2.446 3.992-1.376 6.376.532 5.276 1.908-1.1 3.225-3.11 3.225-3.11L183.155 197.531zM198.782 177.863c.727-.743.876-.336.628.381L198.782 177.863z"></path><g><path fill="#0A0909" d="M182.176,203.071c-0.059,0-0.118-0.021-0.165-0.063c-6.309-5.62-14.736-14.533-17.51-18.166
				c-0.083-0.109-0.062-0.266,0.047-0.35c0.11-0.083,0.265-0.062,0.35,0.047c2.759,3.616,11.155,12.495,17.443,18.098
				c0.104,0.091,0.112,0.248,0.021,0.351C182.313,203.043,182.245,203.071,182.176,203.071z"></path></g><g><path fill="#0A0909" d="M166.641,189.856c-1.412,0-2.304-0.645-2.356-0.683c-0.109-0.082-0.133-0.237-0.052-0.348
				s0.236-0.134,0.348-0.053c0.066,0.048,1.621,1.153,3.88,0.198c0.126-0.051,0.273,0.007,0.326,0.133
				c0.053,0.127-0.006,0.272-0.133,0.326C167.908,189.744,167.23,189.856,166.641,189.856z"></path></g><g><path fill="#0A0909" d="M208.142,173.968c-0.052,0-0.104-0.017-0.148-0.05c-6.033-4.49-22.975-18.543-23.146-18.685
				c-0.105-0.088-0.12-0.244-0.032-0.351c0.087-0.104,0.244-0.122,0.351-0.032c0.17,0.142,17.102,14.186,23.124,18.669
				c0.11,0.082,0.133,0.237,0.051,0.348C208.293,173.932,208.218,173.968,208.142,173.968z"></path></g><path fill="#FFF" d="M173.734,148.298c0,0,1.106,0.557,1.882,0.951c0,0-3.088,0.753-7.391,0.235
			c-4.303-0.518-5.922-2.618-5.922-2.618s0.912-0.177,1.63-0.193c0,0,1.322,0.75,4.595,1.307
			C170.937,148.39,173.734,148.298,173.734,148.298z"></path><circle cx="170.739" cy="134.049" r=".43" fill="#0A0909" transform="rotate(-23.011 170.73 134.046)"></circle><circle cx="175.384" cy="134.4" r=".43" fill="#0A0909" transform="rotate(-23.001 175.417 134.403)"></circle><g><path fill="#0A0909" d="M172.511,138.972c-0.469,0-1.151-0.145-1.721-0.841c-0.087-0.106-0.071-0.263,0.035-0.35
				c0.105-0.087,0.264-0.072,0.35,0.035c0.742,0.905,1.731,0.609,1.742,0.608c0.132-0.038,0.271,0.032,0.312,0.163
				c0.041,0.131-0.032,0.271-0.163,0.312C173.045,138.907,172.826,138.972,172.511,138.972z"></path></g><polygon fill="#0A0909" points="213.213 165.212 209.585 175.273 208.476 174.094"></polygon><g><path fill="#FFF" d="M156.815,178.501c-0.122,0-0.192-0.003-0.199-0.004c-0.068-0.003-0.121-0.062-0.117-0.131
				c0.003-0.066,0.059-0.117,0.124-0.117c0.002,0,0.004,0,0.007,0c0.057,0.004,6.241,0.266,6.92-4.723
				c0.084-0.616,0.072-1.186-0.011-1.705c-1.489,0.589-3.119,0.617-4.166,0.014c-0.707-0.407-1.069-1.054-1.049-1.868
				c0.022-0.912,0.37-1.582,0.979-1.885c0.702-0.35,1.684-0.174,2.562,0.455c0.791,0.567,1.563,1.571,1.861,2.936
				c0.239-0.108,0.473-0.231,0.697-0.369c1.011-0.619,2.686-2.066,2.545-4.798c-0.033-0.631-0.112-1.217-0.229-1.755
				c-0.598,0.048-1.262-0.04-1.919-0.263c-1.349-0.46-2.271-1.383-2.408-2.409c-0.099-0.738,0.065-1.304,0.461-1.592
				c0.362-0.264,0.887-0.263,1.438-0.001c0.968,0.461,2.102,1.755,2.628,3.995c0.612-0.083,1.146-0.316,1.524-0.692
				c0.747-0.74,0.86-1.979,0.329-3.584c-2.004-6.047-11.963-7.264-12.063-7.274c-0.067-0.009-0.117-0.07-0.109-0.139
				c0.009-0.068,0.066-0.104,0.139-0.109c0.102,0.012,10.217,1.246,12.271,7.444c0.712,2.147,0.181,3.273-0.391,3.839
				c-0.412,0.409-0.988,0.665-1.646,0.758c0.112,0.538,0.189,1.127,0.223,1.769c0.148,2.86-1.604,4.375-2.663,5.023
				c-0.25,0.153-0.512,0.289-0.778,0.407c0.096,0.558,0.112,1.172,0.021,1.837C163.157,178.253,157.911,178.501,156.815,178.501z
				 M160.105,168.152c-0.252,0-0.486,0.051-0.692,0.152c-0.529,0.264-0.819,0.841-0.841,1.668c-0.018,0.718,0.302,1.287,0.925,1.646
				c0.996,0.574,2.563,0.536,3.996-0.047c-0.276-1.32-1.017-2.289-1.774-2.833C161.182,168.354,160.61,168.152,160.105,168.152z
				 M163.523,160.338c-0.193,0-0.366,0.05-0.504,0.15c-0.318,0.231-0.446,0.714-0.361,1.357c0.124,0.932,0.983,1.777,2.242,2.206
				c0.612,0.21,1.226,0.293,1.783,0.255c-0.491-2.026-1.511-3.334-2.479-3.796C163.963,160.395,163.731,160.338,163.523,160.338z"></path></g><g><path fill="#FFF" d="M176.628,185.898c-0.012,0-0.023-0.001-0.036-0.005c-0.065-0.02-0.103-0.089-0.083-0.155
				c0.688-2.29,2.401-3.345,3.845-3.83c-0.115-0.357-0.197-0.726-0.238-1.096c-0.206-1.845,0.585-3.423,2.229-4.443
				c5.291-3.286,13.932-2.386,14.021-2.377c0.068,0.008,0.117,0.069,0.11,0.138c-0.007,0.063-0.062,0.11-0.124,0.11
				c-0.004,0-0.009,0-0.014,0c-0.084-0.01-8.644-0.898-13.862,2.34c-1.558,0.968-2.309,2.461-2.113,4.205
				c0.04,0.354,0.117,0.706,0.228,1.048c0.742-0.224,1.389-0.3,1.753-0.325c1.94-0.142,3.662,0.444,4.094,1.383
				c0.173,0.375,0.224,0.98-0.516,1.731c-0.729,0.742-1.66,0.965-2.626,0.632c-1.229-0.425-2.322-1.658-2.86-3.11
				c-1.388,0.467-3.03,1.478-3.688,3.667C176.73,185.864,176.681,185.898,176.628,185.898z M180.671,182.068
				c0.512,1.38,1.546,2.55,2.705,2.95c0.615,0.214,1.524,0.285,2.367-0.57c0.507-0.516,0.668-1.018,0.468-1.454
				c-0.384-0.832-2.042-1.364-3.851-1.238C182.009,181.78,181.385,181.853,180.671,182.068z"></path></g><g><path fill="#FFF" d="M191.513,220.952c-0.036,0-0.073-0.016-0.098-0.047c-1.02-1.286-1.7-2.502-2.116-3.616
				c-3.182,0.254-7.72-1.052-11.348-4.108c-2.122-1.787-4.191-2.57-5.991-2.727c0.605,2.396,0.048,3.683-0.568,4.354
				c-0.904,0.985-2.297,1.079-3.297,0.845c-1.07-0.254-1.869-0.885-2.087-1.647c-0.262-0.922,0.35-2.023,1.56-2.806
				c1.009-0.652,2.408-1.084,4.062-1.016c-0.044-0.151-0.092-0.308-0.145-0.468c-2.355-7.146-10.614-6.867-10.703-6.872
				c-0.001,0-0.003,0-0.005,0c-0.066,0-0.121-0.052-0.124-0.119c-0.003-0.068,0.05-0.126,0.119-0.129
				c0.077-0.02,8.536-0.278,10.949,7.042c0.063,0.193,0.121,0.381,0.171,0.562c1.868,0.142,4.019,0.938,6.22,2.792
				c3.561,2.998,8,4.296,11.103,4.063c-0.734-2.127-0.501-3.864,0.155-4.982c0.521-0.888,1.308-1.37,2.093-1.239
				c0.854,0.139,1.504,0.979,1.784,2.307c0.318,1.509-0.162,2.694-1.389,3.429c-0.604,0.361-1.386,0.595-2.289,0.695
				c0.405,1.077,1.062,2.251,2.042,3.488c0.043,0.054,0.033,0.132-0.021,0.175C191.568,220.943,191.541,220.952,191.513,220.952z
				 M191.217,211.061c-0.602,0-1.212,0.419-1.633,1.136c-0.604,1.03-0.83,2.734-0.101,4.831c0.889-0.095,1.655-0.32,2.246-0.674
				c1.127-0.675,1.567-1.77,1.272-3.165c-0.257-1.221-0.834-1.99-1.58-2.112C191.354,211.066,191.286,211.061,191.217,211.061z
				 M171.274,210.425c-1.438,0-2.67,0.4-3.571,0.983c-1.115,0.722-1.687,1.714-1.454,2.528c0.192,0.676,0.922,1.241,1.904,1.474
				c0.931,0.22,2.226,0.134,3.056-0.771c0.581-0.633,1.102-1.865,0.49-4.203C171.555,210.429,171.414,210.425,171.274,210.425z"></path></g></g></g></svg>