<svg xmlns="http://www.w3.org/2000/svg" viewBox="0 0 732.14 770.4" id="student-giving-rating-to-course"><path fill="#ffe5ce" d="M372.6,103.44,381,170.36a10.88,10.88,0,0,0,18.56,6.28l47.25-48.13c7.86-8,21.23-.31,18.26,10.51l-17.87,65A10.88,10.88,0,0,0,461.93,217L524,190.58c10.33-4.39,19.74,7.84,12.85,16.7l-41.4,53.26a10.88,10.88,0,0,0,8.69,17.56l67.44-.61c11.22-.11,15.24,14.79,5.48,20.34l-58.63,33.36a10.88,10.88,0,0,0,1.31,19.55L582.28,376c10.41,4.2,8.41,19.5-2.72,20.89l-66.93,8.38a10.88,10.88,0,0,0-6.27,18.57l48.12,47.27c8,7.86.31,21.23-10.51,18.25l-65-17.87A10.89,10.89,0,0,0,466,486.23l26.37,62.09c4.39,10.33-7.83,19.74-16.69,12.85l-53.24-41.4a10.88,10.88,0,0,0-17.56,8.69l.61,67.45c.1,11.23-14.79,15.24-20.34,5.48l-33.34-58.62a10.88,10.88,0,0,0-19.55,1.31l-25.24,62.54c-4.2,10.41-19.5,8.42-20.89-2.72L277.79,537a10.88,10.88,0,0,0-18.56-6.28L212,578.83c-7.86,8-21.23.31-18.26-10.51l17.87-65a10.88,10.88,0,0,0-14.75-12.9l-62.06,26.38c-10.33,4.39-19.74-7.84-12.85-16.7l41.4-53.26a10.88,10.88,0,0,0-8.69-17.56l-67.44.61C76,430,72,415.06,81.71,409.51l58.63-33.36A10.88,10.88,0,0,0,139,356.6L76.49,331.35c-10.41-4.2-8.42-19.5,2.72-20.89l66.93-8.38a10.89,10.89,0,0,0,6.27-18.57l-48.13-47.27c-8-7.86-.31-21.23,10.52-18.25l65,17.87a10.89,10.89,0,0,0,12.9-14.75L166.35,159c-4.39-10.33,7.84-19.74,16.7-12.85l53.23,41.4a10.89,10.89,0,0,0,17.57-8.69l-.61-67.45c-.1-11.23,14.79-15.24,20.34-5.48l33.34,58.62a10.88,10.88,0,0,0,19.55-1.31l25.24-62.54C355.91,90.31,371.21,92.3,372.6,103.44Z"></path><path fill="#6557bb" d="M99.65,736.5c-1.48-1.29-3.52-1.67-5.28-2.54s-3.38-2.77-2.76-4.63c.78-2.34,4-2.35,6.26-3.42,2.48-1.19,3.81-3.94,4.58-6.58s1.23-5.45,2.75-7.75a3.58,3.58,0,0,1,2-1.62c1.41-.33,2.79.86,3.32,2.21a21,21,0,0,1,.73,4.28,11,11,0,0,0,6.49,8.13c1.64.68,3.44.95,5,1.72s3.08,2.26,3,4.05a1.48,1.48,0,0,1-.15.69,2.16,2.16,0,0,1-1.5.88c-3,.75-6.11,1.41-8.39,3.44S112.37,740.8,112,744c-.23,1.93-.42,4.16-2,5.25s-4.22.26-5.5-1.38-1.69-3.78-2.16-5.82S101.22,737.87,99.65,736.5Z"></path><path fill="#ffe5ce" d="M433.72,26.6c-1.48-1.29-3.52-1.67-5.28-2.54s-3.38-2.77-2.76-4.63c.78-2.34,4-2.35,6.26-3.42,2.49-1.19,3.81-3.94,4.58-6.58s1.23-5.46,2.75-7.75a3.54,3.54,0,0,1,2-1.62c1.41-.34,2.79.86,3.32,2.21a21.77,21.77,0,0,1,.74,4.28,10.93,10.93,0,0,0,6.48,8.12c1.64.69,3.45,1,5,1.73s3.08,2.26,3,4a1.67,1.67,0,0,1-.16.7,2.13,2.13,0,0,1-1.5.88c-3,.75-6.11,1.4-8.39,3.44s-3.37,5.44-3.75,8.62c-.23,1.93-.42,4.15-2,5.25s-4.22.26-5.5-1.38-1.69-3.79-2.16-5.82S435.29,28,433.72,26.6Z"></path><path fill="#ffd38b" d="M685.48,404.4c-2.64-2.3-6.28-3-9.42-4.54s-6-4.93-4.92-8.25c1.39-4.18,7.2-4.19,11.17-6.1,4.43-2.13,6.79-7,8.17-11.74s2.19-9.74,4.91-13.83a6.29,6.29,0,0,1,3.53-2.9c2.52-.59,5,1.54,5.92,3.95s.88,5.08,1.31,7.63a19.57,19.57,0,0,0,11.57,14.5c2.94,1.22,6.15,1.7,9,3.08s5.49,4,5.39,7.22a2.77,2.77,0,0,1-.27,1.24,3.87,3.87,0,0,1-2.68,1.58c-5.29,1.33-10.91,2.5-15,6.13-4.26,3.82-6,9.71-6.7,15.39-.4,3.43-.75,7.4-3.6,9.36-3.07,2.1-7.53.46-9.82-2.47s-3-6.75-3.85-10.37S688.29,406.84,685.48,404.4Z"></path><path fill="#ffba9f" d="M171.9,155.78c-.85-20.74-9-96.72-15.05-100.42-10.13-6.17-28.1-5.39-23.22,20.22s5.09,31.06,5.09,31.06L129,90.07l-.09-.19L91.35,23.77a13,13,0,0,0-17.74-4.9l-1.41.8a13.07,13.07,0,0,0-4.89,17.75L96.38,88.63A4.44,4.44,0,0,1,88.66,93L55.38,34.36a13.06,13.06,0,0,0-17.75-4.9l-1.4.8A13.06,13.06,0,0,0,31.33,48L33,51A13.08,13.08,0,0,0,18,49.36l-1.4.8a13.06,13.06,0,0,0-4.9,17.75L43.9,124.73l-.16.09L25.3,99.33A13.3,13.3,0,0,0,8.65,95,13,13,0,0,0,4,114.27L27.67,147,64.4,214.86S13,464.41,60,498.05s205.12,86.31,219.72,106,35.54-109.85,35.54-109.85l-1.18-.51,14.09-6.48-3.57-28.46c-4.88,6.68-57.43-4.66-74.61-8.85L137.46,418l17.22-218.72C158.87,190.23,172.67,174.57,171.9,155.78Z"></path><path fill="#333" d="M282.91,607.6c-1.61,0-3.09-.89-4.4-2.65-7-9.44-50.3-27.62-96.14-46.87-46.62-19.58-99.45-41.76-123.24-58.79-20-14.3-25.37-66.65-16.06-155.61C49.63,281.05,61.52,221.4,62.8,215.1L26.38,147.82,2.75,115.16A14.56,14.56,0,0,1,8,93.67a13.82,13.82,0,0,1,6.37-1.53,15.14,15.14,0,0,1,12.2,6.3L29.81,103,10.33,68.66A14.56,14.56,0,0,1,15.8,48.84l1.4-.8a14.76,14.76,0,0,1,12-1.06,14.56,14.56,0,0,1,6.33-18l1.4-.8A14.58,14.58,0,0,1,56.7,33.61L90,92.25a2.91,2.91,0,0,0,2.54,1.48,2.91,2.91,0,0,0,2.53-4.35L66,38.17a14.56,14.56,0,0,1,5.46-19.82l1.41-.8A14.58,14.58,0,0,1,92.68,23L130.2,89.13c0,.06.07.13.1.2l6,10.17c-.7-4.67-1.95-12.11-4.14-23.64-1.76-9.21-.81-16.1,2.82-20.48a13.62,13.62,0,0,1,10.92-4.74,23.38,23.38,0,0,1,11.76,3.42c1.28.78,4.68,2.85,10.21,44.92,3,22.51,5.15,46.52,5.57,56.74.6,14.51-7.16,27.11-12.83,36.31-1.82,2.95-3.39,5.51-4.42,7.67l-17.1,217.21,111.34,31.52c15.37,3.74,48.82,10.86,65,10.86,6.56,0,7.77-1.2,7.94-1.44a1.52,1.52,0,0,1,2.74.7L329.68,487a1.51,1.51,0,0,1-.87,1.57l-12,5.53a1.71,1.71,0,0,1,0,.32c0,.28-4.6,28.34-10.84,56C294.39,601.68,287.27,607.6,282.91,607.6ZM14.33,95.18a11,11,0,0,0-5,1.19,11.53,11.53,0,0,0-4.13,17L28.9,146.12a1,1,0,0,1,.1.17l36.73,67.85a1.53,1.53,0,0,1,.15,1c-.51,2.48-50.64,249-5,281.65,23.51,16.83,76.18,38.95,122.64,58.46C231.79,575.53,273.45,593,281,603.14c.48.65,1.22,1.42,2,1.42,1.81,0,8.6-3.95,20-54.76,5.5-24.41,9.69-49.1,10.62-54.69l-.09,0a1.52,1.52,0,0,1,0-2.78l13.08-6-3.13-25a23.63,23.63,0,0,1-8,1c-16.5,0-50.26-7.17-65.8-11L137.05,419.49a1.51,1.51,0,0,1-1.1-1.58l17.22-218.72a1.53,1.53,0,0,1,.13-.52,87.77,87.77,0,0,1,4.7-8.23c5.46-8.87,12.94-21,12.38-34.59-.41-10.07-2.58-33.81-5.5-56.12-5.15-39.36-8.47-42.82-8.83-43.08a20.17,20.17,0,0,0-10.17-3,10.83,10.83,0,0,0-8.58,3.63c-3,3.6-3.73,9.82-2.18,18,4.84,25.43,5.1,31.06,5.11,31.29a1.52,1.52,0,0,1-2.82.83l-9.75-16.57c0-.09-.07-.15-.1-.2L90,24.52a11.54,11.54,0,0,0-15.67-4.33L73,21a11.52,11.52,0,0,0-4.32,15.68L97.7,87.88a6,6,0,1,1-10.36,5.87L54.06,35.11A11.54,11.54,0,0,0,44,29.3a11.41,11.41,0,0,0-5.64,1.49L37,31.58a11.52,11.52,0,0,0-4.32,15.68l1.68,3A1.52,1.52,0,0,1,32,52.1a11.57,11.57,0,0,0-7.68-2.9,11.43,11.43,0,0,0-5.62,1.48l-1.4.8A11.51,11.51,0,0,0,13,67.16L45.22,124a1.51,1.51,0,0,1-.54,2l-.16.1a1.52,1.52,0,0,1-2-.42L24.07,100.22A12.09,12.09,0,0,0,14.33,95.18Z"></path><path fill="#333" d="M66 106.85a1.53 1.53 0 01-1.3-.73L31.71 51.75a1.52 1.52 0 112.6-1.57l33 54.36a1.52 1.52 0 01-1.3 2.31zM41.84 138a1.52 1.52 0 01-.85-2.79l52.06-34.77a1.52 1.52 0 111.69 2.52L42.68 137.71A1.54 1.54 0 0141.84 138zM109.79 192.08a1.52 1.52 0 01-1.36-.84c-9.08-18.14-4.62-33.13.73-42.5A55.32 55.32 0 01123 132.66a1.53 1.53 0 012.12.33 1.51 1.51 0 01-.33 2.12 53.69 53.69 0 00-13.06 15.22c-7.18 12.68-7.38 26-.59 39.55a1.52 1.52 0 01-.68 2A1.51 1.51 0 01109.79 192.08z"></path><path fill="#fff" d="M413.44,460.6s49.62-7.84,86.72,3.46,70.4,70.22,76,102.94-3.87,40.21-3.87,40.21l-72.08,3-10.14,157.7-252.82-3.42S218.12,611.43,217,603s-42.17-70.23-42.17-70.23l-.67-111.27,136.71,36.85Z"></path><path fill="#333" d="M490.05,769.43h0L237.21,766a1.53,1.53,0,0,1-1.49-1.34c-.19-1.53-19.12-153.11-20.24-161.46-.79-5.94-25.5-44.87-41.92-69.59a1.55,1.55,0,0,1-.25-.83l-.68-111.27a1.55,1.55,0,0,1,.59-1.21,1.5,1.5,0,0,1,1.32-.26l136.54,36.8,102.26,2.25a278.22,278.22,0,0,1,38.17-2.64c19.13,0,35.64,2.07,49.1,6.17,37.59,11.45,71.26,70.26,77,104.14,5.66,33.23-4,41.33-4.43,41.65a1.49,1.49,0,0,1-.88.33l-70.71,2.9L491.56,768A1.54,1.54,0,0,1,490.05,769.43ZM238.57,763l250.05,3.38,10.06-156.26a1.53,1.53,0,0,1,1.45-1.42l71.48-2.93c1.46-1.67,7.76-10.74,3-38.46-2.88-16.92-12.81-39.49-25.92-58.91-15.3-22.66-32.7-37.87-49-42.83-13.16-4-29.38-6-48.21-6a271.71,271.71,0,0,0-37.84,2.63.82.82,0,0,1-.27,0l-102.57-2.26a1.49,1.49,0,0,1-.36-.05L175.68,423.48l.66,108.82c5.25,7.91,41,62.09,42.15,70.49C219.56,610.73,236.7,748,238.57,763Z"></path><path fill="#ffba9f" d="M652.79,421.42l-.28,0c.76-12.4,4.06-71.51-1-87.88-3.83-12.26-45.15-12.71-72-11.67.57-16.39,1-35.7.5-48.73l-1-25.88a13,13,0,0,0-26,1l1,25.89c.53,14.2-.12,37.13-.79,54.38-2.49,4.15-6,10.4-9.42,17.46-7.22-13.14-14.51-24.89-19.74-29.72a13,13,0,0,0-17.62,19.11c4.55,4.19,16.27,25.47,27.57,48.25.74,20.46,11.55,36.48,19.3,45.43.53,9,4.58,136.91,2.43,176.5-29.53,3.49-55.53,4.59-55.53,4.59l.31,56.8c.39,1,.86,2.09,1.28,3.11,18.25,44.9,76.1,87.6,121.27,41,17.14-17.69,34.05-35.24,32.65-189.34C655.36,484.31,654,448.29,652.79,421.42Z"></path><path fill="#333" d="M579.41,732.43h0c-34.93,0-66.79-31.85-79-62-.15-.38-.31-.67-.47-1.05-.28-.67-.57-1.3-.82-2a1.21,1.21,0,0,1-.1-.5l-.3-56.79a1.5,1.5,0,0,1,1.45-1.52c.26,0,25.53-1.1,54.14-4.43,2-40.28-1.89-162.83-2.47-174.55-8.45-9.86-18.49-25.65-19.32-45.63-12.54-25.27-23.16-43.91-27.09-47.53a14.51,14.51,0,0,1,19.68-21.34c4.45,4.11,10.71,13.37,18.62,27.56,2.95-5.93,5.9-11.09,8-14.62.65-16.86,1.3-39.75.77-53.89l-1-25.88a14.52,14.52,0,0,1,3.89-10.48,14.36,14.36,0,0,1,10.08-4.57H566a14.48,14.48,0,0,1,14.5,14l1,25.89c.4,10.62.25,26.49-.45,47.21,5.68-.21,11.16-.31,16.32-.31,34.17,0,52.86,4.41,55.57,13.1,5.08,16.27,2,73.79,1.18,87.51a1.56,1.56,0,0,1,.22.73c1.13,24.33,2.55,61.48,2.9,100.35.65,70.26-2.34,116.72-9.4,146.19-6.3,26.3-15.14,35.24-23.67,44.05C610.86,725.65,595.81,732.43,579.41,732.43ZM502,666.66c.21.55.44,1.1.68,1.65.16.39.33.63.48,1,11.87,29.2,42.62,60.1,76.22,60.1h0c15.54,0,29.86-6.49,42.55-19.58,8.63-8.91,16.79-17.25,22.89-42.74,6.91-28.83,10-76.37,9.33-145.42-.35-38.36-1.74-75-2.86-99.33a1.5,1.5,0,0,1-.32-1c.72-11.75,4-71.18-1-87.33-1.28-4.1-9.82-11-52.68-11-5.61,0-11.61.12-17.83.36a1.56,1.56,0,0,1-1.13-.44,1.55,1.55,0,0,1-.45-1.13c.73-21.13.9-37.95.5-48.62l-1-25.89a11.47,11.47,0,1,0-22.93.86l1,25.89c.54,14.34-.13,37.56-.78,54.5a1.45,1.45,0,0,1-.22.73c-2.39,4-6,10.22-9.35,17.33a1.52,1.52,0,0,1-1.33.86,1.47,1.47,0,0,1-1.37-.79c-8.43-15.34-15-25.21-19.44-29.33a11.48,11.48,0,1,0-15.56,16.87c5.09,4.69,17.75,28.23,27.9,48.7a1.46,1.46,0,0,1,.16.62c.7,19.52,10.68,35,18.93,44.48a1.59,1.59,0,0,1,.36.91c.48,8.05,4.59,137,2.44,176.67a1.53,1.53,0,0,1-1.34,1.43c-25.3,3-48.27,4.24-54.18,4.53Z"></path><path fill="#333" d="M555.92 636.43a1.51 1.51 0 01-1.52-1.49l-.26-30a1.51 1.51 0 011.5-1.54h0a1.53 1.53 0 011.52 1.53l.27 29.95a1.52 1.52 0 01-1.51 1.52zM611.16 404.6a1.53 1.53 0 01-1.51-1.38c-1.76-19.45-10.09-33.33-24.74-41.23a52.44 52.44 0 00-21.77-6.13 1.73 1.73 0 010-3.43h0a56.42 56.42 0 0123.06 6.62c10.78 5.78 24.12 18.16 26.45 43.8a1.58 1.58 0 01-1.38 1.7S611.21 404.6 611.16 404.6z"></path><path fill="#ffba9f" d="M594.9,301.07A15.25,15.25,0,0,1,607.41,309a14.71,14.71,0,0,1,12.77-5.36,15.23,15.23,0,0,1,13,8.67,12.47,12.47,0,0,1,.65,2.1,13,13,0,0,1,11.88-5.45,13.66,13.66,0,0,1,11.65,7.78,10.31,10.31,0,0,1,.88,4.74l-1.76,35.88c-.32,6.4-6.44,11.16-13.67,10.64a13.7,13.7,0,0,1-11.3-7.16c-1.91,5.44-7.77,9.15-14.56,8.66a15.29,15.29,0,0,1-12.53-7.86,14.7,14.7,0,0,1-12.74,5.33,14.89,14.89,0,0,1-12.92-9.09c-1.82-17-.44-29.87,1-52.44C582.43,303.54,591.17,300.8,594.9,301.07Z"></path><path fill="#333" d="M618.13,371c-.43,0-.86,0-1.3,0a17.13,17.13,0,0,1-12.66-6.87,16.45,16.45,0,0,1-11.31,4.38c-.43,0-.86,0-1.3-.05a16.47,16.47,0,0,1-14.22-10,1.38,1.38,0,0,1-.1-.4c-1.57-14.74-.79-26.22.4-43.59.2-2.86.4-5.89.61-9.11a1.54,1.54,0,0,1,.65-1.15c2.91-2,12-4.9,16.11-4.6a17.06,17.06,0,0,1,12.63,6.9,16.52,16.52,0,0,1,12.65-4.36,16.84,16.84,0,0,1,14.12,9.23,14.82,14.82,0,0,1,11.4-3.91,15.2,15.2,0,0,1,12.94,8.68,12.14,12.14,0,0,1,1,5.43L658,357.39c-.36,7.16-7.19,12.65-15.3,12.09a15.6,15.6,0,0,1-11-5.6A15.81,15.81,0,0,1,618.13,371ZM604.4,360.08h.14a1.53,1.53,0,0,1,1.21.81,13.81,13.81,0,0,0,11.3,7.05c6,.43,11.29-2.76,13-7.65a1.51,1.51,0,0,1,1.33-1,1.5,1.5,0,0,1,1.45.82,12.17,12.17,0,0,0,10.06,6.34c6.38.47,11.77-3.75,12-9.21l1.77-35.87a9,9,0,0,0-.76-4.07,12.12,12.12,0,0,0-10.37-6.86,11.45,11.45,0,0,0-10.51,4.77,1.52,1.52,0,0,1-2.74-.5,10.73,10.73,0,0,0-.56-1.83c-1.88-4.34-6.48-7.39-11.71-7.76a13.19,13.19,0,0,0-11.45,4.77,1.52,1.52,0,0,1-2.55-.22,13.76,13.76,0,0,0-11.28-7.09c-3.18-.24-10.6,2-13.56,3.7-.19,2.93-.38,5.7-.56,8.34-1.17,17.13-1.95,28.47-.43,42.85a13.45,13.45,0,0,0,11.54,7.94,13.2,13.2,0,0,0,11.43-4.74A1.52,1.52,0,0,1,604.4,360.08Z"></path><path fill="#333" d="M604.41 363.43h0a1.65 1.65 0 01-1.5-1.69l.39-39.77a1.54 1.54 0 011.51-1.54h0a1.48 1.48 0 011.5 1.49l-.39 39.87A1.63 1.63 0 01604.41 363.43zM631.5 362.43h0a1.56 1.56 0 01-1.49-1.6l.74-35.82a1.6 1.6 0 011.51-1.58h0c.84 1 1.51.78 1.49 1.62l-.73 35.8A1.6 1.6 0 01631.5 362.43z"></path><path fill="#b4b2c2" d="M295.31,453.55l3.41,313.18H209.89s-8-182.21-12.52-192.46S57.29,517.33,42.49,496.83,27.68,372.7,48.18,238.32c0,0,75.16,21.63,112.74,4.55L147.26,411.42Z"></path><path fill="#333" d="M298.74,768.25H209.89a1.51,1.51,0,0,1-1.51-1.45c-2.22-50.6-8.76-183.72-12.4-191.91-1.73-3.9-31.86-16.69-58.44-28-41.08-17.45-87.65-37.22-96.28-49.18-7.61-10.53-11.4-41.6-10.68-87.46.75-47.89,6.47-109,16.1-172.17a1.51,1.51,0,0,1,1.92-1.23c.39.11,38.85,11.06,73.94,11.06,15.67,0,28.37-2.16,37.76-6.43a1.52,1.52,0,0,1,2.14,1.51L148.87,410.3l146.85,41.79a1.52,1.52,0,0,1,1.1,1.45l3.42,313a1.64,1.64,0,0,1,0,.23A1.52,1.52,0,0,1,298.74,768.25Zm-87.39-3h85.84l-3.39-310.5-147-41.83a1.52,1.52,0,0,1-1.09-1.58l13.46-166c-9.5,3.79-21.82,5.71-36.67,5.71-31.35,0-65.3-8.62-73.11-10.73C28,381.76,30.44,477.56,43.72,495.94c8.14,11.27,56.3,31.73,95,48.17,36.92,15.68,57.91,24.79,60,29.54C203.21,583.67,210.53,746.75,211.35,765.21Z"></path><path fill="#b4b2c2" d="M430.69,458.35l-7.59,307.5,79.72,3,2.28-80.48s33.41,58.46,91.11,47.07,56.94-54.67,61.5-116.93,3-170.07,3-170.07-82,15.19-116.93,3l-.76,34.92s-23.53-19.74-37.2-25.81S430.69,458.35,430.69,458.35Z"></path><path fill="#333" d="M502.82,770.4h-.06l-79.72-3a1.53,1.53,0,0,1-1.46-1.56l7.6-307.5a1.5,1.5,0,0,1,1.42-1.47c.19,0,19.25-1.18,38.29-1.18,19.6,0,32.24,1.21,37.59,3.58,11.26,5,28.73,18.83,35.13,24l.69-31.8a1.53,1.53,0,0,1,.66-1.21,1.5,1.5,0,0,1,1.36-.19c8.83,3.07,21.6,4.63,38,4.63,36.07,0,77.77-7.65,78.19-7.72a1.53,1.53,0,0,1,1.8,1.47c0,1.08,1.46,108.59-3,170.2q-.42,5.77-.79,11.33c-3.86,55.77-6.65,96.07-61.93,107a78.41,78.41,0,0,1-15.07,1.5c-25.59,0-45.35-13.42-57.42-24.68a123.48,123.48,0,0,1-17.53-20.4l-2.14,75.54a1.52,1.52,0,0,1-1.52,1.47Zm-78.16-6,76.69,2.92,2.23-78.95a1.52,1.52,0,0,1,2.84-.71c.27.48,27.89,47.78,75,47.78A74.85,74.85,0,0,0,595.92,734c53-10.46,55.57-47.75,59.48-104.21q.38-5.55.8-11.34c4.17-57.11,3.22-153.82,3-168.15-8.38,1.45-44.87,7.46-77,7.46-15.54,0-28-1.4-37-4.15l-.72,32.88a1.52,1.52,0,0,1-2.49,1.13c-.24-.2-23.53-19.68-36.85-25.59-3.4-1.52-12.48-3.32-36.35-3.32-16,0-32,.82-36.71,1.09Z"></path><path fill="#333" d="M541.54 622.35h0a1.52 1.52 0 01-1.5-1.54l1.51-134.38a1.52 1.52 0 113 0l-1.52 134.39A1.52 1.52 0 01541.54 622.35zM282.64 768.13a1.54 1.54 0 01-1.5-1.25L261.4 656.78a1.63 1.63 0 010-.62l18.89-78.59L244 440.52a1.52 1.52 0 112.93-.78l36.45 137.42a1.73 1.73 0 010 .75l-18.91 78.65 19.68 109.78a1.51 1.51 0 01-1.22 1.76zM436.77 768.13a1.33 1.33 0 01-.28 0 1.51 1.51 0 01-1.21-1.77l21.2-112.08L439.08 568a1.46 1.46 0 01.05-.8l38.72-110.85a1.52 1.52 0 012.87 1L442.13 567.79l17.39 86.15a1.62 1.62 0 010 .58L438.26 766.89A1.53 1.53 0 01436.77 768.13zM505.1 689.92a1.52 1.52 0 01-1.52-1.51V662.59a1.52 1.52 0 01.34-1c.17-.2 16.37-20.31 16.37-38.52 0-18.53-8.95-46.33-9-46.61a1.52 1.52 0 112.89-.93c.37 1.15 9.18 28.54 9.18 47.54 0 18-14.23 36.87-16.7 40v25.29A1.52 1.52 0 01505.1 689.92z"></path><circle cx="570.29" cy="198.37" r="71.94" fill="#6557bb"></circle><path fill="#333" d="M570.29,271.83a73.46,73.46,0,1,1,73.46-73.46A73.54,73.54,0,0,1,570.29,271.83Zm0-143.89a70.43,70.43,0,1,0,70.42,70.43A70.51,70.51,0,0,0,570.29,127.94Z"></path><path fill="#fff" d="M568.23,201.53a1.67,1.67,0,0,1-.49-.08L507.13,180.6a1.52,1.52,0,0,1,0-2.88l60.61-20.85a1.53,1.53,0,0,1,1,0l60.61,20.85a1.52,1.52,0,0,1,0,2.88l-60.61,20.85A1.69,1.69,0,0,1,568.23,201.53Zm-55.94-22.37,55.94,19.24,55.95-19.24-55.95-19.25Z"></path><path fill="#fff" d="M567.85 221.34a59 59 0 01-24.8-5.43l-4-1.85a1.52 1.52 0 01-.88-1.38V190.86a1.52 1.52 0 113 0v20.85l3.13 1.45A56.34 56.34 0 00594 211.89l.93-.49V190.68a1.52 1.52 0 013 0v21.63a1.51 1.51 0 01-.81 1.35l-1.74.91A59.06 59.06 0 01567.85 221.34zM615.51 225.29a1.52 1.52 0 01-1.52-1.52V184.49a1.52 1.52 0 013 0v39.28A1.52 1.52 0 01615.51 225.29z"></path><path fill="#fff" d="M615.6,233.93a5.8,5.8,0,1,1,5.8-5.8A5.8,5.8,0,0,1,615.6,233.93Zm0-8.55a2.76,2.76,0,1,0,2.76,2.75A2.75,2.75,0,0,0,615.6,225.38Z"></path><path fill="#fff" d="M615.62,244a8.41,8.41,0,0,1-5.54-2.13,1.51,1.51,0,0,1-.47-1.62l2.64-8.19a1.52,1.52,0,1,1,2.89.93l-2.3,7.15a5.51,5.51,0,0,0,5.84,0L616.09,233a1.52,1.52,0,1,1,2.85-1l3,8.18a1.51,1.51,0,0,1-.45,1.68A9.51,9.51,0,0,1,615.62,244Z"></path><path fill="#333" d="M438.63,427.75a1.58,1.58,0,0,1-.52-.09c-3.45-1.26-5-5.1-4.77-8.23.21-2.71,1.48-5.38,3.89-8.18l.77-.88c1.45-1.63,2.81-3.17,2.95-4.94s-1.22-3.71-2.38-4.93c-.5-.51-1-1-1.57-1.52a21.57,21.57,0,0,1-3.36-3.68,12,12,0,0,1,2-15.14,1.52,1.52,0,0,1,2,2.28,8.94,8.94,0,0,0-1.45,11.17,18.58,18.58,0,0,0,2.91,3.16c.55.52,1.13,1.06,1.68,1.63,2.31,2.41,3.4,4.86,3.21,7.26-.21,2.79-2.06,4.88-3.7,6.73l-.74.84c-2,2.29-3,4.4-3.16,6.43s.77,4.41,2.79,5.15a1.52,1.52,0,0,1-.53,2.94Z"></path><path fill="#363636" d="M189.22,345c1.63,3.27,4.71,5.56,7.88,7.37,13.85,7.93,30.54,8.71,46.49,8.73,7.14,0,14.35-.11,21.27-1.84,12.52-3.12,23.35-11.44,31.19-21.69,14.2-18.58,18.56-45.93,5.86-65.56-11.63-18-32.28-32.86-54.61-29.93-6.61.87-13.3,3.47-17.47,8.68s-5,13.37-.63,18.41c-12.55-4.13-27.57-5.42-39.72.69s-20.16,22.06-13.87,34.24c4.5,8.73,14.37,13,23.49,16.69-3.49,3.13-6.94,6.48-9.1,10.65S187.13,340.78,189.22,345Z"></path><path fill="#363636" d="M332.72,413.73c-39.55-5.25-77.78-20.09-72.19-89.63s52.69-95.42,89.89-95,133,17.12,101.92,114S332.72,413.73,332.72,413.73Z"></path><path fill="#ffba9f" d="M424,346.58s15.23-16.79,28.78-12.26c4.33,1.42,7.57,5.41,9.48,10.37,4,10.36,2.26,24.93-7.3,29-14.12,6-31.67-4.85-31.67-4.85Z"></path><path fill="#333" d="M445.51,377c-11.76,0-22.58-6.59-23-6.87a1.53,1.53,0,0,1-.72-1.34l.71-22.25a1.55,1.55,0,0,1,.39-1c.5-.55,12.43-13.53,25-13.53a17.09,17.09,0,0,1,5.36.85c4.47,1.47,8.18,5.47,10.42,11.26,4.42,11.4,2.2,26.55-8.13,30.93A25.51,25.51,0,0,1,445.51,377Zm-20.69-9c2.59,1.44,11.49,6,20.69,6a22.73,22.73,0,0,0,8.85-1.68c8.58-3.64,10.3-17.18,6.48-27-1.91-4.92-4.94-8.28-8.55-9.46a13.7,13.7,0,0,0-4.4-.7c-10.1,0-20.34,10-22.4,12.14Z"></path><path fill="#ffba9f" d="M382.92,490.91c-31.49,5.27-72-8-84.68-35,.59,0,30.43-5,30.43-5,1.64-4.2,1.8-22.36-1-46.92a98.72,98.72,0,0,0-7.27-26.88c-.44-1.07-.87-2.16-1.29-3.26a59.72,59.72,0,0,1-15.83,5.33,35.34,35.34,0,0,1-13.52,0,25.23,25.23,0,0,1-5.58-1.86c-15.76-7.48-12.19-40.14,3.17-44.59,5.25-1.58,10.45-.22,15.29,2.17,6.72,10.86,13.78,13.48,13.78,13.48,3.22-13.72,19.76-62.62,65.43-77.49,0,0,58.72,5.16,62.87,57,.05,1,.11,2.06.15,3.12s.08,1.89.11,2.83c.31,7.38.59,14.51.63,21.34a174.24,174.24,0,0,1-.88,20.34c-2.54,22.58-11.38,39.78-37.37,47.78l-1.09.23-8.69,1.84a103.9,103.9,0,0,0-.87,17c.06,1.06.4,11,.83,11.84l25.11,4.32C422.13,471.6,397.35,488.2,382.92,490.91Z"></path><path fill="#333" d="M368.74,493.57c-26.29,0-60-11.59-71.87-37a1.52,1.52,0,0,1,.09-1.46,1.5,1.5,0,0,1,1.2-.7c1.13-.12,17.78-2.87,29.33-4.79,1.16-4.75,1.46-20.88-1.35-45.4A97.27,97.27,0,0,0,319,377.71c-.24-.58-.48-1.16-.71-1.75a60.68,60.68,0,0,1-14.75,4.74,36.88,36.88,0,0,1-14.11,0,27,27,0,0,1-5.89-2c-7.59-3.61-11.9-13.3-11-24.7.77-9.46,5.5-20.16,14.37-22.72a17.59,17.59,0,0,1,5.08-.75,25.61,25.61,0,0,1,11.31,3,1.59,1.59,0,0,1,.62.56c4.48,7.25,9.13,10.68,11.48,12.07a133.59,133.59,0,0,1,16.52-36.93c12.93-19.93,29.56-33.32,49.44-39.79a1.36,1.36,0,0,1,.6-.07,91.2,91.2,0,0,1,30.44,9.21c14.21,7.26,31.61,21.68,33.81,49.14l0,.52c0,.87.09,1.77.12,2.67l.06,1.47.06,1.35c.33,8.05.59,14.74.63,21.39a172.8,172.8,0,0,1-.89,20.52c-3,26.67-14.85,41.8-38.43,49.07l-.14,0-1.09.23-7.61,1.6a97.91,97.91,0,0,0-.74,15.66c0,.17,0,.58.05,1.16.23,5.62.41,8.26.55,9.45L422.89,457a1.51,1.51,0,0,1,1.26,1.55c-.54,14-25.91,31-40.95,33.86A87.29,87.29,0,0,1,368.74,493.57Zm-68.21-36.48c12.06,23,43.5,33.44,68.21,33.44a84,84,0,0,0,13.93-1.12c13.27-2.49,36.26-17.72,38.31-29.67l-23.72-4.08a1.5,1.5,0,0,1-1.09-.8c-.3-.58-.55-1.73-.94-11.34,0-.55,0-.95-.05-1.12a104.92,104.92,0,0,1,.87-17.24,1.52,1.52,0,0,1,1.19-1.32l9.73-2c22.52-7,33.36-20.87,36.23-46.48a171,171,0,0,0,.87-20.16c0-6.61-.29-13.27-.62-21.29l-.06-1.33-.06-1.5c0-.89-.08-1.77-.12-2.61l0-.49c-1.67-20.88-12.5-36.59-32.16-46.63a90.5,90.5,0,0,0-29-8.87c-19.07,6.29-35.06,19.23-47.53,38.46a128.2,128.2,0,0,0-16.59,37.84,1.47,1.47,0,0,1-.76,1,1.52,1.52,0,0,1-1.25.09c-.3-.12-7.46-2.88-14.3-13.73-5.27-2.52-9.71-3.13-13.8-1.89-7.49,2.17-11.52,11.63-12.2,20.05-.62,7.7,1.42,18,9.25,21.71a24.35,24.35,0,0,0,5.23,1.75,34.09,34.09,0,0,0,12.95,0,58.32,58.32,0,0,0,15.4-5.19,1.52,1.52,0,0,1,2.1.8c.42,1.09.85,2.17,1.28,3.23a100.5,100.5,0,0,1,7.38,27.29c2.91,25.38,2.67,43.18.92,47.64a1.52,1.52,0,0,1-1.16.95C314.12,454.89,304.62,456.45,300.53,457.09Z"></path><path fill="#333" d="M308.16,366.45a1.51,1.51,0,0,1-1.44-1c-2.48-7.28-6.1-12-10.76-14a14.56,14.56,0,0,0-10.92.06,1.52,1.52,0,0,1-1.3-2.75,17.45,17.45,0,0,1,13.36-.12c5.51,2.32,9.71,7.64,12.49,15.79a1.52,1.52,0,0,1-.94,1.93A1.73,1.73,0,0,1,308.16,366.45Z"></path><path fill="#333" d="M293 362.61a1.45 1.45 0 01-.9-.3 1.53 1.53 0 01-.32-2.12L297.8 352a1.52 1.52 0 012.44 1.8L294.18 362A1.5 1.5 0 01293 362.61zM370.07 300.29a1.51 1.51 0 01-.49-3c5-1.73 9.7-6.58 11.9-12.34 1.76-4.62 1.64-9.11-.34-12.64a1.52 1.52 0 012.65-1.49c2.43 4.34 2.61 9.74.52 15.22-2.5 6.56-7.9 12.11-13.74 14.12A1.49 1.49 0 01370.07 300.29z"></path><path fill="#333" d="M392.72,291.07l-.28,0a1.51,1.51,0,0,1-1.21-1.77,19.9,19.9,0,0,0-2.44-13.6c-.53-.91-1.62-2.42-2.86-2.42h-.06a1.52,1.52,0,0,1,0-3h.09c2.06,0,3.95,1.35,5.47,3.91a22.94,22.94,0,0,1,2.81,15.71A1.51,1.51,0,0,1,392.72,291.07Z"></path><path fill="#e76a4a" d="M363 368.3c1.12-3.56-3.9-8.31-11.21-10.61s-14.15-1.28-15.27 2.27 3.9 8.31 11.22 10.61S361.9 371.85 363 368.3zM412 366.73c-1-3.58 4.09-8.21 11.45-10.35s14.17-1 15.21 2.62-4.09 8.21-11.45 10.34S413 370.31 412 366.73z"></path><path fill="#363636" d="M418.47 318.54c-.06-2.54-3.51-4.51-7.7-4.42s-7.54 2.23-7.48 4.77 3.51 4.51 7.7 4.41S418.53 321.07 418.47 318.54zM369 319.68c-.06-2.53-3.5-4.51-7.69-4.41s-7.54 2.23-7.48 4.77 3.5 4.51 7.69 4.41S369.06 322.22 369 319.68z"></path><path fill="#fff" d="M343.71,349.27a70.89,70.89,0,0,0,14.55,3.24c3.89.44,10.25,1.75,13.2-1.68,5.1-5.92-3.83-11.59-8.48-13.14-6.36-2.11-16.25-4.37-22.7-1.59-2.59,1.11-4.75,3.73-4.44,6.53.39,3.49,3.94,5.26,6.88,6.3Z"></path><path fill="#333" d="M364.85,354.64h0a42.38,42.38,0,0,1-5.38-.45c-.49-.07-1-.13-1.38-.17a72.31,72.31,0,0,1-14.87-3.31l-1-.35c-1.81-.64-7.32-2.6-7.88-7.56-.42-3.8,2.48-6.86,5.35-8.1a20.06,20.06,0,0,1,7.92-1.41,53.08,53.08,0,0,1,15.86,3c3.66,1.22,9.56,4.68,10.81,9.18a6.72,6.72,0,0,1-1.66,6.39C371,353.72,368.44,354.64,364.85,354.64ZM347.6,336.32a17.18,17.18,0,0,0-6.72,1.17c-1.89.81-3.77,2.83-3.53,5s2.11,3.7,5.88,5l1,.33A69.11,69.11,0,0,0,358.43,351l1.43.18a39.77,39.77,0,0,0,5,.43c2.65,0,4.44-.58,5.46-1.77a3.76,3.76,0,0,0,1-3.6c-.86-3.13-5.78-6.09-8.84-7.11S353.23,336.32,347.6,336.32Z"></path><path fill="#363636" d="M354.88,342.93a6,6,0,1,1,6.12,5.85A6,6,0,0,1,354.88,342.93Z"></path><path fill="#fff" d="M430.62,347.25a70.27,70.27,0,0,1-14.39,3.91c-3.86.63-10.15,2.23-13.27-1.06-5.36-5.67,3.3-11.75,7.87-13.52,6.25-2.41,16-5.12,22.6-2.65,2.64,1,4.92,3.51,4.74,6.33-.23,3.5-3.7,5.43-6.58,6.61Z"></path><path fill="#333" d="M408.84,353.62c-3.12,0-5.4-.81-7-2.48a6.71,6.71,0,0,1-1.95-6.3c1-4.56,6.77-8.28,10.37-9.67s10.63-3.73,17-3.73a19.08,19.08,0,0,1,6.67,1.07c2.92,1.1,6,4,5.71,7.85-.32,5-5.74,7.19-7.52,7.91l-1,.4a72,72,0,0,1-14.69,4l-1.37.24A37.24,37.24,0,0,1,408.84,353.62Zm18.46-19.15c-5.9,0-12.51,2.21-15.93,3.53-3,1.16-7.78,4.35-8.49,7.51a3.75,3.75,0,0,0,1.19,3.54c1,1,2.53,1.54,4.77,1.54a33.85,33.85,0,0,0,5.74-.68l1.41-.25a68.75,68.75,0,0,0,14.08-3.82l.94-.38c3.71-1.51,5.5-3.2,5.64-5.3s-1.78-4.06-3.75-4.8A15.89,15.89,0,0,0,427.3,334.47Z"></path><path fill="#363636" d="M429.05,339.4a6,6,0,1,0-5.85,6.12A6,6,0,0,0,429.05,339.4Z"></path><path fill="#333" d="M392.35 368.51a1.52 1.52 0 01-1.14-2.52c4-4.58.31-9.61.15-9.82a1.52 1.52 0 012.43-1.83c1.86 2.46 4.19 8.48-.29 13.64A1.51 1.51 0 01392.35 368.51zM334.29 360.54a1.45 1.45 0 01-.9-.3 1.51 1.51 0 01-.32-2.12l4.47-6a1.52 1.52 0 012.44 1.81l-4.47 6A1.51 1.51 0 01334.29 360.54zM343.82 362.77a1.44 1.44 0 01-.57-.11 1.51 1.51 0 01-.83-2l2.34-5.74a1.52 1.52 0 012.81 1.15l-2.34 5.74A1.52 1.52 0 01343.82 362.77zM439 358.85a1.51 1.51 0 01-1.34-.81l-3.56-6.71a1.52 1.52 0 112.68-1.43l3.56 6.72a1.52 1.52 0 01-1.34 2.23zM428.92 362.07a1.5 1.5 0 01-1.41-1L425 354.54a1.52 1.52 0 112.84-1.08l2.5 6.55a1.51 1.51 0 01-1.42 2.06z"></path><path fill="#313131" d="M390,387.27c-6.78,0-14.78-1.58-20.56-7.62a1.52,1.52,0,0,1,2.2-2.1c10.53,11,30.52,5,30.73,4.95a1.52,1.52,0,0,1,.89,2.91A49.25,49.25,0,0,1,390,387.27Z"></path><path fill="#313131" d="M366.4,384.07a1.51,1.51,0,0,1-1.2-2.44l7.15-9.38a1.52,1.52,0,1,1,2.41,1.84l-7.15,9.38A1.52,1.52,0,0,1,366.4,384.07Z"></path><path fill="#fff" d="M304,271.74c4.15,1.78,8.87,1.41,13.35.86s9.1-1.23,13.44,0,8.3,5.07,8.1,9.58c-.16,3.4-2.52,6.21-4.45,9-2.59,3.77-4.91,8.26-9.21,9.82-5.75,2.09-11.78-2.15-16-6.56a4.4,4.4,0,0,0-1.22-1c-1.2-.6-2.62-.05-3.88.43a30.87,30.87,0,0,1-16.29,1.5,5.56,5.56,0,0,1-2.6-1,5.65,5.65,0,0,1-1.6-2.67c-1.85-5.29-2.26-11.37.3-16.37s8.64-8.36,14-6.64C300.06,269.43,301.91,270.84,304,271.74Z"></path><path fill="#333" d="M397.56,425.33s-28.33,2.57-46.61-10.6c0,0,13.38,24.49,45.61,31.23l0-18.43Z"></path><path fill="#363636" d="M396.56,447.48a1.55,1.55,0,0,1-.31,0c-32.55-6.8-46.07-31-46.63-32a1.51,1.51,0,0,1,2.22-1.95c12.69,9.15,30.42,10.51,39.85,10.51,3.5,0,5.71-.19,5.73-.2a1.56,1.56,0,0,1,1.38.64,1.51,1.51,0,0,1,.13,1.51l-.87,1.9,0,18.1a1.53,1.53,0,0,1-1.52,1.52Zm-40.25-27.75A70.41,70.41,0,0,0,395,444.07l0-16.54a1.4,1.4,0,0,1,.1-.54c-.93,0-2.08.06-3.43.06C383.34,427.05,368.73,426,356.31,419.73Z"></path><rect width="141.32" height="89.05" x="401.53" y="60.62" fill="#fff"></rect><path fill="#333" d="M542.86,151.19H401.53a1.52,1.52,0,0,1-1.52-1.52v-89a1.52,1.52,0,0,1,1.52-1.52H542.86a1.52,1.52,0,0,1,1.52,1.52v89A1.52,1.52,0,0,1,542.86,151.19Zm-139.81-3H541.34v-86H403.05Z"></path><path fill="#333" d="M470.17 126.16H456.23l-4-10.2H432.1l-3.81 10.2H414.65l21.78-51.93h12.18zm-21.42-20.25L442.3 88.09l-6.6 17.82zM524.84 81.43H472.45a1.5 1.5 0 110-3h52.39a1.5 1.5 0 110 3zM498.27 94.43H472.45a1.5 1.5 0 110-3h25.82a1.5 1.5 0 110 3zM520.29 94.43h-9.87a1.5 1.5 0 110-3h9.87a1.5 1.5 0 110 3zM524.08 108.43H472.45a1.5 1.5 0 110-3h51.63a1.5 1.5 0 110 3zM524.08 120.43H499a1.5 1.5 0 110-3h25.05a1.5 1.5 0 110 3z"></path><rect width="119.32" height="119.32" x="593.37" y="478.36" fill="#e76a4a"></rect><path fill="#333" d="M712.7,599.2H593.37a1.52,1.52,0,0,1-1.51-1.52V478.36a1.52,1.52,0,0,1,1.51-1.52H712.7a1.52,1.52,0,0,1,1.52,1.52V597.68A1.52,1.52,0,0,1,712.7,599.2Zm-117.81-3H711.18V479.88H594.89Z"></path><path fill="#fff" d="M705.38,580.8H602.94a3.38,3.38,0,0,1,0-6.76H705.38a3.38,3.38,0,0,1,0,6.76Z"></path><path fill="#fff" d="M704 580.8a3.38 3.38 0 01-3.13-2.1l-28-68.32-21.65 39.39a3.41 3.41 0 01-2.18 1.67 3.49 3.49 0 01-2.68-.5l-12.21-8.29-26.78 36.76a3.38 3.38 0 11-5.46-4L630.61 536a3.37 3.37 0 014.62-.8l11.84 8 23.27-42.33a3.37 3.37 0 016.08.34l30.68 74.86a3.37 3.37 0 01-1.85 4.4A3.17 3.17 0 01704 580.8zM631.23 526.48A14.78 14.78 0 11646 511.7 14.8 14.8 0 01631.23 526.48zm0-22.8a8 8 0 108 8A8 8 0 00631.23 503.68z"></path><path fill="#ffd38b" d="M352.42,23.43H224.76c-13,0-23.64,9.75-23.64,21.34V158.38c0,11.59,10.62,20.05,23.64,20.05h28.07L289.54,221l36.55-42.53h26.33c13,0,22.7-8.46,22.7-20.05V44.77C375.12,33.18,365.44,23.43,352.42,23.43Z"></path><path fill="#333" d="M289.54,222.77l-37.41-43.34H224.76c-14.18,0-24.64-8.89-24.64-21.05V44.77c0-12.68,10.92-23.34,24.64-23.34H352.42c13.44,0,24.7,10.66,24.7,23.34V158.38c0,12.36-10.58,21.05-24.7,21.05H326.79ZM224.76,24.43c-12,0-21.64,9.34-21.64,20.34V158.38c0,10.43,9.19,18.05,21.64,18.05h28.77l36,41.72,35.86-41.72h27c12.36,0,21.7-7.45,21.7-18.05V44.77c0-11-9.94-20.34-21.7-20.34Z"></path><path fill="#333" d="M353.52,57.42H295.64l-6.46,8.74s-5.12-5-9-8.74H222.89a1.7,1.7,0,0,0-1.69,1.7V140a1.7,1.7,0,0,0,1.69,1.7H353.52a1.7,1.7,0,0,0,1.7-1.7V59.12A1.7,1.7,0,0,0,353.52,57.42Z"></path><path fill="#fff" d="M299.08,55.18c-9.32,0-11,8-11,8v79s.12-4.73.16-4.72c.37-1.41,2.55-3.25,10.8-3.25h54v-79Z"></path><path fill="#333" d="M288.12,142.87a.76.76,0,0,1-.76-.76v-79a.92.92,0,0,1,0-.16c0-.08,1.88-8.57,11.72-8.57h54a.77.77,0,0,1,.77.76v79a.77.77,0,0,1-.77.77h-54c-8.55,0-9.86,2-10.06,2.64,0,.35-.08,2.13-.14,4.53v0h0A.8.8,0,0,1,288.12,142.87Zm.77-79.64v72.1c1.78-1.3,5.19-2,10.2-2h53.23V56H299.09C290.88,56,289.08,62.43,288.89,63.23Z"></path><path fill="#fff" d="M277.52,55.18c9.33,0,10.6,8,10.6,8v79s.07-.2,0-.19c-.37-1.41-2.36-7.78-10.62-7.78H224.16v-79Z"></path><path fill="#333" d="M288.12,142.87l-.2,0a.77.77,0,0,1-.56-.74V142c-.62-2.19-2.78-7-9.84-7H224.16a.76.76,0,0,1-.77-.77v-79a.76.76,0,0,1,.77-.76h53.36c9.87,0,11.35,8.52,11.36,8.61v78.68a1.09,1.09,0,0,1-.1.78A.78.78,0,0,1,288.12,142.87Zm-63.2-9.49h52.6c5.38,0,8.29,2.56,9.84,4.92V63.15c0-.18-1.3-7.2-9.84-7.2h-52.6Z"></path><path fill="#e76a4a" d="M288.41,62.94l0,86.16-3.44-3-3.35,3.22L282.09,56S286.8,56.89,288.41,62.94Z"></path><path fill="#333" d="M281.6,150.86a1.61,1.61,0,0,1-.6-.12,1.52,1.52,0,0,1-.92-1.4L280.57,56a1.53,1.53,0,0,1,1.81-1.49c.23.05,5.66,1.19,7.5,8.08a1.74,1.74,0,0,1,.05.39l0,86.16a1.53,1.53,0,0,1-2.52,1.15L285,148.17l-2.34,2.27A1.51,1.51,0,0,1,281.6,150.86ZM285,144.6a1.49,1.49,0,0,1,1,.37l.93.8,0-82.62a8.33,8.33,0,0,0-3.29-4.85l-.46,87.45.75-.73A1.55,1.55,0,0,1,285,144.6Z"></path><path fill="#333" d="M281.6 150.11a.8.8 0 01-.3-.06.78.78 0 01-.47-.71L281.32 56a.79.79 0 01.28-.59.75.75 0 01.64-.16c.21 0 5.2 1.09 6.91 7.53a.69.69 0 010 .2l0 86.16a.77.77 0 01-1.27.58l-2.9-2.53-2.85 2.75A.74.74 0 01281.6 150.11zM282.85 57l-.47 90.5 2-2a.77.77 0 011 0l2.17 1.88 0-84.38A8.78 8.78 0 00282.85 57zM268.41 66.57H230.58a.77.77 0 010-1.53h37.83a.77.77 0 110 1.53zM268.41 82.93H230.58a.77.77 0 010-1.53h37.83a.77.77 0 110 1.53zM240.81 74.63H230.33a.77.77 0 010-1.54h10.48a.77.77 0 010 1.54zM240.81 90.47H230.33a.77.77 0 110-1.53h10.48a.77.77 0 010 1.53zM269.94 74.63H250.26a.77.77 0 010-1.54h19.68a.77.77 0 010 1.54zM268.41 98.52H230.58a.77.77 0 010-1.53h37.83a.77.77 0 110 1.53zM268.41 115.39H230.58a.77.77 0 010-1.53h37.83a.77.77 0 110 1.53zM240.81 106.58H230.33a.77.77 0 010-1.54h10.48a.77.77 0 010 1.54zM269.94 106.58H250.26a.77.77 0 010-1.54h19.68a.77.77 0 010 1.54zM339.47 66.57H301.64a.77.77 0 110-1.53h37.83a.77.77 0 110 1.53zM339.47 82.93H301.64a.77.77 0 110-1.53h37.83a.77.77 0 110 1.53zM311.86 74.63H301.38a.77.77 0 010-1.54h10.48a.77.77 0 010 1.54zM311.86 90.47H301.38a.77.77 0 010-1.53h10.48a.77.77 0 110 1.53zM341 74.63H321.32a.77.77 0 110-1.54H341a.77.77 0 010 1.54zM339.47 98.52H301.64a.77.77 0 110-1.53h37.83a.77.77 0 110 1.53zM339.47 115.39H301.64a.77.77 0 110-1.53h37.83a.77.77 0 110 1.53zM311.86 106.58H301.38a.77.77 0 010-1.54h10.48a.77.77 0 010 1.54zM341 106.58H321.32a.77.77 0 110-1.54H341a.77.77 0 010 1.54z"></path><path fill="#fff" d="M303.9,598.05h-249A21.26,21.26,0,0,0,33.6,619.31v48.6a21.25,21.25,0,0,0,21.26,21.25h69.46l28.49,41,25.17-41H303.9a21.25,21.25,0,0,0,21.26-21.25v-48.6A21.26,21.26,0,0,0,303.9,598.05Z"></path><path fill="#333" d="M152.81,731.68a1.51,1.51,0,0,1-1.25-.65l-28-40.35H54.86a22.79,22.79,0,0,1-22.77-22.77v-48.6a22.79,22.79,0,0,1,22.77-22.77h249a22.8,22.8,0,0,1,22.78,22.77v48.6a22.8,22.8,0,0,1-22.78,22.77H178.83L154.1,731a1.5,1.5,0,0,1-1.25.72ZM54.86,599.57a19.77,19.77,0,0,0-19.74,19.74v48.6a19.77,19.77,0,0,0,19.74,19.74h69.46a1.5,1.5,0,0,1,1.24.65l27.17,39.09,24-39a1.5,1.5,0,0,1,1.29-.72H303.9a19.77,19.77,0,0,0,19.74-19.74v-48.6a19.77,19.77,0,0,0-19.74-19.74Z"></path><path fill="#ffd38b" d="M75,618.1l6.53,13.23a2.8,2.8,0,0,0,2.12,1.54L98.24,635a2.81,2.81,0,0,1,1.56,4.8l-10.56,10.3a2.83,2.83,0,0,0-.81,2.49l2.5,14.53a2.82,2.82,0,0,1-4.09,3l-13-6.86a2.82,2.82,0,0,0-2.62,0l-13.06,6.86a2.81,2.81,0,0,1-4.08-3l2.49-14.53a2.77,2.77,0,0,0-.81-2.49l-10.56-10.3a2.81,2.81,0,0,1,1.56-4.8l14.6-2.12a2.82,2.82,0,0,0,2.12-1.54L70,618.1A2.82,2.82,0,0,1,75,618.1Z"></path><path fill="#333" d="M88.15,671.93a4.27,4.27,0,0,1-2-.51l-13-6.86a1.36,1.36,0,0,0-1.21,0l-13.05,6.86a4.38,4.38,0,0,1-5.34-1,4.32,4.32,0,0,1-.95-3.51L55,652.32a1.3,1.3,0,0,0-.38-1.15L44.09,640.88a4.33,4.33,0,0,1,2.4-7.39l14.6-2.12a1.3,1.3,0,0,0,1-.71l6.53-13.23a4.34,4.34,0,0,1,7.77,0l6.53,13.23a1.32,1.32,0,0,0,1,.71l14.59,2.12a4.33,4.33,0,0,1,2.4,7.39L90.3,651.17a1.32,1.32,0,0,0-.37,1.15l2.49,14.54a4.28,4.28,0,0,1-1,3.51A4.33,4.33,0,0,1,88.15,671.93ZM72.48,661.38a4.39,4.39,0,0,1,2,.49l13.06,6.87a1.29,1.29,0,0,0,1.6-.33,1.22,1.22,0,0,0,.28-1l-2.49-14.54A4.3,4.3,0,0,1,88.18,649l10.56-10.3a1.29,1.29,0,0,0-.72-2.21l-14.59-2.12A4.31,4.31,0,0,1,80.17,632l-6.53-13.23a1.3,1.3,0,0,0-2.33,0L64.79,632a4.31,4.31,0,0,1-3.26,2.37l-14.6,2.12a1.29,1.29,0,0,0-.72,2.21L56.77,649A4.33,4.33,0,0,1,58,652.83l-2.49,14.54a1.26,1.26,0,0,0,.27,1,1.31,1.31,0,0,0,1.61.32l13-6.87A4.43,4.43,0,0,1,72.48,661.38Z"></path><path fill="#ffd38b" d="M140.3,618.1l6.52,13.23a2.82,2.82,0,0,0,2.12,1.54l14.6,2.12a2.81,2.81,0,0,1,1.56,4.8l-10.56,10.3a2.77,2.77,0,0,0-.81,2.49l2.49,14.53a2.81,2.81,0,0,1-4.08,3l-13.06-6.86a2.82,2.82,0,0,0-2.62,0l-13.05,6.86a2.82,2.82,0,0,1-4.09-3l2.5-14.53a2.83,2.83,0,0,0-.81-2.49l-10.56-10.3A2.81,2.81,0,0,1,112,635l14.59-2.12a2.8,2.8,0,0,0,2.12-1.54l6.53-13.23A2.82,2.82,0,0,1,140.3,618.1Z"></path><path fill="#333" d="M153.45,671.93a4.27,4.27,0,0,1-2-.51l-13.05-6.86a1.36,1.36,0,0,0-1.21,0l-13.06,6.86a4.38,4.38,0,0,1-5.34-1,4.31,4.31,0,0,1-.94-3.51l2.49-14.54a1.32,1.32,0,0,0-.37-1.15l-10.56-10.29a4.33,4.33,0,0,1,2.4-7.39l14.59-2.12a1.32,1.32,0,0,0,1-.71l6.53-13.23a4.34,4.34,0,0,1,7.77,0l6.53,13.23a1.3,1.3,0,0,0,1,.71l14.6,2.12a4.33,4.33,0,0,1,2.4,7.39L155.6,651.17a1.3,1.3,0,0,0-.38,1.15l2.5,14.54a4.35,4.35,0,0,1-4.27,5.07Zm-15.68-10.55a4.43,4.43,0,0,1,2,.49l13.05,6.87a1.3,1.3,0,0,0,1.61-.33,1.22,1.22,0,0,0,.27-1l-2.49-14.54a4.33,4.33,0,0,1,1.25-3.83L164,638.7a1.29,1.29,0,0,0-.72-2.21l-14.6-2.12a4.31,4.31,0,0,1-3.26-2.37l-6.53-13.23a1.29,1.29,0,0,0-2.32,0L130.08,632a4.31,4.31,0,0,1-3.26,2.37l-14.6,2.12a1.29,1.29,0,0,0-.71,2.21L122.07,649a4.3,4.3,0,0,1,1.24,3.83l-2.49,14.54a1.26,1.26,0,0,0,.28,1,1.3,1.3,0,0,0,1.6.32l13.06-6.87A4.39,4.39,0,0,1,137.77,661.38Z"></path><path fill="#ffd38b" d="M203.69,618.1l6.53,13.23a2.8,2.8,0,0,0,2.12,1.54l14.6,2.12a2.81,2.81,0,0,1,1.56,4.8l-10.57,10.3a2.79,2.79,0,0,0-.8,2.49l2.49,14.53a2.81,2.81,0,0,1-4.08,3l-13.06-6.86a2.82,2.82,0,0,0-2.62,0l-13.05,6.86a2.82,2.82,0,0,1-4.09-3l2.5-14.53a2.83,2.83,0,0,0-.81-2.49l-10.57-10.3a2.82,2.82,0,0,1,1.56-4.8l14.6-2.12a2.8,2.8,0,0,0,2.12-1.54l6.53-13.23A2.81,2.81,0,0,1,203.69,618.1Z"></path><path fill="#333" d="M216.85,671.93a4.21,4.21,0,0,1-2-.51l-13.06-6.86a1.33,1.33,0,0,0-1.2,0l-13.06,6.86a4.38,4.38,0,0,1-5.34-1,4.28,4.28,0,0,1-.94-3.51l2.49-14.54a1.32,1.32,0,0,0-.37-1.15l-10.57-10.29a4.34,4.34,0,0,1,2.41-7.39l14.59-2.12a1.34,1.34,0,0,0,1-.71l6.53-13.23a4.34,4.34,0,0,1,7.77,0l6.52,13.23a1.34,1.34,0,0,0,1,.71l14.6,2.12a4.34,4.34,0,0,1,2.4,7.39L219,651.17a1.32,1.32,0,0,0-.37,1.15l2.5,14.54a4.35,4.35,0,0,1-4.27,5.07Zm-15.68-10.55a4.43,4.43,0,0,1,2,.49l13.05,6.87a1.3,1.3,0,0,0,1.61-.33,1.22,1.22,0,0,0,.27-1l-2.49-14.54a4.33,4.33,0,0,1,1.24-3.83l10.57-10.3a1.3,1.3,0,0,0-.72-2.21l-14.6-2.12a4.31,4.31,0,0,1-3.26-2.37l-6.53-13.23a1.29,1.29,0,0,0-2.32,0L193.48,632a4.31,4.31,0,0,1-3.26,2.37l-14.6,2.12a1.3,1.3,0,0,0-.72,2.21L185.47,649a4.33,4.33,0,0,1,1.24,3.83l-2.49,14.54a1.26,1.26,0,0,0,.27,1,1.32,1.32,0,0,0,1.61.32l13.05-6.87A4.43,4.43,0,0,1,201.17,661.38Z"></path><path fill="#ffd38b" d="M270.51,618.1,277,631.33a2.8,2.8,0,0,0,2.12,1.54L293.75,635a2.81,2.81,0,0,1,1.56,4.8l-10.56,10.3a2.8,2.8,0,0,0-.81,2.49l2.49,14.53a2.81,2.81,0,0,1-4.08,3l-13.06-6.86a2.8,2.8,0,0,0-2.61,0l-13.06,6.86a2.81,2.81,0,0,1-4.08-3L252,652.58a2.8,2.8,0,0,0-.81-2.49l-10.56-10.3a2.81,2.81,0,0,1,1.56-4.8l14.59-2.12a2.8,2.8,0,0,0,2.12-1.54l6.53-13.23A2.82,2.82,0,0,1,270.51,618.1Z"></path><path fill="#333" d="M283.66,671.93a4.27,4.27,0,0,1-2-.51l-13.05-6.86a1.36,1.36,0,0,0-1.21,0l-13,6.86a4.37,4.37,0,0,1-5.34-1,4.28,4.28,0,0,1-1-3.51l2.49-14.54a1.27,1.27,0,0,0-.37-1.15L239.6,640.88a4.33,4.33,0,0,1,2.4-7.39l14.6-2.12a1.32,1.32,0,0,0,1-.71l6.53-13.23a4.34,4.34,0,0,1,7.77,0l6.53,13.23a1.32,1.32,0,0,0,1,.71l14.6,2.12a4.33,4.33,0,0,1,2.4,7.39l-10.56,10.29a1.27,1.27,0,0,0-.37,1.15l2.49,14.54a4.28,4.28,0,0,1-.95,3.51A4.33,4.33,0,0,1,283.66,671.93ZM268,661.38a4.43,4.43,0,0,1,2,.49l13.06,6.87a1.29,1.29,0,0,0,1.6-.33,1.26,1.26,0,0,0,.28-1l-2.5-14.54a4.33,4.33,0,0,1,1.25-3.83l10.56-10.3a1.29,1.29,0,0,0-.72-2.21l-14.59-2.12a4.33,4.33,0,0,1-3.27-2.37l-6.52-13.23a1.3,1.3,0,0,0-2.33,0L260.3,632a4.33,4.33,0,0,1-3.27,2.37l-14.59,2.12a1.29,1.29,0,0,0-.72,2.21L252.28,649a4.33,4.33,0,0,1,1.25,3.83L251,667.37a1.3,1.3,0,0,0,1.88,1.37L266,661.87A4.42,4.42,0,0,1,268,661.38Z"></path><path fill="#ffd38b" d="M342.68,576.76l11.44,23.17a4.93,4.93,0,0,0,3.71,2.7l25.57,3.71a4.93,4.93,0,0,1,2.73,8.41l-18.5,18a5,5,0,0,0-1.42,4.37l4.37,25.46a4.94,4.94,0,0,1-7.16,5.2l-22.86-12a4.91,4.91,0,0,0-4.59,0l-22.87,12a4.93,4.93,0,0,1-7.15-5.2l4.37-25.46a5,5,0,0,0-1.42-4.37l-18.5-18a4.93,4.93,0,0,1,2.73-8.41l25.57-3.71a5,5,0,0,0,3.71-2.7l11.43-23.17A4.93,4.93,0,0,1,342.68,576.76Z"></path><path fill="#333" d="M365.72,669.9a6.38,6.38,0,0,1-3-.75l-22.87-12a3.48,3.48,0,0,0-3.17,0l-22.87,12a6.38,6.38,0,0,1-3,.75,6.45,6.45,0,0,1-4.95-2.32,6.3,6.3,0,0,1-1.41-5.23l4.37-25.46a3.42,3.42,0,0,0-1-3l-18.5-18a6.45,6.45,0,0,1,3.57-11l25.57-3.72a3.4,3.4,0,0,0,2.57-1.86l11.43-23.17a6.46,6.46,0,0,1,11.57,0l11.43,23.17a3.4,3.4,0,0,0,2.57,1.86l25.56,3.72a6.45,6.45,0,0,1,3.58,11l-18.5,18a3.4,3.4,0,0,0-1,3l4.36,25.46a6.32,6.32,0,0,1-1.4,5.23A6.47,6.47,0,0,1,365.72,669.9Zm-27.46-16.2a6.53,6.53,0,0,1,3,.74l22.87,12a3.45,3.45,0,0,0,4.22-.83,3.38,3.38,0,0,0,.73-2.76l-4.37-25.47a6.43,6.43,0,0,1,1.86-5.7l18.5-18a3.41,3.41,0,0,0-1.89-5.81l-25.57-3.72a6.42,6.42,0,0,1-4.85-3.53l-11.44-23.16a3.41,3.41,0,0,0-6.12,0L323.77,600.6a6.44,6.44,0,0,1-4.85,3.53l-25.57,3.72a3.41,3.41,0,0,0-1.89,5.81l18.5,18a6.43,6.43,0,0,1,1.85,5.7l-4.36,25.47a3.31,3.31,0,0,0,.73,2.76,3.45,3.45,0,0,0,4.22.83l22.86-12A6.53,6.53,0,0,1,338.26,653.7Z"></path><circle cx="78.45" cy="509.25" r="62.94" fill="#e76a4a"></circle><path fill="#333" d="M78.45,573.71a64.46,64.46,0,1,1,64.46-64.46A64.53,64.53,0,0,1,78.45,573.71Zm0-125.88a61.43,61.43,0,1,0,61.42,61.42A61.49,61.49,0,0,0,78.45,447.83Z"></path><path fill="#fff" d="M72.63,540a15.51,15.51,0,0,1-11.23-4.79l-26.81-28A15.55,15.55,0,0,1,57,485.68l16.42,17.14,54.08-48.29a15.55,15.55,0,0,1,20.71,23.19L83,536A15.48,15.48,0,0,1,72.63,540Z"></path><path fill="#363636" d="M72.63,541.47a16.9,16.9,0,0,1-12.32-5.26l-26.81-28a17.06,17.06,0,1,1,24.63-23.61l15.42,16.08,53-47.31a17.06,17.06,0,0,1,22.73,25.45L84,537.13A17,17,0,0,1,72.63,541.47ZM45.81,482.41a14,14,0,0,0-10.12,23.73l26.81,28a14,14,0,0,0,19.46.76l65.28-58.28a14,14,0,1,0-18.68-20.92L74.47,504a1.5,1.5,0,0,1-2.1-.08L55.94,486.73A13.9,13.9,0,0,0,45.81,482.41Z"></path></svg>