<svg xmlns="http://www.w3.org/2000/svg" width="3000" height="3000" fill="none" viewBox="0 0 3000 3000" id="student-is-preparing-for-an-exam"><path fill="#48C8FF" d="M1956.21 1074.67C1967.19 1135.86 1975.09 1199.41 1895.47 1204.92 1866.6 1243.42 1847.23 1191.06 1838.78 1166.81L1824.92 1176.4C1823.92 1226.96 1808.91 1269.13 1767.75 1299.72 1746.54 1308 1724.85 1312.41 1703.02 1304.89 1654.06 1351.52 1589.44 1368.43 1522.91 1383.06 1521.01 1383.47 1524.71 1383.68 1510.68 1385.55 1434.45 1395.74 1372.53 1364.76 1323.57 1291.62 1310.27 1271.73 1292.39 1227.89 1287.36 1192.83 1281.06 1147.06 1267.2 1085.07 1281.96 1033.75 1140.34 1030.29 1045.68 1036.66 910.859 1120.38 776.036 1204.09 600.431 1337.01 505.872 1483.54 401.923 1603.26 373.337 1765.83 388.34 1915.69 403.344 2065.55 530.404 2203.29 653.342 2248.33 776.279 2293.37 850.845 2326.64 963.145 2284.61 960.304 2177.51 998.107 2111.01 1080.61 2045.25 1028.11 2006.75 972.674 1998.26 905.384 1985.34 885.591 1982.61 866.653 1975.51 849.944 1964.55 772.156 1911.67 687.264 1838.04 686.917 1730.77 719.557 1603.98 815.537 1508.04 928.392 1449.06 944.261 1559.7 959.126 1670.41 974.476 1781.11 1176.76 1762.4 1385.01 1750.34 1587.29 1771.31 1753.61 1776.05 1925.06 1768.43 2086.8 1727.86 2063.69 1645.63 2032.89 1538.32 2109.01 1477.72 2208.91 1500.28 2241.34 1484.65 2274.95 1590.16 2277.41 1625.26 2262.48 1665.11 2231.71 1702.35 2168.2 1779.31 2068.61 1882.74 1955.83 1881.32 1956.38 1947.15 1972.01 2040.88 1936.8 2098.99 1939.99 2110.6 1932.33 2118.5 1948.93 2127.85 1962.41 2135.48 1964.59 2145.18 1993.04 2138.25 2148.96 2099.93 2456.07 2018.67 2543.97 1873.04 2600.59 1812.92 2599.06 1693.8 2608.73 1621.69 2605.54 1602.7 2611.3 1634.2 2606.9 1609.22 2567.12 1384.68 2126.75 1164.42 1956.21 1074.67zM2616.63 1607.48L2619.02 1605.54 2613.58 1603.36C2614.62 1604.81 2615.63 1606.1 2616.63 1607.48z"></path><path fill="#48C8FF" d="M2598.44 1568.05C2596.33 1566.23 2593.81 1564.94 2591.1 1564.29C2588.39 1563.64 2585.56 1563.65 2582.85 1564.31C2585.59 1565.31 2588.5 1566.15 2591.27 1567.19C2588.12 1571.03 2590.26 1574.12 2593.56 1576.89L2590.99 1573.11C2592.62 1573.53 2593.9 1571.9 2595.53 1572.31C2597.47 1578 2602.46 1579.56 2602.46 1586.17H2601.87C2603.15 1587.32 2605.99 1587.91 2606.79 1589.33C2607.59 1590.75 2604.89 1591.58 2603.88 1591.37C2608.37 1593.89 2612.11 1597.55 2614.73 1601.97C2617.74 1593.21 2604.96 1593.35 2607.8 1584.65C2608.01 1584.69 2608.24 1584.69 2608.46 1584.65C2602.7 1580.25 2604.02 1572.28 2598.44 1568.05Z"></path><path fill="#48C8FF" d="M2603.67 1591.16C2603.67 1590.95 2603.46 1590.89 2603.29 1590.92 2603.12 1590.95 2603.57 1591.4 2603.67 1591.16zM2463.65 1388.6C2463.24 1388.32 2462.3 1388.88 2462.54 1389.29 2462.79 1389.71 2464.1 1388.88 2463.65 1388.6zM2500.73 1456.69C2501.08 1456.27 2500.73 1456.2 2500.73 1456.2 2498.93 1456.1 2500.38 1457.07 2500.73 1456.69zM2091.2 1147.44C2091.86 1146.78 2091.2 1145.67 2090.96 1145.01 2090.68 1145.36 2090.54 1148.23 2091.2 1147.44zM2030.08 1143.97C2029.56 1143.97 2029.53 1145.19 2029.46 1145.53 2029.39 1145.88 2030.6 1143.97 2030.08 1143.97zM1999.35 1131.71C1999.62 1131.46 1997.86 1129.63 1997.58 1129.94 1997.3 1130.25 1999.07 1131.95 1999.35 1131.71zM2002.85 1098.58H2001.77C2002.13 1098.62 2002.49 1098.62 2002.85 1098.58zM2072.04 1169.96L2070.9 1174.6C2071.51 1173.12 2071.9 1171.56 2072.04 1169.96zM1990.62 1131.15C1991 1131.15 1990.27 1129.07 1989.99 1129.18 1989.71 1129.28 1990.3 1131.26 1990.62 1131.15zM2595.22 1562.4C2594.98 1562.4 2596.92 1564.41 2597.19 1564.66 2597.3 1563.89 2595.53 1562.26 2595.22 1562.4zM2241.34 1272.42C2241.34 1272.14 2239.37 1273.32 2239.54 1273.53 2239.71 1273.74 2241.48 1272.66 2241.34 1272.42zM2136.07 1211.3C2136.07 1211.3 2135.83 1211.3 2135.69 1211.3 2135.56 1211.3 2135.31 1212.2 2135.69 1212.23 2136.07 1212.27 2136.07 1211.47 2136.07 1211.3zM2160.54 1230.6C2160.25 1230.77 2159.98 1230.98 2159.74 1231.22 2160.04 1231.06 2160.31 1230.85 2160.54 1230.6zM2113.34 1203.26C2113.34 1202.7 2111.79 1203.92 2111.61 1204.12 2111.44 1204.33 2113.45 1203.81 2113.34 1203.26z"></path><path fill="#48C8FF" d="M2100.94 1182.82C2100.7 1184.89 2099.24 1185.66 2097.47 1186.49C2101.29 1189.95 2105.86 1188.91 2108.87 1193.66L2107.63 1190.2C2113.45 1189.57 2118.3 1191.55 2119.89 1197.51L2118.16 1198.37C2122.84 1198.17 2123.57 1204.92 2127.31 1204.12C2127.31 1201.94 2128.66 1200.66 2128.17 1198.23C2131.64 1198.75 2134.86 1199.1 2138.19 1199.45C2137.25 1201.53 2136.28 1203.57 2135.31 1205.65C2137.04 1205.82 2138.78 1206.1 2140.48 1206.38C2141.13 1205.23 2145.33 1209.32 2148.24 1206.38C2148.24 1210.19 2144.95 1210.5 2142.24 1212.16C2145.01 1212.44 2145.29 1214 2148.27 1212.82C2147.89 1215.14 2147.47 1217.5 2147.09 1219.75L2154.79 1220.51C2154.3 1220.83 2154.23 1221.38 2153.75 1221.73C2159.6 1220.72 2158.98 1228 2166.08 1224.95C2165.76 1225.17 2165.51 1225.47 2165.35 1225.82C2170.38 1222.87 2170.76 1230.6 2172.77 1231.95C2176.23 1234.24 2177.62 1227.89 2179.11 1226.06C2185.87 1232.99 2188.57 1231.95 2198.17 1230.74C2196.47 1238.71 2184.93 1238.91 2186.42 1246.88C2191.9 1243.42 2198.31 1244.35 2204.4 1245.22C2209.81 1250.56 2216.19 1254.54 2220.07 1261.19C2220.9 1259.77 2221.76 1258.35 2222.66 1256.97C2226.13 1257.21 2229.59 1257.52 2233.06 1257.8C2229.84 1259.11 2226.51 1260.57 2223.32 1261.82C2227.69 1260.58 2232.15 1259.72 2236.66 1259.25C2246.33 1259.77 2236.91 1268.05 2246.47 1265.94C2246.37 1266.46 2246.21 1266.97 2246.02 1267.46C2251.84 1265.7 2257.59 1268.68 2263.34 1269.99C2260.99 1271.35 2258.67 1272.7 2256.41 1274.12L2253.12 1271.41C2252.6 1276.82 2261.13 1274.19 2264.76 1275.19C2269.23 1275.19 2271.69 1270.58 2275.47 1270.2C2277.45 1269.99 2279.59 1270.44 2280.25 1272.38C2281.43 1276.02 2275.09 1278.62 2272.18 1279.77C2277.44 1277.42 2283.35 1276.94 2288.91 1278.41C2287.86 1280.08 2286.19 1281.27 2284.27 1281.71C2286.64 1281.63 2288.95 1280.93 2290.96 1279.66C2290.72 1280.94 2290.54 1282.23 2290.34 1283.51C2295.88 1290.06 2304.2 1280.22 2311.13 1284.79C2309.36 1285.9 2316.18 1290.13 2316.63 1292.83C2312.68 1293.21 2310.74 1299.76 2307.52 1302.05C2311.68 1306.06 2314.97 1299.69 2319.96 1300.28L2313.03 1304.64C2316.5 1304.64 2319.2 1303.12 2322.8 1303.67C2320.58 1304.75 2322.18 1306.27 2319.09 1306.51C2321.9 1308.94 2324.88 1311.12 2327.58 1313.69C2329.32 1312.02 2331.05 1310.22 2332.75 1308.7C2334.62 1309.32 2333.34 1312.54 2332.75 1313.2C2332.16 1313.86 2331.01 1311.99 2330.81 1312.75C2329.25 1318.16 2334.86 1313.24 2334.27 1318.37C2335.24 1316.36 2336.32 1313.93 2338.88 1314.69C2336.28 1317.53 2338.88 1318.57 2338.19 1321.62C2339.47 1319.44 2344.08 1322.07 2346.64 1320.48C2346.3 1323.94 2344.32 1322.63 2342 1324.12C2347.61 1322.73 2348.93 1328.34 2354.06 1328.66C2354.06 1328.66 2353.29 1329.45 2353.61 1329.45C2359.08 1329.45 2364.87 1331.22 2370.48 1331.64L2366.15 1333.3C2370.62 1337.15 2373.7 1330.6 2378.62 1332.57C2375.16 1336.76 2384.13 1336.97 2379.35 1340.75C2383.72 1340.87 2388.09 1340.29 2392.28 1339.02C2391.06 1342.69 2384.13 1341.13 2384.69 1344.87L2390.09 1345.46L2388.57 1348.2C2390.51 1347.09 2392.69 1348.72 2394.42 1347.47C2393.28 1350.23 2391.87 1352.86 2390.2 1355.34C2393.14 1357 2393.66 1360.5 2397.58 1360.36L2396.47 1361.78C2401.73 1360.12 2404.75 1364.41 2409.77 1361.78C2409.32 1363.06 2408.8 1364.41 2408.46 1365.59C2412.16 1367.53 2416.11 1362.51 2418.85 1362.54C2421.59 1362.58 2421.94 1364.52 2423.74 1365.59C2417.36 1366.22 2421.21 1369.72 2421 1373.94C2422.36 1375.36 2424.03 1376.45 2425.87 1377.14C2427.71 1377.83 2429.68 1378.1 2431.64 1377.93C2428.17 1378.9 2425.95 1381.19 2422.42 1379.04C2420.79 1385.03 2428.55 1383.75 2432.12 1386.76L2429.73 1388.98C2436.38 1391.51 2441.1 1389.15 2447.54 1387.25C2445.53 1389.83 2442.63 1391.56 2439.4 1392.1C2442.52 1397.71 2448.44 1400.59 2452.98 1404.92C2452.85 1405.47 2452.6 1406 2452.25 1406.45C2451.91 1406.91 2451.48 1407.29 2450.98 1407.57C2450.48 1407.85 2449.94 1408.03 2449.37 1408.09C2448.8 1408.16 2448.23 1408.1 2447.68 1407.93C2453.78 1410.67 2456.76 1416.25 2464.03 1415.38C2461.44 1416.56 2464.03 1418.85 2464.49 1420.76C2465.26 1419.95 2466.22 1419.37 2467.29 1419.06C2469.97 1419.42 2472.51 1420.46 2474.66 1422.1C2476.81 1423.73 2478.5 1425.9 2479.56 1428.38L2477.1 1428.66C2483.16 1435.38 2493.04 1433.33 2496.33 1442.72C2496.99 1444.66 2490.99 1445.18 2493.63 1447.64C2497.09 1446.88 2499.9 1444.18 2502.29 1447.99L2498.62 1450.73L2504.19 1450.17C2505.2 1446.71 2502.6 1443.8 2507.21 1443.24C2507.59 1447.92 2511.96 1445.32 2512.27 1450.59C2509.98 1450.35 2507.67 1450.68 2505.55 1451.56C2509.01 1460.64 2517.85 1463.17 2521.03 1472.35C2526.68 1474.5 2531.43 1478.59 2537.08 1480.25C2533.82 1482.95 2529.93 1484.8 2525.78 1485.62C2529.25 1488.56 2536.18 1485.62 2534.48 1491.61C2541.68 1490.85 2545.81 1497.37 2553.19 1494.7C2552.01 1497.61 2554.61 1498.16 2549.41 1497.92C2554.96 1501.11 2548.65 1507.83 2550.45 1510.67C2552.25 1513.51 2553.4 1505.89 2555.86 1509.35C2556.24 1509.91 2554.68 1510.53 2555.34 1511.05C2556 1511.57 2557.03 1511.05 2557.76 1511.05C2556.48 1513.24 2553.57 1512.61 2551.46 1513.55C2554.23 1518.43 2560.64 1518.36 2564.69 1522H2563.1L2566.56 1527.27H2565.94L2571.35 1529.62L2569.4 1530.77C2570.72 1531.25 2571.93 1531.05 2573.08 1531.98C2572.21 1532.36 2571.35 1532.71 2570.51 1533.12C2572.68 1532.9 2574.87 1533.22 2576.88 1534.06C2578.89 1534.9 2580.66 1536.24 2582.02 1537.94L2581.29 1539.08L2589.67 1541.86C2588.22 1545.6 2583.06 1542.45 2587.35 1546.5L2581.6 1547.99C2584.27 1550.14 2585.07 1553.39 2587.63 1555.3C2588.53 1553.22 2587.94 1550.9 2590.65 1550.76C2588.64 1557.28 2595.46 1555.92 2600 1557.24C2599.45 1556.34 2598.62 1555.64 2597.64 1555.25C2596.66 1554.86 2595.58 1554.79 2594.56 1555.06C2593.97 1553.15 2596.22 1553.22 2596.19 1551.59L2591.89 1550.8L2594.7 1547.99L2589.33 1545.36C2592.07 1543.14 2588.57 1541.3 2592.34 1540.16C2589.19 1537.87 2589.09 1535.03 2584.75 1534.48C2585.83 1532.4 2588.84 1534.48 2588.6 1533.4C2578.08 1523.03 2568.96 1511.32 2561.47 1498.58H2563.96C2561.68 1498.58 2559.43 1498.23 2557.03 1498.23C2558.11 1491.72 2555.86 1484.96 2548.51 1485C2548.72 1484.3 2549.79 1484.34 2550.42 1484.3C2545.84 1478.83 2544.46 1471.55 2540.02 1465.87C2532.71 1466.11 2536 1456.79 2527.48 1458.94L2529.97 1458.77C2528.21 1462.23 2523.29 1460.81 2519.99 1461.33C2522.18 1458.21 2524.85 1455.75 2526.92 1452.46C2526.92 1453.67 2526.92 1454.85 2526.92 1455.92L2530.63 1452.04C2517.57 1451.28 2523.98 1437.91 2513.65 1437.25C2514.31 1437.08 2514.83 1436.62 2515.49 1436.49C2514.31 1431.95 2509.08 1433.75 2505.41 1433.26C2507.43 1431.85 2509.88 1431.2 2512.34 1431.43C2507.55 1424.22 2498.86 1421.69 2495.67 1413.27C2492.76 1413.96 2491.86 1416.74 2488.74 1417.01C2488.22 1414.21 2489.26 1412.13 2492.21 1412.44C2490.26 1402.04 2477.27 1398.58 2472.91 1388.84C2467.81 1388.46 2464.8 1389.67 2459.77 1387.63C2463.06 1386.28 2464.52 1381.36 2468.4 1383.44L2470.79 1381.91C2464.8 1374.98 2459.08 1369.27 2449.38 1370.58C2452.25 1367.12 2449.72 1368.02 2449.14 1364.55C2447.96 1364.35 2448.48 1365.07 2448.68 1365.84C2443.8 1366.6 2445.98 1364.17 2443.31 1361.95L2444.6 1361.71L2437.67 1360.53C2437.47 1359.81 2437.43 1359.06 2437.53 1358.33C2437.63 1357.59 2437.88 1356.88 2438.26 1356.24C2437.32 1357.21 2436.35 1358.14 2435.41 1359.15C2433.68 1356.65 2437.11 1354.82 2434.27 1352.7C2433.75 1353.6 2433.23 1354.5 2432.75 1355.41C2431.53 1352.77 2427.2 1352.84 2429.07 1349.52C2429.45 1348.86 2430.01 1349.52 2430.42 1349.83C2430.42 1343.28 2423.04 1344.53 2420.03 1339.78L2416.56 1345.29C2412.72 1343.87 2414.69 1342.83 2417.02 1340.99C2415.04 1339.05 2414.62 1336.24 2413 1334.06C2411.02 1334.06 2410.36 1335.14 2408.84 1336.18L2406.76 1332.43L2411.16 1331.46C2402.08 1332.26 2399.24 1322.87 2390.79 1324.53C2390.09 1322.11 2395.32 1322.83 2394.25 1321.34C2390.13 1314.42 2379.94 1315.45 2376.16 1308.39C2370.86 1298.44 2360.54 1294.32 2353.74 1285.76L2352.74 1287.28L2347.65 1281.39C2343.45 1282.36 2340.2 1279.31 2335.87 1279.97C2336.9 1278.9 2337.56 1277.34 2338.91 1276.51C2336.32 1275.09 2333.2 1274.39 2332.54 1271.14C2333.09 1270.96 2333.68 1270.76 2334.2 1270.65C2329.92 1264.82 2323.69 1260.71 2316.63 1259.08C2313.17 1258.52 2316.05 1255.16 2316.43 1253.54C2311.87 1251.41 2306.8 1250.62 2301.8 1251.25C2301.23 1249.92 2300.92 1248.5 2300.9 1247.06L2295.71 1249.83C2294.6 1247.99 2297.37 1246.92 2297.02 1244.94C2287.22 1244.67 2281.4 1239.71 2272.77 1235.83C2272.56 1236.56 2272.32 1237.28 2272.11 1237.98C2268.82 1237.98 2265.98 1234.76 2270.31 1233.3C2258.6 1227.37 2245.26 1230.15 2233.06 1225.16C2233.75 1216.74 2220.86 1221.52 2222.11 1212.2C2216.25 1210.92 2212.65 1207.1 2206.45 1208.46C2206.76 1207.8 2206.73 1207.04 2207.63 1207.35C2206.07 1201.63 2198.06 1200.76 2193.14 1199.55L2194.53 1196.92C2188.64 1199.62 2183.37 1194.63 2177.62 1197.54C2178.17 1196.02 2179.66 1195.95 2181.08 1195.5C2181.08 1189.68 2176.82 1194.01 2173.6 1191.3C2174.47 1190.09 2174.61 1188.43 2175.89 1187.53C2166.88 1175.43 2149.8 1173.84 2137.77 1165.46C2134.31 1163.2 2135.76 1170.72 2131.57 1168.16C2132.16 1165.63 2136.01 1164.38 2134.34 1161.71C2133.16 1162.35 2131.81 1162.59 2130.48 1162.39C2129.16 1162.19 2127.93 1161.56 2127 1160.6C2128.45 1159.08 2129.11 1158.04 2131.36 1157.87C2128.52 1154.09 2123.05 1157.21 2120.55 1151.87C2120.17 1152.84 2118.61 1154.44 2117.71 1154.47C2112.2 1154.68 2109.12 1145.57 2106.52 1146.09C2105.58 1146.09 2104.92 1146.09 2105.62 1147.16C2103.57 1145.77 2101.94 1144.11 2103.37 1141.65C2101.84 1142.85 2099.97 1143.52 2098.03 1143.56L2100.42 1141.1C2099.06 1141.66 2097.66 1142.11 2096.23 1142.45C2096.23 1143.25 2096.44 1144.08 2096.57 1144.91C2094.63 1141.72 2089.64 1144.32 2091.55 1139.4L2092.35 1139.68L2089.71 1135.03C2086.94 1136.32 2084.45 1137.53 2081.74 1135.59C2082.61 1129.52 2076.55 1130.39 2072.42 1128.24L2073.71 1126.3C2070.24 1126.75 2064.83 1121.31 2063.93 1124.5C2062.2 1123.43 2058.42 1120.83 2060.82 1118.75C2057.11 1118.44 2053.89 1116.91 2050.63 1119.16L2048.97 1112.06C2043.21 1115.53 2041.58 1107.28 2037.43 1112.44C2036.28 1110.43 2036.84 1108.53 2036.18 1106.41C2034.18 1106.99 2032.05 1107.03 2030.03 1106.52C2028.01 1106.01 2026.16 1104.96 2024.68 1103.5C2024.78 1103.22 2024.89 1102.94 2025.02 1102.67C2020.73 1100.35 2015.46 1101.25 2010.82 1099.79C2011.44 1097.72 2012.13 1095.64 2012.76 1093.56C2010.37 1093.56 2007 1096.68 2005.2 1094.7C2004.47 1093.9 2005.93 1093.42 2006.42 1093.56C2004.98 1093.23 2003.64 1092.56 2002.51 1091.6C2001.39 1090.64 2000.52 1089.42 1999.97 1088.05C1995.43 1089.4 1991 1088.39 1986.56 1090.2C1987.12 1085.14 1991.2 1088.81 1991.97 1084.1C1987.15 1078.87 1981.02 1078.8 1974.3 1078.48C1974.5 1077.13 1975.47 1076.41 1976.3 1075.44C1969.1 1078.66 1960.26 1082.37 1957.04 1090.09C1953.3 1093.56 1951.88 1095.36 1954.27 1100.24C1957.49 1098.93 1962.06 1098.3 1961.68 1102.98C1962.44 1101.7 1963.21 1100.42 1964 1099.14C1969.65 1101.56 1962.96 1107.28 1968.27 1111.54C1967.95 1110.81 1967.57 1110.09 1967.33 1109.36C1968.79 1109.36 1971.66 1108.42 1972.18 1110.02C1972.7 1111.61 1970.52 1111.4 1969.86 1112.06L1979.11 1109.91C1978.42 1111.96 1976.97 1113.65 1975.06 1114.66C1980.71 1116.01 1978.25 1108.32 1984.1 1112.03C1984.1 1114.31 1982.47 1114.35 1980.64 1115.11C1982.75 1119.79 1986.35 1118.57 1990.68 1117.92C1989.13 1120.41 1987.22 1120.65 1988.43 1123.74C1988.95 1121.49 1989.75 1118.71 1992.52 1119.02C1990.27 1121.83 1992.87 1122.04 1994.81 1123.84C1995.12 1122.63 1995.85 1120.79 1997.27 1120.65C1998.69 1120.51 1999.1 1122.56 2000.35 1122.98C2000.07 1121.38 1999.83 1119.72 1999.59 1118.05C2004.79 1117.57 2004.54 1122.21 2006.52 1125.92C2006.26 1126.17 2005.95 1126.35 2005.6 1126.47C2005.26 1126.58 2004.9 1126.62 2004.54 1126.58C2007.04 1130.36 2008.6 1133.51 2013.59 1132.95L2013.03 1133.23C2019.41 1132.47 2017.09 1127.17 2024.02 1127.06C2025.09 1131.22 2017.57 1136.73 2024.92 1137.22C2024.92 1131.6 2033.13 1132.19 2037.18 1132.47L2029.49 1137.84C2031.05 1138.43 2033.62 1137.84 2034.79 1139.16C2034.98 1138.6 2035.2 1138.06 2035.45 1137.53C2038.26 1132.92 2039.89 1139.33 2044.08 1138.57C2039.49 1142 2035.51 1146.18 2032.3 1150.94C2036.87 1148.17 2041.24 1145.71 2046.16 1148.69L2039.23 1152.84C2047.27 1157.11 2056.55 1152.29 2064.52 1149.62C2061.82 1152.7 2060.75 1156.55 2057.59 1159.01L2063.97 1161.16L2059.53 1165.32C2063.73 1162.82 2066.15 1164.14 2068.75 1159.46C2067.88 1159.95 2067.23 1160.71 2066.32 1160.02C2067.47 1157.87 2071.31 1154.54 2073.25 1156.55C2075.2 1158.56 2070.73 1159.01 2070.48 1160.5C2073.29 1159.6 2072.04 1162.61 2074.68 1162.41L2074.47 1158.6C2077.62 1156.48 2077.93 1159.53 2080.95 1159.36C2077.76 1160.08 2077.27 1162.2 2076.75 1165.18C2077.27 1164.8 2076.1 1165.01 2077.17 1164.52C2078.24 1164.03 2081.92 1163.38 2081.67 1166.22C2080.36 1167.78 2078.87 1169.34 2077.48 1170.93L2081.85 1168.12C2082.04 1168.85 2081.93 1169.62 2081.56 1170.27C2081.18 1170.92 2080.56 1171.39 2079.84 1171.59C2085.8 1176.75 2085.21 1161.78 2092.03 1169.61C2090.48 1171.66 2089.06 1172.04 2087.36 1169.89C2086.37 1170.93 2085.73 1172.24 2085.52 1173.65C2085.3 1175.07 2085.54 1176.51 2086.18 1177.79C2086.18 1178.07 2085.73 1178.28 2085.9 1178.41C2090.61 1181.5 2095.33 1184.2 2100.94 1182.82Z"></path><path fill="#48C8FF" d="M2081.02 1183.3C2080.12 1183.3 2076.44 1179.84 2075.71 1181.39 2074.99 1182.95 2079.77 1186.63 2081.02 1183.3zM2459.36 1427.34C2460.05 1427.34 2459.98 1425.74 2459.7 1425.78 2459.43 1425.81 2458.63 1427.41 2459.36 1427.34zM2379.66 1362.27C2381.73 1362.17 2383.72 1361.46 2385.38 1360.22 2384.34 1360.13 2383.28 1360.26 2382.3 1360.61 2381.31 1360.97 2380.41 1361.53 2379.66 1362.27zM2348.96 1334.17C2348.96 1334.17 2347.89 1334.17 2347.89 1334.34 2347.89 1334.51 2349 1334.3 2348.96 1334.17zM2269.86 1285.72C2273.09 1285.6 2276.32 1285.85 2279.49 1286.49 2275.68 1286.04 2273.81 1283.99 2269.86 1285.72zM2481.84 1442.69L2478.14 1443.07C2479.14 1443.07 2480.25 1443.31 2481.22 1443.28 2481.5 1443.28 2481.6 1442.76 2481.84 1442.69zM2466.98 1428.55C2467.36 1428.03 2463.17 1426.02 2462.82 1428.27 2463.76 1427.44 2466.53 1429.14 2466.98 1428.55zM2411.85 1371.9L2408.8 1373.7 2412.06 1373.08 2411.85 1371.9z"></path><path fill="#00068C" d="M1710.33 1907.83L1720.73 1888.35L1746.33 1839.84L1782.27 1772L1783.06 1770.41L1947.51 1459.29C1950.49 1431.95 1932.85 1425.78 1932.85 1425.78C1924.16 1409.94 1895.61 1425.78 1895.61 1425.78L1708.95 1773.28L1708.39 1774.39L1677.73 1831.39L1652.19 1879.03L1634.14 1912.57C1634.14 1912.57 1705.31 1909.25 1710.33 1907.83Z"></path><path fill="#00068C" d="M734.699 1871.1C733.646 1871.1 732.601 1870.91 731.615 1870.54 730.457 1870.14 729.389 1869.52 728.473 1868.7 727.557 1867.89 726.812 1866.9 726.281 1865.79 725.749 1864.69 725.442 1863.49 725.376 1862.26 725.31 1861.04 725.488 1859.81 725.898 1858.66L735.877 1830.38 740.243 1828.96C741.595 1828.55 876.07 1785.55 1088.09 1765.69H1089.27C1178.54 1757.41 1268.21 1754.29 1357.84 1756.34H1358.64C1403.68 1757.34 1448.73 1759.8 1492.97 1763.27 1494.46 1763.27 1496.2 1763.48 1497.93 1763.61L1500.22 1763.82C1500.22 1763.82 1548.52 1765.69 1619.9 1765.38H1621.21C1727.17 1764.86 1881.71 1759.56 2015.7 1737.32L2017.36 1737.04C2082.58 1726.09 2136.91 1712.23 2178.49 1695.56L2190.47 1690.78 2194.67 1764.2C2194.76 1765.44 2194.61 1766.68 2194.22 1767.86 2193.83 1769.04 2193.21 1770.12 2192.4 1771.06 2191.58 1771.99 2190.59 1772.75 2189.47 1773.3 2188.36 1773.84 2187.15 1774.16 2185.91 1774.23 2184.67 1774.3 2183.43 1774.13 2182.27 1773.71 2181.1 1773.3 2180.02 1772.66 2179.11 1771.82 2178.19 1770.99 2177.45 1769.98 2176.92 1768.86 2176.4 1767.73 2176.11 1766.52 2176.06 1765.28L2173.29 1717.67C2132.26 1732.78 2080.91 1745.39 2020.45 1755.58L2018.79 1755.85C1883.65 1778.31 1727.97 1783.57 1621.25 1784.16H1619.93C1548.21 1784.47 1499.63 1782.6 1499.14 1782.57L1496.41 1782.36C1494.81 1782.36 1493.22 1782.08 1491.66 1782.01 1447.62 1778.38 1402.85 1776.02 1358.43 1775.08H1357.63C1268.71 1773.06 1179.74 1776.16 1091.18 1784.37H1090.03C901.33 1802.04 774.893 1838.08 750.465 1845.49L743.535 1865C742.875 1866.81 741.67 1868.36 740.088 1869.46 738.505 1870.55 736.622 1871.12 734.699 1871.1zM1503.79 2641.43C1453.71 2641.7 1403.66 2639.38 1353.82 2634.5 1342.49 2634.5 1142.84 2634.5 939.479 2628.13 514.465 2614.61 487.3 2586.27 478.395 2576.95L474.445 2572.83 597.971 2222C598.346 2220.8 598.958 2219.7 599.77 2218.74 600.582 2217.79 601.577 2217.01 602.696 2216.45 603.816 2215.89 605.037 2215.56 606.286 2215.49 607.535 2215.41 608.787 2215.58 609.967 2216 611.147 2216.42 612.231 2217.07 613.154 2217.91 614.078 2218.76 614.822 2219.78 615.342 2220.92 615.862 2222.06 616.147 2223.29 616.181 2224.54 616.215 2225.79 615.996 2227.03 615.539 2228.2L496.17 2567.21C515.817 2578.16 599.219 2598.67 940.034 2609.48 1148.11 2616.1 1352.37 2615.9 1354.31 2615.86H1355.28C1659.74 2647.88 2152.57 2559 2221.21 2546.18L2194.46 2083.47C2194.37 2081.03 2195.23 2078.65 2196.88 2076.85 2198.52 2075.04 2200.8 2073.95 2203.24 2073.81 2205.67 2073.67 2208.07 2074.49 2209.9 2076.09 2211.74 2077.7 2212.88 2079.96 2213.07 2082.39L2240.79 2561.39 2232.82 2562.95C2228.07 2563.92 1825.68 2641.43 1503.79 2641.43z"></path><path fill="#00068C" d="M1398.42 2249.32L1394.18 2275.59 1426.37 2280.78 1430.61 2254.51 1398.42 2249.32zM1383.83 2341.11L1338.27 2622.72 1370.46 2627.93 1416.02 2346.32 1383.83 2341.11zM1442.32 2183.05L1410.13 2177.85 1476.1 1769.92 1492.07 1772.52 1508.5 1772.49V1773.8L1508.29 1775.15 1442.32 2183.05z"></path><path fill="#00068C" d="M1339.68 2401.76C1272.36 2401.76 1189.69 2359.04 1164.98 2345.38C1163.42 2344.55 1161.64 2344.21 1159.89 2344.41C1070.84 2353.49 986.257 2308.69 964.566 2296.15C874.165 2351.86 675.275 2265.93 661.346 2259.76C654.832 2257.69 597.174 2238.25 534.805 2188.59C474.895 2140.88 399.671 2055.16 381.168 1917.77C366.754 1809.47 382.633 1699.3 427.044 1599.48C459.199 1527.13 494.888 1484.65 499.497 1479.31C606.53 1317.71 762.384 1205.58 914.878 1108.08C1061.48 1014.52 1246.51 1021.9 1282.17 1024.33L1285.63 1024.57L1288.13 1027.13C1291.9 1031.08 1291.31 1035.31 1289.82 1046.64C1289.44 1049.27 1289.06 1052.15 1288.75 1055.06C1284.31 1093.9 1293.7 1159.01 1299.66 1194.15C1305.58 1230.8 1318.98 1265.84 1339.03 1297.09C1404.03 1397.02 1494.5 1381.43 1511.96 1377.27C1515.88 1376.33 1519.76 1375.64 1523.36 1374.98C1645.61 1353.22 1697.34 1300.28 1697.86 1299.76L1702.88 1294.49L1709.22 1297.96C1724.02 1306.41 1754.79 1297.19 1765.81 1292.76C1818.44 1266.84 1820.52 1178.41 1820.52 1177.48V1172.59L1850.08 1152.84L1853.09 1166.04C1862.38 1206.76 1873.19 1211.89 1876.27 1212.51C1881.95 1213.62 1889.2 1206.2 1891.83 1202.43L1895.12 1197.75L1900.8 1198.51C1918.13 1201.01 1930.71 1197.99 1939.09 1189.33C1961.58 1166.01 1950.8 1106 1946.23 1080.36L1946.02 1079.18C1942.38 1058.98 1948.1 1054.13 1949.97 1052.5C1951.57 1051.16 1953.5 1050.27 1955.56 1049.92C1957.61 1049.57 1959.73 1049.76 1961.68 1050.49C2027.1 1073.29 2202.33 1152.46 2222.11 1161.37C2224.33 1162.37 2226.58 1163.52 2228.76 1164.83C2570.93 1351.94 2602.56 1473.21 2604.54 1482.85C2661.78 1699.86 2569.44 1863.58 2565.49 1870.44C2529.25 1934.96 2434.17 1999.48 2282.99 2062.12C2165.18 2111.01 2047.37 2144.24 2002.33 2156.27C1993.16 2158.8 1983.5 2158.98 1974.24 2156.8C1964.98 2154.62 1956.42 2150.15 1949.35 2143.79C1943.11 2138.15 1938.68 2130.8 1936.6 2122.66C1825.06 2169.02 1731.5 2162.26 1695.61 2157.03C1685.42 2155.54 1675.41 2154.5 1665.88 2153.94C1620.1 2151.24 1589.99 2139.5 1576.41 2119.02C1570.93 2110.86 1568.3 2101.11 1568.93 2091.3C1523.12 2074.87 1516.19 2031.46 1519.31 2008.59C1515.84 1978.65 1518.2 1969.4 1523.71 1951.73C1534.1 1918.6 1574.37 1902.18 1608.98 1903.22C1639.75 1904.05 1678.28 1900.76 1712.38 1897.88L1715.22 1897.64C1699.52 1895.6 1681.57 1893.55 1661.82 1891.65C1645.59 1890.01 1630.33 1883.15 1618.34 1872.1C1596.44 1851.97 1586.84 1835.13 1589.02 1820.65C1590.41 1811.4 1596.47 1803.95 1606.56 1799.17C1610.42 1797.34 1614.7 1796.58 1618.96 1796.94C1623.22 1797.31 1627.31 1798.79 1630.81 1801.24C1655.07 1818.29 1684 1825.5 1703.96 1828.96C1720.21 1831.43 1736.72 1831.64 1753.02 1829.59C1880.84 1814.06 1932.3 1852.8 1951.63 1877.23C1952.6 1878.54 1953.83 1879.64 1955.26 1880.43C1956.68 1881.22 1958.26 1881.71 1959.88 1881.84C2057.8 1887.31 2181.95 1758.76 2230.46 1703.22C2255.7 1675.13 2269.22 1638.44 2268.23 1600.69C2267.19 1570.23 2256.52 1545.84 2236.52 1528.2C2193.04 1489.78 2118.3 1493.55 2109.01 1494.14C2045.95 1514.93 2076.27 1670.86 2093.35 1729.38L2096.02 1738.53L2086.84 1740.99C1888.02 1794.56 1585.18 1783.26 1582.13 1783.12H1581.37C1360.47 1756.23 979.119 1795.84 975.273 1796.22L966.229 1797.19L923.333 1463.2C795.129 1526.37 735.877 1635.1 711.796 1694.52C703.953 1713.56 700.208 1734.03 700.805 1754.61C701.402 1775.19 706.327 1795.41 715.261 1813.96C748.143 1881.04 820.215 1933.75 860.235 1959.18C875.986 1969.15 893.723 1975.58 912.21 1977.99C1019.21 1991.85 1072.6 2026.71 1085.87 2036.52C1201.47 2024.74 1300.5 2074.15 1337.02 2102.35C1342.64 2106.55 1348.51 2110.43 1354.58 2113.96C1414.39 2147.36 1470.87 2208.62 1479.57 2239.04C1479.91 2240.29 1480.36 2241.5 1480.78 2242.72C1482.61 2248.12 1485.18 2255.57 1481.89 2263.51C1479.35 2270.17 1474.49 2275.69 1468.21 2279.05C1461.92 2282.41 1454.64 2283.39 1447.69 2281.8C1440.74 2279.93 1434.2 2276.79 1428.39 2272.55C1407.52 2258.25 1385.71 2245.36 1363.11 2233.99C1401.81 2258.83 1434.45 2283.43 1443.7 2299.23C1448.12 2306.41 1450.86 2314.48 1451.74 2322.86C1452.27 2326.53 1451.99 2330.27 1450.94 2333.82C1449.89 2337.37 1448.08 2340.65 1445.64 2343.44C1439.13 2350.65 1428.04 2354.36 1412.69 2354.39C1396.67 2354.18 1381.16 2348.7 1368.55 2338.8L1365.26 2336.31C1367.06 2338.42 1368.72 2340.6 1370.38 2342.85C1373.18 2346.68 1375.65 2350.74 1377.76 2354.98C1380.05 2359.67 1381.15 2364.85 1380.97 2370.07C1380.78 2375.28 1379.31 2380.37 1376.69 2384.89C1374 2389.59 1370.19 2393.56 1365.61 2396.45C1361.02 2399.34 1355.8 2401.05 1350.39 2401.45C1346.89 2401.76 1343.43 2401.76 1339.68 2401.76ZM1160.93 2325.74C1165.5 2325.77 1170 2326.96 1173.99 2329.2C1191.73 2339.01 1283.41 2387.66 1349.01 2382.94C1351.37 2382.77 1353.66 2382.02 1355.66 2380.76C1357.67 2379.5 1359.33 2377.76 1360.51 2375.7C1361.62 2373.83 1362.25 2371.71 1362.33 2369.53C1362.42 2367.35 1361.96 2365.18 1360.99 2363.23C1359.34 2359.93 1357.42 2356.78 1355.24 2353.8C1347.93 2343.87 1338.59 2335.6 1327.83 2329.55C1293.18 2309.42 1205.97 2260.25 1148.31 2237.17C1146.06 2236.22 1144.25 2234.45 1143.24 2232.21C1142.24 2229.98 1142.12 2227.45 1142.9 2225.13C1143.69 2222.81 1145.32 2220.87 1147.48 2219.71C1149.63 2218.54 1152.14 2218.23 1154.52 2218.84C1187.26 2228.09 1300.29 2263.02 1379.74 2324.18C1389.1 2331.57 1400.63 2335.68 1412.55 2335.89C1425.96 2335.89 1430.4 2332.43 1431.68 2331.11C1432.2 2330.55 1433.52 2329.06 1433.1 2324.87C1432.48 2319.16 1430.57 2313.66 1427.52 2308.79C1409.68 2278.27 1260.61 2191.54 1205.76 2168.95C1203.52 2168.01 1201.71 2166.25 1200.71 2164.03C1199.71 2161.81 1199.6 2159.29 1200.38 2156.98C1201.17 2154.68 1202.81 2152.76 1204.96 2151.62C1207.11 2150.47 1209.61 2150.19 1211.97 2150.83C1242.46 2159.38 1368.65 2207.72 1439.13 2257.48C1443.1 2260.4 1447.58 2262.57 1452.33 2263.89C1454.97 2264.32 1457.67 2263.78 1459.95 2262.37C1462.22 2260.96 1463.91 2258.78 1464.7 2256.23C1465.29 2254.78 1464.49 2252.32 1463.18 2248.43C1462.66 2246.91 1462.14 2245.39 1461.69 2243.86C1454.96 2220.33 1403.23 2162.12 1345.54 2129.9C1338.67 2125.95 1332.05 2121.57 1325.72 2116.8C1324.68 2116 1223.3 2039.46 1084.21 2055.23L1080.23 2055.68L1077.14 2053.08C1076.66 2052.7 1026.31 2011.5 909.819 1996.25C888.648 1993.47 868.335 1986.12 850.291 1974.7C808.711 1948.19 733.521 1893.14 698.594 1821.96C688.508 1801.07 682.939 1778.28 682.253 1755.08C681.566 1731.89 685.777 1708.81 694.61 1687.35C719.835 1624.98 782.412 1510.64 917.823 1444.98C920.194 1443.84 922.799 1443.29 925.425 1443.35C928.051 1443.42 930.625 1444.11 932.935 1445.36C935.246 1446.61 937.229 1448.38 938.721 1450.55C940.214 1452.71 941.174 1455.19 941.524 1457.8L982.445 1776.57C1041.97 1770.89 1379.46 1739.95 1583.34 1764.52C1595.3 1764.97 1880.12 1774.67 2073.05 1725.4C2061.47 1681.74 2019.55 1502.01 2104.65 1475.92L2105.55 1475.64H2106.52C2109.98 1475.29 2196.61 1468.05 2248.89 1514.14C2272.91 1535.34 2285.73 1564.21 2287.01 1600.03C2288.19 1642.6 2273 1684 2244.56 1715.69C2183.2 1785.51 2066.74 1900.72 1966.05 1900.72C1963.59 1900.72 1961.13 1900.72 1958.7 1900.52C1954.45 1900.23 1950.31 1899.04 1946.56 1897.03C1942.8 1895.02 1939.51 1892.24 1936.91 1888.87C1923.29 1871.55 1878.32 1833.19 1755.14 1848.13C1737.11 1850.42 1718.86 1850.18 1700.91 1847.4C1679.04 1843.93 1647.24 1835.76 1620.04 1816.7C1619.25 1816.14 1618.33 1815.8 1617.37 1815.7C1616.41 1815.6 1615.44 1815.76 1614.56 1816.14C1610.26 1818.19 1607.87 1820.68 1607.63 1823.59C1607.08 1827.06 1608.32 1837.45 1631.12 1858.55C1640.13 1866.87 1651.6 1872.04 1663.8 1873.28C1698.45 1876.75 1759.71 1883.68 1783.79 1891.65C1786.34 1892.49 1788.5 1894.24 1789.85 1896.56C1791.2 1898.88 1791.65 1901.62 1791.11 1904.26C1790.58 1906.89 1789.1 1909.24 1786.95 1910.85C1784.8 1912.47 1782.14 1913.24 1779.46 1913.02C1766.99 1912.12 1742.49 1914.2 1714.11 1916.49C1679.46 1919.43 1640.51 1922.73 1608.67 1921.93C1581.64 1921.17 1549.14 1933.47 1541.66 1957.48C1536.95 1972.62 1534.73 1979.55 1538.19 2007.83V2009.11L1537.98 2010.39C1537.67 2012.47 1530.74 2062.57 1581.89 2076.02L1591.66 2078.58L1588.19 2088.11C1587.31 2091.65 1587.2 2095.34 1587.87 2098.93C1588.54 2102.52 1589.97 2105.92 1592.07 2108.9C1599.21 2119.29 1617.96 2132.36 1666.95 2135.23C1677 2135.82 1687.53 2136.93 1698.14 2138.49C1733.79 2143.72 1828.87 2150.41 1941.72 2100.13L1959.85 2092.06L1954.48 2111.15C1954.27 2111.98 1952.47 2121.03 1962.17 2130.07C1966.91 2134.36 1972.66 2137.37 1978.88 2138.83C1985.11 2140.29 1991.6 2140.15 1997.75 2138.42C2075.54 2117.63 2467.74 2006.75 2549.48 1861.22C2550.45 1859.53 2642 1696.78 2586.66 1487.32V1486.62C2586.45 1485.52 2558.94 1366.32 2220.17 1181.19C2218.41 1180.22 2216.61 1179.32 2214.76 1178.48C2195.85 1169.93 2034.03 1096.81 1964.04 1071.07C1964.04 1072.59 1964.38 1074.26 1964.7 1075.99L1964.9 1077.17C1970.45 1108.01 1981.95 1172.21 1952.81 1202.36C1941.17 1214.45 1924.71 1219.68 1903.89 1217.71C1898.34 1223.88 1887.19 1233.61 1873.15 1230.91C1858.56 1228.14 1847.37 1213.03 1839.06 1184.89C1837.43 1208.42 1827.97 1283.47 1773.92 1309.63L1773.36 1309.88C1768.93 1311.68 1732.37 1325.99 1706.73 1317.05C1690.86 1331.22 1635.7 1373.77 1526.86 1393.28C1523.4 1393.87 1519.93 1394.53 1516.47 1395.32C1496.86 1399.97 1395.44 1417.6 1323.64 1307.17C1302.2 1273.79 1287.86 1236.36 1281.51 1197.19C1274.02 1152.91 1265.98 1091.93 1270.45 1052.91C1270.77 1049.86 1271.18 1046.85 1271.56 1044.08C1271.56 1043.52 1271.56 1042.93 1271.81 1042.31C1221.74 1039.95 1056.98 1039.57 925.065 1123.7C773.992 1220.2 619.801 1331.08 514.673 1490.09L513.911 1491.09C512.421 1492.79 365.749 1662.78 399.567 1915.28C413.669 2020.37 462.837 2107.27 545.789 2173.52C607.916 2223.17 666.786 2241.95 667.375 2242.13L668.38 2242.51C670.459 2243.44 878.531 2334.78 958.814 2277.54L963.908 2274.08L969.174 2277.54C970.041 2278.06 1049.53 2327.23 1136.12 2327.26C1143.41 2327.27 1150.69 2326.9 1157.95 2326.15C1158.93 2325.95 1159.93 2325.8 1160.93 2325.7V2325.74Z"></path><path fill="#00068C" d="M537.196 2177.78L845.579 2088.39C845.772 2088.33 845.975 2088.31 846.174 2088.35 846.373 2088.38 846.562 2088.46 846.726 2088.58 846.89 2088.69 847.025 2088.85 847.12 2089.02 847.216 2089.2 847.269 2089.4 847.276 2089.6L857.325 2302.04C857.385 2302.9 857.251 2303.77 856.933 2304.58 856.615 2305.38 856.121 2306.11 855.486 2306.7 854.852 2307.29 854.094 2307.73 853.267 2307.99 852.44 2308.25 851.565 2308.33 850.707 2308.2L821.74 2303.7C820.356 2303.44 819.103 2302.72 818.194 2301.65 817.285 2300.57 816.775 2299.22 816.75 2297.81L812.835 2155.09C812.829 2154.89 812.78 2154.71 812.693 2154.53 812.606 2154.36 812.482 2154.21 812.33 2154.09 812.178 2153.97 812.001 2153.89 811.813 2153.84 811.625 2153.8 811.429 2153.8 811.241 2153.84L573.647 2203.77C573.046 2203.89 572.427 2203.88 571.83 2203.74 571.233 2203.6 570.672 2203.34 570.182 2202.97L537.404 2177.89 537.196 2177.78zM680.022 1294.73L777.596 1413.13C777.849 1413.42 778.035 1413.77 778.142 1414.14 778.249 1414.51 778.273 1414.9 778.214 1415.29 778.154 1415.67 778.013 1416.03 777.798 1416.36 777.584 1416.68 777.302 1416.95 776.972 1417.15 754.657 1431.22 595.823 1533.99 548.283 1637.28 547.756 1638.44 547.669 1639.75 548.039 1640.97 548.409 1642.19 549.21 1643.23 550.293 1643.9L629.121 1694.07C630.338 1694.85 631.219 1696.05 631.591 1697.44 631.963 1698.83 631.799 1700.31 631.131 1701.59 614.153 1734.06 513.946 1927.06 511.832 1999.2 511.806 1999.87 511.922 2000.54 512.173 2001.17 512.423 2001.8 512.803 2002.36 513.286 2002.83 513.769 2003.3 514.346 2003.67 514.979 2003.9 515.612 2004.13 516.287 2004.23 516.96 2004.19 555.075 2001.9 794.158 1986.62 839.48 1963.75 840.143 1963.42 840.713 1962.92 841.135 1962.32 841.558 1961.71 841.822 1961 841.901 1960.26 841.98 1959.52 841.873 1958.78 841.589 1958.09 841.306 1957.41 840.855 1956.8 840.277 1956.34L768.24 1898.4C767.631 1897.91 766.903 1897.59 766.129 1897.48 765.356 1897.36 764.566 1897.45 763.84 1897.74 746.515 1904.67 640.729 1946.91 586.225 1948.3 585.436 1948.31 584.657 1948.12 583.954 1947.76 583.252 1947.41 582.646 1946.88 582.19 1946.24 581.734 1945.59 581.44 1944.85 581.334 1944.07 581.228 1943.29 581.313 1942.49 581.582 1941.75L672.052 1694.7C672.482 1693.51 672.511 1692.22 672.135 1691.02 671.76 1689.82 671 1688.77 669.974 1688.04L606.668 1643C606.087 1642.59 605.595 1642.07 605.221 1641.46 604.847 1640.86 604.599 1640.19 604.492 1639.48 604.385 1638.78 604.422 1638.06 604.599 1637.38 604.777 1636.69 605.092 1636.04 605.525 1635.48 626.834 1607.76 746.342 1457.52 839.861 1430.32 840.388 1430.15 840.866 1429.86 841.258 1429.47 841.649 1429.08 841.942 1428.6 842.111 1428.08 842.281 1427.55 842.322 1427 842.232 1426.45 842.142 1425.91 841.923 1425.39 841.594 1424.95L710.583 1268.12C710.366 1267.86 710.099 1267.65 709.798 1267.49 709.497 1267.33 709.168 1267.23 708.829 1267.21 708.491 1267.18 708.15 1267.22 707.826 1267.32 707.503 1267.42 707.203 1267.59 706.945 1267.81L680.611 1290.19C680.273 1290.45 679.989 1290.78 679.776 1291.14 679.563 1291.51 679.425 1291.92 679.37 1292.34 679.316 1292.76 679.345 1293.19 679.457 1293.6 679.569 1294.01 679.761 1294.4 680.022 1294.73zM2208.91 1500.28C2208.91 1500.28 2314.45 1373.11 2394.11 1351.73L2454.16 1398.68 2488.81 1349.76 2514.87 1373.67 2459.43 1470.03 2388.67 1385C2388.67 1385 2261.09 1480.08 2234.86 1514.73L2208.91 1500.28zM2573.29 1448.51L2478.97 1595.46C2478.55 1596.11 2477.96 1596.64 2477.26 1596.97 2476.56 1597.31 2475.78 1597.44 2475.01 1597.35 2474.24 1597.26 2473.51 1596.95 2472.9 1596.46 2472.3 1595.97 2471.84 1595.33 2471.59 1594.59L2434.89 1488.15C2434.63 1487.39 2434.22 1486.68 2433.68 1486.08 2433.14 1485.48 2432.49 1484.99 2431.76 1484.64 2431.03 1484.29 2430.24 1484.09 2429.44 1484.05 2428.63 1484.01 2427.82 1484.13 2427.06 1484.41 2409.01 1490.85 2350.83 1515.59 2278.07 1589.95 2277.78 1590.24 2277.57 1590.6 2277.46 1590.99 2277.35 1591.39 2277.34 1591.8 2277.45 1592.2 2278.62 1597.68 2282.26 1620.3 2270 1653.95 2269.8 1654.46 2269.79 1655.02 2269.96 1655.54 2270.12 1656.06 2270.46 1656.51 2270.91 1656.81 2271.37 1657.11 2271.91 1657.26 2272.45 1657.22 2273 1657.17 2273.51 1656.95 2273.91 1656.58L2392.97 1546.33C2393.66 1545.68 2394.5 1545.2 2395.42 1544.93 2396.33 1544.66 2397.29 1544.61 2398.23 1544.79 2399.17 1544.96 2400.05 1545.35 2400.81 1545.92 2401.57 1546.5 2402.18 1547.24 2402.6 1548.09L2458.87 1661.71C2459.2 1662.35 2459.68 1662.89 2460.28 1663.29 2460.87 1663.69 2461.56 1663.92 2462.28 1663.98 2462.99 1664.03 2463.71 1663.89 2464.36 1663.59 2465 1663.28 2465.56 1662.81 2465.98 1662.23L2592.48 1478.24C2593.01 1477.44 2593.21 1476.48 2593.04 1475.54 2590.93 1465.32 2586.14 1455.85 2579.18 1448.09 2578.83 1447.61 2578.37 1447.23 2577.83 1446.98 2577.3 1446.72 2576.71 1446.61 2576.11 1446.65 2575.52 1446.7 2574.95 1446.89 2574.46 1447.21 2573.96 1447.54 2573.56 1447.98 2573.29 1448.51zM2141.24 1808.1L2245.39 1862.33C2245.74 1862.51 2246 1862.81 2246.13 1863.18 2246.26 1863.55 2246.25 1863.95 2246.09 1864.31L2137.18 2102.97C2137.04 2103.29 2136.99 2103.64 2137.05 2103.99 2137.1 2104.33 2137.26 2104.65 2137.5 2104.91 2137.73 2105.16 2138.04 2105.34 2138.38 2105.42 2138.72 2105.51 2139.07 2105.49 2139.4 2105.37L2196.23 2085.72C2196.47 2085.64 2196.69 2085.5 2196.87 2085.33 2197.06 2085.16 2197.2 2084.95 2197.3 2084.71L2296.64 1840.02C2296.71 1839.84 2296.75 1839.64 2296.75 1839.44 2296.75 1839.25 2296.71 1839.05 2296.63 1838.87 2296.55 1838.69 2296.44 1838.53 2296.3 1838.39 2296.16 1838.26 2295.99 1838.15 2295.81 1838.08L2164.97 1785.34C2164.67 1785.22 2164.35 1785.19 2164.03 1785.24 2163.71 1785.3 2163.41 1785.44 2163.17 1785.65L2140.89 1805.23C2140.68 1805.42 2140.52 1805.66 2140.42 1805.92 2140.32 1806.19 2140.28 1806.48 2140.32 1806.76 2140.35 1807.04 2140.45 1807.31 2140.61 1807.54 2140.77 1807.78 2140.99 1807.97 2141.24 1808.1z"></path><path fill="#00068C" d="M2220.24 1733.95L2380.6 1780.73C2380.95 1780.84 2381.27 1781.01 2381.55 1781.25 2381.83 1781.48 2382.06 1781.76 2382.23 1782.09 2382.39 1782.41 2382.5 1782.76 2382.53 1783.12 2382.56 1783.49 2382.51 1783.85 2382.4 1784.2L2287.36 2046.95C2287.23 2047.26 2287.2 2047.61 2287.28 2047.95 2287.36 2048.28 2287.53 2048.58 2287.78 2048.81 2288.03 2049.04 2288.35 2049.2 2288.69 2049.25 2289.02 2049.3 2289.37 2049.24 2289.68 2049.09L2352.05 2021.17C2352.27 2021.07 2352.46 2020.92 2352.62 2020.75 2352.79 2020.57 2352.91 2020.36 2352.98 2020.13L2436.14 1770.41C2436.36 1769.72 2436.31 1768.97 2435.98 1768.32 2435.66 1767.67 2435.09 1767.18 2434.41 1766.94L2243.84 1704.26C2243.36 1704.11 2242.85 1704.1 2242.36 1704.22 2241.88 1704.35 2241.44 1704.62 2241.1 1704.99L2219.06 1729.69C2218.75 1730.01 2218.53 1730.41 2218.42 1730.84 2218.31 1731.28 2218.31 1731.73 2218.43 1732.16 2218.55 1732.59 2218.78 1732.98 2219.1 1733.3 2219.41 1733.61 2219.81 1733.84 2220.24 1733.95zM1619.69 2095.84C1603.16 2095.88 1586.65 2094.42 1570.38 2091.47 1568.04 2090.9 1566.02 2089.45 1564.73 2087.42 1563.43 2085.39 1562.98 2082.94 1563.45 2080.58 1563.93 2078.22 1565.3 2076.13 1567.27 2074.76 1569.25 2073.39 1571.68 2072.83 1574.06 2073.21 1574.89 2073.38 1657.21 2089.36 1705.52 2055.4 1707.54 2054.08 1710 2053.6 1712.37 2054.06 1714.74 2054.52 1716.84 2055.88 1718.23 2057.86 1719.62 2059.83 1720.18 2062.27 1719.81 2064.66 1719.43 2067.04 1718.15 2069.19 1716.22 2070.65 1687.36 2090.92 1649.59 2095.84 1619.69 2095.84zM1615.46 2023.73C1586.36 2023.81 1557.49 2018.59 1530.26 2008.35 1527.96 2007.4 1526.13 2005.58 1525.18 2003.29 1524.22 2000.99 1524.22 1998.41 1525.16 1996.11 1526.11 1993.82 1527.93 1991.99 1530.23 1991.03 1532.52 1990.08 1535.1 1990.07 1537.4 1991.02 1538.47 1991.44 1614.98 2022.21 1689.85 1990.29 1692.15 1989.33 1694.74 1989.32 1697.05 1990.26 1699.35 1991.2 1701.19 1993.02 1702.16 1995.32 1703.12 1997.62 1703.13 2000.2 1702.19 2002.51 1701.25 2004.82 1699.43 2006.65 1697.13 2007.62 1671.27 2018.43 1643.49 2023.91 1615.46 2023.73zM1945.64 2118.05C1943.54 2118.04 1941.5 2117.33 1939.86 2116.02 1938.21 2114.71 1937.06 2112.89 1936.58 2110.84 1936.1 2108.8 1936.33 2106.65 1937.23 2104.75 1938.12 2102.85 1939.63 2101.31 1941.52 2100.38 1952.99 2088.35 1954.82 1982.95 1949.94 1891.54 1949.8 1889.07 1950.66 1886.66 1952.31 1884.82 1953.96 1882.98 1956.27 1881.87 1958.74 1881.74H1959.22C1961.6 1881.74 1963.9 1882.65 1965.63 1884.29 1967.36 1885.92 1968.4 1888.16 1968.54 1890.54 1968.54 1891.06 1971.32 1943.27 1971.04 1996.11 1970.38 2108.55 1956.62 2114.27 1949.21 2117.39 1948.07 2117.84 1946.86 2118.07 1945.64 2118.05zM964.289 2294.35C962.039 2294.35 959.865 2293.54 958.17 2292.06 956.475 2290.58 955.374 2288.54 955.072 2286.31 935.495 2144.52 1071.88 2042.79 1077.7 2038.53 1079.69 2037.06 1082.18 2036.46 1084.63 2036.83 1087.07 2037.21 1089.26 2038.54 1090.73 2040.54 1092.19 2042.53 1092.8 2045.02 1092.42 2047.47 1092.04 2049.91 1090.71 2052.1 1088.72 2053.56 1087.36 2054.53 955.488 2153.08 973.54 2283.78 973.837 2286.21 973.168 2288.66 971.678 2290.6 970.188 2292.55 967.995 2293.83 965.571 2294.17L964.289 2294.35zM1355.8 2620.05C1355.8 2620.05 2117.5 2491.85 2228.52 2547.46 2228.52 2547.46 1897.65 2615.55 1687.26 2622.41 1687.26 2622.48 1367.37 2640.32 1355.8 2620.05zM1342.7 2619.53C1353.09 2603.42 528.187 2543.96 485.117 2570.47 448.354 2593.1 1098.07 2636.48 1342.7 2619.53zM1464.91 1880.56H1463.66L1409.26 1875.67C1407.44 1875.51 1405.67 1874.99 1404.05 1874.15 1402.43 1873.3 1400.99 1872.14 1399.82 1870.74 1397.45 1867.91 1396.3 1864.26 1396.63 1860.58 1396.96 1856.91 1398.73 1853.51 1401.56 1851.14 1404.39 1848.77 1408.05 1847.63 1411.72 1847.95L1466.19 1852.77C1469.89 1852.92 1473.37 1854.54 1475.88 1857.27 1478.38 1860 1479.7 1863.61 1479.55 1867.3 1479.39 1871 1477.77 1874.49 1475.05 1876.99 1472.32 1879.5 1468.71 1880.82 1465.01 1880.66L1464.91 1880.56zM1358.08 2563.26H1356.84L1302.33 2558.45C1300.51 2558.28 1298.74 2557.77 1297.12 2556.92 1295.5 2556.07 1294.06 2554.92 1292.89 2553.52 1290.52 2550.69 1289.38 2547.03 1289.7 2543.36 1290.03 2539.68 1291.8 2536.28 1294.63 2533.92 1297.46 2531.55 1301.12 2530.4 1304.79 2530.73L1359.3 2535.54C1362.99 2535.7 1366.48 2537.33 1368.98 2540.06 1371.48 2542.79 1372.8 2546.4 1372.64 2550.1 1372.48 2553.79 1370.85 2557.28 1368.12 2559.78 1365.39 2562.28 1361.78 2563.6 1358.08 2563.44V2563.26zM1516.19 2314.06C1514.39 2314.06 1512.62 2313.54 1511.11 2312.56 1509.6 2311.58 1508.41 2310.18 1507.67 2308.53 1506.94 2306.89 1506.7 2305.06 1506.98 2303.28 1507.26 2301.5 1508.05 2299.84 1509.26 2298.5 1509.81 2297.88 1566.26 2237.28 1647.86 2273.52 1649.74 2274.36 1651.79 2274.72 1653.84 2274.57 1655.89 2274.43 1657.87 2273.78 1659.61 2272.69 1679.81 2260.08 1733.37 2234.57 1793.63 2271.75 1795.63 2272.98 1797.92 2273.62 1800.27 2273.62 1802.61 2273.62 1804.9 2272.98 1806.9 2271.75 1835.7 2254.26 1908.98 2218.81 1967.71 2267.08 1969.46 2268.69 1970.53 2270.91 1970.69 2273.29 1970.86 2275.66 1970.11 2278.01 1968.6 2279.85 1967.08 2281.69 1964.93 2282.88 1962.57 2283.18 1960.2 2283.47 1957.82 2282.86 1955.9 2281.46 1906.35 2240.78 1841.97 2272.24 1816.57 2287.66 1811.65 2290.69 1805.99 2292.29 1800.21 2292.29 1794.44 2292.29 1788.78 2290.69 1783.86 2287.66 1734.31 2257.2 1690.93 2275.15 1669.52 2288.52 1665.19 2291.24 1660.26 2292.84 1655.17 2293.21 1650.08 2293.57 1644.97 2292.67 1640.31 2290.6 1621.07 2281.44 1599.46 2278.48 1578.46 2282.15 1557.47 2285.82 1538.14 2295.93 1523.15 2311.08 1522.27 2312.04 1521.19 2312.81 1519.99 2313.32 1518.79 2313.83 1517.5 2314.09 1516.19 2314.06zM1491.03 2411.15C1489.23 2411.15 1487.47 2410.63 1485.96 2409.65 1484.45 2408.67 1483.25 2407.27 1482.52 2405.62 1481.78 2403.98 1481.54 2402.15 1481.82 2400.37 1482.11 2398.59 1482.9 2396.93 1484.1 2395.59 1484.83 2394.76 1559.54 2314.55 1667.54 2362.61 1670.57 2363.96 1673.88 2364.54 1677.19 2364.31 1680.49 2364.07 1683.69 2363.02 1686.49 2361.25 1713.31 2344.52 1784.28 2310.87 1864.21 2360.01 1867.42 2361.98 1871.12 2363.02 1874.88 2363.02 1878.65 2363.02 1882.35 2361.98 1885.56 2360.01 1923.88 2336.72 2021.35 2289.49 2099.14 2353.42 2100.89 2355.04 2101.95 2357.26 2102.12 2359.63 2102.28 2362.01 2101.53 2364.35 2100.02 2366.19 2098.51 2368.03 2096.35 2369.22 2093.99 2369.52 2091.63 2369.82 2089.24 2369.21 2087.32 2367.8 2018.75 2311.46 1930.15 2354.71 1895.22 2375.95 1889.09 2379.71 1882.03 2381.7 1874.83 2381.7 1867.63 2381.7 1860.58 2379.71 1854.44 2375.95 1783.41 2332.29 1720.24 2362.09 1696.37 2377.12 1690.97 2380.5 1684.83 2382.5 1678.48 2382.95 1672.13 2383.4 1665.77 2382.28 1659.95 2379.69 1564.46 2337.17 1500.56 2405.29 1497.86 2408.2 1496.99 2409.14 1495.93 2409.89 1494.76 2410.4 1493.58 2410.9 1492.31 2411.16 1491.03 2411.15zM1476.79 2517.21C1474.48 2517.22 1472.26 2516.35 1470.56 2514.79 1469.65 2513.96 1468.92 2512.97 1468.4 2511.86 1467.87 2510.75 1467.58 2509.56 1467.52 2508.33 1467.46 2507.11 1467.64 2505.89 1468.06 2504.74 1468.47 2503.58 1469.11 2502.53 1469.93 2501.62 1470.66 2500.82 1545.37 2420.57 1653.37 2468.67 1656.4 2470 1659.71 2470.58 1663.01 2470.34 1666.32 2470.11 1669.51 2469.07 1672.32 2467.32 1699.14 2450.58 1770.1 2416.94 1850.04 2466.03 1853.25 2468 1856.95 2469.05 1860.71 2469.05 1864.48 2469.05 1868.17 2468 1871.39 2466.03 1909.71 2442.78 2007.18 2395.52 2084.97 2459.45 2086.82 2461.03 2087.99 2463.28 2088.2 2465.72 2088.42 2468.15 2087.68 2470.57 2086.13 2472.45 2084.58 2474.34 2082.35 2475.55 2079.93 2475.81 2077.5 2476.08 2075.07 2475.38 2073.15 2473.87 2004.58 2417.49 1915.98 2460.77 1881.05 2481.97 1874.92 2485.74 1867.86 2487.73 1860.66 2487.73 1853.46 2487.73 1846.4 2485.74 1840.27 2481.97 1769.24 2438.32 1706.04 2468.11 1682.2 2483.19 1676.8 2486.56 1670.66 2488.55 1664.31 2489 1657.96 2489.45 1651.6 2488.33 1645.78 2485.75 1549.94 2443.06 1484.35 2513.47 1483.69 2514.23 1482.81 2515.18 1481.74 2515.94 1480.56 2516.45 1479.37 2516.96 1478.09 2517.22 1476.79 2517.21zM2043.87 2271.58C2043.87 2283.47 2034.24 2297.33 2022.39 2297.33 2010.54 2297.33 2000.87 2283.47 2000.87 2271.58 2000.87 2259.7 2010.5 2246.67 2022.39 2246.67 2034.27 2246.67 2043.87 2259.7 2043.87 2271.58zM1837.29 1185.55L1822.36 1174.36C1821.7 1175.19 1821.24 1176.17 1821 1177.2 1821 1176.92 1822.01 1169.86 1813.83 1141.3L1812.79 1137.84 1814.52 1134.55C1815.01 1133.58 1864.94 1035.66 1843.04 941.999 1828.07 878.07 1786.46 831.12 1722.67 805.86 1698.79 796.47 1558.26 770.864 1498.41 785.625 1461.76 795.196 1427.29 811.736 1396.89 834.342L1344.92 884.169 1341.17 868.299C1340.93 867.26 1316.05 765.181 1261.48 765.181 1260.58 765.181 1259.68 765.181 1258.78 765.181 1249.14 765.771 1242.32 769.305 1237.99 775.992 1223.09 798.93 1237.68 852.222 1244.67 871.244 1246.86 876.13 1279.15 947.786 1304.83 976.372L1308.57 980.564 1306.59 985.866C1306.42 986.316 1289.79 1030.91 1288.71 1054.4L1270.11 1053.54C1271.11 1031.95 1282.65 997.578 1287.26 984.515 1259.71 950.835 1228.87 881.605 1227.52 878.556L1227.32 878.036C1224.4 870.24 1199.6 800.836 1222.36 765.875 1226.24 760.039 1231.48 755.233 1237.63 751.871 1243.79 748.51 1250.66 746.692 1257.67 746.575 1314.67 743.11 1344.5 815.874 1354.9 848.618L1384.8 819.963C1417.31 795.431 1454.36 777.578 1493.81 767.434 1558.19 751.564 1703.54 778.279 1729.43 788.432 1799.18 815.909 1844.7 867.502 1861.09 937.668 1882.51 1029.18 1841.76 1120.83 1832.65 1139.68 1843.28 1177.69 1839.26 1183.06 1837.29 1185.55z"></path><path fill="#00068C" d="M1350.36 866.185C1350.36 866.185 1423.12 786.145 1496.2 776.685C1569.27 767.226 1686.77 780.947 1705.69 791.515C1724.61 802.083 1819.62 816.325 1852.12 939.99C1867.95 1072.35 1822.77 1138.95 1822.77 1138.95C1822.77 1138.95 1827.52 1169.86 1844.18 1168.3C1844.18 1168.3 1865.6 1249.13 1899.62 1207.9C1899.62 1207.9 2000.11 1218.5 1971.77 1059.67C1971.77 1059.67 1944.05 1029 1974.95 1033.65C1974.95 1033.65 2001.11 1058.53 2024.29 1033.65C2024.29 1033.65 2050.45 953.468 1993.35 908.909C1993.35 908.909 2082.54 921.383 2049.83 870.794C2017.12 820.205 1960.09 804.959 1960.09 804.959C1983.41 807.152 2006.89 807.152 2030.22 804.959C2070.66 801.494 2045.08 769.305 2045.08 769.305C2045.08 769.305 2021.9 718.162 1923.22 713.415C1923.22 713.415 1900.63 689.16 1826.2 689.645C1826.2 689.645 1797.06 625.439 1685.9 633.755C1685.9 633.755 1666.29 629.597 1628.25 639.68C1628.25 639.68 1644.88 593.908 1569.97 608.183C1569.97 608.183 1487.92 635.522 1456.42 664.662C1456.42 664.662 1451.08 609.223 1411.37 636.146C1371.67 663.069 1350.36 713.796 1350.36 713.796C1350.36 713.796 1303.51 707.836 1319.73 794.357C1319.69 794.357 1346.89 839.055 1350.36 866.185Z"></path><path fill="#00068C" d="M1822.77 1138.88C1810.09 1119.86 1799.8 1086.56 1757.77 1088.95C1726.58 1090.72 1706.59 1113.2 1698.17 1124.85C1697.61 1125.62 1696.88 1126.26 1696.04 1126.72C1695.2 1127.18 1694.27 1127.44 1693.31 1127.49C1692.36 1127.55 1691.4 1127.39 1690.52 1127.03C1689.63 1126.66 1688.84 1126.11 1688.19 1125.4C1678.07 1114.56 1654.75 1093.63 1625.82 1094.22C1625.33 1094.21 1624.85 1094.1 1624.41 1093.88C1623.97 1093.66 1623.59 1093.34 1623.3 1092.94C1623.01 1092.55 1622.81 1092.09 1622.72 1091.61C1622.64 1091.13 1622.67 1090.63 1622.81 1090.16C1626.86 1076.3 1636.91 1031.6 1611.13 994.563C1580.22 950.177 1527.59 956.032 1513.63 958.908C1503.68 960.953 1486.7 971.278 1479.15 974.743C1478.18 975.178 1477.08 975.231 1476.07 974.89C1475.06 974.55 1474.22 973.842 1473.71 972.907C1461.69 950.731 1395.51 828.833 1387.6 820.171C1378.87 810.677 1363 834.446 1363 834.446C1363 834.446 1424.89 978.104 1448.52 995.533C1449.19 996.021 1449.66 996.733 1449.86 997.54C1450.05 998.348 1449.94 999.197 1449.56 999.934C1443.22 1013.34 1418.93 1068.82 1432.79 1107.14C1432.79 1107.14 1456.56 1188.77 1526.34 1183.37C1583.76 1178.8 1600.35 1138.81 1604.44 1124.78C1604.84 1123.41 1605.72 1122.23 1606.91 1121.46C1608.11 1120.69 1609.55 1120.38 1610.96 1120.58C1624.33 1122.49 1658.6 1129.77 1665.18 1154.19C1665.68 1156.13 1665.61 1158.16 1664.98 1160.05C1661.89 1170.45 1651.74 1207.35 1656.35 1231.74C1661.51 1259.08 1662.48 1298.93 1702.12 1313.17C1702.12 1313.17 1778.66 1324.15 1807.08 1264.87C1835.49 1205.58 1835.45 1157.83 1822.77 1138.88ZM1527.9 1154.92C1491.14 1154.92 1449.42 1114.31 1457.35 1073.88C1464.28 1037.81 1491.73 989.643 1528.49 989.643C1565.25 989.643 1600.42 1033.13 1600.42 1069.93C1600.42 1106.72 1564.67 1154.92 1527.9 1154.92ZM1794.39 1220.76C1792.6 1231.87 1788.97 1242.61 1783.65 1252.53C1779.89 1259.65 1774.58 1265.84 1768.11 1270.64C1761.64 1275.44 1754.17 1278.72 1746.26 1280.25C1735.4 1282.82 1723.98 1281.66 1713.86 1276.95C1703.73 1272.24 1695.48 1264.26 1690.44 1254.3C1682.95 1237.28 1682.22 1218.05 1688.4 1200.52C1699.18 1167.01 1740.96 1110.71 1774.82 1121.8C1811.93 1133.99 1802.15 1186.63 1794.39 1220.72V1220.76Z"></path><path fill="#00068C" d="M1542.14 1102.42C1555.25 1089.31 1558.13 1070.92 1548.56 1061.35 1538.99 1051.79 1520.61 1054.66 1507.5 1067.77 1494.39 1080.89 1491.51 1099.27 1501.08 1108.84 1510.65 1118.4 1529.03 1115.53 1542.14 1102.42zM1757.99 1218.96C1768.12 1203.43 1767.16 1184.85 1755.83 1177.45 1744.5 1170.06 1727.1 1176.65 1716.96 1192.17 1706.82 1207.7 1707.79 1226.29 1719.12 1233.68 1730.45 1241.08 1747.85 1234.49 1757.99 1218.96zM1558.64 1309.53C1554.64 1309.52 1550.71 1308.49 1547.24 1306.51 1532.09 1297.89 1511.79 1283.99 1500.98 1266.7 1500.28 1265.66 1499.81 1264.5 1499.57 1263.27 1499.34 1262.05 1499.35 1260.78 1499.61 1259.56 1499.87 1258.34 1500.38 1257.19 1501.09 1256.17 1501.81 1255.14 1502.73 1254.28 1503.78 1253.61 1504.84 1252.95 1506.02 1252.51 1507.26 1252.31 1508.49 1252.12 1509.75 1252.17 1510.96 1252.47 1512.17 1252.77 1513.31 1253.31 1514.31 1254.06 1515.31 1254.81 1516.15 1255.75 1516.78 1256.83 1523.71 1267.74 1537.57 1279.63 1556.45 1290.33 1556.97 1290.63 1557.55 1290.81 1558.15 1290.87 1558.75 1290.93 1559.35 1290.87 1559.92 1290.68 1560.51 1290.48 1561.06 1290.16 1561.53 1289.75 1562 1289.33 1562.39 1288.82 1562.66 1288.25L1613.69 1176.23C1614.79 1174.1 1616.66 1172.46 1618.93 1171.68 1621.19 1170.89 1623.68 1171 1625.86 1172 1628.04 1172.99 1629.76 1174.79 1630.65 1177.02 1631.54 1179.25 1631.53 1181.73 1630.64 1183.96L1579.6 1295.95C1578.27 1298.87 1576.36 1301.48 1573.97 1303.63 1571.59 1305.78 1568.78 1307.41 1565.74 1308.42 1563.44 1309.15 1561.05 1309.52 1558.64 1309.53zM1478.56 1322.45C1473.1 1322.48 1467.72 1321.18 1462.86 1318.68 1442.63 1308.28 1436.84 1280.25 1436.25 1277.1 1435.92 1275.75 1435.87 1274.35 1436.1 1272.98 1436.33 1271.61 1436.84 1270.3 1437.59 1269.14 1438.35 1267.97 1439.33 1266.97 1440.48 1266.19 1441.63 1265.42 1442.93 1264.89 1444.29 1264.63 1445.66 1264.37 1447.06 1264.4 1448.41 1264.7 1449.77 1265 1451.05 1265.58 1452.17 1266.39 1453.3 1267.2 1454.24 1268.24 1454.96 1269.43 1455.67 1270.62 1456.13 1271.94 1456.32 1273.32 1457.46 1279.21 1462.55 1295.57 1472.29 1300.56 1476.76 1302.84 1482.16 1302.5 1488.78 1299.45 1490 1298.89 1491.31 1298.57 1492.65 1298.52 1493.99 1298.47 1495.33 1298.68 1496.58 1299.15 1497.84 1299.61 1498.99 1300.32 1499.98 1301.23 1500.96 1302.14 1501.75 1303.24 1502.31 1304.45 1502.87 1305.67 1503.19 1306.99 1503.24 1308.32 1503.29 1309.66 1503.08 1311 1502.61 1312.26 1502.15 1313.51 1501.44 1314.66 1500.53 1315.65 1499.62 1316.63 1498.52 1317.42 1497.31 1317.98 1491.46 1320.82 1485.06 1322.35 1478.56 1322.45zM968.273 834.238C965.875 834.245 963.53 833.527 961.545 832.179 959.561 830.832 958.029 828.917 957.151 826.685 945.405 797.371 937.643 733.304 992.286 700.975 1016.54 686.526 1027.46 669.167 1024.37 649.347 1023.74 645.749 1022.2 642.372 1019.9 639.538 1017.59 636.705 1014.6 634.511 1011.2 633.166 1005.84 630.706 1000.01 629.432 994.105 629.432 988.203 629.432 982.37 630.706 977.005 633.166 946.202 647.441 929.881 696.228 929.708 696.714 928.616 699.599 926.454 701.953 923.671 703.285 920.888 704.617 917.699 704.824 914.767 703.865 911.834 702.905 909.385 700.852 907.928 698.133 906.471 695.413 906.118 692.237 906.943 689.264 907.706 686.838 926.59 630.186 966.853 611.44 975.189 607.554 984.259 605.495 993.456 605.399 1002.65 605.304 1011.76 607.174 1020.18 610.886 1027.38 613.804 1033.71 618.522 1038.57 624.59 1043.42 630.657 1046.63 637.87 1047.9 645.536 1050.6 662.687 1048.52 695.328 1004.34 721.488 953.825 751.391 978.218 815.042 979.257 817.711 980.428 820.665 980.377 823.963 979.117 826.881 977.856 829.798 975.489 832.095 972.535 833.268 971.188 833.856 969.742 834.185 968.273 834.238zM968.932 890.336H968.239C966.298 891.133 977.733 892.658 974.476 892.727 974.926 893.559 975.758 894.529 978.876 894.841 977.484 894.893 976.091 894.8 974.718 894.564 975.048 895.183 975.282 895.849 975.411 896.539 980.843 896.161 986.278 897.213 991.177 899.588 994.988 899.137 998.8 898.791 1002.68 898.652H1003.82L1005.87 897.855C1000.26 897.613 995.82 897.232 995.3 896.366 994.123 896.503 992.93 896.336 991.835 895.88H992.84L990.519 895.326C990.311 894.876 993.256 895.326 993.637 895.638 993.477 893.682 993.713 891.714 994.33 889.851 990.865 889.124 994.33 888.812 990.865 888.119 991.374 888.152 991.875 888.257 992.355 888.431 991.142 886.837 991.108 886.56 995.82 886.456 996.929 885.451 997.691 884.377 998.592 883.441 999.329 882.459 1000 881.429 1000.6 880.357 1000.81 880.118 1000.99 879.863 1001.16 879.595 996.069 877.756 991.83 874.12 989.237 869.373 987.527 869.629 985.802 869.756 984.074 869.754 982.896 869.754 981.752 869.754 980.609 869.581 980.609 870.032 980.955 870.482 981.752 871.175 980.729 870.862 979.792 870.317 979.015 869.581 977.144 869.581 981.614 871.695 979.985 871.764 979.297 871.765 978.615 871.635 977.975 871.383 979.396 872.388 978.772 873.289 979.223 873.878 978.149 873.598 977.041 873.47 975.931 873.497 973.679 876.962 971.634 880.808 973.817 885.035 969.555 885.035 971.634 883.718 968.724 883.58 972.189 884.203 969.382 884.377 970.352 885.763H969.833C970.491 886.386 968.204 886.317 969.174 887.01H970.075C972.223 887.876 965.328 887.634 969.729 888.535H967.13C971.045 889.574 965.744 889.297 968.932 890.336z"></path><path fill="#00068C" d="M989.618 905.582C999.875 905.582 1008.19 897.267 1008.19 887.01 1008.19 876.753 999.875 868.438 989.618 868.438 979.36 868.438 971.045 876.753 971.045 887.01 971.045 897.267 979.36 905.582 989.618 905.582zM984.489 608.98C983.415 609.673 985.182 611.406 983.796 610.124 983.935 608.98 984.108 608.114 984.489 608.98zM1009.75 717.781C1009.75 717.088 1009.92 716.36 1010.1 715.702 1011.92 709.75 1015.84 704.658 1021.11 701.357 1025.42 698.441 1030.32 696.524 1035.46 695.743 1038.49 692.7 1040.48 688.787 1041.18 684.551 1042.01 681.918 1047.79 681.086 1046.96 677.275 1046.55 676.478 1045.3 676.409 1045.02 675.785 1045.47 675.127 1046.55 676.478 1047.27 676.443 1045.85 674.157 1049.04 673.325 1049.67 671.419 1048.94 670.899 1048.87 670.31 1047.62 670.068 1051.78 669.202 1048 664.974 1051.09 663.519 1046.41 663.069 1048.97 661.613 1048.11 660.643 1048.38 660.262 1049.6 660.643 1050.43 660.816 1050.26 660.009 1050.31 659.172 1050.56 658.389 1050.82 657.605 1051.27 656.901 1051.88 656.347 1051.54 655.307 1049.08 654.718 1049.94 653.713 1053.2 653.297 1050.25 651.253 1051.5 650.248 1048.7 650.248 1046.65 648.932 1047.79 647.857L1051.71 648.238C1050.39 646.263 1050.95 644.046 1050.71 641.309 1050.77 639.937 1050.45 638.575 1049.77 637.384 1049.09 636.192 1048.08 635.221 1046.86 634.586L1048.94 633.547C1047.23 631.676 1045.78 629.591 1044.61 627.345 1044 626.209 1043.12 625.24 1042.05 624.522 1040.98 623.803 1039.75 623.357 1038.47 623.221 1038.55 622.419 1038.46 621.61 1038.22 620.842 1037.97 620.074 1037.58 619.363 1037.05 618.752 1034.52 619.098 1034.28 618.474 1031.47 620.311 1030.92 620.311 1031.82 618.544 1032.13 617.747 1031.13 616.118 1031.23 612.445 1028.04 614.732L1029.01 613.034C1026.62 613.97 1023.85 615.079 1023.4 612.48 1022.26 613.866 1020.63 613.831 1020.32 616.187 1019.62 616.187 1021.29 613 1019.94 614.698L1021.56 612.307C1020.12 611.491 1018.52 610.981 1016.87 610.808 1015.22 610.636 1013.55 610.804 1011.97 611.302 1011.97 607.837 1008.99 610.921 1007.7 608.738 1006.32 610.332 1005 607.421 1003.58 611.406L1003.82 609.465C1002.15 609.067 1000.54 608.438 999.042 607.594 998.072 606.936 997.76 609.812 996.86 610.713V608.772C995.847 610.648 995.178 612.69 994.884 614.801 994.365 613.415 994.191 614.801 993.637 613.416 994.595 611.645 995.284 609.741 995.681 607.768 994.642 606.832 993.221 611.718 992.736 608.669 991.835 607.872 991.073 608.668 990.934 611.233 991.142 610.401 990.38 609.708 990.934 608.565 990.276 608.565 989.826 608.842 989.375 609.881 989.375 609.881 989.687 610.193 989.826 610.124 989.444 612.099 988.786 611.96 988.89 614.905 989.237 614.143 989.271 613.693 989.687 613.935 989.444 615.98 988.37 616.534 988.093 614.698 987.816 612.861 988.925 611.233 988.405 610.02 987.816 611.544 987.296 613.069 986.742 614.594 987.088 614.074 987.504 615.252 987.365 616.915L988.058 615.633V617.747C989.237 617.019 989.964 619.202 991.212 617.539L990.83 615.356C991.523 615.356 992.424 612.376 992.944 614.94 992.678 615.933 992.584 616.965 992.667 617.989 992.667 617.608 993.083 616.811 993.256 617.123L992.771 620.761C993.394 615.91 994.781 619.098 995.127 618.336L994.954 619.029C995.855 620.657 994.954 616.984 995.647 616.95 996.201 617.608 995.647 620.934 995.889 622.494 996.86 622.494 998.973 619.93 999.666 622.91 1000.95 622.079 1002.05 621.008 1002.92 619.756 1003.72 619.756 1002.2 623.499 1003.3 621.974 1003.1 622.806 1002.99 623.672 1002.85 624.538H1003.86C1004 623.984 1004.07 623.413 1004.07 622.84 1004.48 623.328 1005.03 623.69 1005.64 623.886 1006.25 624.082 1006.91 624.104 1007.53 623.949 1007.32 623.949 1007.12 624.469 1006.91 625.058 1007.29 625.058 1007.67 625.266 1008.05 625.37 1008.61 624.919 1009.13 624.885 1009.51 625.37 1010.2 623.048 1009.85 622.979 1010.65 620.761 1010.89 620.449 1011.45 619.514 1011.65 619.756 1011.07 622.147 1009.92 625.751 1010.65 626.132 1011.71 626.535 1012.74 627.009 1013.73 627.553 1014 627.384 1014.29 627.267 1014.6 627.206 1014.81 627.206 1014.77 627.622 1014.6 628.003 1015.44 628.517 1016.25 629.084 1017.03 629.701 1017.58 628.775 1018.04 627.801 1018.41 626.79 1019 626.236 1019.8 625.543 1019.83 626.097 1018.24 628.315 1018.93 628.35 1017.58 630.082 1020.47 632.394 1022.84 635.301 1024.51 638.606 1025.2 638.606 1026.24 638.225 1025.03 639.126H1024.82C1026.35 638.537 1028.29 637.809 1028.67 638.086 1030.59 636.938 1032.74 636.228 1034.97 636.007 1034.52 637.566 1033.52 636.007 1030.99 637.532L1031.54 637.809C1029.5 638.73 1027.35 639.382 1025.13 639.749 1027.45 644.883 1028.1 650.618 1026.97 656.139 1029.67 656.936 1026.17 656.139 1027.87 656.97L1026.83 656.797C1026.83 657.178 1026.83 657.525 1026.62 657.906 1026.14 659.501 1025.5 661.044 1024.72 662.514 1024.72 663.38 1024.54 664.212 1024.41 665.044 1025.2 665.529 1025.76 666.014 1025.69 666.291 1026.87 667.192 1025.69 666.776 1024.2 666.291 1023.57 669.789 1022.48 673.19 1020.98 676.409 1021.19 676.538 1021.43 676.642 1021.67 676.721L1020.94 676.443C1019.13 680.331 1016.8 683.956 1014.01 687.219 1009.09 693.006 1002.54 696.956 997.033 702.084 993.707 705.198 989.6 707.354 985.148 708.321 985.132 708.494 985.132 708.668 985.148 708.841L984.871 708.356 983.346 708.598C983.346 708.598 983.346 708.945 983.519 709.118 983.693 709.291 983.519 708.91 983.519 708.876 985.113 710.123 985.425 712.341 984.697 712.341L984.42 711.959C983.797 712.445 984.42 713.449 983.831 713.935 982.722 713.207 983.831 713.207 982.861 712.202 980.643 709.499 980.02 711.509 979.639 711.266 979.862 712.025 980.213 712.74 980.678 713.38 980.678 714.524 979.223 711.925 978.946 712.341 979.846 714.558 980.782 716.706 981.752 718.855 981.752 718.127 979.361 716.741 978.98 715.39 978.218 716.568 980.262 720.137 981.094 722.32 980.401 722.077 980.47 723.948 980.262 724.329 978.911 723.117 980.609 724.329 979.708 723.047L977.802 721.869C978.218 721.072 975.515 719.513 974.961 718.162 975.238 719.548 973.124 719.721 971.946 720.068 975.411 722.424 972.258 722.424 974.822 724.884 974.441 726.166 972.327 723.29 971.357 723.082 971.53 724.988 970.006 725.23 969.555 726.547 969.364 726.393 969.19 726.218 969.036 726.027 969.036 727.552 967.165 728.21 969.036 730.982 968.481 730.497 967.858 730.151 967.58 729.596 965.917 729.769 971.045 732.541 968.689 732.299L967.442 731.017C968.377 732.68 965.259 731.433 966.991 733.72 966.467 733.405 966.017 732.979 965.675 732.472 965.848 733.616 965.016 734.239 966.645 735.937 965.737 735.517 964.941 734.887 964.323 734.101 962.66 734.101 966.541 736.491 965.12 736.526 964.843 736.526 963.388 736.249 963.388 736.076 964.566 737.219 964.046 738.189 964.393 738.848 963.485 738.511 962.519 738.358 961.551 738.397 960.264 740.214 959.408 742.301 959.048 744.498 958.688 746.695 958.833 748.946 959.472 751.079 955.8 750.871 957.601 749.589 955.106 749.381 958.086 750.143 955.626 750.282 956.458 751.807H956.007C956.562 752.5 954.552 752.361 955.384 753.158H956.181C958.052 754.163 952.057 753.782 955.834 754.856H953.617C957.082 756.069 952.335 755.687 955.072 756.935L954.483 756.727C952.785 757.593 957.948 759.36 955.037 759.395 955.453 760.331 956.146 761.405 958.814 761.786 957.647 761.812 956.482 761.684 955.349 761.405 956.596 764.87 955.557 768.335 959.403 771.072 958.865 771.175 958.313 771.175 957.775 771.072 961.066 772.666 954.621 774.849 960.824 775.715L963.422 775.992C962.487 776.443 960.685 776.547 959.957 776.928 961.655 777.136 960.547 778.452 962.799 778.452 962.108 778.53 961.411 778.53 960.72 778.452 960.269 779.284 964.012 779.769 963.284 780.566H962.14C958.433 784.863 956.042 790.961 962.14 792.971 963.249 793.629 958.953 794.079 959.334 794.391 964.739 796.574 958.675 802.395 966.506 803.435 968.932 805.237 976.901 803.435 976.901 803.435 972.813 799 974.406 793.04 977.629 787.427 976.728 785.902 975.134 783.962 976.174 782.125 975.549 778.873 975.949 775.508 977.317 772.493 978.01 769.27 979.396 766.706 978.079 763.692 977.037 763.827 975.979 763.62 975.065 763.102H976.139L974.164 762.41C973.991 761.924 976.52 762.41 976.867 762.825 976.752 760.674 976.998 758.519 977.594 756.45 974.684 755.618 977.594 755.306 974.649 754.475 975.097 754.517 975.532 754.647 975.931 754.856 974.926 753.054 974.892 752.777 978.946 752.742 979.916 751.633 980.609 750.455 981.44 749.451 982.272 748.446 982.584 747.198 983.242 745.986 983.9 744.773 984.559 743.768 985.217 742.521 986.019 741.441 986.937 740.454 987.955 739.575 991.44 734.103 995.622 729.106 1000.39 724.711 998.8 720.067 1001.33 721.038 1000.39 716.776L1001.09 718.058C1001.09 715.598 1002.65 717.538 1004.97 718.058 1004.1 716.637 1005.24 717.33 1003.58 715.113 1002.78 712.826 1006.53 717.919 1006.6 716.36 1007.12 717.157 1005.7 714.974 1006.32 715.598 1006.46 712.202 1006.8 716.395 1009.75 717.781zM985.737 608.634C986.307 610.075 986.463 611.647 986.187 613.173 986.083 611.683 985.702 610.054 985.737 608.634z"></path><path fill="#00068C" d="M972.016 722.32L972.085 722.181 974.095 724.225 972.016 722.32zM1262 587.844C1259.6 587.852 1257.25 587.136 1255.26 585.789 1253.27 584.441 1251.73 582.525 1250.84 580.29 1239.13 550.977 1231.37 486.909 1286.01 454.581 1310.27 440.132 1321.18 422.772 1318.06 402.953 1317.44 399.357 1315.91 395.981 1313.61 393.147 1311.31 390.314 1308.32 388.118 1304.93 386.771 1299.57 384.311 1293.73 383.038 1287.83 383.038 1281.93 383.038 1276.1 384.311 1270.73 386.771 1239.93 401.047 1223.61 449.799 1223.43 450.319 1222.45 453.342 1220.3 455.85 1217.46 457.289 1214.63 458.728 1211.33 458.982 1208.31 457.994 1205.29 457.006 1202.78 454.858 1201.34 452.021 1199.9 449.185 1199.65 445.893 1200.63 442.869 1201.43 440.444 1220.32 383.791 1260.54 365.046 1268.89 361.159 1277.96 359.099 1287.16 359.003 1296.37 358.908 1305.48 360.779 1313.9 364.491 1321.11 367.409 1327.44 372.128 1332.29 378.195 1337.15 384.262 1340.36 391.475 1341.62 399.141 1344.29 416.258 1342.25 448.933 1298.07 475.094 1247.24 505.17 1271.91 568.648 1272.98 571.316 1274.15 574.267 1274.1 577.558 1272.84 580.472 1271.59 583.386 1269.24 585.687 1266.3 586.874 1264.94 587.462 1263.48 587.791 1262 587.844zM1262.66 643.942H1261.96C1259.99 644.739 1271.46 646.263 1268.17 646.333 1268.65 647.164 1269.48 648.135 1272.57 648.446 1271.19 648.497 1269.81 648.404 1268.44 648.169 1268.76 648.796 1268.99 649.46 1269.14 650.144 1274.56 649.779 1279.99 650.817 1284.9 653.159 1288.71 652.743 1292.53 652.396 1296.37 652.258H1297.55L1299.59 651.461C1293.95 651.218 1289.55 650.837 1288.99 649.971 1287.81 650.108 1286.62 649.941 1285.53 649.486H1286.53L1284.24 648.931C1284 648.481 1286.95 648.931 1287.36 649.243 1287.18 647.287 1287.42 645.315 1288.06 643.457 1284.59 642.729 1288.06 642.417 1284.59 641.724 1285.1 641.761 1285.6 641.866 1286.08 642.036 1284.87 640.442 1284.83 640.165 1289.55 640.061 1290.65 639.056 1291.38 637.982 1292.32 637.047 1293.04 636.056 1293.71 635.027 1294.33 633.963 1294.54 633.72 1294.67 633.443 1294.88 633.2 1289.79 631.372 1285.55 627.734 1282.96 622.979 1281.25 623.233 1279.53 623.36 1277.8 623.36 1276.59 623.36 1275.44 623.36 1274.33 623.187 1274.53 623.84 1274.95 624.403 1275.51 624.781 1274.49 624.468 1273.55 623.922 1272.78 623.187 1270.87 623.187 1275.37 625.3 1273.75 625.37 1273.06 625.374 1272.37 625.245 1271.74 624.988 1273.16 625.993 1272.53 626.894 1272.98 627.483 1271.91 627.206 1270.8 627.077 1269.69 627.102 1267.4 630.567 1265.4 634.413 1267.54 638.641 1263.32 638.641 1265.36 637.324 1262.48 637.185 1265.95 637.809 1263.11 637.982 1264.11 639.368H1263.73C1264.36 639.992 1262.07 639.923 1263.04 640.616H1263.97C1266.12 641.516 1259.19 641.274 1263.63 642.175H1261.03C1264.77 643.18 1259.44 642.902 1262.66 643.942z"></path><path fill="#00068C" d="M1283.34 659.188C1293.6 659.188 1301.92 650.873 1301.92 640.616 1301.92 630.358 1293.6 622.043 1283.34 622.043 1273.09 622.043 1264.77 630.358 1264.77 640.616 1264.77 650.873 1273.09 659.188 1283.34 659.188zM1278.22 362.586C1277.14 363.279 1278.91 365.011 1277.52 363.729 1277.59 362.586 1277.83 361.72 1278.22 362.586zM1303.48 471.351C1303.55 470.653 1303.67 469.959 1303.82 469.272 1305.64 463.314 1309.55 458.217 1314.84 454.927 1319.14 452.004 1324.04 450.085 1329.19 449.314 1332.2 446.263 1334.2 442.353 1334.9 438.122 1335.73 435.489 1341.52 434.657 1340.69 430.846 1340.27 430.049 1338.99 429.98 1338.75 429.356 1339.2 428.697 1340.27 430.049 1340.97 430.014 1339.58 427.727 1342.77 426.896 1343.36 424.99 1342.63 424.47 1342.59 423.881 1341.35 423.639 1345.51 422.772 1341.73 418.545 1344.81 417.09 1340.13 416.639 1342.7 415.184 1341.8 414.214 1342.11 413.833 1343.32 414.214 1344.15 414.387 1343.99 413.58 1344.03 412.743 1344.29 411.959 1344.54 411.176 1345 410.472 1345.61 409.917 1345.23 408.878 1342.8 408.289 1343.67 407.284 1346.93 406.868 1343.98 404.824 1345.23 403.819 1342.42 403.819 1340.38 402.502 1341.52 401.428L1345.44 401.809C1344.08 399.834 1344.67 397.617 1344.43 394.879 1344.5 393.508 1344.18 392.146 1343.49 390.955 1342.81 389.763 1341.8 388.792 1340.59 388.157L1342.66 387.118C1340.96 385.247 1339.5 383.162 1338.33 380.915 1337.72 379.776 1336.84 378.804 1335.76 378.085 1334.69 377.366 1333.45 376.922 1332.17 376.792 1332.26 375.989 1332.18 375.175 1331.93 374.405 1331.69 373.634 1331.28 372.925 1330.74 372.322 1328.25 372.669 1328.01 372.045 1325.2 373.882 1324.65 373.882 1325.55 372.114 1325.86 371.317 1324.82 369.689 1324.96 366.016 1321.77 368.268L1322.71 366.605C1320.35 367.541 1317.58 368.649 1317.13 366.051 1315.95 367.437 1314.36 367.402 1314.01 369.758 1313.35 369.758 1315.01 366.57 1313.63 368.234L1315.29 365.877C1313.85 365.062 1312.25 364.552 1310.6 364.379 1308.95 364.206 1307.28 364.374 1305.69 364.873 1305.69 361.408 1302.71 364.491 1301.4 362.309 1300.04 363.902 1298.73 360.992 1297.27 364.977L1297.55 363.036C1295.88 362.644 1294.26 362.014 1292.77 361.165 1291.76 360.507 1291.45 363.383 1290.59 364.284V362.309C1289.58 364.199 1288.91 366.251 1288.61 368.372 1288.06 366.986 1287.88 368.372 1287.33 366.986 1288.32 365.225 1289.02 363.319 1289.41 361.338 1288.37 360.403 1286.95 365.254 1286.46 362.239 1285.56 361.442 1284.8 362.239 1284.63 364.803 1284.87 363.972 1284.11 363.279 1284.63 362.135 1283.93 362.135 1283.48 362.413 1283.07 363.452 1283.07 363.452 1283.34 363.764 1283.52 363.695 1283.14 365.67 1282.48 365.531 1282.55 368.476 1282.89 367.714 1282.93 367.263 1283.34 367.506 1283.1 369.55 1282.03 370.105 1281.78 368.268 1281.54 366.432 1282.58 364.803 1282.1 363.591 1281.52 365.115 1280.96 366.64 1280.43 368.164 1280.78 367.645 1281.2 368.823 1281.02 370.486L1281.75 369.204V371.317C1282.93 370.59 1283.62 372.738 1284.87 371.11L1284.52 368.927C1285.21 368.927 1286.12 365.947 1286.64 368.511 1286.37 369.504 1286.28 370.535 1286.36 371.56 1286.53 371.179 1286.77 370.382 1286.95 370.694L1286.39 374.367C1287.02 369.516 1288.37 372.703 1288.75 371.941L1288.58 372.634C1289.48 374.263 1288.58 370.59 1289.27 370.555 1289.82 371.214 1289.27 374.54 1289.51 376.099 1290.48 376.099 1292.56 373.535 1293.29 376.515 1294.56 375.674 1295.66 374.605 1296.55 373.362 1297.34 373.362 1295.82 377.104 1296.89 375.579 1296.7 376.425 1296.56 377.281 1296.48 378.143H1297.45C1297.63 377.596 1297.7 377.02 1297.65 376.446 1298.07 376.934 1298.62 377.296 1299.23 377.491 1299.84 377.687 1300.5 377.709 1301.12 377.554 1300.95 377.554 1300.74 378.074 1300.53 378.663 1300.91 378.663 1301.29 378.871 1301.67 378.975 1302.23 378.525 1302.75 378.49 1303.13 378.975 1303.82 376.654 1303.48 376.584 1304.27 374.367 1304.51 374.055 1305.07 373.119 1305.28 373.362 1304.69 375.753 1303.51 379.356 1304.27 379.737 1305.33 380.14 1306.36 380.615 1307.36 381.158 1307.62 380.99 1307.91 380.872 1308.22 380.812 1308.43 380.812 1308.4 381.193 1308.22 381.608 1309.07 382.114 1309.88 382.682 1310.65 383.306 1311.23 382.387 1311.7 381.397 1312.03 380.361 1312.66 379.841 1313.45 379.148 1313.49 379.703 1311.9 381.92 1312.59 381.955 1311.2 383.687 1314.1 385.992 1316.47 388.901 1318.13 392.211 1318.83 392.211 1319.86 391.83 1318.65 392.731H1318.44C1319.97 392.142 1321.74 391.414 1322.29 391.692 1324.21 390.544 1326.37 389.834 1328.6 389.613 1328.11 391.172 1327.14 389.613 1324.58 391.137L1325.17 391.414C1323.12 392.331 1320.97 392.983 1318.76 393.355 1321.08 398.488 1321.71 404.228 1320.56 409.744 1323.29 410.541 1319.8 409.744 1321.49 410.576H1320.45C1320.45 410.957 1320.45 411.303 1320.21 411.684 1319.74 413.279 1319.11 414.822 1318.34 416.293 1318.34 417.159 1318.17 417.991 1318.03 418.822 1318.83 419.307 1319.38 419.793 1319.31 420.07 1320.49 420.971 1319.31 420.555 1317.82 420.07 1317.18 423.569 1316.08 426.97 1314.56 430.187L1315.29 430.499 1314.56 430.222C1312.74 434.103 1310.41 437.726 1307.63 440.998 1302.68 446.785 1296.16 450.735 1290.62 455.863 1287.31 458.983 1283.21 461.14 1278.77 462.1 1278.75 462.273 1278.75 462.447 1278.77 462.62 1278.66 462.466 1278.57 462.303 1278.49 462.135L1276.97 462.377C1276.96 462.55 1276.96 462.724 1276.97 462.897 1276.97 462.897 1276.97 462.689 1276.97 462.654 1278.53 463.902 1278.84 466.119 1278.15 466.119L1277.83 465.738C1277.21 466.223 1277.83 467.228 1277.28 467.713 1276.14 466.986 1277.28 466.986 1276.28 465.981 1274.06 463.278 1273.47 465.288 1273.09 465.045 1273.31 465.804 1273.66 466.519 1274.13 467.159 1274.13 468.302 1272.64 465.703 1272.39 466.119 1273.3 468.337 1274.23 470.485 1275.2 472.633 1275.2 471.906 1272.81 470.52 1272.43 469.168 1271.67 470.347 1273.68 473.915 1274.54 476.098 1273.85 475.856 1273.88 477.727 1273.71 478.108 1272.36 476.895 1274.06 478.108 1273.12 476.826L1271.25 475.648C1271.67 474.851 1268.96 473.292 1268.41 471.94 1268.69 473.326 1266.57 473.5 1265.36 473.846 1268.83 476.202 1265.71 476.202 1268.27 478.662 1267.89 479.945 1265.78 477.069 1264.81 476.826 1264.81 478.766 1263.45 479.009 1263 480.291 1262.81 480.137 1262.64 479.962 1262.48 479.771 1262.48 481.296 1260.61 481.954 1262.48 484.726 1261.96 484.241 1261.34 483.895 1261.06 483.34 1259.37 483.513 1264.53 486.285 1262.17 486.043L1260.89 484.761C1261.86 486.424 1258.74 485.177 1260.47 487.464 1259.94 487.16 1259.49 486.732 1259.16 486.216 1259.33 487.36 1258.47 487.983 1260.13 489.681 1259.21 489.279 1258.41 488.647 1257.81 487.845 1256.14 487.845 1259.99 490.235 1258.6 490.27 1258.33 490.27 1256.84 489.993 1256.87 489.82 1258.05 490.963 1257.5 491.933 1257.88 492.592 1256.97 492.255 1256 492.102 1255.03 492.141 1253.75 493.958 1252.89 496.045 1252.53 498.242 1252.17 500.44 1252.32 502.69 1252.96 504.823 1249.25 504.615 1251.08 503.333 1248.56 503.125 1251.57 503.888 1249.11 504.026 1249.94 505.551H1249.49C1250.01 506.244 1248.04 506.105 1248.87 506.902H1249.66C1251.5 507.872 1245.51 507.526 1249.32 508.6H1247.07C1250.53 509.813 1245.82 509.431 1248.56 510.679L1247.97 510.471C1246.27 511.337 1251.43 513.104 1248.52 513.139 1248.9 514.075 1249.63 515.149 1252.3 515.53 1251.13 515.556 1249.97 515.428 1248.83 515.149 1250.08 518.614 1249.04 522.079 1252.89 524.816 1252.34 524.918 1251.77 524.918 1251.22 524.816 1254.69 526.41 1248.1 528.593 1254.31 529.459L1256.91 529.736C1255.94 530.187 1254.17 530.291 1253.44 530.672 1255.14 530.88 1254 532.196 1256.28 532.196 1255.59 532.274 1254.89 532.274 1254.2 532.196 1253.72 533.028 1257.67 533.513 1256.77 534.31H1255.59C1251.92 538.607 1249.53 544.705 1255.59 546.715 1256.73 547.373 1252.44 547.823 1252.82 548.135 1258.22 550.318 1252.16 556.139 1259.99 557.179 1262.42 558.981 1270.38 557.179 1270.38 557.179 1266.3 552.744 1267.89 546.784 1271.11 541.171 1270.21 539.646 1268.62 537.706 1269.66 535.869 1269.03 532.617 1269.43 529.252 1270.8 526.237 1271.49 523.014 1272.88 520.45 1271.53 517.436 1270.5 517.568 1269.45 517.362 1268.55 516.847H1269.41L1267.44 516.154C1267.23 515.668 1269.8 516.154 1270.11 516.569 1270.02 514.417 1270.28 512.265 1270.87 510.194 1267.92 509.362 1270.87 509.05 1267.92 508.219 1268.37 508.261 1268.81 508.391 1269.21 508.6 1268.17 506.798 1268.17 506.521 1272.22 506.486 1273.19 505.377 1273.88 504.199 1274.68 503.021 1275.36 501.901 1275.97 500.744 1276.52 499.556 1277.21 498.482 1277.8 497.339 1278.46 496.091 1279.27 495.011 1280.2 494.024 1281.23 493.146 1284.73 487.483 1288.99 482.319 1293.88 477.796 1292.28 473.153 1294.78 474.123 1293.88 469.861L1294.6 471.144C1294.6 468.683 1296.16 470.624 1298.49 471.144 1297.58 469.723 1298.76 470.416 1297.1 468.198 1296.3 465.911 1300.04 471.005 1300.11 469.446 1300.63 470.243 1299.18 468.06 1299.8 468.683 1300.18 465.807 1300.53 470 1303.48 471.351zM1279.46 362.239C1279.71 363.833 1280.43 364.665 1279.88 366.778 1279.81 365.288 1279.43 363.66 1279.46 362.239z"></path><path fill="#00068C" d="M1265.71 475.925L1265.81 475.787 1267.82 477.831 1265.71 475.925zM2254.44 879.56C2251.13 879.563 2247.89 878.574 2245.15 876.721 2242.41 874.869 2240.29 872.237 2239.05 869.165 2222.8 828.591 2212.1 739.991 2287.56 695.224 2321.31 675.231 2336.07 651.218 2331.95 623.845 2331.09 618.864 2328.96 614.188 2325.77 610.267 2322.58 606.347 2318.43 603.314 2313.72 601.461 2296.75 594.531 2281.26 594.531 2266.36 601.461 2230.88 617.955 2207.18 670.449 2201.01 689.299 2200.33 691.367 2199.24 693.28 2197.82 694.93 2196.4 696.579 2194.67 697.932 2192.72 698.912 2190.78 699.892 2188.66 700.479 2186.48 700.64 2184.31 700.8 2182.13 700.532 2180.06 699.849 2177.99 699.167 2176.08 698.084 2174.43 696.662 2172.78 695.24 2171.43 693.507 2170.45 691.562 2169.47 689.617 2168.88 687.498 2168.72 685.326 2168.56 683.154 2168.83 680.972 2169.51 678.904 2170.59 675.439 2196.71 597.165 2252.36 571.247 2275.75 560.367 2300.59 560.09 2326.16 570.484 2336.16 574.5 2344.96 581.021 2351.7 589.42 2358.45 597.818 2362.93 607.812 2364.69 618.44 2368.44 642.175 2365.56 687.323 2304.47 723.498 2234.55 765.078 2268.26 852.915 2269.82 856.657 2270.82 859.173 2271.18 861.893 2270.88 864.582 2270.59 867.27 2269.64 869.845 2268.12 872.082 2266.6 874.32 2264.55 876.152 2262.16 877.419 2259.77 878.686 2257.11 879.35 2254.4 879.353L2254.44 879.56zM2255.37 957.211L2254.4 956.968C2251.7 958.077 2267.54 960.19 2263 960.433 2263.66 961.576 2264.83 962.928 2269.1 963.343 2267.18 963.412 2265.27 963.285 2263.38 962.962 2263.81 963.831 2264.14 964.751 2264.35 965.7 2271.85 965.184 2279.36 966.629 2286.14 969.892 2291.41 969.303 2296.54 968.818 2302.05 968.645H2303.64C2304.58 968.229 2305.55 967.883 2306.48 967.502 2298.69 967.224 2292.62 966.67 2291.83 965.457 2290.2 965.654 2288.55 965.415 2287.04 964.764H2288.43L2285.24 963.967C2284.93 963.378 2289.02 963.967 2289.54 964.383 2289.31 961.688 2289.65 958.976 2290.51 956.414 2285.83 955.409 2290.51 954.958 2285.76 953.988 2286.47 954.035 2287.17 954.186 2287.84 954.438 2286.14 952.221 2286.11 951.874 2292.55 951.736 2294.11 950.315 2295.15 948.825 2296.43 947.543 2297.72 946.261 2298.2 944.667 2299.21 943.281L2299.93 942.242C2292.92 939.676 2287.07 934.653 2283.47 928.105 2281.1 928.414 2278.7 928.576 2276.3 928.59 2274.67 928.59 2273.08 928.59 2271.56 928.382 2271.82 929.269 2272.39 930.039 2273.15 930.565 2271.73 930.136 2270.44 929.376 2269.37 928.347 2266.74 928.347 2272.84 931.293 2270.72 931.362 2269.78 931.391 2268.83 931.226 2267.95 930.877 2269.89 932.228 2269.06 933.51 2269.65 934.342 2268.17 933.961 2266.64 933.786 2265.11 933.822 2261.96 938.534 2259.15 943.905 2262.17 949.795 2256.27 949.622 2259.15 947.959 2255.24 947.751 2260.05 948.652 2256.14 948.895 2257.49 950.8H2256.76C2257.66 951.667 2254.51 951.563 2255.82 952.533L2257.11 952.706C2260.09 953.919 2250.52 953.572 2256.62 954.854H2253.16C2258.18 956.102 2250.94 955.721 2255.37 957.211z"></path><path fill="#00068C" d="M2283.99 978.278C2298.19 978.278 2309.7 966.767 2309.7 952.567 2309.7 938.368 2298.19 926.857 2283.99 926.857 2269.8 926.857 2258.28 938.368 2258.28 952.567 2258.28 966.767 2269.8 978.278 2283.99 978.278zM2276.89 567.955C2275.44 568.89 2277.86 571.42 2275.96 569.514 2276.09 567.955 2276.37 566.742 2276.89 567.955zM2311.85 718.439C2311.95 717.461 2312.1 716.489 2312.3 715.528 2314.81 707.289 2320.23 700.244 2327.55 695.709 2333.5 691.655 2340.28 689.002 2347.4 687.947 2350.87 683.477 2354.85 678.869 2355.3 672.424 2356.45 668.786 2364.45 667.816 2363.31 662.376 2362.75 661.267 2360.99 661.163 2360.64 660.297 2361.23 659.396 2362.75 661.267 2363.72 661.232 2361.78 658.079 2366.22 656.901 2367.19 654.302 2366.18 653.609 2366.11 652.778 2364.35 652.431 2370.13 651.218 2364.9 645.501 2369.16 643.353 2362.68 642.764 2366.22 640.754 2365.01 639.403 2365.46 638.883 2367.12 639.195 2368.26 639.645 2368.02 638.526 2368.08 637.363 2368.43 636.273 2368.78 635.184 2369.42 634.207 2370.27 633.443 2369.75 631.988 2366.39 631.225 2367.57 629.978 2372.07 629.424 2367.99 626.513 2369.75 625.127 2365.87 625.3 2363.03 623.325 2364.62 621.662L2370.03 622.217C2368.19 619.514 2368.99 616.43 2368.64 612.861 2368.74 610.969 2368.29 609.09 2367.35 607.445 2366.41 605.8 2365.02 604.457 2363.34 603.575L2366.18 602.154C2363.84 599.554 2361.84 596.666 2360.22 593.561 2359.38 591.987 2358.16 590.645 2356.67 589.654 2355.19 588.663 2353.48 588.053 2351.7 587.879 2351.82 586.765 2351.7 585.639 2351.36 584.572 2351.02 583.504 2350.46 582.519 2349.73 581.676 2346.26 582.127 2345.91 581.33 2342.03 583.825 2341.27 583.617 2342.52 581.364 2342.97 580.36 2341.55 578.107 2341.69 573.049 2337.29 576.167L2338.6 573.811C2335.35 575.127 2331.67 576.652 2330.88 573.083 2329.25 574.954 2327.03 574.954 2326.58 578.211 2325.64 578.211 2327.97 573.811 2326.06 576.098L2328.35 572.841C2326.35 571.708 2324.14 571 2321.86 570.762 2319.57 570.523 2317.26 570.759 2315.08 571.455 2315.08 566.604 2310.92 570.9 2309.12 567.99 2307.21 570.207 2305.41 566.153 2303.43 571.663L2303.81 569.029C2301.49 568.464 2299.25 567.578 2297.16 566.396 2295.81 565.495 2295.36 569.48 2294.15 570.692V568.024C2292.75 570.624 2291.84 573.452 2291.44 576.375 2290.68 574.469 2290.44 576.375 2289.68 574.504 2291 572.032 2291.97 569.383 2292.55 566.638 2291.1 565.356 2289.09 572.078 2288.46 567.886 2287.22 566.777 2286.14 567.886 2285.93 571.351 2286.25 570.207 2285.21 569.237 2285.93 567.643 2285 567.643 2284.38 568.024 2283.79 569.445 2283.96 569.445 2284.2 569.895 2284.38 569.791 2283.86 572.529 2282.96 572.321 2283.09 576.444 2283.54 575.405 2283.61 574.746 2284.17 575.093 2283.86 577.9 2282.37 578.558 2282.02 576.132 2281.67 573.707 2283.13 571.42 2282.44 569.687 2281.64 571.766 2280.88 573.88 2280.15 575.994 2280.63 575.266 2281.19 576.895 2280.98 579.182L2281.95 577.414V580.36C2283.54 579.355 2284.55 582.335 2286.25 580.048L2285.76 577.033C2286.73 577.033 2287.98 572.91 2288.67 576.479 2288.31 577.857 2288.18 579.286 2288.29 580.706 2288.57 580.186 2288.88 579.043 2289.12 579.528L2288.36 584.552C2289.19 577.865 2291.1 582.3 2291.58 581.087L2291.38 582.023C2292.59 584.275 2291.37 579.182 2292.35 579.182 2293.11 580.048 2292.17 584.691 2292.66 586.839 2294.01 586.839 2296.92 583.374 2297.89 587.394 2299.66 586.244 2301.19 584.761 2302.39 583.028 2303.5 583.028 2301.39 588.19 2302.91 586.111 2302.64 587.251 2302.44 588.409 2302.32 589.576L2303.68 589.75C2303.89 588.984 2303.99 588.189 2303.95 587.394 2304.53 588.06 2305.27 588.557 2306.11 588.831 2306.95 589.106 2307.84 589.148 2308.7 588.953 2308.46 588.953 2308.15 589.646 2307.87 590.443 2308.39 590.443 2308.91 590.755 2309.43 590.893 2310.19 590.304 2310.92 590.235 2311.47 590.893 2312.41 587.705 2311.96 587.636 2313.03 584.552 2313.38 584.102 2314.14 582.785 2314.42 583.132 2313.62 586.597 2311.99 591.482 2313.07 591.967 2314.51 592.541 2315.92 593.2 2317.29 593.942 2317.67 593.719 2318.08 593.555 2318.51 593.457 2318.78 593.457 2318.75 594.012 2318.51 594.531 2319.71 595.233 2320.86 596.009 2321.97 596.853 2322.8 595.665 2323.48 594.386 2324.02 593.041 2324.81 592.314 2325.96 591.344 2325.99 592.106 2323.81 595.155 2324.74 595.224 2322.84 597.615 2326.87 600.785 2330.17 604.793 2332.5 609.361 2333.44 609.361 2334.93 608.876 2333.23 610.089H2332.95C2335.07 609.223 2337.53 608.253 2338.26 608.634 2340.93 607.037 2343.92 606.055 2347.02 605.758 2346.36 607.906 2344.98 605.758 2341.44 607.872L2342.24 608.218C2339.42 609.504 2336.46 610.424 2333.41 610.955 2336.62 618.042 2337.49 625.966 2335.9 633.582 2339.68 634.691 2334.83 633.582 2337.18 634.76L2335.73 634.517C2335.73 635.037 2335.55 635.557 2335.41 636.042 2334.75 638.256 2333.88 640.402 2332.82 642.452 2332.82 643.63 2332.57 644.774 2332.4 645.917 2333.47 646.575 2334.24 647.234 2334.13 647.58 2335.76 648.862 2334.13 648.308 2332.09 647.58 2331.21 652.377 2329.71 657.037 2327.62 661.44L2328.59 661.925 2327.58 661.509C2325.05 666.894 2321.81 671.916 2317.95 676.443 2311.02 684.448 2302.08 689.888 2294.42 696.991 2289.85 701.301 2284.18 704.283 2278.03 705.619 2278.02 705.861 2278.02 706.104 2278.03 706.346 2277.92 706.119 2277.79 705.9 2277.65 705.688L2275.57 706C2275.57 706.208 2275.75 706.485 2275.78 706.727 2275.82 706.97 2275.78 706.415 2275.78 706.381 2277.97 708.113 2278.42 711.232 2277.41 711.059L2277.03 710.539C2276.16 711.232 2277.03 712.618 2276.23 713.276 2274.67 712.271 2276.23 712.271 2274.85 710.885 2271.8 707.143 2270.93 709.915 2270.45 709.603 2270.74 710.651 2271.22 711.637 2271.87 712.514 2271.87 714.108 2269.82 710.504 2269.48 711.093 2270.72 714.142 2272.01 717.122 2273.36 720.068 2273.36 719.063 2269.89 717.157 2269.51 715.147 2268.47 716.776 2271.28 721.731 2272.42 724.676 2271.49 724.364 2271.56 726.963 2271.31 727.483 2269.41 725.785 2271.76 727.275 2270.48 725.681L2267.88 724.087C2268.44 722.943 2264.73 720.795 2263.93 718.959 2264.35 720.864 2261.4 721.107 2259.74 721.592 2264.38 724.849 2260.19 724.849 2263.76 728.245 2263.24 730.012 2260.29 726.027 2259.05 725.715 2259.29 728.383 2257.21 728.73 2256.55 730.324 2256.29 730.115 2256.05 729.884 2255.82 729.631 2256.03 731.745 2253.29 732.68 2255.82 736.561 2255.06 735.902 2254.2 735.417 2253.81 734.655 2251.53 734.898 2258.73 738.674 2255.37 738.363L2253.61 736.595C2254.96 738.882 2250.63 737.185 2253.02 740.338 2252.32 739.871 2251.72 739.27 2251.25 738.57 2251.53 740.13 2250.32 740.996 2252.6 743.525 2251.35 742.938 2250.25 742.073 2249.38 740.996 2247.09 740.996 2252.43 744.288 2250.49 744.461 2249.65 744.482 2248.83 744.278 2248.1 743.872 2249.73 745.431 2249 746.817 2249.48 747.718 2248.23 747.249 2246.9 747.026 2245.57 747.06 2242.73 752.223 2240.2 758.078 2242.66 764.627 2237.56 764.315 2240.09 762.548 2236.63 762.271 2240.79 763.31 2237.36 763.518 2238.5 765.736H2237.88C2238.64 766.706 2235.9 766.533 2237.04 767.642L2238.15 767.85C2240.72 769.236 2232.4 768.716 2237.67 770.206H2234.55C2239.19 771.904 2232.82 771.349 2236.63 773.047L2235.8 772.804C2233.41 773.983 2240.47 776.443 2236.56 776.477 2237.08 777.759 2238.08 779.249 2241.76 779.942 2240.1 779.975 2238.44 779.789 2236.84 779.388 2238.57 783.996 2237.11 789.021 2242.45 792.763 2241.7 792.918 2240.92 792.918 2240.16 792.763 2244.74 794.98 2235.83 797.995 2244.42 799.208L2247.89 799.554C2246.54 800.212 2244.08 800.386 2242.87 800.905 2245.26 801.183 2243.66 803.019 2246.82 802.984 2245.86 803.171 2244.88 803.229 2243.9 803.158 2243.28 804.336 2248.48 804.994 2247.37 806.138H2245.78C2240.65 812.097 2237.36 820.483 2245.78 823.289 2247.34 824.19 2241.38 824.814 2241.93 825.264 2249.41 828.279 2240.99 836.387 2251.84 837.773 2255.3 840.268 2266.18 837.773 2266.18 837.773 2260.5 831.64 2262.72 823.601 2267.19 815.632 2265.94 813.518 2263.72 810.711 2265.18 808.286 2263.59 803.816 2265.56 799.312 2266.74 794.98 2267.92 790.649 2269.65 786.942 2267.78 782.784 2266.35 782.992 2264.89 782.698 2263.66 781.952H2265.11L2262.37 781.051C2262.13 780.358 2265.66 781.051 2266.08 781.571 2265.96 778.601 2266.32 775.631 2267.12 772.77 2263.1 771.592 2267.12 771.176 2263.07 770.032 2263.69 770.1 2264.29 770.289 2264.83 770.587 2263.41 768.092 2263.38 767.711 2268.99 767.642 2270.34 766.117 2271.28 764.488 2272.46 763.102 2273.38 761.596 2274.22 760.033 2274.95 758.425 2275.92 756.935 2276.79 755.376 2277.69 753.851 2278.8 752.361 2280.08 751.001 2281.5 749.797 2286.04 743.664 2290.68 735.348 2298.82 728.522 2296.64 722.147 2300.14 723.463 2298.82 717.538L2299.79 719.305C2299.79 715.84 2301.94 718.612 2305.17 719.513 2303.95 717.538 2305.55 718.543 2303.23 715.459 2302.15 712.271 2307.31 719.34 2307.42 717.192 2308.15 718.266 2306.14 715.251 2307 716.152 2307.28 710.851 2307.76 716.533 2311.85 718.439zM2278.62 567.47C2279.39 569.468 2279.59 571.636 2279.21 573.741 2278.97 571.697 2278.55 569.41 2278.62 567.47z"></path><path fill="#00068C" d="M2259.64 724.711L2259.74 724.537L2262.51 727.344L2259.64 724.711Z"></path></svg>