<svg xmlns="http://www.w3.org/2000/svg" viewBox="0 0 4680 3120" id="student-doing-homework"><defs><clipPath id="a"><path fill="#d07f9d" d="M3344.1,2030.41c-34.81-65.83-135.09-13.35-100.89,52.76Z"></path></clipPath><clipPath id="b"><path fill="#d07f9d" d="M3559.88,2064.67c21.94-71.17-86.08-105-108.64-34Z"></path></clipPath><clipPath id="c"><path fill="#fff" d="M3552.37,2251.07c-3.65,213.67-321.47,213.63-325.09,0C3230.93,2037.4,3548.76,2037.44,3552.37,2251.07Z"></path></clipPath><clipPath id="d"><polygon fill="#fff" points="3758.32 2414.85 3782.3 2488.62 3798.22 2411.53 3758.32 2414.85"></polygon></clipPath><clipPath id="e"><polygon fill="#fff" points="3811.62 2411.95 3810.15 2489.5 3850.41 2421.85 3811.62 2411.95"></polygon></clipPath></defs><rect width="4680" height="3120" fill="#fff" opacity="0"></rect><path fill="#cacfea" d="M3903.24,2580.82C4020.57,1822.63,3699.43,317,2533.58,431c-649.73,63.52-652.1,577.93-903.48,669.4s-816.78,81-1026.49,529.86c-273.34,585.12,98.9,950.58,98.9,950.58Z"></path><rect width="59.38" height="295.45" x="3433.28" y="531.81" fill="#a195db" transform="rotate(-.31 3424.854 672.79)"></rect><rect width="153.76" height="163.11" x="2918.54" y="532.83" fill="#a195db" transform="rotate(-.31 2964.81 608.705)"></rect><rect width="153.76" height="163.11" x="3071.57" y="532.01" fill="#544a85" transform="rotate(-.31 3116.372 607.267)"></rect><path fill="#8e67c6" d="M2918.34,578.29q153.28,1.26,306.8-1.41a1.64,1.64,0,0,0,0-3.27q-153.28-.84-306.79,1.88a1.4,1.4,0,0,0,0,2.8Z"></path><rect width="279.36" height="132.92" x="2822.59" y="693.55" fill="#e6e0ff" transform="rotate(-.31 2933 752.783)"></rect><rect width="279.36" height="132.92" x="3100.62" y="692.06" fill="#a195db" transform="rotate(-.31 3208.394 751.68)"></rect><path fill="#8e67c6" d="M2822.43,731.27c185.59,2.1,371.82.22,557.4-2.75a1.64,1.64,0,0,0,0-3.27c-185.6-1-371.84-.87-557.39,3.22a1.4,1.4,0,0,0,0,2.8Z"></path><rect width="43.94" height="162.49" x="3551.04" y="850.12" fill="#f3ce90"></rect><rect width="43.94" height="162.49" x="2895.16" y="850.12" fill="#f3ce90"></rect><rect width="1082.32" height="47.62" x="2717.96" y="827.22" fill="#f3ce90"></rect><rect width="59.38" height="406.35" x="3491.52" y="421.63" fill="#e6e0ff" transform="translate(-3.29 18.86)"></rect><rect width="92.26" height="329.3" x="3551.2" y="497.36" fill="#9259a4" transform="rotate(-.31 3565.366 656.536)"></rect><path fill="#8e67c6" d="M3642 560.56c0 .88-20.65 1.6-46.13 1.6s-46.13-.72-46.13-1.6 20.65-1.6 46.13-1.6S3642 559.68 3642 560.56zM3642 546.72c0 .89-20.65 1.6-46.13 1.6s-46.13-.71-46.13-1.6 20.65-1.59 46.13-1.59S3642 545.84 3642 546.72zM3642 776.87c0 .88-20.65 1.6-46.13 1.6s-46.13-.72-46.13-1.6 20.65-1.6 46.13-1.6S3642 776 3642 776.87zM3642 763c0 .89-20.65 1.6-46.13 1.6s-46.13-.71-46.13-1.6 20.65-1.59 46.13-1.59S3642 762.15 3642 763zM3597.32 732.85c-.89 0-1.6-33.22-1.6-74.19s.71-74.21 1.6-74.21 1.6 33.22 1.6 74.21S3598.2 732.85 3597.32 732.85z"></path><rect width="100.43" height="248.55" x="3642.96" y="577.98" fill="#8e67c6"></rect><path fill="#8e67c6" d="M3536.31,490.85a17.07,17.07,0,1,1-17.06-17.06A17.06,17.06,0,0,1,3536.31,490.85Z"></path><rect width="10.55" height="241.73" x="3513.97" y="537.79" fill="#8e67c6"></rect><path fill="#fff" d="M862.45,828.74s274.78,604.38,334.73,1041.81h62S1131.86,1284.29,862.45,828.74Z"></path><path fill="#e6e0ff" d="M899.94,906.67s-70-48.6,0-163.31c93.27-286-515.56-112.45-324.69,363.57L691.91,998.05c-141.46,222.23-62,282.42,27.22,476.34l91.38-85.55s-64.16,112.77-62.22,126.38,138,196.37,138,196.37,287.75-404.4,291.64-425.79-161.38-165.26-161.38-165.26l192.48,130.26c23-94.78,142.23-446.06-106.93-478.28,0,0,87.49,5.83,136.1,35,0,0-17.5-180.82-157.49-165.26S964.1,743.36,960.21,799.74,899.94,906.67,899.94,906.67Z"></path><path fill="#7b83bb" d="M1604,725s-38.38-35-17.06-81c95.64-261.18-312-279.69-292.49,173.11l108.3-35.82s-90.39,74.19-93,120.24,133.88,335.13,133.88,335.13l60.55-72.48s-34.11,93.8-30.7,107.44,115.12,141.56,115.12,141.56,133.88-186.75,134.73-201.25-80.16-113.42-80.16-113.42l114.27,78.46s146.68-193.58,145.82-227.69-133.88-137.29-133.88-137.29l146.68,78.45s13.64-134.73-13.65-197l-127.06-51.17,120.24,28.14s-52-184.19-110.86-194.43-157.76,113.42-156,168.85S1604,725,1604,725Z"></path><path fill="#fff" d="M1197.18,1870.55s57-687.2,406.85-1145.6c0,0-315,645.74-344.9,1145.6Z"></path><path fill="#7a95c9" d="M1229,1870.55H913.27l92.26,443.82a50.07,50.07,0,0,0,49,39.87h348.82a50.06,50.06,0,0,0,49-39.87l92.27-443.82Z"></path><path fill="#ffbb96" d="M2103.28,1219.14s-20.75,122.18-53,152.15-94.52,64.54-94.52,64.54,34.58,83,76.08,106.05,200.55,13.83,242-4.62,48.41-92.21,48.41-92.21-59.94-34.57-83-46.1,41.5-147.54,41.5-147.54Z"></path><path fill="#ff917a" d="M2235.38,1394c-2.19-6.46-.81-17.84,2.58-31.45l-118.54-101.88s-26.76,113.84,6.91,126.79C2162.57,1401.36,2206.39,1398.44,2235.38,1394Z"></path><path fill="#38261f" d="M2239.29,1399c-2.68-1.34-4.16-4.38-4.71-8.68-19.53,3.41-51.63,5.78-91.41-3.17C2102.89,1378,2079,1359,2067,1346.48c-1.39,2.85-2.82,5.57-4.28,8.13,13.07,12.8,39.86,33.72,81.6,42,45.64,9.05,78.62,6,95.85,2.77Z"></path><path fill="#1a124c" d="M2418.33,1345.14c9.21-43.43,41.5-43,32.28-109.18-5-35.6-.23-85.77,10.75-105.87s28.13-104.2-22.8-165-114.73-37.38-114.73-37.38l-19.58,53.65c9.46,17.66,36.67,42.79,80.9,54.56s19.08,51.44,19.08,51.44-154.83,132.9-157.94,135.47,7.6,125.66,7.6,125.66,59.48,39,98.36,52.94C2430.63,1429.51,2409.13,1388.57,2418.33,1345.14Z"></path><path fill="#1a124c" d="M2436.41,1429.33l-3.32-5.54,1.66,2.77-1.66-2.77c1-.62,23.43-15.53,15.48-40.63-9.44-29.78,1.85-45.66,11.8-59.66,6.68-9.4,13-18.28,12.88-30.7-.11-12.13-5.7-22.35-12.18-34.18-10.42-19-22.23-40.62-16.36-77.77,2.32-14.64,7.4-30.4,12.77-47.08,13.71-42.54,27.88-86.52-1-118.69l4.52-4.41c31.5,35,16.06,83,2.43,125.24-5.29,16.43-10.29,31.95-12.53,46.07-5.51,34.88,5.71,55.38,15.61,73.47,6.63,12.11,12.89,23.54,13,37.37.13,14.59-7.09,24.76-14.08,34.59-10,14-19.34,27.21-10.92,53.79C2464,1411.19,2436.69,1429.15,2436.41,1429.33Z"></path><path fill="#ffbb96" d="M2340.16,924c108.88,43,134.46,137.45,95,237.29,0,0-35.32,64.44-37.62,69.53-.3.67-24.14,123.08-163,160.88-7.85,2.13-15.86-.57-23.64-3.73-161.94-65.87-80-215-80-215,2-8.69-15.31-117.73-11.95-126.25C2158.47,946.85,2231.28,881,2340.16,924Z"></path><path fill="#38261f" d="M2247.8,1290.4c11.23,6.9,20.18,8.47,21,8.6l1-6.12c-1.62-.27-39.76-7.19-56.67-60l-5.9,1.89C2217.13,1265.82,2234.16,1282,2247.8,1290.4Z"></path><path fill="#1a124c" d="M2302.53 1113.78c-2.64-11-45.51-16.39-47.4-16.39-14.3 0-14.78 9.41-14.63 12.7.09 1.92 5.3 2.11 16.56 5.4 24 7 31.24 15.24 38.93 11C2300.53 1124.07 2303.59 1118.18 2302.53 1113.78zM2373.7 1154.63c8.5-3.91 31.39 20.69 32.34 21.91 7.28 9.26 3.78 14.81 1.57 16.39-1.29.92-4.05-2.36-11.91-8-16.74-12-25.74-12.49-26.94-19.6C2368.05 1161.16 2370.32 1156.18 2373.7 1154.63z"></path><path fill="#38261f" d="M2294.47,1257.39c.65.13,16.11,3.26,25.23-6.51,7-7.48,8-20.1,3.07-37.51l-6,1.7c4.25,14.94,3.69,25.85-1.62,31.57-6.71,7.21-19.32,4.71-19.45,4.68Z"></path><path fill="#ffbb96" d="M2061.1,1122.41c-11.49,33,3.36,68.14,33.16,78.52s63.27-8,74.75-41-3.36-68.14-33.16-78.52S2072.58,1089.42,2061.1,1122.41Z"></path><path fill="#38261f" d="M2100,1153.94c7.89-5.18,23.41,1,28.72,3.87l3.51,1.86.95-3.85c3.75-15,2.53-27-3.62-35.73-7.77-11-20.52-12.37-21.06-12.42l-.6,6.17c.09,0,10.53,1.19,16.64,9.89,4.54,6.48,5.7,15.51,3.46,26.88-6.85-3-21.78-8.17-31.4-1.86Z"></path><path fill="#ff917a" d="M2129.87 1172.48C2141.59 1148 2159 1125 2159 1125a71.73 71.73 0 01-49.88 131.8C2109 1210.58 2129.87 1172.48 2129.87 1172.48zM2390.27 1254.13a224.51 224.51 0 01-69.05 94.45 71.66 71.66 0 0169.05-94.45z"></path><path fill="#38261f" d="M2244.29 1155.24c-2.69 7.22-1.47 14.34 2.74 15.91s9.8-3 12.49-10.23 1.47-14.34-2.74-15.91S2247 1148 2244.29 1155.24zM2358.45 1214.63c-2.45 6.57-1.34 13.06 2.5 14.49s8.93-2.74 11.38-9.32 1.34-13.06-2.5-14.49S2360.91 1208.05 2358.45 1214.63z"></path><path fill="#1a124c" d="M2395.05,1069.9c10.33,27.34,35.16,76.44,41.71,109.23,6.37,31.92,38.63-101.17,23.07-149.79s-60.19-79.93-73.77-81.45S2375.79,1018.87,2395.05,1069.9Z"></path><path fill="#1a124c" d="M2425.88,954.94c-1.23,6.68-5.92,29.65-7.77,35.54a38.36,38.36,0,0,1-1.37,5.79c-1.21,4-2.57,7.93-4.14,11.79a147.84,147.84,0,0,1-11.12,21.69,134.12,134.12,0,0,1-15,19.94c-5.27,5.78-11.28,12.06-18,16.16-.77.47-1.83-.48-1.16-1.23,2.6-2.94,5.63-5.55,8.33-8.41s5.39-5.83,7.94-8.87c3-3.56,5.76-7.27,8.44-11-68.19,72.71-221.83,36.06-221.83,36.06s18.81-37.48,10.33-56.78C2171.63,995.33,2239.54,812.58,2425.88,954.94Z"></path><path fill="#1a124c" d="M2239.52,817.1a76.24,76.24,0,1,0-49.78,95.64A76.24,76.24,0,0,0,2239.52,817.1Z"></path><path fill="#1a124c" d="M2204.51,851.33c-71.22,2.91-98.16,54.93-125.82,95.42-26.83,39.26-97.8,10.32-121.83,32.73-23.76,22.17-5.6,55.78-31.1,77.09-9.9,8.27-22,14.11-31.68,22.61-18,15.85-25.18,43.14-11.64,62.33,7.94,11.25,22.33,19.81,23.55,33.15.66,7.29-3,14.36-3.24,21.67-.41,10.47,6.17,20.35,14.87,27.15,16,12.52,35.39,13.09,53.58,21.16,47.07,20.91,32.12,36.23,58.76,64.88,26.21,28.17,56.45,23.88,56.45,23.88,32.74-13.39,43.5-40.36,48.66-78.81,5.32-39.6,20.73-28.39,59.49-56.07,39.83-28.44,31.79-36.64,42.34-75.78,10.87-40.31,37-39.44,76.65-67.45,40.73-28.74,36.2-55,36.2-55l46.12-43.44C2361,884.46,2276.67,848.39,2204.51,851.33Z"></path><path fill="#544a85" d="M2349.88,1001s-40.11,60.16-138,31.89c0,0,69.28-13.82,88.87-46.47,0,0-67.09,22.25-158.23-14.27,0,0,185,9.05,219.35-35.56,0,0-25.5,47.83-55.48,73.13C2306.35,1009.75,2340.06,1012.21,2349.88,1001Z"></path><path fill="#ffbb96" d="M2458.29,1539.57s43.8,57.63,69.16,140.62,85.29,355,92.21,428.78,25.36,142.92-39.19,145.23-103.74-20.75-138.32-117.57-66.85-380.37-57.63-470.27S2414.49,1528,2458.29,1539.57Z"></path><path fill="#ffbb96" d="M2608.69,2082.18S2988.27,2064.59,3031,2068c-8.2,33-22.94,94.32-22.94,94.32s-411.63,116.6-487.9,68.95C2591.16,2158.25,2608.69,2082.18,2608.69,2082.18Z"></path><path fill="#fff" d="M2379.91,1468.11s85.3,43.8,122.18,83S2610.44,1913,2610.44,1913s-122.18,13.83-168.29,18.44C2442.15,1820.81,2400.66,1553.4,2379.91,1468.11Z"></path><path fill="#fff" d="M2012.61,1392s-206.71,106-234.37,119.88c80.68,66.85,90.67,892.13,74.54,968.21,417.25,32.27,679.28-6.15,679.28-6.15s-59.94-690-73.77-816.83-23.05-163.68-23.05-163.68l-161.37-84.52s7.68,65.31-89.14,67.62S2070.24,1472.72,2012.61,1392Z"></path><path fill="#cacfea" d="M2509.05,2211.3c-15.94-180.68-37.58-375.4-48-481.93-14.69-80.75-43.42-245.15-43.42-245.15l-109.8-57.51c3.71,26.94,26.91,243.64,30,283,5.36,68.77-39.49,57.88-110.74,64.3-108.94,9.82-238.43,14.29-238.43,14.29-8.93-54.79-31.73-130.56-40.19-150.92-26.21-63.09-54.47-189.32-170.17-125.48,41.69,44.52,82.77,592.8,98.35,803.1,60.38-8.32,121.47-12.07,165.53-3.62,0,0-2.54-28.3-6.92-73.14Z"></path><path fill="#873363" d="M1854.31 1462.73s66.72 136.46 89.14 215.9c26.13 92.59 53.79 194.43 53.79 194.43l95.28-5.55s-26.12-122.22-64.54-238.88c-30.81-93.53-87.6-207.4-87.6-207.4zM2343 1447.16s32.27 351.83 30.73 392.57a391.65 391.65 0 0084.53 11.11l-23.05-357.38z"></path><path fill="#873363" d="M1977.93,1826l491.45-38.12,100.27,903-785.11,5.1,26.74-228.15s96.82-12.29,136.78-133.7S1977.93,1826,1977.93,1826Z"></path><path fill="#ffbb96" d="M1970.64,2287c-11.23-205.38-41.05-473.58-47.75-542.45C1909,1602,1819.05,1535.08,1770.38,1542.3c-60.38,9-103.41,192.38-93.23,295.15,19.38,195.78,28.91,351.47,81.23,488.26Z"></path><path fill="#ffbb96" d="M2311.76,2011.12c-24.27,8.51-231.11,92.3-410.42,128.54l2.33,199.84c205.64-53.82,426-195.9,461-209.58Z"></path><path fill="#fff" d="M1778.24,1511.91s-78.38,34.58-103.74,99.12-50.71,387.29-50.71,387.29,221.3-59.17,332-26.9c0,0-1.53-212.85-29.2-302.76C1907.27,1606,1875.06,1481.94,1778.24,1511.91Z"></path><path fill="#d07f9d" d="M2516.26,674c-10.29,9.9-18.72,6.31-18.72-8V620a26.05,26.05,0,0,0-26-26H2329.51a26.05,26.05,0,0,1-26-26V386a26.05,26.05,0,0,1,26-26h494.57a26,26,0,0,1,26,26V568a26,26,0,0,1-26,26H2625.41c-14.28,0-34.4,8.1-44.69,18Z"></path><path fill="#fff" d="M2793.6 433.73H2360a9.38 9.38 0 01-9.38-9.38h0A9.38 9.38 0 012360 415h433.6a9.37 9.37 0 019.37 9.37h0A9.37 9.37 0 012793.6 433.73zM2793.6 480.48H2360a9.38 9.38 0 01-9.38-9.38h0a9.38 9.38 0 019.38-9.37h433.6a9.37 9.37 0 019.37 9.37h0A9.37 9.37 0 012793.6 480.48zM2667.25 527.23H2361a9.38 9.38 0 01-9.37-9.37h0a9.38 9.38 0 019.37-9.38h306.24a9.38 9.38 0 019.38 9.38h0A9.38 9.38 0 012667.25 527.23z"></path><path fill="#664694" d="M3636.57,2267.06,643.39,2338.29c-22.49.54-44.1,18.5-54,44.64l-90.44,239c-14.39,38,5.93,78,39.64,78.56L3991.08,2760c210,0,223.87-112.42,163.47-153.9l-480-329.74C3665.12,2269.88,3652.07,2266.69,3636.57,2267.06Z"></path><path fill="#c0ade3" d="M4050.87,2652.31c54.83,0,96.74-7.39,127.79-19.14a73.73,73.73,0,0,0-24.11-27.07l-480-329.74c-9.44-6.48-22.49-9.67-38-9.3L643.39,2338.29c-22.49.54-44.1,18.5-54,44.64l-78.84,208.32Z"></path><path fill="#ffbb96" d="M1717.74,2174.17s28.06,144.31,51.07,165c41.74,37.47,107.92,18.66,142.13,6.36,28-10.07,113.51-45.92,113.51-45.92l-125.26-157.43Z"></path><polygon fill="#a195db" points="1195.56 2564.47 1640.75 2337.34 1247.7 2236.67 734.02 2495.78 1195.56 2564.47"></polygon><path fill="#f2f2f2" d="M750.4,2491.76l451.17,68.55c14.08-30.1,18.1-118.74-5.1-147.34l-451.22-70.9C751.56,2368.41,755.55,2467.64,750.4,2491.76Z"></path><path fill="#a195db" d="M1662,2427.27l-3.12-147.75-469.26,131.31c8.06,17.33,17.39,142.93,5.28,153.64Z"></path><path fill="#d07f9d" d="M1116.22,2500.56l24.27-21.27,38.62,27s-10-75.16,7.24-79c-3-.06-63.76-4.61-66.72-4.28C1111.8,2429.55,1116.22,2500.56,1116.22,2500.56Z"></path><polygon fill="#fff" points="1297.91 2380.54 1313.76 2376.1 1318.82 2528.08 1303 2532.73 1297.91 2380.54" opacity=".51"></polygon><polygon fill="#fff" points="1632.17 2436.04 1617.04 2440.48 1616.26 2440.5 1614.03 2292.07 1629.95 2287.62 1632.17 2436.04" opacity=".51"></polygon><polygon fill="#fff" points="1260.43 2391.02 1270.42 2388.23 1276.33 2388.06 1281.4 2539.07 1265.58 2543.72 1260.43 2391.02" opacity=".51"></polygon><path fill="#fff" d="M1390.33,2467.7a37.85,37.85,0,0,0,8.37-1.36l159-45c18.61-5.27,29.17-23.9,23.66-41.6s-25-27.8-43.73-22.5l-159,45c-18.6,5.27-29.17,23.9-23.66,41.59C1359.65,2458.87,1374.56,2468.41,1390.33,2467.7Z" opacity=".51"></path><path fill="#8e67c6" d="M732.59,2343.75l459.48,68.71,466.84-132.94-437.07-44.21Z"></path><path fill="#664694" d="M761,2333.35l303.57,43.85,24.51-5.45-296.3-43.22Z"></path><path fill="#8e67c6" d="M1558.81,2321.31l-494.47,53.78L759.86,2174.15l470.54-35.66,319.1,43Z"></path><path fill="#f2f2f2" d="M1055.81,2231.6l-295.95-57.45,14.7,158.58,289.78,42.36Z"></path><path fill="#664694" d="M1563.77,2181.74c1.16,5.73,7.72,127.43,8.46,138.91l-508.69,56.57c3.82-4.2.71-142.66-1.29-146.56-110-24.44-220.7-39.36-302.39-56.51l470.43-44.24C1352.29,2150.76,1441.77,2160.88,1563.77,2181.74Z"></path><path fill="#544a85" d="M991.85,2331.76l21.52-25.47,33.73,31.86s-8.16-89.32,7-94c-2.66,0-56-5-58.63-4.64C988.56,2247.33,991.85,2331.76,991.85,2331.76Z"></path><path fill="#664694" d="M1559.86,2181.67l-499.8,48.95-300.2-56.47L1229,2129.59Z"></path><path fill="#8e67c6" d="M1480.69 2262.24c.42 7.49 7.8 13.27 16.49 12.91s15.41-6.71 15-14.2-7.79-13.27-16.48-12.91S1480.28 2254.75 1480.69 2262.24zM1127.51 2303.89c.42 7.49 7.8 13.27 16.49 12.91s15.4-6.72 15-14.2-7.79-13.27-16.49-12.91S1127.1 2296.4 1127.51 2303.89z"></path><path fill="#8e67c6" d="M1103.5 2342.37l434.12-47.87-4-73.29-431.22 47.59zm428.28-52.12L1109 2336.9l-1-63.84 420.2-46.38zM785.15 2181.1l263.09 45.77 19.36-5.4L812.52 2176z"></path><path fill="#e5d8c0" d="M1472,2168.44l-422.51,55.36-263-159,405.09-37.49,274.71,45.22Z"></path><path fill="#f2f2f2" d="M1047.59,2120.93l-261.11-56.08,10.35,115.61,252.64,43.34Z"></path><path fill="#8e67c6" d="M1478.57,2072.83c1.18,8.17,5.93,86.93,6.19,95.19l-436.52,58.85c.31-14.11-.55-91.93-1.43-102.61-94.67-25.69-190-41.38-260.33-59.41l405-46.52C1296.51,2040.26,1373.54,2050.91,1478.57,2072.83Z"></path><g opacity=".51"><path fill="#fff" d="M1438.32,2174.28l-13.55,1.82-7.54-113.5,6.89-.51c2.22.42,4.6.91,6.83,1.35Z"></path><polygon fill="#fff" points="1124.81 2216.55 1118.63 2103.75 1132.24 2102.9 1138.37 2214.72 1124.81 2216.55"></polygon><polygon fill="#fff" points="1087.01 2108.76 1100.64 2108.07 1105.66 2219.13 1092.09 2220.96 1087.01 2108.76"></polygon></g><polygon fill="#c2b9f0" points="1475.21 2072.76 1044.93 2124.22 780.49 2063.47 1190.35 2018 1475.21 2072.76"></polygon><path fill="#fff" d="M1347.14,2136.07c.75,16.57,14.13,29.36,29.88,28.57s27.9-14.85,27.15-31.42-14.12-29.35-29.87-28.57S1346.4,2119.51,1347.14,2136.07Z" opacity=".51"></path><polygon fill="#fff" points="3047.55 2217.64 2492.59 2220.77 2261.4 2256.14 2827.41 2304.91 3047.55 2217.64"></polygon><polygon fill="#7a95c9" points="2939.22 2287.87 2373.16 2238.83 2473.76 2211.81 3047.55 2217.64 2939.22 2287.87"></polygon><path fill="#fff" d="M2941.93,2286.55l-566-48.76c31.88-89.56,80.66-163.66,128.61-184.65,13.69,1.14,561.58,51.38,568.43,51.91C3009.64,2142.71,2965.78,2216.75,2941.93,2286.55Z"></path><polygon fill="#7a95c9" points="2821.34 2399.18 3063.88 2300.89 3062.72 2315.87 2820.37 2414.18 2821.34 2399.18"></polygon><polygon fill="#b7beeb" points="2821.34 2399.18 2219.65 2347.34 2218.68 2362.34 2820.37 2414.18 2821.34 2399.18"></polygon><polygon fill="#7a95c9" points="2821.34 2399.18 2219.65 2347.34 2485.67 2306.11 3063.88 2300.89 2821.34 2399.18"></polygon><polygon fill="#f2f2f2" points="2820.53 2393.86 3040.66 2306.59 3047.55 2217.64 2827.41 2304.91 2820.53 2393.86"></polygon><polygon fill="#f2f2f2" points="2820.53 2393.86 2254.52 2345.09 2261.4 2256.14 2827.41 2304.91 2820.53 2393.86"></polygon><path fill="#7a95c9" d="M2952.58,2172c19-28.76,40.72-51.75,62.25-61.72-6.21-.48-118.59-10.81-131-11.85-21.42,9.95-45.39,33.49-67.45,66.11Z"></path><path fill="#d1d1d1" d="M2816.06,2099.84c-44.22,43.76-71.94,101.45-87.37,142.12a3.5,3.5,0,0,0,2,4.56l1,.24a3.52,3.52,0,0,0,3.49-2.27c15.21-40,42.42-96.77,85.76-139.64a3.53,3.53,0,1,0-5-5ZM2802,2187.12c-12.26,21.5-19.09,38.7-28.12,62.49a3.49,3.49,0,0,0,2,4.55l1,.25a3.51,3.51,0,0,0,3.49-2.27c9.19-24.2,15.64-40.41,27.7-61.51a3.52,3.52,0,0,0-1.35-4.81A3.61,3.61,0,0,0,2802,2187.12Zm41.72,2.63a486.76,486.76,0,0,0-28.52,62.15,3.5,3.5,0,0,0,2.05,4.53l1.05.24a3.5,3.5,0,0,0,3.49-2.29,486.31,486.31,0,0,1,28.1-61.26,3.52,3.52,0,1,0-6.17-3.37Zm38.8,3c-12.28,21.85-19.83,39.66-28.06,61.29a3.51,3.51,0,0,0,2.06,4.55l1,.24a3.49,3.49,0,0,0,3.48-2.27c8.12-21.34,15.57-38.89,27.64-60.34a3.53,3.53,0,0,0-1.34-4.81A3.43,3.43,0,0,0,2882.5,2192.74Zm47.34,1a3.44,3.44,0,0,0-4.82,1.34c-12.28,21.9-19.84,39.7-28,61.29a3.49,3.49,0,0,0,2,4.55l1.05.24a3.49,3.49,0,0,0,3.48-2.27c8.11-21.31,15.51-38.85,27.59-60.34A3.53,3.53,0,0,0,2929.84,2193.73Zm-150.43-98.43a3.52,3.52,0,0,0-5,0c-40.58,42.88-69.29,101.87-85.47,144.53a3.5,3.5,0,0,0,2,4.55l1,.24a3.47,3.47,0,0,0,3.48-2.27c16-42,43.48-100.8,84-142.13A3.49,3.49,0,0,0,2779.41,2095.3Zm-40.14-2.11a3.52,3.52,0,0,0-5,0c-41.32,42.18-69.29,101.88-85.47,144.54a3.5,3.5,0,0,0,2,4.55l1,.24a3.48,3.48,0,0,0,3.48-2.28c16-42,43.48-100.8,84-142.13A3.49,3.49,0,0,0,2739.27,2093.19Zm-39.13-2.05a3.52,3.52,0,0,0-5,.05c-41.27,42.11-69.29,101.85-85.52,144.53a3.51,3.51,0,0,0,2.05,4.55l1,.24a3.49,3.49,0,0,0,3.48-2.27c16-42.06,43.57-100.87,84-142.12A3.49,3.49,0,0,0,2700.14,2091.14Zm-41.6-2.19a3.5,3.5,0,0,0-5,.05c-41.37,42.25-69.34,101.95-85.53,144.56a3.51,3.51,0,0,0,2.06,4.55l1,.24a3.49,3.49,0,0,0,3.48-2.27c16-42,43.48-100.76,84-142.15A3.52,3.52,0,0,0,2658.54,2089Zm-41.56-2.18a3.5,3.5,0,0,0-5,.05c-40.64,43-69.34,101.95-85.52,144.55a3.49,3.49,0,0,0,2,4.55l1,.25a3.49,3.49,0,0,0,3.48-2.27c16-42,43.47-100.74,84-142.15A3.52,3.52,0,0,0,2617,2086.77Zm-42.57-2.21a3.49,3.49,0,0,0-5,.05c-41.37,42.24-69.34,101.91-85.52,144.53a3.5,3.5,0,0,0,2.05,4.55l1,.24a3.52,3.52,0,0,0,3.49-2.27c16-42,43.47-100.74,84-142.13A3.51,3.51,0,0,0,2574.41,2084.56Zm-45.46-2.38a3.52,3.52,0,0,0-5,.05c-40.58,42.87-69.34,101.88-85.53,144.53a3.51,3.51,0,0,0,2.06,4.55l1,.24a3.47,3.47,0,0,0,3.48-2.27c16-42,43.48-100.83,84-142.13A3.51,3.51,0,0,0,2529,2082.18Z"></path><polygon fill="#664694" points="2947.13 2343.1 2949.52 2342.73 2954.32 2255.08 2953 2255.15 2951.93 2255.31 2947.13 2343.1"></polygon><path fill="#7a95c9" d="M2960.48,2338.92c-2.58-2.47-6.84-3.71-12.11-1.91-5.71,1.94-9.06,6.12-9.7,10.13Z"></path><path fill="#ffbb96" d="M3061.1,2052.77s-65.32,5-76.27,2.23-49.81,105.86-42.67,118.62,65.65,14.79,77.47,10.64,60.27-72.33,73.91-86.43C3084.35,2081.13,3061.1,2052.77,3061.1,2052.77Z"></path><path fill="#f29d77" d="M2414.64,1875.81c16.62-1.9,94.67.89,86.94,16.6-6.21,12.62-156.29,67.72-157.89,53.75C2354.48,1926.66,2398,1877.72,2414.64,1875.81Z"></path><path fill="#fff" d="M2131.52,1895.28c.76-11.64,5.24-20.93,10-20.74l1,.16,33.78,1.34-2.76,42.18-34.77-1.38C2134,1916.47,2130.76,1906.81,2131.52,1895.28Z"></path><path fill="#d8d7d6" d="M2173.27,1875.37l-2.74,43.9-14.38-.81,2.74-43.9Z"></path><path fill="#f3ce90" d="M2639.54,1922.93l-35.13,14.29-21.94-.81-.59-42.31,25.33,1,32.39,16.93C2639.58,1915.57,2639.4,1919.32,2639.54,1922.93Z"></path><path fill="#664694" d="M2632.76,1925.62l1.08-16.57s13.41,4.67,13.21,8.93S2632.76,1925.62,2632.76,1925.62Z"></path><polygon fill="#a195db" points="2172.97 1876.09 2607.21 1895.13 2594.78 1905.2 2605.83 1916.22 2593.4 1926.29 2604.41 1937.22 2170.21 1918.27 2172.97 1876.09"></polygon><path fill="#8e67c6" d="M2173 1876.09l434.24 19-12.43 10.07-422.5-18.56zM2593.4 1926.29l11 10.93-434.2-19 .69-10.54z"></path><path fill="#ffbb96" d="M2472.31,2004.36c18.19,2.62,21.23,31.41,11.29,40.19-7.45,6.59-21.7,7.06-11.24,8.4,11.52,1.48,31.59,17.93,0,40.12-14.86,10.44-104.93,36.65-111,35.86-25.38-3.35-55.73-31.54-60.62-65.55-.74-27.07,11.12-74,45.41-122.29,38.2-14.11,80.53-38,104.57-44.87,56.93-16.31,78.49-24.78,81.07-12.2,4.88,23.78-38.65,49.54-66.16,58.8-16.91,7.66-28.06,14.33-40.33,21.23-.5,5.73,36.41-9.1,57.8-14.36,14.12,4.94,13.63,37.61-4.08,45.71-17,7.78-42.48,17.42-54.29,22.73C2436.15,2016.54,2458.92,2009.42,2472.31,2004.36Z"></path><path fill="#664694" d="M3597.65,2386a15.68,15.68,0,0,1-13.39-14.41l60.22-701.6L3167.25,1114a15.69,15.69,0,1,1,18.66-25.23l488.85,564.5-59.2,716A15.74,15.74,0,0,1,3597.65,2386Z"></path><path fill="#361852" d="M3352.87,2444.05l.06-32.8a36.52,36.52,0,0,1,36.58-36.45l368.23.61a36.46,36.46,0,0,1,36.42,36.57l0,32.79Z"></path><path fill="#544a85" d="M3432,2374.86l.06-48.43a73.56,73.56,0,0,1,73.67-73.41l136.15.23a73.49,73.49,0,0,1,73.38,73.68l-.06,48.4Z"></path><path fill="#664694" d="M3586.6,1533.56c-12.18,75.18-124.28,59-114.66-16.57C3484.12,1441.81,3596.22,1458,3586.6,1533.56Z"></path><path fill="#351852" d="M3560.79,1529.83c-6.7,41.33-68.33,32.42-63-9.11C3504.45,1479.39,3566.07,1488.31,3560.79,1529.83Z"></path><path fill="#544a85" d="M3143.24,1104.62a80.8,80.8,0,1,0,111.8-23.53A80.84,80.84,0,0,0,3143.24,1104.62Z"></path><path fill="#243262" d="M3130,1147.84s20.8-2.38,64.46,26.09,49.84,48.49,49.84,48.49l-36.46,255.39s-45.88,7.4-165.53-70.61-131.35-123-131.35-123Z"></path><path fill="#664694" d="M2911,1284.2s12.55,59.91,123.17,131.51,173.71,62.1,173.71,62.1-55-72.58-135.44-128.52S2911,1284.2,2911,1284.2Z"></path><path fill="#fff" d="M3131,1396.07a80.79,80.79,0,0,1-120.69-81.84,390.66,390.66,0,0,1,62.13,35.06A597,597,0,0,1,3131,1396.07Z"></path><polygon fill="#873363" points="3271.82 2537.66 3245.56 2537.66 3327.49 2401.09 3353.75 2401.09 3271.82 2537.66"></polygon><polygon fill="#873363" points="3512.3 2537.66 3538.56 2537.66 3456.62 2401.09 3430.36 2401.09 3512.3 2537.66"></polygon><path fill="#873363" d="M3325.25,2093.2l-19.72,10.31-49-93.75a11.13,11.13,0,0,1,19.72-10.31Z"></path><path fill="#d07f9d" d="M3344.1,2030.41c-34.81-65.83-135.09-13.35-100.89,52.76Z"></path><g clip-path="url(#a)"><path fill="#d996ac" d="M3315.52,1997.2s-30.2,57.72-81.31,83.73C3195.52,2016.87,3271.83,1985.65,3315.52,1997.2Z"></path></g><path fill="#873363" d="M3502.15,2095.74l-21.23-6.65,31.63-101a11.12,11.12,0,0,1,21.23,6.65Z"></path><path fill="#d07f9d" d="M3559.88,2064.67c21.94-71.17-86.08-105-108.64-34Z"></path><g clip-path="url(#b)"><path fill="#d996ac" d="M3563.16,2021s-62.17,19.47-116.7,1.71C3464.39,1950,3540.43,1981.91,3563.16,2021Z"></path></g><path fill="#873363" d="M3414,2448.35c-259.27-4.65-259.23-389.95,0-394.56C3673.3,2058.44,3673.26,2443.74,3414,2448.35Z"></path><path fill="#d07f9d" d="M3389.83,2448.35c-259.27-4.65-259.23-389.95,0-394.56C3649.09,2058.44,3649.05,2443.74,3389.83,2448.35Z"></path><path fill="#fff" d="M3552.37,2251.07c-3.65,213.67-321.47,213.63-325.09,0C3230.93,2037.4,3548.76,2037.44,3552.37,2251.07Z"></path><g clip-path="url(#c)"><path fill="#e6e0ff" d="M3480.73,2088.52c88.74,201.88-140.44,321-283.82,213.19C3331.51,2622.84,3774.29,2331.42,3480.73,2088.52Z"></path></g><polygon fill="#873363" points="3395.89 2141 3382.64 2217.61 3395.89 2244.83 3409.13 2217.61 3395.89 2141"></polygon><polygon fill="#873363" points="3468.37 2279.94 3427.35 2249.77 3406.27 2255.78 3417.75 2274.45 3468.37 2279.94"></polygon><path fill="#351852" d="M3417.44,2249.77c-.48,28.34-42.63,28.33-43.11,0C3374.81,2221.44,3417,2221.44,3417.44,2249.77Z"></path><path fill="#664694" d="M3391.89,2391.49c-2.5-.07-5-.24-7.49-.42l1-12.7c2.2.17,4.45.3,6.68.39C3391.85,2381.84,3391.82,2388.37,3391.89,2391.49Zm24.33-2.1-2.18-12.54c2.19-.38,4.39-.83,6.54-1.32l2.83,12.42C3421.05,2388.49,3418.63,2389,3416.22,2389.39Zm-55.78-1.83c-2.38-.53-4.77-1.11-7.09-1.74l3.31-12.3c2.14.58,4.33,1.12,6.52,1.6Zm86.23-7.08-4.93-11.75c2-.85,4.08-1.77,6.07-2.74l5.54,11.47C3451.16,2378.52,3448.92,2379.53,3446.67,2380.48Zm-116.26-2.88c-2.22-1-4.44-2.1-6.6-3.22l5.89-11.3c2,1,4,2,6,2.93ZM3474.34,2365l-7.42-10.35c1.8-1.29,3.59-2.65,5.32-4l8,9.95C3478.29,2362.08,3476.32,2363.57,3474.34,2365Zm-171.11-3.86c-1.94-1.51-3.84-3.09-5.68-4.69l8.4-9.58c1.65,1.45,3.37,2.88,5.12,4.24Zm194.66-17.39-9.53-8.45c1.48-1.66,2.92-3.38,4.3-5.11l10,7.94C3501.1,2340,3499.51,2341.91,3497.89,2343.74Zm-217.18-5.09c-1.51-1.93-3-3.92-4.39-5.93l10.44-7.29c1.27,1.81,2.6,3.61,4,5.35Zm235.45-20.86-11.17-6.12c1.07-1.94,2.1-3.94,3.06-5.94l11.48,5.53C3518.47,2313.46,3517.33,2315.65,3516.16,2317.79Zm-252-6.29c-1-2.21-2-4.48-2.9-6.75l11.83-4.72c.82,2.06,1.71,4.13,2.64,6.14Zm264-23.09-12.25-3.47c.6-2.12,1.15-4.3,1.65-6.47l12.41,2.82C3529.46,2283.68,3528.85,2286.07,3528.19,2288.41Zm-274-7c-.52-2.38-1-4.8-1.37-7.2l12.57-2.06c.36,2.19.78,4.4,1.25,6.58Zm279.18-24.31-12.72-.65c.12-2.32.17-4.68.17-7h12.73C3533.53,2252,3533.47,2254.57,3533.34,2257.1Zm-269.8-7.18H3250.8c0-2.42.06-4.88.17-7.31l12.72.6C3263.59,2245.45,3263.54,2247.7,3263.54,2249.92Zm255.3-22.61c-.38-2.2-.83-4.4-1.32-6.55l12.41-2.85c.54,2.36,1,4.78,1.45,7.19Zm-252.29-6.22-12.46-2.65c.51-2.39,1.08-4.79,1.7-7.13l12.31,3.28C3267.53,2216.72,3267,2218.91,3266.55,2221.09Zm244.13-21.47c-.86-2-1.79-4.08-2.75-6.07l11.45-5.56c1.07,2.19,2.08,4.44,3,6.67Zm-235.08-6-11.58-5.3c1-2.21,2.11-4.43,3.23-6.59l11.29,5.91C3277.51,2189.61,3276.52,2191.62,3275.6,2193.63Zm220.93-19.17c-1.29-1.79-2.65-3.58-4-5.31l9.93-8c1.53,1.9,3,3.86,4.44,5.83Zm-206-5.46-10-7.83c1.5-1.93,3.08-3.84,4.68-5.68l9.59,8.39C3293.32,2165.53,3291.9,2167.26,3290.54,2169Zm186.61-15.94c-1.66-1.47-3.39-2.91-5.12-4.3l7.93-10c1.9,1.51,3.79,3.1,5.62,4.71Zm-166.33-4.43-7.87-10c1.92-1.51,3.91-3,5.91-4.38l7.3,10.43C3314.35,2145.94,3312.56,2147.27,3310.82,2148.63Zm142.68-12.16c-1.95-1.06-4-2.09-5.95-3l5.51-11.48c2.19,1,4.39,2.18,6.54,3.35Zm-118.09-2.81-5.32-11.57c2.2-1,4.47-2,6.74-2.89l4.72,11.83C3339.47,2131.85,3337.41,2132.74,3335.41,2133.66Zm91.34-8.09c-2.13-.59-4.31-1.14-6.47-1.63l2.8-12.43c2.37.54,4.77,1.15,7.11,1.8Zm-63.88-1.08-2.77-12.43c2.35-.53,4.76-1,7.15-1.43l2.21,12.55C3367.26,2123.56,3365,2124,3362.87,2124.49Zm35.38-3.54c-2.12-.1-4.29-.17-6.43-.16h0c0-.26-.51-12.45-.51-12.72,2.52-.05,5.07,0,7.58.16Z"></path><path fill="#361852" d="M3959.25,2583.79c0,15.65-67.74,28.34-151.31,28.34s-151.31-12.69-151.31-28.34,67.75-28.34,151.31-28.34S3959.25,2568.14,3959.25,2583.79Z"></path><path fill="#544a85" d="M3899.83,2290.59c0,15.73-51.88,28.47-115.89,28.47s-115.88-12.74-115.88-28.47,51.89-28.47,115.88-28.47S3899.83,2274.86,3899.83,2290.59Z"></path><path fill="#7a95c9" d="M3783.94,2261.2c-63,0-114.07,12-118.7,27.2h9.8c0-13.56,48.76-24.55,108.9-24.55s108.91,11,108.91,24.55h9.8C3898,2273.21,3847,2261.2,3783.94,2261.2Z"></path><path fill="#518e7b" d="M3721.29,2470.59c12.61-1,22.55-6.26,22.18-11.73l-.21-1.1-2.61-39.13-45.72,3.57,2.69,40.28C3698.18,2467.88,3708.78,2471.57,3721.29,2470.59Z"></path><path fill="#d8d7d6" d="M3741.49,2422l-47.6,3.56,1.37,16.66,47.6-3.56Z"></path><path fill="#fff" d="M3683.26,1984.71l-14.52,40.76,1.72,25.46,46,.31-2-29.35L3695,1984.51C3691.15,1984.56,3687.19,1984.84,3683.26,1984.71Z"></path><path fill="#664694" d="M3680.46,1992.56l18-1.41s-5.53-15.5-10.15-15.22S3680.46,1992.56,3680.46,1992.56Z"></path><polygon fill="#351852" points="3740.71 2422.39 3714.45 2021.89 3703.95 2036.38 3691.59 2023.68 3681.09 2038.17 3668.74 2025.47 3694.99 2425.96 3740.71 2422.39"></polygon><rect width="324.68" height="13.34" x="3602.43" y="2244.74" fill="#664694" transform="matrix(-.08 -1 1 -.08 1834.16 6190.33)"></rect><rect width="324.68" height="13.34" x="3615.73" y="2243.63" fill="#8e67c6" transform="matrix(-.08 -1 1 -.08 1849.67 6202.38)"></rect><rect width="324.68" height="13.34" x="3589.13" y="2245.85" fill="#8e67c6" transform="matrix(-.08 -1 1 -.08 1818.65 6178.28)"></rect><polygon fill="#fff" points="3758.32 2414.85 3782.3 2488.62 3798.22 2411.53 3758.32 2414.85"></polygon><g clip-path="url(#d)"><rect width="33.29" height="23.71" x="3764.01" y="2463.13" fill="#664694" transform="rotate(-94.77 3780.61 2474.993)"></rect></g><rect width="43.23" height="40.03" x="3727.86" y="2048.07" fill="#f3ce90" transform="rotate(-94.77 3749.435 2068.106)"></rect><rect width="40.03" height="9.63" x="3730.14" y="2071.4" fill="#a195db" transform="rotate(-4.77 3749.462 2075.81)"></rect><rect width="40.03" height="9.63" x="3728.78" y="2055.12" fill="#a195db" transform="rotate(-4.77 3748.096 2059.518)"></rect><path fill="#fff" d="M3767.25,2040.36l.38,4.52-39.9,3.33c-2.63-12.29,4.76-25.16,17.91-26.14A20,20,0,0,1,3767.25,2040.36Z"></path><rect width="324.68" height="13.34" x="3708.84" y="2252.94" fill="#873363" transform="rotate(-75.67 3871.363 2259.58)"></rect><rect width="324.68" height="13.34" x="3721.77" y="2256.24" fill="#873363" transform="rotate(-75.67 3884.298 2262.886)"></rect><rect width="324.68" height="13.34" x="3695.91" y="2249.63" fill="#873363" transform="rotate(-75.67 3858.435 2256.279)"></rect><polygon fill="#fff" points="3811.62 2411.95 3810.15 2489.5 3850.41 2421.85 3811.62 2411.95"></polygon><g clip-path="url(#e)"><rect width="33.29" height="23.71" x="3796.41" y="2464.22" fill="#664694" transform="rotate(-75.67 3813.255 2476.06)"></rect></g><rect width="43.23" height="40.03" x="3895.09" y="2061.35" fill="#d07f9d" transform="rotate(-75.67 3916.885 2081.339)"></rect><rect width="9.63" height="40.03" x="3909.87" y="2069.25" fill="#d07f9d" transform="rotate(-75.67 3914.868 2089.237)"></rect><rect width="9.63" height="40.03" x="3913.91" y="2053.43" fill="#d07f9d" transform="rotate(-75.67 3918.903 2073.411)"></rect><path fill="#fff" d="M3942.57,2061l-1.12,4.4-38.79-9.91C3906,2026.39,3948.39,2032.19,3942.57,2061Z"></path><polygon fill="#d996ac" points="3818.2 2486.13 3732.03 2471.28 3888.41 1854.01 3974.58 1868.86 3818.2 2486.13"></polygon><path fill="#fff" d="M3908.08,1911.27l-32.74-5.65,3.45-13.64,32.75,5.64Zm-4.44,17.53-32.75-5.64-3.45,13.64,32.75,5.65Zm-7.9,31.18-32.75-5.64-3.45,13.64,32.75,5.65Zm-7.9,31.18-32.74-5.64-3.46,13.64,32.75,5.65Zm-7.89,31.18-32.75-5.64-3.46,13.64,32.75,5.65Zm-7.9,31.18-32.75-5.64-3.46,13.64,32.75,5.65Zm-7.9,31.18-32.75-5.64-3.46,13.64,32.75,5.65Zm-7.9,31.18-32.75-5.64-3.46,13.64,32.75,5.65Zm-8.57,33.82-32.75-5.64-3.46,13.65,32.75,5.64Zm-7.9,31.18-32.75-5.64-3.45,13.65,32.74,5.64Zm-7.9,31.18-32.75-5.64-3.45,13.64,32.74,5.65Zm-7.9,31.18-32.75-5.64-3.45,13.64,32.75,5.65Zm-7.9,31.18-32.74-5.64-3.46,13.64,32.75,5.65Zm-7.9,31.18-32.74-5.64L3772,2313.6l32.75,5.65Zm-7.89,31.18-32.75-5.64-3.46,13.64,32.75,5.65Zm-7.9,31.18-32.75-5.64-3.46,13.64,32.75,5.65Z"></path><polygon fill="#fff" points="3804.44 2483.76 3818.2 2486.13 3965.87 1903.24 3952.11 1900.87 3804.44 2483.76"></polygon><path fill="#fff" d="M3812.78,2095.45c-11.74-.14-21.37,3.9-21.49,9l.1,1-.85,36.4,42.56.51.88-37.46C3833.92,2099.89,3824.42,2095.59,3812.78,2095.45Z"></path><path fill="#d8d7d6" d="M3790.12,2138.65l44.3.68v-15.51l-44.3-.68Z"></path><path fill="#fff" d="M3807.38,2547.84l16.83-36.47.53-23.68-42.49-4.13-.61,27.3,14.91,36.19C3800.07,2547.31,3803.76,2547.39,3807.38,2547.84Z"></path><path fill="#664694" d="M3810.62,2540.82l-16.72-.2s3.82,14.79,8.11,14.92S3810.62,2540.82,3810.62,2540.82Z"></path><polygon fill="#664694" points="3790.8 2138.39 3781.64 2510.86 3792.56 2498.34 3802.93 2511.11 3813.85 2498.59 3824.21 2511.37 3833.36 2138.9 3790.8 2138.39"></polygon><path fill="#7b83bb" d="M3783.94,2320c-66.05,0-119.6-13.15-119.6-29.38v284.66c0,16.22,53.55,29.38,119.6,29.38s119.61-13.16,119.61-29.38V2290.59C3903.55,2306.82,3850,2320,3783.94,2320Z"></path><path fill="#7a95c9" d="M3892.85,2288.4c0,13.57-48.76,24.56-108.91,24.56S3675,2302,3675,2288.4h-9.8c-.23.74-.9,1.44-.9,2.19,0,16.23,53.55,29.38,119.6,29.38s119.61-13.15,119.61-29.38c0-.75-.67-1.45-.9-2.19Z"></path></svg>